<?xml version="1.0" encoding="utf-8"?>
<!-- Generator: Adobe Illustrator 18.1.1, SVG Export Plug-In . SVG Version: 6.00 Build 0)  -->
<svg version="1.1" id="Layer_1" xmlns="http://www.w3.org/2000/svg" xmlns:xlink="http://www.w3.org/1999/xlink" x="0px" y="0px"
	 viewBox="0 0 250.2 104.6" enable-background="new 0 0 250.2 104.6" xml:space="preserve">
<ellipse fill="#FFFFFF" cx="45.6" cy="30.8" rx="20.2" ry="12.3"/>
<g>
	<path fill="#E6007F" d="M196.3,82.8c-1.7-0.1-2.9-0.4-3.3-2.3c-0.2-0.8-0.3-1.2-0.3-5V59.4h3.9c0.7,0,2.4-0.3,2.4-2.5
		c0-2.3-1.6-2.5-2.4-2.5h-3.9l-0.1-6.3V33.5c0-3,0.1-5.7,2.4-8.1c1.5-1.5,3.8-2.7,6.5-2.7c1,0,3.9,0.1,5.4,2.8
		c0.8,1.5,0.9,3.2,0.9,7.1v15.8c0,0.8,0.3,2.9,2.9,2.9c1.6,0,2.4-0.9,2.6-1.5c0.2-0.4,0.3-0.9,0.3-1.4V30.8c0-3.1,0-6.7-2-9.6
		c-0.5-0.7-2.8-3.8-8.9-3.8c-3.7,0-7.8,1.3-10.1,4.4V8.7c0-0.8-0.3-2.9-3-2.9s-2.9,2.1-2.9,2.9v38.4l0,0l0,0v1.3c0,0,0,0.1,0,0.1
		v5.9h-3.3c-0.7,0-2.4,0.2-2.4,2.5c0,2.2,1.7,2.5,2.4,2.5h3.3V78c0,4.9,0,9.7,8.8,9.7c1.7,0,3.7-0.3,3.7-2.5
		C199.4,83,197.9,82.9,196.3,82.8z"/>
	<path fill="#E6007F" d="M76.6,53.9c-6.6,0-9.5,3.7-10.3,4.8V45.1c0-0.9-0.2-1.9-1.4-2.5c-0.4-0.2-0.9-0.3-1.5-0.3
		c-1.5,0-2.3,0.9-2.5,1.4c-0.2,0.4-0.3,0.9-0.3,1.5v39.8c0,0.9,0.2,1.9,1.4,2.5c0.4,0.3,0.9,0.3,1.5,0.3c1.4,0,2.1-0.8,2.5-1.3
		c0.3-0.6,0.3-1.1,0.3-2.6c1.9,1.9,4.5,4.2,9.9,4.2c8.4,0,14.1-6.4,14.1-17C90.4,64.3,87.9,53.9,76.6,53.9z M79.3,82.5
		c-1.2,0.6-2.5,0.8-3.9,0.8c-7.6,0-9.2-7.5-9.2-12.5c0-4.4,1.2-9,5-11.1c1.3-0.7,2.9-1,4.4-1c8.6,0,8.7,9.7,8.7,12.3
		C84.3,78.1,82.2,81,79.3,82.5z"/>
	<path fill="#E6007F" d="M176.2,54.1c-2.7,0-2.9,2.1-2.9,2.9v13.9c0,2.4,0.1,3.7-0.3,5.3c-0.9,4.2-4.4,6.7-8.6,6.7
		c-0.8,0-3.7,0-5.2-2.7c-0.8-1.5-1-3.3-1-7.6V57c0-0.8-0.3-2.9-3-2.9c-2.7,0-2.9,2.1-2.9,2.9v17.6c0,3,0,7,2.7,10.1
		c2.9,3.1,6.9,3.2,8.4,3.2c4.6,0,7.3-1.2,10.1-4.8c0,2.5,0,3.6,1.3,4.2c0.9,0.4,2.1,0.4,2.9,0c1.2-0.6,1.3-1.6,1.4-2.5V57
		C179.2,56.2,178.9,54.1,176.2,54.1z"/>
	<path fill="#E6007F" d="M122.3,69.6c0-3.6-1.1-7.7-3.2-10.6c-2-2.7-4.4-4.1-7.3-4.8c-1.3-0.3-2.7-0.4-4.1-0.4
		c-11.2,0-15.5,9.3-15.5,17.3c0,4.6,1.3,9.1,4.2,12.3c3.2,3.6,7.4,4.4,11.5,4.4c1.8,0,7.5,0,11.8-4.9c0.7-0.8,1.8-2.1,2-3.3
		c0.1-0.2,0.1-0.4,0.1-0.6c0-1.9-1.9-2.7-3.3-2.7s-1.7,0.6-2.7,2.4c-1.1,1.8-2.9,4.4-7.9,4.4c-2.5,0-5.1-0.4-7.3-3.1
		c-1.7-2.1-2.4-4.6-2.5-7.5h21.3C120.2,72.5,122.3,72.3,122.3,69.6z M98.2,67.8c0.3-1.5,0.9-4.5,3.4-6.7c2.2-2,4.8-2.1,6.1-2.1
		c6,0,8.3,4.6,8.6,8.8L98.2,67.8L98.2,67.8z"/>
	<path fill="#E6007F" d="M137.8,53.9c-4.4,0-8.8,1.1-11.3,5c-0.5,0.8-1.3,2.4-1.3,3.7c0,1.1,0.6,2.5,3,2.5c2.1,0,2.5-1.1,2.7-2
		c0.6-1.7,1.5-4.4,7-4.4c1.1,0,6.6,0,6.6,5.4c0,1.6-0.4,2.1-1.8,2.5c-0.6,0.2-1.7,0.4-3.8,0.9l-5.4,1.1c-3.4,0.7-9.6,1.9-9.6,9.4
		c0,6,4.1,10.1,10.6,10.1c2.8,0,7.1-0.7,10.2-4.7c0,2.3,0.1,2.5,0.3,3.1c0.4,0.9,1.3,1.3,2.4,1.4c2.4,0,2.5-1.9,2.5-2.5v-19
		c0-3.1,0-6.3-2.1-8.9C145.3,54.6,141.4,53.9,137.8,53.9z M142.6,79.9c-0.9,1.3-3.3,3.3-7,3.3c-3.2,0-5.9-1.8-5.9-5.3
		c0-3.6,2.9-4.5,3.8-4.8c0.9-0.3,2.1-0.6,3.2-0.8l3.3-0.8c2.7-0.6,3.1-0.7,4.3-1.2C144.3,74.6,144.2,77.6,142.6,79.9z"/>
	<path fill="#E6007F" d="M225.7,54.1c-1.9,0-2.4,1.1-2.6,1.9l-4.9,15.3c-0.2,0.6-1.1,3.6-1.2,4.1c-0.6,2-1,3.6-1.3,4.9
		c-0.3-1.3-0.6-2.5-1.5-4.8l-7-19.5c-0.3-0.8-0.8-1.9-2.7-1.9c-1.9,0-3.3,1.1-3.3,2.7c0,0.4,0.1,0.8,0.3,1.3l11.5,29.2
		c-0.8,2.4-1.2,3.6-2.1,4.6c-0.9,1-2.4,1.7-3.8,1.7c-0.5,0-2.5-0.3-2.9-0.3c-0.3,0-0.7,0.1-1.1,0.3c-0.6,0.3-0.8,1.3-0.8,2
		c0,2.7,1.7,3.2,4.9,3.2c7.3,0,8.8-4.7,10.9-10.6l10.6-30.1c0.1-0.4,0.1-0.7,0.1-1.1C228.8,55.3,227.5,54.1,225.7,54.1z"/>
	<path fill="#E6007F" d="M94.7,49.9c0.2-0.4,0.3-0.9,0.3-1.4V30.8c0-3.1,0-6.7-2-9.6c-0.5-0.7-2.9-3.8-8.9-3.8
		c-3.7,0-7.8,1.3-10.1,4.4V8.7c0-0.8-0.3-2.9-3-2.9c-2.7,0-2.9,2.1-2.9,2.9v39.7c0,0.8,0.3,2.9,2.9,2.9c1.6,0,2.4-0.9,2.6-1.5
		c0.2-0.4,0.3-0.9,0.3-1.4v-15c0-3,0.1-5.7,2.4-8.1c1.5-1.5,3.8-2.7,6.5-2.7c1,0,3.9,0.1,5.4,2.8c0.8,1.5,0.9,3.2,0.9,7.1v15.8
		c0,0.8,0.3,2.9,2.9,2.9C93.7,51.3,94.5,50.4,94.7,49.9z"/>
	<path fill="#E6007F" d="M113,51.6c1.8,0,7.5,0,11.8-4.9c0.7-0.8,1.8-2.1,2-3.3c0.1-0.2,0.1-0.4,0.1-0.6c0-1.9-1.9-2.7-3.3-2.7
		c-1.4,0-1.7,0.6-2.7,2.4c-1.1,1.8-2.9,4.4-7.9,4.4c-2.5,0-5.1-0.4-7.3-3.1c-1.7-2.1-2.4-4.6-2.5-7.5h21.3c0.8,0,2.9-0.2,2.9-2.9
		c0-3.6-1.1-7.7-3.2-10.6c-2-2.7-4.4-4.1-7.3-4.8c-1.3-0.3-2.7-0.4-4.1-0.4c-11.2,0-15.5,9.3-15.5,17.3c0,4.6,1.3,9.1,4.2,12.3
		C104.7,50.7,108.9,51.6,113,51.6z M106.8,24.6c2.2-2,4.8-2.1,6.1-2.1c6,0,8.3,4.6,8.6,8.8h-18.1C103.6,29.9,104.2,26.8,106.8,24.6z
		"/>
	<path fill="#E6007F" d="M155,48.8v-19c0-3.1,0-6.3-2.1-8.9c-2.4-2.7-6.1-3.4-9.8-3.4c-4.4,0-8.8,1.1-11.3,5
		c-0.5,0.8-1.3,2.4-1.3,3.7c0,1.1,0.6,2.5,3,2.5c2.1,0,2.5-1.1,2.7-2c0.6-1.7,1.5-4.4,7-4.4c1.1,0,6.6,0,6.6,5.4
		c0,1.6-0.4,2.1-1.8,2.5c-0.6,0.2-1.7,0.4-3.8,0.9l-5.4,1.1c-3.4,0.7-9.6,1.9-9.6,9.4c0,6,4.1,10.1,10.6,10.1
		c2.8,0,7.1-0.7,10.2-4.7c0,2.3,0.1,2.5,0.3,3.1c0.4,0.9,1.3,1.3,2.4,1.4C154.8,51.3,154.9,49.5,155,48.8z M147.8,43.4
		c-0.9,1.3-3.3,3.3-7,3.3c-3.2,0-5.9-1.8-5.9-5.3c0-3.6,2.9-4.5,3.8-4.8c0.9-0.3,2.1-0.6,3.2-0.8l3.3-0.8c2.7-0.6,3.1-0.7,4.3-1.2
		C149.5,38.2,149.4,41.2,147.8,43.4z"/>
	<path fill="#E6007F" d="M161.1,51.3c2.7,0,2.9-2.1,2.9-2.9V8.6c0-0.8-0.3-2.8-2.9-2.8c-2.6,0-2.9,2-2.9,2.8v39.8
		C158.1,50.4,159.4,51.3,161.1,51.3z"/>
	<path fill="#E6007F" d="M184.6,48.8c0-2.2-1.6-2.4-3.1-2.4c-1.7-0.1-2.9-0.4-3.3-2.3c-0.2-0.8-0.3-1.2-0.3-5V23.1h4.2
		c0.7,0,2.4-0.3,2.4-2.5c0-2.3-1.6-2.5-2.4-2.5h-4.2V8.3c0-0.9-0.2-2.7-2.9-2.7c-2.6,0-2.9,1.9-2.9,2.7v9.8h-3.6
		c-0.7,0-2.4,0.2-2.4,2.5c0,2.2,1.7,2.5,2.4,2.5h3.5v18.6c0,4.9,0,9.7,8.8,9.7C182.5,51.3,184.6,51.1,184.6,48.8z"/>
	<path fill="#E6007F" d="M57.1,82.5c-1.6-0.1-2.7-0.1-5.6-2.8c3.1-3.9,5-8.6,5-10.5c0-2.1-1.8-2.8-3.2-2.8c-1.9,0-2.2,1.4-2.5,2.7
		c-1,3.9-2.1,5.5-2.8,6.5c-1.5-2-3.2-4-4.8-6c-1.5-2-3.2-4.1-4.6-6.1c4.3-3,8-5.4,8-10.3c0-4.1-3-8.6-9.6-8.6c-6,0-9.6,3.8-9.6,8.6
		c0,4,2.5,7.5,3.8,9.2C29,64,27.7,64.9,26.7,66c-3.3,3-4.2,6.5-4.2,9.3c0,5.3,3.8,12,13.6,12c5.6,0,9.1-2.1,11.5-3.9
		c1.4,1.6,3.6,4.1,8.2,4.1c2.2,0,3.6-0.8,3.6-2.6C59.3,83.4,58.5,82.6,57.1,82.5z M37.3,49.2c2.5,0,4.1,1.6,4.1,3.7
		c0,2.5-2.3,4.1-5.6,6.5c-0.4-0.7-0.9-1.5-1.5-2.5c-0.5-1.2-1.1-2.5-1.1-3.7C33.3,50.9,35.1,49.2,37.3,49.2z M36.7,82.2
		c-4.5,0-8.3-2.8-8.3-7.4c0-2.1,0.6-4.8,6-8.3c3.2,4.5,6.5,8.8,9.9,13.1C41.1,81.9,38.1,82.2,36.7,82.2z"/>
</g>
<g>
	<path fill="#283583" d="M45.6,17.9c-11.7,0-21.1,5.8-21.1,12.9s9.4,12.9,21.1,12.9S66.7,38,66.7,30.8S57.2,17.9,45.6,17.9z
		 M59.1,30.7c0,0-0.4,0.3-0.5,0.4c0,0-0.1,0-0.1,0c-0.4,0.8-0.6,1.7-1.5,2.3c-0.5,0.3-1,0.5-1.6,0.7l-13.4,4.1
		c-0.2,0.1-0.4,0.2-0.5,0.4c-0.4-0.4-0.4-1.2-0.1-1.8c0.3-0.7,1.1-1.2,1.8-1.5l4.9-1.2l7.6-1.8c0.5-0.1,0.9-0.3,1.3-0.6
		c0.2-0.1,0.3-0.3,0.4-0.5l0,0c-0.7,0-1.3-0.3-1.7-0.8c-0.8,0.8-1.7,1.9-2.9,1.8c-0.3-0.1-0.6-0.2-0.7-0.5c-0.3-0.4-0.1-0.9,0.1-1.3
		l1.6-3.6c-0.7-0.5-1.9-0.4-2.6,0c-0.1,0.1-0.2,0.1-0.4,0.3c0.6,0.7,0.7,1.7,0.5,2.5c-0.3,1.6-1.4,3.3-2.9,3.9
		c-0.4,0.1-0.9,0.1-1.2-0.3c-0.8-0.8-0.5-2.1-0.1-3c0.5-1.2,1.3-2.3,2.4-3.2c-1,0-1.8,0.4-2.5,1c0,1.4-0.6,2.6-1.2,3.7
		c-0.7,1.2-1.8,2.7-3.3,2.9c-0.4,0-0.8-0.1-1.1-0.5c-0.5-1.1-0.2-2.3,0.2-3.4c0.5-1.1,1.1-2,2-2.9c-0.4-0.2-0.9-0.1-1.2,0
		c-0.6,0.4-1.2,0.9-1.8,1.3c-0.3,0.2-0.7,0.3-1,0.5c0.2,0.3,0.3,0.7,0.5,1c0.8,1.8,0.5,4.1-0.8,5.6c-1.2,1.5-3,2.1-4.8,1.6
		c-0.5-0.1-0.9-0.3-1.3-0.6c-0.8,0.5-2,1.2-3.2,0.8c-0.4-0.1-0.9-0.5-0.9-0.9c0-0.4,0.1-0.8,0.4-1c0.3-0.2,0.6-0.3,0.9-0.1
		c0.3,0.1,0.5,0.3,0.6,0.6c0,0.2,0,0.5-0.2,0.7c-0.1,0.2-0.4,0.3-0.6,0.3c0.3,0.2,0.7,0.1,1.1,0c0.5-0.1,0.9-0.5,1.2-0.9
		c-0.5-0.7-0.8-1.6-0.5-2.4c0.2-0.7,0.9-1.3,1.6-1.3c0.3-0.1,0.7,0,1,0.2c0.1-0.3,0.3-0.6,0.4-0.9l1-2.3l0.1-0.3
		c-0.4-0.2-0.7-0.5-0.7-0.9c0-0.3,0.2-0.5,0.4-0.6c0.4-0.2,0.8-0.2,1.3-0.2c0.8-1.3,1.6-2.6,2.9-3.6l0.9-0.6
		c-0.4-0.4-0.9-0.4-1.5-0.4c-1.6,0.1-3.1,0.7-4.2,2c-0.5,0.6-0.9,1.3-0.8,2.1c0.1,0.4,0.5,0.5,0.8,0.6c-0.1,0.4-0.5,0.7-0.9,0.8
		c-0.6,0.1-1.1-0.2-1.5-0.7c-0.5-0.8,0-1.8,0.5-2.5c1.2-1.6,2.9-2.4,4.8-2.8c1.2-0.2,2.5-0.1,3.6,0.3c0.2-0.1,0.8-0.4,1.2-0.5
		c0,0,0.1,0,0.1,0.1c0,0.1,0,0.1,0,0.1c-0.3,0.2-0.6,0.4-0.8,0.6c0.8,0.6,1.2,1.5,1,2.5c-0.1,0.4-0.3,0.8-0.5,1.2
		c0.3-0.1,0.7-0.2,1.1,0c0.1,0,0.3,0.1,0.4,0.2c0.4-0.3,1.2-1,2.1-0.8c0.4,0.1,0.6,0.4,0.7,0.8c1-0.7,2.3-1.2,3.5-0.7
		c0.9-0.6,2.3-1,3.4-0.5l0.2,0.1c0.3-0.5,0.5-1,0.8-1.5l-6,0.7L43.7,26c0.1-0.8,0-1.7-0.6-2.4l-0.3-0.3h12.9l0.3-0.7l1-0.1l-0.3,0.8
		h3.5l-0.4,0.8l-3.5,0.4l-2.4,5.8c-0.1,0.2-0.2,0.5-0.1,0.8c0.1,0.1,0.2,0.1,0.3,0.1c0.4-0.1,0.8-0.5,1.2-0.8l0.5-0.5
		c-0.3-0.6-0.2-1.5,0.3-2c0.4-0.5,1-0.6,1.6-0.5l1.6-2c0.1-0.2,0.2-0.5,0.5-0.6c0.1,0,0.2,0,0.3,0.1c0.1,0.2,0,0.4-0.1,0.5
		c-0.1,0.1-0.2,0.2-0.3,0.3c0,1.1,0.8,1.9,0.8,3C60.1,29.4,59.8,30.2,59.1,30.7z"/>
	<path fill="#283583" d="M58,27.5c0.7,0.5,1,1.2,1,1.9c0.1-0.2,0.1-0.3,0.2-0.5c0.3-0.9,0-1.9-0.2-2.8L58,27.5z"/>
	<path fill="#283583" d="M57.6,28c-0.5,0.7-1,1.3-1.5,1.9c0.2,0.3,0.5,0.5,0.8,0.5c0.4,0.1,0.9,0,1.2-0.3c0.1-0.2,0.1-0.4,0.2-0.5
		C58.5,29,58.2,28.4,57.6,28z"/>
	<path fill="#283583" d="M56.2,28.1c-0.3,0.3-0.4,0.8-0.3,1.2c0.4-0.5,0.7-0.9,1.1-1.4C56.8,27.9,56.4,27.9,56.2,28.1z"/>
	<path fill="#283583" d="M45.9,27.4c-0.2-0.1-0.4,0.1-0.5,0.2c-1.2,1.2-2.2,2.7-2.8,4.1c-0.2,0.4-0.5,1.2-0.3,1.7
		c0.1,0.1,0.2,0.2,0.3,0.2c0.4,0,0.8-0.4,1.1-0.7c0.8-1,1.5-2.1,2-3.3c0.2-0.5,0.4-1.1,0.5-1.7C46.1,27.8,46.2,27.5,45.9,27.4z"/>
	<path fill="#283583" d="M41,24.5c-1.1,1.2-1.8,2.5-2.5,3.8c0.3,0.2,0.5,0.3,0.7,0.5l0.7-0.4c1-0.6,1.7-1.6,1.9-2.8
		c0-0.5,0-1.1-0.3-1.5L41,24.5z"/>
	<path fill="#283583" d="M37.8,29.9c-0.7,1.5-1.3,3-2.2,4.4c-0.5,0.8-1.3,1.8-1.7,2.3c1.1,0.3,2.2,0.1,3.1-0.5
		c1.1-0.8,1.8-2,2.1-3.3c0.2-0.9,0.2-2.1-0.3-2.9C38.5,29.8,38.1,29.9,37.8,29.9z"/>
	<polygon fill="#283583" points="38.1,28.9 38,29.2 38.5,29.1 	"/>
	<path fill="#283583" d="M36.7,28.4c0,0-0.1,0-0.3-0.1c-0.2,0-0.4,0-0.5,0.1c-0.1,0.1,0,0.2,0,0.3c0.1,0.2,0.3,0.2,0.4,0.3
		L36.7,28.4z"/>
	<path fill="#283583" d="M32.6,34.7c-0.1,0.5,0.1,0.9,0.4,1.3l0-0.1c0.3-0.3,0.5-0.7,0.7-1c-0.4-0.3-0.5-0.7-0.5-1.2
		C32.8,34,32.7,34.3,32.6,34.7z"/>
	<path fill="#283583" d="M49.5,28.3c-0.8,1.1-1.5,2.2-1.8,3.4c0,0.3-0.1,0.7,0.1,1c0.1,0.1,0.4,0.1,0.5,0c0.4-0.2,0.8-0.7,1.1-1.2
		c0.4-0.7,0.8-1.4,0.9-2.2c0.2-0.9,0.2-1.6-0.1-1.9C50.2,27.4,49.5,28.3,49.5,28.3z"/>
</g>
</svg>
