<?xml version="1.0" encoding="UTF-8"?>
<svg xmlns="http://www.w3.org/2000/svg" xmlns:xlink="http://www.w3.org/1999/xlink" version="1.2" >
<font id="Archer Medium">
<font-face  font-family="Archer" units-per-em="1000" ascent="800" descent="-200" font-style="normal" font-weight="350" font-stretch="normal" cap-height="658" x-height="426" underline-position="-75" underline-thickness="50" />
<missing-glyph  horiz-adv-x="500" d="M0 -200 L500 -200 L500 800 L0 800 L0 -200 Z M71 750 L429 750 L250 360 L71 750 Z M50 -76 L50 676 L222 300 L50 -76 Z M450 676 L450 -76 L278 300 L450 676 Z M250 240 L429 -150 L71 -150 L250 240 Z " />
<glyph glyph-name="NULL" d="" />
<glyph glyph-name="CR" unicode="&#xd;" horiz-adv-x="250" d="" />
<glyph glyph-name="space" unicode="&#x20;" horiz-adv-x="227" d="" />
<glyph glyph-name="exclam" unicode="&#x21;" horiz-adv-x="255" d="M108 182 L146 182 L172 657 L82 657 L108 182 Z M127 -8 C159 -8 185 18 185 50 C185 82 159 109 127 109 C95 109 70 82 70 50 C70 18 95 -8 127 -8 L127 -8 Z " />
<glyph glyph-name="quotedbl" unicode="&#x22;" horiz-adv-x="338" d="M239 420 L267 420 L301 599 C310 643 287 670 253 670 C220 670 197 642 206 599 L239 420 Z M69 420 L97 420 L131 599 C139 643 117 670 83 670 C50 670 27 642 36 599 L69 420 Z " />
<glyph glyph-name="numbersign" unicode="&#x23;" horiz-adv-x="519" d="M50 326 L143 326 L121 187 L19 187 L19 128 L112 128 L93 0 L155 0 L175 128 L302 128 L283 0 L346 0 L366 128 L468 128 L468 187 L375 187 L396 326 L499 326 L499 385 L405 385 L425 508 L362 508 L342 385 L215 385 L234 508 L171 508 L152 385 L50 385 L50 326 Z M204 328 L335 328 L313 186 L182 186 L204 328 Z " />
<glyph glyph-name="dollar" unicode="&#x24;" horiz-adv-x="465" d="M290 574 L235 578 L229 507 C132 503 61 450 61 373 C61 289 134 259 209 236 L195 58 C161 62 134 72 123 82 C127 92 130 102 130 111 C130 136 112 155 83 155 C57 155 38 134 38 107 C38 46 112 13 186 3 L178 -101 L233 -106 L241 0 C336 2 421 45 421 142 C421 231 343 264 264 289 L276 451 C301 448 323 441 332 436 C328 428 326 418 326 410 C326 383 346 364 373 364 C398 364 416 383 416 412 C416 462 355 496 284 505 L290 574 Z M353 139 C353 83 303 57 243 55 L257 222 C314 204 353 182 353 139 L353 139 Z M129 377 C129 424 171 450 227 453 L216 303 C165 320 129 339 129 377 L129 377 Z " />
<glyph glyph-name="percent" unicode="&#x25;" horiz-adv-x="646" d="M171 274 C238 274 292 328 292 395 C292 463 238 517 171 517 C103 517 50 463 50 395 C50 328 103 274 171 274 L171 274 Z M475 235 C408 235 355 181 355 114 C355 47 408 -8 475 -8 C543 -8 596 47 596 114 C596 181 543 235 475 235 L475 235 Z M130 -22 C149 0 258 138 336 233 C414 328 526 464 547 487 L510 517 L304 261 C225 165 115 30 94 9 L130 -22 Z M171 323 C133 323 105 355 105 395 C105 435 133 467 171 467 C209 467 237 435 237 395 C237 355 209 323 171 323 L171 323 Z M475 185 C514 185 541 153 541 113 C541 73 514 41 475 41 C437 41 410 73 410 113 C410 153 437 185 475 185 L475 185 Z " />
<glyph glyph-name="ampersand" unicode="&#x26;" horiz-adv-x="619" d="M595 267 L595 326 L420 326 L420 267 L477 267 C465 233 449 199 429 169 C386 210 323 270 323 270 C299 292 279 311 263 328 C365 389 403 437 403 500 C403 577 340 630 258 630 C155 630 100 550 100 481 C100 437 109 402 166 337 C80 288 29 233 29 153 C29 68 95 -9 227 -9 C308 -9 379 21 434 80 C473 44 528 -5 537 -13 L580 34 C571 41 514 91 474 129 C499 167 518 213 536 267 L595 267 Z M227 53 C143 53 102 105 102 155 C102 213 133 254 204 297 C224 276 249 252 279 225 C279 225 345 164 389 122 C347 80 294 53 227 53 L227 53 Z M171 479 C171 531 206 572 258 572 C301 572 332 541 332 500 C332 454 310 420 224 367 C178 421 171 450 171 479 L171 479 Z " />
<glyph glyph-name="quotesingle" unicode="&#x27;" horiz-adv-x="168" d="M69 420 L97 420 L131 599 C139 643 117 670 83 670 C50 670 27 642 36 599 L69 420 Z " />
<glyph glyph-name="parenleft" unicode="&#x28;" horiz-adv-x="364" d="M350 -226 L386 -174 C242 -85 142 72 142 260 C142 450 242 606 386 695 L350 747 C191 655 69 474 69 260 C69 46 191 -135 350 -226 L350 -226 Z " />
<glyph glyph-name="parenright" unicode="&#x29;" horiz-adv-x="364" d="M14 -226 C173 -135 295 46 295 260 C295 474 173 655 14 747 L-22 695 C122 606 222 449 222 260 C222 71 122 -85 -22 -174 L14 -226 Z " />
<glyph glyph-name="asterisk" unicode="&#x2a;" horiz-adv-x="405" d="M324 533 C357 536 374 559 366 584 C358 608 329 614 302 598 L213 546 L236 647 C244 678 229 703 202 703 C176 703 161 678 168 647 L192 546 L103 598 C76 614 47 608 39 584 C31 559 48 536 81 533 L185 524 L108 456 C82 435 81 406 102 391 C125 374 150 386 163 416 L202 511 L242 416 C254 386 280 374 303 391 C324 406 322 435 297 456 L220 524 L324 533 Z " />
<glyph glyph-name="plus" unicode="&#x2b;" horiz-adv-x="416" d="M176 104 L239 104 L239 240 L374 240 L374 301 L239 301 L239 437 L176 437 L176 301 L42 301 L42 240 L176 240 L176 104 Z " />
<glyph glyph-name="comma" unicode="&#x2c;" horiz-adv-x="206" d="M20 -151 C128 -93 165 -16 165 39 C165 90 135 117 100 117 C68 117 40 91 40 59 C40 29 64 4 92 -1 C90 -28 67 -74 1 -124 L20 -151 Z " />
<glyph glyph-name="hyphen" unicode="&#x2d;" horiz-adv-x="305" d="M35 243 L270 243 L270 313 L35 313 L35 243 Z " />
<glyph glyph-name="period" unicode="&#x2e;" horiz-adv-x="206" d="M103 -8 C138 -8 164 20 164 55 C164 90 138 118 103 118 C68 118 42 90 42 55 C42 20 68 -8 103 -8 L103 -8 Z " />
<glyph glyph-name="slash" unicode="&#x2f;" horiz-adv-x="465" d="M39 -209 L449 715 L388 742 L-22 -182 L39 -209 Z " />
<glyph glyph-name="zero" unicode="0" horiz-adv-x="554" d="M277 -8 C412 -8 508 104 508 254 C508 404 411 516 277 516 C142 516 47 405 47 254 C47 105 143 -8 277 -8 L277 -8 Z M277 53 C183 53 119 137 119 254 C119 371 183 455 277 455 C372 455 435 371 435 254 C435 137 372 53 277 53 L277 53 Z " />
<glyph glyph-name="one" unicode="1" horiz-adv-x="409" d="M63 0 L371 0 L371 60 L253 60 L253 510 L222 510 L60 467 L76 407 L183 434 L183 60 L63 60 L63 0 Z " />
<glyph glyph-name="two" unicode="2" horiz-adv-x="495" d="M235 455 C308 455 353 419 353 369 C353 314 302 280 237 238 C155 186 76 129 37 35 L46 0 L440 0 L440 145 L378 145 L378 59 L125 59 C156 113 210 151 272 189 C353 239 423 286 423 370 C423 445 360 516 239 516 C164 516 102 481 72 439 C60 421 53 402 53 384 C53 347 76 323 105 323 C132 323 153 345 153 372 C153 388 142 403 128 410 L131 415 C149 437 189 455 235 455 L235 455 Z " />
<glyph glyph-name="three" unicode="3" horiz-adv-x="492" d="M35 8 C35 -12 42 -31 54 -48 C85 -94 154 -126 234 -126 C354 -126 447 -56 447 52 C447 115 408 164 354 191 C335 200 313 207 292 211 C315 214 337 222 357 233 C405 260 440 307 440 358 C440 445 361 516 246 516 C163 516 104 482 76 441 C63 422 57 404 57 386 C57 350 82 326 110 326 C134 326 158 345 158 372 C158 387 146 405 131 412 L134 416 C152 438 187 454 242 454 C317 454 370 420 370 357 C370 319 346 288 309 266 C277 248 236 238 194 238 L169 238 L169 179 L191 179 C235 179 274 171 304 157 C351 136 377 99 377 52 C377 -14 319 -64 235 -64 C184 -64 138 -50 114 -25 L110 -19 C127 -11 135 6 135 22 C135 46 116 68 89 68 C59 68 35 41 35 8 L35 8 Z " />
<glyph glyph-name="four" unicode="4" horiz-adv-x="514" d="M317 -120 L384 -120 L384 58 L496 58 L496 117 L384 117 L384 286 L317 259 L317 117 L121 117 L391 480 L339 519 L17 88 L30 58 L317 58 L317 -120 Z " />
<glyph glyph-name="five" unicode="5" horiz-adv-x="485" d="M42 -14 C42 -36 52 -58 71 -76 C103 -105 158 -124 229 -124 C349 -124 443 -41 443 76 C443 194 354 270 234 270 C196 270 160 264 132 255 L153 442 L409 442 L409 508 L99 508 L62 199 L93 181 C130 198 176 210 227 210 C317 210 371 154 371 76 C371 -4 312 -63 225 -63 C180 -63 147 -55 126 -39 C125 -39 125 -38 125 -38 C135 -30 142 -15 142 -2 C142 25 121 44 94 44 C64 44 42 17 42 -14 L42 -14 Z " />
<glyph glyph-name="six" unicode="6" horiz-adv-x="532" d="M298 579 C330 579 354 571 370 557 C362 550 357 540 357 526 C357 499 376 477 406 477 C432 477 459 499 459 536 C459 558 449 577 433 593 C404 623 354 640 304 640 C181 640 52 532 52 268 C52 174 73 99 120 51 C159 12 211 -9 273 -9 C398 -9 487 83 487 198 C487 303 401 389 281 389 C209 389 147 351 120 303 C125 482 209 579 298 579 L298 579 Z M273 52 C229 52 193 68 168 92 C142 118 128 152 128 188 C128 262 189 329 278 329 C362 329 416 272 416 198 C416 114 360 52 273 52 L273 52 Z " />
<glyph glyph-name="seven" unicode="7" horiz-adv-x="470" d="M156 -122 L438 478 L424 508 L31 508 L31 350 L95 350 L95 450 L350 450 L95 -93 L156 -122 Z " />
<glyph glyph-name="eight" unicode="8" horiz-adv-x="504" d="M251 -8 C374 -8 460 69 460 169 C460 241 407 300 340 325 C404 353 446 410 446 467 C446 568 361 639 251 639 C143 639 57 568 57 467 C57 415 97 353 162 325 C95 300 44 241 44 169 C44 69 129 -8 251 -8 L251 -8 Z M251 352 C184 352 129 402 129 464 C129 529 181 578 251 578 C322 578 375 529 375 464 C375 402 319 352 251 352 L251 352 Z M251 53 C175 53 117 105 117 173 C117 243 175 295 251 295 C328 295 386 243 386 173 C386 105 329 53 251 53 L251 53 Z " />
<glyph glyph-name="nine" unicode="9" horiz-adv-x="532" d="M221 -124 C345 -124 479 -25 479 239 C479 334 457 410 410 458 C372 496 319 516 258 516 C133 516 44 425 44 309 C44 204 130 120 250 120 C321 120 384 155 411 202 C405 31 323 -62 228 -62 C196 -62 172 -54 156 -40 C164 -33 169 -23 169 -9 C169 17 150 40 119 40 C93 40 67 18 67 -19 C67 -40 75 -58 90 -74 C119 -106 171 -124 221 -124 L221 -124 Z M363 416 C389 390 403 356 403 320 C403 245 342 181 253 181 C169 181 116 236 116 309 C116 393 172 455 258 455 C302 455 338 440 363 416 L363 416 Z " />
<glyph glyph-name="colon" unicode="&#x3a;" horiz-adv-x="225" d="M113 258 C147 258 174 286 174 320 C174 354 147 382 113 382 C79 382 52 354 52 320 C52 286 79 258 113 258 L113 258 Z M113 -8 C147 -8 174 20 174 54 C174 88 147 116 113 116 C79 116 52 88 52 54 C52 20 79 -8 113 -8 L113 -8 Z " />
<glyph glyph-name="semicolon" unicode="&#x3b;" horiz-adv-x="225" d="M113 258 C147 258 174 286 174 320 C174 354 147 382 113 382 C79 382 52 354 52 320 C52 286 79 258 113 258 L113 258 Z M31 -149 C138 -92 175 -15 175 39 C175 89 145 115 110 115 C78 115 51 89 51 58 C51 29 74 4 102 -1 C101 -28 78 -73 12 -122 L31 -149 Z " />
<glyph glyph-name="less" unicode="&#x3c;" horiz-adv-x="389" d="M292 79 L325 127 L121 265 L325 404 L292 452 L41 282 L41 249 L292 79 Z " />
<glyph glyph-name="equal" unicode="&#x3d;" horiz-adv-x="416" d="M42 314 L374 314 L374 375 L42 375 L42 314 Z M42 153 L374 153 L374 214 L42 214 L42 153 Z " />
<glyph glyph-name="greater" unicode="&#x3e;" horiz-adv-x="389" d="M98 79 L349 249 L349 282 L98 452 L64 404 L268 265 L64 127 L98 79 Z " />
<glyph glyph-name="question" unicode="&#x3f;" horiz-adv-x="446" d="M21 528 C21 489 50 463 80 463 C108 463 127 485 127 512 C127 530 115 549 96 554 C97 557 99 560 101 563 C122 591 161 606 210 606 C293 606 343 560 343 491 C343 421 284 366 165 343 L181 182 L223 182 L233 299 C350 326 417 404 417 493 C417 593 338 670 211 670 C140 670 78 640 46 598 C30 577 21 553 21 528 L21 528 Z M203 -8 C235 -8 260 18 260 50 C260 82 235 109 203 109 C171 109 146 82 146 50 C146 18 171 -8 203 -8 L203 -8 Z " />
<glyph glyph-name="at" unicode="&#x40;" horiz-adv-x="805" d="M337 -176 C401 -176 463 -160 517 -130 L498 -94 C449 -120 395 -134 338 -134 C189 -134 91 -18 91 128 C91 371 263 566 472 566 C624 566 717 460 717 321 C717 197 655 84 579 84 C542 84 529 112 543 163 L599 387 L535 387 L513 309 C501 354 465 391 405 391 C307 391 222 291 222 175 C222 89 275 36 345 36 C399 36 448 69 477 120 C475 76 505 36 569 36 C678 36 763 163 763 321 C763 491 650 608 472 608 C241 608 45 396 45 129 C45 -46 162 -176 337 -176 L337 -176 Z M370 95 C320 95 294 130 294 181 C294 259 346 330 414 330 C466 330 497 299 497 245 C497 170 441 95 370 95 L370 95 Z " />
<glyph glyph-name="A" unicode="A" horiz-adv-x="706" d="M18 0 L238 0 L238 65 L158 65 L217 227 L486 227 L545 65 L468 65 L468 0 L688 0 L688 66 L625 66 L428 593 L503 593 L503 658 L203 658 L203 593 L278 593 L81 66 L18 66 L18 0 Z M239 290 L352 597 L464 290 L239 290 Z " />
<glyph glyph-name="B" unicode="B" horiz-adv-x="605" d="M47 0 L323 0 C468 0 551 76 551 180 C551 265 500 314 412 337 C483 359 532 412 532 491 C532 579 467 658 311 658 L47 658 L47 592 L131 592 L131 66 L47 66 L47 0 Z M205 65 L205 305 L304 305 C412 305 477 263 477 184 C477 114 422 65 325 65 L205 65 Z M205 366 L205 593 L309 593 C406 593 458 552 458 484 C458 414 406 366 302 366 L205 366 Z " />
<glyph glyph-name="C" unicode="C" horiz-adv-x="702" d="M393 -12 C484 -12 575 22 641 88 L597 141 C538 86 472 56 393 56 C238 56 132 186 132 327 C132 475 239 602 389 602 C473 602 530 565 548 536 C535 531 523 515 523 496 C523 466 547 443 578 443 C611 443 636 471 636 508 C636 587 528 670 390 670 C212 670 56 529 56 326 C56 145 190 -12 393 -12 L393 -12 Z " />
<glyph glyph-name="D" unicode="D" horiz-adv-x="728" d="M47 0 L291 0 C533 0 672 137 672 336 C672 531 523 658 294 658 L47 658 L47 592 L131 592 L131 66 L47 66 L47 0 Z M206 66 L206 592 L292 592 C478 592 596 495 596 337 C596 176 497 66 300 66 L206 66 Z " />
<glyph glyph-name="E" unicode="E" horiz-adv-x="588" d="M47 0 L526 0 L526 161 L454 161 L454 65 L206 65 L206 303 L421 303 L421 367 L206 367 L206 593 L454 593 L454 497 L525 497 L525 658 L47 658 L47 592 L131 592 L131 66 L47 66 L47 0 Z " />
<glyph glyph-name="F" unicode="F" horiz-adv-x="567" d="M47 0 L297 0 L297 66 L206 66 L206 291 L417 291 L417 355 L206 355 L206 593 L446 593 L446 497 L518 497 L518 658 L47 658 L47 592 L131 592 L131 66 L47 66 L47 0 Z " />
<glyph glyph-name="G" unicode="G" horiz-adv-x="737" d="M376 -12 C459 -12 524 14 581 57 L581 0 L652 0 L652 320 L397 320 L397 257 L579 257 L579 117 C522 77 459 54 384 54 C248 54 132 162 132 324 C132 480 239 602 395 602 C469 602 526 574 551 547 C541 539 534 526 534 509 C534 479 557 456 588 456 C620 456 644 481 644 518 C644 588 545 670 397 670 C215 670 56 532 56 324 C56 114 210 -12 376 -12 L376 -12 Z " />
<glyph glyph-name="H" unicode="H" horiz-adv-x="776" d="M47 0 L292 0 L292 66 L206 66 L206 304 L570 304 L570 66 L484 66 L484 0 L729 0 L729 66 L645 66 L645 592 L729 592 L729 658 L484 658 L484 592 L570 592 L570 370 L206 370 L206 592 L292 592 L292 658 L47 658 L47 592 L131 592 L131 66 L47 66 L47 0 Z " />
<glyph glyph-name="I" unicode="I" horiz-adv-x="348" d="M48 0 L300 0 L300 66 L211 66 L211 592 L300 592 L300 658 L48 658 L48 592 L137 592 L137 66 L48 66 L48 0 Z " />
<glyph glyph-name="J" unicode="J" horiz-adv-x="529" d="M216 -12 C275 -12 322 7 357 42 C396 81 415 146 415 223 L415 592 L494 592 L494 658 L240 658 L240 592 L341 592 L341 224 C341 162 330 117 303 91 C281 68 250 57 216 57 C148 57 110 99 107 129 C129 134 143 153 143 175 C143 205 118 226 92 226 C56 226 30 195 30 149 C30 59 114 -12 216 -12 L216 -12 Z " />
<glyph glyph-name="K" unicode="K" horiz-adv-x="675" d="M47 0 L292 0 L292 66 L206 66 L206 222 L314 330 L531 0 L662 0 L662 66 L579 66 L369 379 L583 592 L657 592 L657 658 L403 658 L403 593 L491 593 L206 306 L206 593 L292 593 L292 658 L47 658 L47 592 L131 592 L131 66 L47 66 L47 0 Z " />
<glyph glyph-name="L" unicode="L" horiz-adv-x="554" d="M47 0 L505 0 L505 166 L434 166 L434 65 L206 65 L206 592 L297 592 L297 658 L47 658 L47 592 L131 592 L131 66 L47 66 L47 0 Z " />
<glyph glyph-name="M" unicode="M" horiz-adv-x="882" d="M42 0 L283 0 L283 66 L200 66 L216 526 L428 93 L448 93 L660 526 L677 66 L593 66 L593 0 L835 0 L835 66 L750 66 L726 592 L814 592 L814 658 L655 658 L439 211 L224 658 L64 658 L64 592 L152 592 L128 66 L42 66 L42 0 Z " />
<glyph glyph-name="N" unicode="N" horiz-adv-x="764" d="M606 -3 L647 -2 L647 592 L728 592 L728 658 L489 658 L489 592 L576 592 L576 157 L196 658 L47 658 L47 592 L131 592 L131 66 L47 66 L47 0 L289 0 L289 66 L203 66 L203 528 L606 -3 Z " />
<glyph glyph-name="O" unicode="O" horiz-adv-x="777" d="M387 -12 C580 -12 722 137 722 330 C722 520 582 670 391 670 C197 670 56 521 56 328 C56 138 195 -12 387 -12 L387 -12 Z M389 56 C238 56 132 175 132 330 C132 484 238 602 389 602 C539 602 645 483 645 328 C645 174 539 56 389 56 L389 56 Z " />
<glyph glyph-name="P" unicode="P" horiz-adv-x="581" d="M47 0 L295 0 L295 66 L206 66 L206 239 C225 238 263 237 299 237 C445 237 543 316 543 451 C543 578 438 658 300 658 L47 658 L47 592 L131 592 L131 66 L47 66 L47 0 Z M303 302 C261 302 226 303 206 304 L206 592 L301 592 C395 592 468 540 468 450 C468 359 405 302 303 302 L303 302 Z " />
<glyph glyph-name="Q" unicode="Q" horiz-adv-x="777" d="M655 -139 C693 -139 730 -131 767 -102 L733 -42 C702 -63 682 -68 652 -68 C610 -68 581 -51 535 -21 C517 -10 498 1 479 8 C623 40 722 167 722 330 C722 520 582 670 391 670 C197 670 56 521 56 328 C56 227 97 134 162 76 C210 32 272 4 343 -7 C379 -13 412 -24 442 -43 C498 -77 564 -139 655 -139 L655 -139 Z M389 56 C319 56 260 81 215 124 C163 173 132 247 132 330 C132 484 238 602 389 602 C539 602 645 483 645 328 C645 174 539 56 389 56 L389 56 Z " />
<glyph glyph-name="R" unicode="R" horiz-adv-x="618" d="M47 0 L292 0 L292 66 L206 66 L206 269 C225 268 256 267 282 267 C295 267 308 268 320 269 L482 0 L612 0 L612 66 L533 66 L395 287 C478 314 536 377 536 467 C536 585 442 658 297 658 L47 658 L47 592 L131 592 L131 66 L47 66 L47 0 Z M286 332 C254 332 226 333 206 334 L206 592 L293 592 C395 592 461 548 461 465 C461 378 386 332 286 332 L286 332 Z " />
<glyph glyph-name="S" unicode="S" horiz-adv-x="549" d="M274 -11 C398 -11 490 60 490 176 C490 287 407 328 299 370 C216 402 154 431 154 501 C154 561 202 604 281 604 C322 604 370 591 388 571 C381 562 374 549 374 533 C374 506 395 482 427 482 C455 482 479 503 479 540 C479 608 391 670 283 670 C160 670 80 596 80 495 C80 382 166 340 279 297 C354 268 416 238 416 170 C416 99 363 54 275 54 C215 54 166 73 144 95 C153 107 160 121 160 139 C160 165 139 188 108 188 C78 188 55 163 55 125 C55 61 145 -11 274 -11 L274 -11 Z " />
<glyph glyph-name="T" unicode="T" horiz-adv-x="631" d="M189 0 L442 0 L442 66 L353 66 L353 595 L518 595 L518 489 L589 489 L589 658 L42 658 L42 489 L113 489 L113 595 L278 595 L278 66 L189 66 L189 0 Z " />
<glyph glyph-name="U" unicode="U" horiz-adv-x="710" d="M354 -12 C502 -12 594 74 594 230 L594 592 L677 592 L677 658 L435 658 L435 592 L522 592 L522 230 C522 112 460 56 355 56 C250 56 189 115 189 232 L189 592 L276 592 L276 658 L33 658 L33 592 L116 592 L116 227 C116 73 204 -12 354 -12 L354 -12 Z " />
<glyph glyph-name="V" unicode="V" horiz-adv-x="696" d="M327 -10 L370 -10 L614 592 L678 592 L678 658 L456 658 L456 592 L535 592 L350 117 L165 592 L240 592 L240 658 L18 658 L18 592 L83 592 L327 -10 Z " />
<glyph glyph-name="W" unicode="W" horiz-adv-x="990" d="M284 -10 L327 -10 L498 443 L668 -10 L711 -10 L895 592 L971 592 L971 658 L734 658 L734 592 L820 592 L686 132 L520 579 L479 579 L314 131 L176 592 L259 592 L259 658 L21 658 L21 592 L97 592 L284 -10 Z " />
<glyph glyph-name="X" unicode="X" horiz-adv-x="721" d="M40 0 L267 0 L267 64 L190 64 L360 295 L527 64 L454 64 L454 0 L681 0 L681 66 L612 66 L405 338 L599 592 L670 592 L670 658 L441 658 L441 594 L518 594 L362 380 L209 594 L281 594 L281 658 L52 658 L52 592 L124 592 L317 337 L109 66 L40 66 L40 0 Z " />
<glyph glyph-name="Y" unicode="Y" horiz-adv-x="642" d="M191 0 L451 0 L451 66 L358 66 L358 264 L553 592 L624 592 L624 658 L402 658 L402 592 L473 592 L322 327 L172 592 L240 592 L240 658 L19 658 L19 592 L89 592 L283 263 L283 66 L191 66 L191 0 Z " />
<glyph glyph-name="Z" unicode="Z" horiz-adv-x="606" d="M45 0 L561 0 L561 166 L494 166 L494 62 L151 62 L554 622 L554 658 L66 658 L66 492 L134 492 L134 596 L448 596 L45 36 L45 0 Z " />
<glyph glyph-name="bracketleft" unicode="&#x5b;" horiz-adv-x="353" d="M101 -200 L330 -200 L330 -136 L172 -136 L172 668 L330 668 L330 732 L101 732 L101 -200 Z " />
<glyph glyph-name="backslash" unicode="&#x5c;" horiz-adv-x="465" d="M426 -209 L487 -182 L77 742 L16 715 L426 -209 Z " />
<glyph glyph-name="bracketright" unicode="&#x5d;" horiz-adv-x="353" d="M23 -200 L252 -200 L252 732 L23 732 L23 668 L182 668 L182 -136 L23 -136 L23 -200 Z " />
<glyph glyph-name="asciicircum" unicode="&#x5e;" horiz-adv-x="446" d="M101 357 L223 446 L345 357 L377 395 L223 542 L69 395 L101 357 Z " />
<glyph glyph-name="underscore" unicode="&#x5f;" horiz-adv-x="533" d="M-6 -148 L539 -148 L539 -81 L-6 -81 L-6 -148 Z " />
<glyph glyph-name="grave" unicode="&#x60;" horiz-adv-x="418" d="M266 503 L284 527 L164 653 C150 667 136 676 121 676 C100 676 81 660 81 633 C81 619 94 602 115 589 L266 503 Z " />
<glyph glyph-name="a" unicode="a" horiz-adv-x="492" d="M186 -8 C244 -8 299 20 334 54 L334 0 L467 0 L467 60 L398 60 L398 292 C398 328 388 360 366 384 C338 415 292 434 229 434 C127 434 71 384 71 335 C71 309 89 289 115 289 C142 289 160 308 160 333 C160 342 157 351 154 358 C168 367 186 376 220 376 C263 376 294 363 313 342 C325 327 332 306 332 282 L332 223 C310 231 255 243 209 243 C114 243 45 192 45 114 C45 41 104 -8 186 -8 L186 -8 Z M204 48 C146 48 115 78 115 119 C115 163 149 195 217 195 C258 195 300 187 332 178 L332 107 C299 74 255 48 204 48 L204 48 Z " />
<glyph glyph-name="b" unicode="b" horiz-adv-x="545" d="M285 -8 C411 -8 499 91 499 213 C499 345 407 434 296 434 C228 434 186 405 150 370 L150 732 L13 732 L13 672 L81 672 L81 -1 L124 -1 L145 44 C182 13 231 -8 285 -8 L285 -8 Z M281 52 C226 52 183 74 150 100 L150 310 C185 346 229 374 284 374 C367 374 428 309 428 212 C428 116 363 52 281 52 L281 52 Z " />
<glyph glyph-name="c" unicode="c" horiz-adv-x="473" d="M268 -8 C314 -8 369 4 412 33 L418 100 C368 68 324 53 276 53 C179 53 113 118 113 211 C113 320 191 375 254 375 C297 375 339 356 350 330 C337 322 329 309 329 295 C329 265 352 248 375 248 C406 248 429 274 429 306 C429 370 352 434 255 434 C136 434 42 330 42 212 C42 86 139 -8 268 -8 L268 -8 Z " />
<glyph glyph-name="d" unicode="d" horiz-adv-x="550" d="M246 -8 C309 -8 353 20 389 60 L389 0 L525 0 L525 60 L456 60 L456 732 L307 732 L307 672 L387 672 L387 383 C354 414 308 434 255 434 C127 434 44 331 44 210 C44 80 133 -8 246 -8 L246 -8 Z M256 52 C175 52 115 116 116 211 C116 305 175 374 259 374 C315 374 355 352 387 325 L387 116 C353 80 311 52 256 52 L256 52 Z " />
<glyph glyph-name="e" unicode="e" horiz-adv-x="485" d="M441 193 C444 204 445 217 445 233 C445 339 377 434 250 434 C120 434 41 330 41 212 C41 82 132 -8 268 -8 C322 -8 377 6 421 33 L427 100 C377 71 334 53 277 53 C185 53 123 99 113 193 L441 193 Z M246 375 C327 375 370 323 375 248 L114 248 C124 329 181 375 246 375 L246 375 Z " />
<glyph glyph-name="f" unicode="f" horiz-adv-x="318" d="M291 636 C315 636 334 655 334 683 C334 718 302 740 256 740 C214 740 184 725 159 701 C126 668 114 622 114 553 L114 426 L38 426 L38 365 L114 365 L114 60 L45 60 L45 0 L266 0 L266 60 L183 60 L183 365 L293 365 L293 426 L183 426 L183 569 C183 611 191 640 206 658 C214 669 226 675 239 678 C247 654 263 636 291 636 L291 636 Z " />
<glyph glyph-name="g" unicode="g" horiz-adv-x="556" d="M457 365 L526 365 L526 426 L391 426 L391 379 C357 411 312 434 255 434 C128 434 44 330 44 215 C44 91 135 3 246 3 C311 3 353 30 388 66 L388 -17 C388 -53 379 -79 363 -99 C338 -130 298 -141 256 -141 C213 -141 185 -132 172 -124 C178 -116 181 -106 181 -96 C181 -72 164 -53 139 -53 C110 -53 89 -76 89 -105 C89 -122 96 -139 111 -154 C137 -179 189 -200 256 -200 C322 -200 382 -182 418 -138 C443 -108 457 -67 457 -14 L457 365 Z M261 373 C316 373 357 352 388 325 L388 125 C354 89 311 63 257 63 C175 63 116 126 116 216 C116 305 174 373 261 373 L261 373 Z " />
<glyph glyph-name="h" unicode="h" horiz-adv-x="556" d="M99 672 L99 60 L31 60 L31 0 L235 0 L235 60 L168 60 L168 295 C206 337 255 370 308 370 C337 370 360 361 374 343 C387 328 393 307 393 276 L393 60 L326 60 L326 0 L531 0 L531 60 L462 60 L462 290 C462 329 453 363 434 388 C412 417 376 434 326 434 C265 434 209 396 168 349 L168 732 L31 732 L31 672 L99 672 Z " />
<glyph glyph-name="i" unicode="i" horiz-adv-x="290" d="M140 535 C169 535 195 560 195 590 C195 620 170 646 141 646 C111 646 85 620 85 590 C85 560 110 535 140 535 L140 535 Z M43 0 L256 0 L256 60 L184 60 L184 426 L43 426 L43 365 L115 365 L115 60 L43 60 L43 0 Z " />
<glyph glyph-name="j" unicode="j" horiz-adv-x="259" d="M-52 -135 C-52 -169 -19 -200 39 -200 C95 -200 141 -173 165 -111 C177 -80 184 -40 184 10 L184 426 L33 426 L33 365 L115 365 L115 2 C115 -32 111 -62 104 -85 C93 -123 71 -144 41 -144 L35 -144 C35 -140 36 -135 36 -133 C36 -107 19 -88 -7 -88 C-34 -88 -52 -111 -52 -135 L-52 -135 Z M137 535 C167 535 192 560 192 590 C192 620 167 646 138 646 C108 646 82 620 82 590 C82 560 107 535 137 535 L137 535 Z " />
<glyph glyph-name="k" unicode="k" horiz-adv-x="524" d="M31 0 L237 0 L237 59 L168 59 L168 148 L244 212 L386 0 L504 0 L504 60 L426 60 L294 250 L428 365 L504 365 L504 426 L263 426 L263 368 L346 368 L168 214 L168 732 L31 732 L31 672 L99 672 L99 60 L31 60 L31 0 Z " />
<glyph glyph-name="l" unicode="l" horiz-adv-x="278" d="M33 0 L246 0 L246 60 L174 60 L174 732 L33 732 L33 672 L105 672 L105 60 L33 60 L33 0 Z " />
<glyph glyph-name="m" unicode="m" horiz-adv-x="831" d="M41 0 L244 0 L244 60 L178 60 L178 295 C217 336 261 370 313 370 C348 370 370 358 381 331 C386 317 389 300 389 277 L389 60 L321 60 L321 0 L524 0 L524 60 L458 60 L458 297 C499 339 542 370 593 370 C627 370 649 358 660 331 C665 317 668 300 668 277 L668 60 L602 60 L602 0 L805 0 L805 60 L737 60 L737 290 C737 321 732 349 722 372 C703 411 667 434 606 434 C550 434 495 397 449 350 C446 362 442 373 436 383 C417 415 383 434 330 434 C268 434 212 393 175 347 L175 426 L41 426 L41 365 L109 365 L109 60 L41 60 L41 0 Z " />
<glyph glyph-name="n" unicode="n" horiz-adv-x="563" d="M175 426 L41 426 L41 365 L109 365 L109 60 L41 60 L41 0 L245 0 L245 60 L178 60 L178 295 C216 337 265 370 318 370 C353 370 377 358 389 333 C397 318 400 299 400 276 L400 60 L333 60 L333 0 L537 0 L537 60 L469 60 L469 290 C469 325 462 355 448 379 C427 413 390 434 335 434 C274 434 215 394 175 347 L175 426 Z " />
<glyph glyph-name="o" unicode="o" horiz-adv-x="526" d="M263 -8 C395 -8 482 92 482 213 C482 334 395 434 263 434 C131 434 44 333 44 213 C44 91 130 -8 263 -8 L263 -8 Z M263 52 C176 52 116 118 116 213 C116 307 176 374 263 374 C350 374 410 307 410 213 C410 118 350 52 263 52 L263 52 Z " />
<glyph glyph-name="p" unicode="p" horiz-adv-x="555" d="M31 -196 L250 -196 L250 -136 L168 -136 L168 41 C203 11 250 -8 300 -8 C427 -8 510 95 510 215 C510 346 421 434 309 434 C245 434 202 405 166 365 L166 426 L31 426 L31 365 L99 365 L99 -136 L31 -136 L31 -196 Z M296 53 C241 53 200 73 168 100 L168 310 C203 346 244 373 299 373 C379 373 439 310 438 214 C437 121 379 53 296 53 L296 53 Z " />
<glyph glyph-name="q" unicode="q" horiz-adv-x="531" d="M308 -196 L531 -196 L531 -136 L462 -136 L462 426 L419 426 L398 381 C361 413 312 434 258 434 C132 434 44 335 44 213 C44 81 136 -8 247 -8 C315 -8 357 20 393 56 L393 -136 L308 -136 L308 -196 Z M259 53 C177 53 116 117 116 213 C116 310 180 373 262 373 C318 373 360 352 393 326 L393 115 C358 79 314 53 259 53 L259 53 Z " />
<glyph glyph-name="r" unicode="r" horiz-adv-x="380" d="M305 434 C259 434 208 388 175 329 L175 426 L41 426 L41 365 L109 365 L109 60 L41 60 L41 0 L258 0 L258 60 L178 60 L178 273 C199 316 238 354 270 363 C277 344 295 327 321 327 C348 327 369 351 369 378 C369 407 347 434 305 434 L305 434 Z " />
<glyph glyph-name="s" unicode="s" horiz-adv-x="437" d="M376 341 C376 359 369 375 354 390 C328 416 277 434 220 434 C118 434 58 375 58 311 C58 232 122 208 225 182 C286 167 326 152 326 113 C326 72 280 47 222 47 C176 47 141 60 127 71 C131 80 134 88 134 97 C134 123 115 141 88 141 C63 141 45 119 45 94 C45 73 53 56 68 41 C97 12 160 -8 222 -8 C313 -8 392 39 392 120 C392 203 320 227 234 248 C164 266 125 279 125 316 C125 347 159 378 218 378 C250 378 278 373 293 363 C289 355 288 346 288 339 C288 313 308 295 334 295 C358 295 376 314 376 341 L376 341 Z " />
<glyph glyph-name="t" unicode="t" horiz-adv-x="333" d="M200 -8 C239 -8 269 4 291 16 L300 82 C276 68 245 56 220 56 C194 56 178 63 170 78 C165 87 163 97 163 111 L163 365 L294 365 L294 426 L163 426 L163 556 L95 529 L95 426 L16 426 L16 365 L95 365 L95 101 C95 78 98 58 106 42 C123 9 155 -8 200 -8 L200 -8 Z " />
<glyph glyph-name="u" unicode="u" horiz-adv-x="553" d="M228 -8 C289 -8 347 32 387 79 L387 0 L522 0 L522 60 L454 60 L454 426 L315 426 L315 365 L385 365 L385 131 C345 90 298 56 245 56 C210 56 188 67 175 92 C167 106 163 125 163 149 L163 426 L26 426 L26 365 L94 365 L94 136 C94 102 101 72 114 49 C135 13 172 -8 228 -8 L228 -8 Z " />
<glyph glyph-name="v" unicode="v" horiz-adv-x="522" d="M242 -14 L280 -14 L459 365 L515 365 L515 426 L318 426 L318 367 L388 367 L263 86 L137 367 L205 367 L205 426 L7 426 L7 365 L63 365 L242 -14 Z " />
<glyph glyph-name="w" unicode="w" horiz-adv-x="696" d="M187 -18 L224 -18 L348 272 L471 -18 L509 -18 L625 365 L689 365 L689 426 L492 426 L492 367 L564 367 L487 98 L369 378 L332 378 L213 98 L136 367 L204 367 L204 426 L7 426 L7 365 L70 365 L187 -18 Z " />
<glyph glyph-name="x" unicode="x" horiz-adv-x="503" d="M20 0 L209 0 L209 56 L147 56 L250 185 L352 56 L293 56 L293 0 L483 0 L483 60 L426 60 L289 218 L416 365 L475 365 L475 426 L290 426 L290 369 L346 369 L252 250 L159 369 L213 369 L213 426 L27 426 L27 365 L86 365 L214 216 L78 60 L20 60 L20 0 Z " />
<glyph glyph-name="y" unicode="y" horiz-adv-x="513" d="M212 -128 C225 -110 236 -90 247 -67 L448 365 L506 365 L506 426 L310 426 L310 367 L380 367 L258 93 C259 93 138 367 138 367 L205 367 L205 426 L6 426 L6 365 L65 365 L225 24 L199 -29 C187 -53 177 -74 167 -89 C148 -118 132 -131 116 -137 C110 -118 95 -100 71 -100 C47 -100 28 -116 28 -144 C28 -177 62 -200 102 -200 C145 -200 180 -174 212 -128 L212 -128 Z " />
<glyph glyph-name="z" unicode="z" horiz-adv-x="450" d="M37 0 L414 0 L414 140 L353 140 L353 57 L137 57 L410 395 L410 426 L54 426 L54 286 L115 286 L115 369 L310 369 L37 31 L37 0 Z " />
<glyph glyph-name="braceleft" unicode="&#x7b;" horiz-adv-x="347" d="M295 -217 L295 -162 C176 -156 135 -107 135 -61 C135 -31 161 0 196 37 C231 74 263 111 263 154 C263 196 232 246 146 264 C232 282 263 332 263 374 C263 417 231 454 196 491 C161 528 135 559 135 589 C135 635 176 684 295 690 L295 745 C143 741 66 677 66 589 C66 533 96 500 144 453 C170 427 191 404 191 375 C191 326 139 295 71 295 L52 295 L52 233 L71 233 C139 233 191 202 191 153 C191 124 170 101 144 75 C96 28 66 -5 66 -61 C66 -149 143 -213 295 -217 L295 -217 Z " />
<glyph glyph-name="bar" unicode="&#x7c;" horiz-adv-x="270" d="M104 -200 L166 -200 L166 732 L104 732 L104 -200 Z " />
<glyph glyph-name="braceright" unicode="&#x7d;" horiz-adv-x="347" d="M52 -217 C204 -213 280 -149 280 -61 C280 -5 250 28 203 75 C176 101 155 124 155 153 C155 202 208 233 276 233 L294 233 L294 295 L276 295 C208 295 155 326 155 375 C155 404 176 427 203 453 C250 500 280 533 280 589 C280 677 204 741 52 745 L52 690 C171 684 212 635 212 589 C212 559 186 528 151 491 C116 454 84 417 84 374 C84 332 115 282 201 264 C115 246 84 196 84 154 C84 111 116 74 151 37 C186 0 212 -31 212 -61 C212 -107 171 -156 52 -162 L52 -217 Z " />
<glyph glyph-name="asciitilde" unicode="&#x7e;" horiz-adv-x="432" d="M287 191 C334 191 379 238 384 307 L330 320 C323 283 307 261 284 261 C269 261 256 269 233 289 C210 309 184 328 145 328 C98 328 54 281 48 212 L102 199 C109 237 125 258 149 258 C163 258 176 250 200 230 C222 210 248 191 287 191 L287 191 Z " />
<glyph glyph-name="uni00A0" unicode="&#xa0;" horiz-adv-x="227" d="" />
<glyph glyph-name="exclamdown" unicode="&#xa1;" horiz-adv-x="255" d="M127 548 C159 548 185 575 185 607 C185 639 159 665 127 665 C95 665 70 639 70 607 C70 575 95 548 127 548 L127 548 Z M82 0 L172 0 L146 475 L108 475 L82 0 Z " />
<glyph glyph-name="cent" unicode="&#xa2;" horiz-adv-x="502" d="M455 348 C455 402 391 458 309 471 L318 574 L263 579 L254 473 C136 464 45 365 45 255 C45 157 112 72 214 44 L202 -101 L257 -106 L269 34 L288 34 C338 34 396 45 438 74 L444 139 C394 107 347 92 293 92 L273 92 L302 415 C336 409 368 394 379 373 C364 363 358 345 358 337 C358 307 380 292 402 292 C432 292 455 319 455 348 L455 348 Z M116 254 C116 350 181 406 249 416 L222 103 C155 127 116 184 116 254 L116 254 Z " />
<glyph glyph-name="sterling" unicode="&#xa3;" horiz-adv-x="479" d="M363 121 L363 178 L190 178 C187 190 182 202 178 215 C165 252 156 285 156 331 C156 395 198 457 273 457 C318 457 342 444 354 429 C348 423 341 410 341 395 C341 369 359 350 385 350 C409 350 433 369 433 408 C433 466 362 516 274 516 C159 516 90 429 90 331 C90 283 102 245 115 207 L125 178 L32 178 L32 121 L135 121 C136 115 136 110 136 104 C136 57 118 14 87 -20 C21 -23 -13 -53 -13 -87 C-13 -107 6 -124 34 -124 C58 -124 91 -110 114 -78 L129 -78 C167 -78 194 -86 225 -98 C274 -117 310 -124 345 -124 C408 -124 447 -97 475 -32 L426 -5 C403 -46 384 -61 343 -61 C318 -61 294 -57 245 -41 C220 -33 182 -24 149 -21 C178 9 199 48 199 105 L199 121 L363 121 Z " />
<glyph glyph-name="yen" unicode="&#xa5;" horiz-adv-x="500" d="M78 235 L216 235 L219 230 L219 176 L78 176 L78 121 L219 121 L219 55 L139 55 L139 0 L359 0 L359 55 L279 55 L279 121 L419 121 L419 176 L279 176 L279 230 L282 235 L419 235 L419 290 L314 290 L417 451 L479 451 L479 508 L297 508 L297 452 L354 452 L250 281 L145 452 L201 452 L201 508 L18 508 L18 451 L79 451 L182 290 L78 290 L78 235 Z " />
<glyph glyph-name="section" unicode="&#xa7;" horiz-adv-x="455" d="M234 516 C140 516 83 465 83 414 C83 378 101 354 136 336 C90 321 57 291 57 248 C57 193 115 168 191 147 C264 126 298 114 298 85 C298 61 273 42 221 42 C197 42 167 49 155 58 C158 63 159 68 159 75 C159 99 141 115 116 115 C90 115 75 96 75 73 C75 21 145 -10 220 -10 C314 -10 369 38 369 92 C369 129 350 152 318 169 C362 185 396 212 396 255 C396 312 340 336 261 358 C193 377 155 392 155 420 C155 444 182 463 232 463 C257 463 287 455 298 447 C296 443 295 437 295 431 C295 407 312 390 338 390 C363 390 379 409 379 433 C379 482 312 516 234 516 L234 516 Z M227 200 C159 217 127 231 127 260 C127 284 157 304 193 315 L226 306 C293 288 326 274 326 245 C326 220 297 202 260 191 L227 200 Z " />
<glyph glyph-name="dieresis" unicode="&#xa8;" horiz-adv-x="464" d="M319 519 C350 519 375 545 375 576 C375 608 351 634 319 634 C288 634 262 608 262 576 C262 545 287 519 319 519 L319 519 Z M144 519 C176 519 201 545 201 576 C201 608 176 634 145 634 C114 634 88 608 88 576 C88 545 113 519 144 519 L144 519 Z " />
<glyph glyph-name="copyright" unicode="&#xa9;" horiz-adv-x="605" d="M299 -8 C446 -8 556 109 556 254 C556 399 447 516 299 516 C152 516 42 399 42 254 C42 108 152 -8 299 -8 L299 -8 Z M299 28 C176 28 84 129 84 254 C84 380 176 481 299 481 C423 481 515 380 515 254 C515 129 422 28 299 28 L299 28 Z M307 356 C336 356 353 348 360 339 C358 336 356 330 356 325 C356 311 367 300 380 300 C395 300 406 313 406 329 C406 357 368 391 307 391 C238 391 175 337 175 257 C175 181 231 125 310 125 C348 125 386 140 410 168 L387 194 C365 173 340 161 311 161 C254 161 217 206 217 259 C217 313 256 356 307 356 L307 356 Z " />
<glyph glyph-name="ordfeminine" unicode="&#xaa;" horiz-adv-x="344" d="M122 407 C156 407 188 423 209 443 L209 412 L294 412 L294 451 L254 451 L254 582 C254 613 242 638 219 653 C202 664 179 670 150 670 C87 670 54 639 54 610 C54 592 65 580 82 580 C98 580 110 592 110 608 C110 614 109 619 107 623 C114 628 125 631 143 631 C162 631 178 627 189 619 C201 610 208 596 208 577 L208 546 C195 550 164 556 137 556 C79 556 38 526 38 479 C38 434 74 407 122 407 L122 407 Z M47 298 L294 298 L294 342 L47 342 L47 298 Z M135 444 C104 444 86 459 86 483 C86 509 106 526 143 526 C167 526 191 522 208 517 L208 476 C189 457 163 444 135 444 L135 444 Z " />
<glyph glyph-name="guillemotleft" unicode="&#xab;" horiz-adv-x="485" d="M394 107 L437 148 L313 275 L437 402 L394 443 L222 275 L394 107 Z M202 107 L245 148 L121 275 L245 402 L202 443 L30 275 L202 107 Z " />
<glyph glyph-name="registered" unicode="&#xae;" horiz-adv-x="392" d="M196 336 C295 336 375 415 375 514 C375 614 295 693 196 693 C96 693 17 614 17 514 C17 415 96 336 196 336 L196 336 Z M196 661 C276 661 339 597 339 514 C339 432 274 368 196 368 C117 368 53 432 53 514 C53 597 117 661 196 661 L196 661 Z M128 432 L199 432 L199 459 L178 459 L178 496 L201 496 L235 432 L276 432 L276 459 L256 459 L232 505 C250 513 263 529 263 551 C263 585 234 602 195 602 L128 602 L128 575 L147 575 L147 459 L128 459 L128 432 Z M178 523 L178 575 L194 575 C217 575 231 567 231 549 C231 532 217 523 194 523 L178 523 Z " />
<glyph glyph-name="macron" unicode="&#xaf;" horiz-adv-x="458" d="M77 535 L381 535 L381 598 L77 598 L77 535 Z " />
<glyph glyph-name="degree" unicode="&#xb0;" horiz-adv-x="302" d="M151 411 C225 411 278 470 278 541 C278 612 225 671 151 671 C76 671 22 612 22 541 C22 470 76 411 151 411 L151 411 Z M151 456 C104 456 71 493 71 541 C71 589 104 625 151 625 C197 625 230 589 230 541 C230 493 197 456 151 456 L151 456 Z " />
<glyph glyph-name="plusminus" unicode="&#xb1;" horiz-adv-x="416" d="M176 158 L239 158 L239 293 L374 293 L374 355 L239 355 L239 490 L176 490 L176 355 L42 355 L42 293 L176 293 L176 158 Z M42 18 L374 18 L374 79 L42 79 L42 18 Z " />
<glyph glyph-name="two.sup" unicode="&#xb2;" horiz-adv-x="353" d="M59 431 L304 431 L304 533 L259 533 L259 474 L107 474 C127 518 169 552 209 578 C255 609 297 638 297 696 C297 758 242 800 177 800 C102 800 54 755 54 709 C54 684 66 665 91 665 C109 665 124 680 124 698 C124 711 117 723 107 727 C111 737 137 755 173 755 C212 755 243 730 243 696 C243 659 215 638 177 611 C131 579 72 534 44 455 C44 455 57 431 59 431 L59 431 Z " />
<glyph glyph-name="three.sup" unicode="&#xb3;" horiz-adv-x="353" d="M171 424 C245 424 305 465 305 527 C305 575 259 609 214 618 C259 628 296 662 296 704 C296 757 244 797 174 797 C95 797 55 753 55 721 C55 697 72 681 91 681 C109 681 124 696 124 714 C124 723 119 732 114 736 C121 744 141 755 172 755 C211 755 243 737 243 702 C243 664 207 639 155 639 L131 639 L131 595 L153 595 C220 595 251 566 251 530 C251 494 216 467 171 467 C133 467 108 483 101 490 C107 494 111 504 111 512 C111 531 98 546 78 546 C58 546 42 528 42 507 C42 460 101 424 171 424 L171 424 Z " />
<glyph glyph-name="acute" unicode="&#xb4;" horiz-adv-x="418" d="M152 503 L303 589 C324 602 337 619 337 633 C337 660 318 676 297 676 C282 676 267 667 254 653 L133 527 L152 503 Z " />
<glyph glyph-name="paragraph" unicode="&#xb6;" horiz-adv-x="576" d="M201 0 L537 0 L537 61 L458 61 L458 440 L537 440 L537 501 L213 501 C111 501 33 438 33 349 C33 252 108 192 210 192 C239 192 264 192 281 193 L281 59 L201 59 L201 0 Z M340 59 L340 442 L398 442 L398 59 L340 59 Z " />
<glyph glyph-name="periodcentered" unicode="&#xb7;" horiz-adv-x="262" d="M131 191 C165 191 192 219 192 254 C192 289 165 317 131 317 C96 317 69 289 69 254 C69 219 96 191 131 191 L131 191 Z " />
<glyph glyph-name="cedilla" unicode="&#xb8;" horiz-adv-x="420" d="M227 -199 C291 -199 325 -164 325 -124 C325 -83 293 -51 231 -48 L234 17 L204 22 L170 -84 L189 -100 C191 -100 202 -98 207 -98 C244 -98 260 -111 260 -129 C260 -147 243 -158 218 -158 C193 -158 156 -150 130 -139 L115 -171 C148 -188 189 -199 227 -199 L227 -199 Z " />
<glyph glyph-name="one.sup" unicode="&#xb9;" horiz-adv-x="353" d="M63 431 L304 431 L304 478 L210 478 L210 795 L184 795 L58 762 L69 717 L158 738 L158 478 L63 478 L63 431 Z " />
<glyph glyph-name="ordmasculine" unicode="&#xba;" horiz-adv-x="351" d="M57 298 L294 298 L294 342 L57 342 L57 298 Z M176 406 C256 406 308 467 308 538 C308 611 256 671 176 671 C96 671 43 610 43 538 C43 467 95 406 176 406 L176 406 Z M176 446 C126 446 92 485 92 538 C92 592 126 631 176 631 C225 631 259 592 259 538 C259 485 225 446 176 446 L176 446 Z " />
<glyph glyph-name="guillemotright" unicode="&#xbb;" horiz-adv-x="485" d="M283 107 L455 275 L283 443 L240 402 L364 275 L240 148 L283 107 Z M92 107 L264 275 L92 443 L49 402 L173 275 L49 148 L92 107 Z " />
<glyph glyph-name="onequarter" unicode="&#xbc;" horiz-adv-x="795" d="M568 -1 L728 -1 L728 42 L682 42 L682 104 L741 104 L741 147 L682 147 L682 234 L635 214 L635 145 L523 145 L684 343 L647 373 L455 131 L468 105 L635 105 L635 41 L568 41 L568 -1 Z M52 281 L293 281 L293 328 L199 328 L199 645 L173 645 L47 612 L58 567 L147 588 L147 328 L52 328 L52 281 Z M239 -13 C261 24 361 192 433 311 L628 627 L590 651 C568 613 470 448 398 331 L201 10 L239 -13 Z " />
<glyph glyph-name="onehalf" unicode="&#xbd;" horiz-adv-x="795" d="M500 -1 L745 -1 L745 101 L700 101 L700 42 L548 42 C568 86 610 120 650 146 C696 177 738 206 738 264 C738 326 683 368 618 368 C543 368 495 323 495 277 C495 252 507 233 532 233 C550 233 565 248 565 266 C565 279 558 291 548 295 C552 305 578 323 614 323 C653 323 684 298 684 264 C684 227 656 206 618 179 C572 147 513 102 485 23 C485 23 498 -1 500 -1 L500 -1 Z M49 281 L290 281 L290 328 L196 328 L196 645 L170 645 L44 612 L55 567 L144 588 L144 328 L49 328 L49 281 Z M227 -13 C249 24 349 192 421 311 L616 627 L578 651 C556 613 458 448 386 331 L189 10 L227 -13 Z " />
<glyph glyph-name="threequarters" unicode="&#xbe;" horiz-adv-x="795" d="M185 274 C259 274 319 315 319 377 C319 425 273 459 228 468 C273 478 310 512 310 554 C310 607 258 647 188 647 C109 647 69 603 69 571 C69 547 86 531 105 531 C123 531 138 546 138 564 C138 573 133 582 128 586 C135 594 155 605 186 605 C225 605 257 587 257 552 C257 514 221 489 169 489 L145 489 L145 445 L167 445 C234 445 265 416 265 380 C265 344 230 317 185 317 C147 317 122 333 115 340 C121 344 125 354 125 362 C125 381 112 396 92 396 C72 396 56 378 56 357 C56 310 115 274 185 274 L185 274 Z M566 -1 L726 -1 L726 42 L680 42 L680 104 L739 104 L739 147 L680 147 L680 234 L633 214 L633 145 L521 145 L682 343 L645 373 L453 131 L466 105 L633 105 L633 41 L566 41 L566 -1 Z M243 -13 C265 24 365 192 437 311 L632 627 L594 651 C572 613 474 448 402 331 L205 10 L243 -13 Z " />
<glyph glyph-name="questiondown" unicode="&#xbf;" horiz-adv-x="446" d="M425 130 C425 169 396 195 366 195 C338 195 319 173 319 146 C319 127 330 109 350 103 C348 101 347 98 345 95 C325 67 286 52 236 52 C153 52 103 98 103 167 C103 237 162 292 281 315 L265 476 L223 476 L213 359 C96 332 29 254 29 165 C29 65 108 -12 235 -12 C307 -12 368 18 400 60 C416 81 425 105 425 130 L425 130 Z M243 666 C211 666 186 640 186 608 C186 576 211 549 243 549 C275 549 301 576 301 608 C301 640 275 666 243 666 L243 666 Z " />
<glyph glyph-name="Agrave" unicode="&#xc0;" horiz-adv-x="706" d="M18 0 L238 0 L238 65 L158 65 L217 227 L486 227 L545 65 L468 65 L468 0 L688 0 L688 66 L625 66 L428 593 L503 593 L503 658 L203 658 L203 593 L278 593 L81 66 L18 66 L18 0 Z M239 290 L352 597 L464 290 L239 290 Z M381 717 L399 741 L279 867 C265 881 251 890 236 890 C215 890 196 874 196 847 C196 833 209 816 230 803 L381 717 Z " />
<glyph glyph-name="Aacute" unicode="&#xc1;" horiz-adv-x="706" d="M18 0 L238 0 L238 65 L158 65 L217 227 L486 227 L545 65 L468 65 L468 0 L688 0 L688 66 L625 66 L428 593 L503 593 L503 658 L203 658 L203 593 L278 593 L81 66 L18 66 L18 0 Z M239 290 L352 597 L464 290 L239 290 Z M323 717 L474 803 C495 816 508 833 508 847 C508 874 489 890 468 890 C453 890 438 881 425 867 L304 741 L323 717 Z " />
<glyph glyph-name="Acircumflex" unicode="&#xc2;" horiz-adv-x="706" d="M18 0 L238 0 L238 65 L158 65 L217 227 L486 227 L545 65 L468 65 L468 0 L688 0 L688 66 L625 66 L428 593 L503 593 L503 658 L203 658 L203 593 L278 593 L81 66 L18 66 L18 0 Z M239 290 L352 597 L464 290 L239 290 Z M229 714 L352 807 L475 714 L506 751 L352 898 L198 751 L229 714 Z " />
<glyph glyph-name="Atilde" unicode="&#xc3;" horiz-adv-x="706" d="M18 0 L238 0 L238 65 L158 65 L217 227 L486 227 L545 65 L468 65 L468 0 L688 0 L688 66 L625 66 L428 593 L503 593 L503 658 L203 658 L203 593 L278 593 L81 66 L18 66 L18 0 Z M239 290 L352 597 L464 290 L239 290 Z M426 723 C473 723 517 772 522 841 L468 853 C461 815 445 793 422 793 C407 793 394 801 371 820 C347 840 321 859 282 859 C236 859 192 810 187 741 L241 729 C247 766 263 789 287 789 C301 789 314 781 338 761 C361 741 387 723 426 723 L426 723 Z " />
<glyph glyph-name="Adieresis" unicode="&#xc4;" horiz-adv-x="706" d="M18 0 L238 0 L238 65 L158 65 L217 227 L486 227 L545 65 L468 65 L468 0 L688 0 L688 66 L625 66 L428 593 L503 593 L503 658 L203 658 L203 593 L278 593 L81 66 L18 66 L18 0 Z M239 290 L352 597 L464 290 L239 290 Z M439 733 C470 733 495 759 495 790 C495 822 471 848 439 848 C408 848 382 822 382 790 C382 759 407 733 439 733 L439 733 Z M264 733 C296 733 321 759 321 790 C321 822 296 848 265 848 C234 848 208 822 208 790 C208 759 233 733 264 733 L264 733 Z " />
<glyph glyph-name="Aring" unicode="&#xc5;" horiz-adv-x="706" d="M462 733 C462 790 413 838 352 838 C291 838 242 790 242 733 C242 705 255 678 276 658 L203 658 L203 593 L278 593 L81 66 L18 66 L18 0 L238 0 L238 65 L158 65 L217 227 L486 227 L545 65 L468 65 L468 0 L688 0 L688 66 L625 66 L428 593 L503 593 L503 658 L428 658 C450 678 462 705 462 733 L462 733 Z M239 290 L352 597 L464 290 L239 290 Z M352 667 C320 667 297 694 297 727 C297 761 320 788 352 788 C385 788 408 761 408 727 C408 694 385 667 352 667 L352 667 Z " />
<glyph glyph-name="AE" unicode="&#xc6;" horiz-adv-x="887" d="M-5 0 L218 0 L218 65 L147 65 L227 227 L430 227 L430 66 L353 66 L353 0 L825 0 L825 161 L753 161 L753 65 L505 65 L505 303 L720 303 L720 367 L505 367 L505 593 L753 593 L753 497 L824 497 L824 658 L262 658 L262 592 L335 592 L74 66 L-5 66 L-5 0 Z M257 290 L406 593 L430 593 L430 290 L257 290 Z " />
<glyph glyph-name="Ccedilla" unicode="&#xc7;" horiz-adv-x="702" d="M385 -199 C449 -199 483 -164 483 -124 C483 -83 451 -51 389 -48 L390 -12 L393 -12 C484 -12 575 22 641 88 L597 141 C538 86 472 56 393 56 C238 56 132 186 132 327 C132 475 239 602 389 602 C473 602 530 565 548 536 C535 531 523 515 523 496 C523 466 547 443 578 443 C611 443 636 471 636 508 C636 587 528 670 390 670 C212 670 56 529 56 326 C56 157 172 9 352 -10 L328 -84 L347 -100 C349 -100 360 -98 365 -98 C402 -98 418 -111 418 -129 C418 -147 401 -158 376 -158 C351 -158 314 -150 288 -139 L273 -171 C306 -188 347 -199 385 -199 L385 -199 Z " />
<glyph glyph-name="Egrave" unicode="&#xc8;" horiz-adv-x="588" d="M47 0 L526 0 L526 161 L454 161 L454 65 L206 65 L206 303 L421 303 L421 367 L206 367 L206 593 L454 593 L454 497 L525 497 L525 658 L47 658 L47 592 L131 592 L131 66 L47 66 L47 0 Z M318 717 L336 741 L216 867 C202 881 188 890 173 890 C152 890 133 874 133 847 C133 833 146 816 167 803 L318 717 Z " />
<glyph glyph-name="Eacute" unicode="&#xc9;" horiz-adv-x="588" d="M260 717 L411 803 C432 816 445 833 445 847 C445 874 426 890 405 890 C390 890 375 881 362 867 L241 741 L260 717 Z M47 0 L526 0 L526 161 L454 161 L454 65 L206 65 L206 303 L421 303 L421 367 L206 367 L206 593 L454 593 L454 497 L525 497 L525 658 L47 658 L47 592 L131 592 L131 66 L47 66 L47 0 Z " />
<glyph glyph-name="Ecircumflex" unicode="&#xca;" horiz-adv-x="588" d="M166 714 L289 807 L412 714 L443 751 L289 898 L135 751 L166 714 Z M47 0 L526 0 L526 161 L454 161 L454 65 L206 65 L206 303 L421 303 L421 367 L206 367 L206 593 L454 593 L454 497 L525 497 L525 658 L47 658 L47 592 L131 592 L131 66 L47 66 L47 0 Z " />
<glyph glyph-name="Edieresis" unicode="&#xcb;" horiz-adv-x="588" d="M376 733 C407 733 432 759 432 790 C432 822 408 848 376 848 C345 848 319 822 319 790 C319 759 344 733 376 733 L376 733 Z M201 733 C233 733 258 759 258 790 C258 822 233 848 202 848 C171 848 145 822 145 790 C145 759 170 733 201 733 L201 733 Z M47 0 L526 0 L526 161 L454 161 L454 65 L206 65 L206 303 L421 303 L421 367 L206 367 L206 593 L454 593 L454 497 L525 497 L525 658 L47 658 L47 592 L131 592 L131 66 L47 66 L47 0 Z " />
<glyph glyph-name="Igrave" unicode="&#xcc;" horiz-adv-x="348" d="M48 0 L300 0 L300 66 L211 66 L211 592 L300 592 L300 658 L48 658 L48 592 L137 592 L137 66 L48 66 L48 0 Z M204 717 L222 741 L102 867 C88 881 74 890 59 890 C38 890 19 874 19 847 C19 833 32 816 53 803 L204 717 Z " />
<glyph glyph-name="Iacute" unicode="&#xcd;" horiz-adv-x="348" d="M48 0 L300 0 L300 66 L211 66 L211 592 L300 592 L300 658 L48 658 L48 592 L137 592 L137 66 L48 66 L48 0 Z M145 717 L296 803 C317 816 330 833 330 847 C330 874 311 890 290 890 C275 890 260 881 247 867 L126 741 L145 717 Z " />
<glyph glyph-name="Icircumflex" unicode="&#xce;" horiz-adv-x="348" d="M48 0 L300 0 L300 66 L211 66 L211 592 L300 592 L300 658 L48 658 L48 592 L137 592 L137 66 L48 66 L48 0 Z M51 714 L174 807 L297 714 L328 751 L174 898 L20 751 L51 714 Z " />
<glyph glyph-name="Idieresis" unicode="&#xcf;" horiz-adv-x="348" d="M48 0 L300 0 L300 66 L211 66 L211 592 L300 592 L300 658 L48 658 L48 592 L137 592 L137 66 L48 66 L48 0 Z M261 733 C292 733 317 759 317 790 C317 822 293 848 261 848 C230 848 204 822 204 790 C204 759 229 733 261 733 L261 733 Z M86 733 C118 733 143 759 143 790 C143 822 118 848 87 848 C56 848 30 822 30 790 C30 759 55 733 86 733 L86 733 Z " />
<glyph glyph-name="Eth" unicode="&#xd0;" horiz-adv-x="734" d="M138 306 L138 66 L54 66 L54 0 L301 0 C539 0 678 137 678 336 C678 530 528 658 300 658 L54 658 L54 592 L138 592 L138 368 L65 368 L65 306 L138 306 Z M212 66 L212 306 L362 306 L362 368 L212 368 L212 592 L298 592 C484 592 602 495 602 337 C602 176 503 66 306 66 L212 66 Z " />
<glyph glyph-name="Ntilde" unicode="&#xd1;" horiz-adv-x="764" d="M606 -3 L647 -2 L647 592 L728 592 L728 658 L489 658 L489 592 L576 592 L576 157 L196 658 L47 658 L47 592 L131 592 L131 66 L47 66 L47 0 L289 0 L289 66 L203 66 L203 528 L606 -3 Z M454 723 C501 723 545 772 550 841 L496 853 C489 815 473 793 450 793 C435 793 422 801 399 820 C375 840 349 859 310 859 C264 859 220 810 215 741 L269 729 C275 766 291 789 315 789 C329 789 342 781 366 761 C389 741 415 723 454 723 L454 723 Z " />
<glyph glyph-name="Ograve" unicode="&#xd2;" horiz-adv-x="777" d="M387 -12 C580 -12 722 137 722 330 C722 520 582 670 391 670 C197 670 56 521 56 328 C56 138 195 -12 387 -12 L387 -12 Z M389 56 C238 56 132 175 132 330 C132 484 238 602 389 602 C539 602 645 483 645 328 C645 174 539 56 389 56 L389 56 Z M417 717 L435 741 L315 867 C301 881 287 890 272 890 C251 890 232 874 232 847 C232 833 245 816 266 803 L417 717 Z " />
<glyph glyph-name="Oacute" unicode="&#xd3;" horiz-adv-x="777" d="M359 717 L510 803 C531 816 544 833 544 847 C544 874 525 890 504 890 C489 890 474 881 461 867 L340 741 L359 717 Z M387 -12 C580 -12 722 137 722 330 C722 520 582 670 391 670 C197 670 56 521 56 328 C56 138 195 -12 387 -12 L387 -12 Z M389 56 C238 56 132 175 132 330 C132 484 238 602 389 602 C539 602 645 483 645 328 C645 174 539 56 389 56 L389 56 Z " />
<glyph glyph-name="Ocircumflex" unicode="&#xd4;" horiz-adv-x="777" d="M265 714 L388 807 L511 714 L542 751 L388 898 L234 751 L265 714 Z M387 -12 C580 -12 722 137 722 330 C722 520 582 670 391 670 C197 670 56 521 56 328 C56 138 195 -12 387 -12 L387 -12 Z M389 56 C238 56 132 175 132 330 C132 484 238 602 389 602 C539 602 645 483 645 328 C645 174 539 56 389 56 L389 56 Z " />
<glyph glyph-name="Otilde" unicode="&#xd5;" horiz-adv-x="777" d="M387 -12 C580 -12 722 137 722 330 C722 520 582 670 391 670 C197 670 56 521 56 328 C56 138 195 -12 387 -12 L387 -12 Z M389 56 C238 56 132 175 132 330 C132 484 238 602 389 602 C539 602 645 483 645 328 C645 174 539 56 389 56 L389 56 Z M462 723 C509 723 553 772 558 841 L504 853 C497 815 481 793 458 793 C443 793 430 801 407 820 C383 840 357 859 318 859 C272 859 228 810 223 741 L277 729 C283 766 299 789 323 789 C337 789 350 781 374 761 C397 741 423 723 462 723 L462 723 Z " />
<glyph glyph-name="Odieresis" unicode="&#xd6;" horiz-adv-x="777" d="M475 733 C506 733 531 759 531 790 C531 822 507 848 475 848 C444 848 418 822 418 790 C418 759 443 733 475 733 L475 733 Z M300 733 C332 733 357 759 357 790 C357 822 332 848 301 848 C270 848 244 822 244 790 C244 759 269 733 300 733 L300 733 Z M387 -12 C580 -12 722 137 722 330 C722 520 582 670 391 670 C197 670 56 521 56 328 C56 138 195 -12 387 -12 L387 -12 Z M389 56 C238 56 132 175 132 330 C132 484 238 602 389 602 C539 602 645 483 645 328 C645 174 539 56 389 56 L389 56 Z " />
<glyph glyph-name="multiply" unicode="&#xd7;" horiz-adv-x="416" d="M312 118 L356 163 L251 271 L356 377 L312 422 L208 314 L103 422 L58 377 L164 270 L59 163 L103 119 L207 226 L312 118 Z " />
<glyph glyph-name="Oslash" unicode="&#xd8;" horiz-adv-x="777" d="M387 -12 C580 -12 722 137 722 330 C722 422 688 505 632 566 L712 658 L665 699 L586 607 C532 647 465 670 391 670 C197 670 56 521 56 328 C56 237 88 155 142 94 L60 0 L107 -41 L187 53 C242 12 310 -12 387 -12 L387 -12 Z M389 56 C327 56 273 74 232 106 L582 516 C622 468 645 403 645 328 C645 174 539 56 389 56 L389 56 Z M132 330 C132 484 238 602 389 602 C449 602 502 584 543 554 L193 143 C154 191 132 256 132 330 L132 330 Z " />
<glyph glyph-name="Ugrave" unicode="&#xd9;" horiz-adv-x="710" d="M354 -12 C502 -12 594 74 594 230 L594 592 L677 592 L677 658 L435 658 L435 592 L522 592 L522 230 C522 112 460 56 355 56 C250 56 189 115 189 232 L189 592 L276 592 L276 658 L33 658 L33 592 L116 592 L116 227 C116 73 204 -12 354 -12 L354 -12 Z M384 717 L402 741 L282 867 C268 881 254 890 239 890 C218 890 199 874 199 847 C199 833 212 816 233 803 L384 717 Z " />
<glyph glyph-name="Uacute" unicode="&#xda;" horiz-adv-x="710" d="M325 717 L476 803 C497 816 510 833 510 847 C510 874 491 890 470 890 C455 890 440 881 427 867 L306 741 L325 717 Z M354 -12 C502 -12 594 74 594 230 L594 592 L677 592 L677 658 L435 658 L435 592 L522 592 L522 230 C522 112 460 56 355 56 C250 56 189 115 189 232 L189 592 L276 592 L276 658 L33 658 L33 592 L116 592 L116 227 C116 73 204 -12 354 -12 L354 -12 Z " />
<glyph glyph-name="Ucircumflex" unicode="&#xdb;" horiz-adv-x="710" d="M231 714 L354 807 L477 714 L508 751 L354 898 L200 751 L231 714 Z M354 -12 C502 -12 594 74 594 230 L594 592 L677 592 L677 658 L435 658 L435 592 L522 592 L522 230 C522 112 460 56 355 56 C250 56 189 115 189 232 L189 592 L276 592 L276 658 L33 658 L33 592 L116 592 L116 227 C116 73 204 -12 354 -12 L354 -12 Z " />
<glyph glyph-name="Udieresis" unicode="&#xdc;" horiz-adv-x="710" d="M442 733 C473 733 498 759 498 790 C498 822 474 848 442 848 C411 848 385 822 385 790 C385 759 410 733 442 733 L442 733 Z M267 733 C299 733 324 759 324 790 C324 822 299 848 268 848 C237 848 211 822 211 790 C211 759 236 733 267 733 L267 733 Z M354 -12 C502 -12 594 74 594 230 L594 592 L677 592 L677 658 L435 658 L435 592 L522 592 L522 230 C522 112 460 56 355 56 C250 56 189 115 189 232 L189 592 L276 592 L276 658 L33 658 L33 592 L116 592 L116 227 C116 73 204 -12 354 -12 L354 -12 Z " />
<glyph glyph-name="Yacute" unicode="&#xdd;" horiz-adv-x="642" d="M191 0 L451 0 L451 66 L358 66 L358 264 L553 592 L624 592 L624 658 L402 658 L402 592 L473 592 L322 327 L172 592 L240 592 L240 658 L19 658 L19 592 L89 592 L283 263 L283 66 L191 66 L191 0 Z M291 717 L442 803 C463 816 476 833 476 847 C476 874 457 890 436 890 C421 890 406 881 393 867 L272 741 L291 717 Z " />
<glyph glyph-name="Thorn" unicode="&#xde;" horiz-adv-x="591" d="M47 0 L295 0 L295 63 L206 63 L206 146 C225 145 270 144 311 144 C450 144 543 213 543 336 C543 454 444 521 312 521 C268 521 221 521 206 520 L206 595 L291 595 L291 658 L47 658 L47 592 L131 592 L131 66 L47 66 L47 0 Z M316 207 C269 207 226 208 206 209 L206 456 C222 457 269 458 316 458 C401 458 468 417 468 334 C468 252 407 207 316 207 L316 207 Z " />
<glyph glyph-name="germandbls" unicode="&#xdf;" horiz-adv-x="558" d="M368 -8 C456 -8 526 46 526 139 C526 217 474 261 409 298 C357 327 335 346 335 374 C335 400 345 418 379 451 C420 490 444 531 444 590 C444 677 376 740 284 740 C220 740 171 714 142 668 C123 637 113 597 113 551 L113 426 L37 426 L37 365 L113 365 L113 60 L44 60 L44 0 L182 0 L182 560 C182 587 187 612 197 631 C214 662 241 679 278 679 C332 679 375 639 375 589 C375 550 362 519 326 483 C287 444 270 413 270 372 C270 307 312 277 376 242 C427 213 459 185 459 137 C459 80 419 48 365 48 C355 48 337 51 331 55 C333 60 338 70 338 79 C338 104 317 121 294 121 C270 121 250 101 250 74 C250 36 290 -8 368 -8 L368 -8 Z " />
<glyph glyph-name="agrave" unicode="&#xe0;" horiz-adv-x="492" d="M186 -8 C244 -8 299 20 334 54 L334 0 L467 0 L467 60 L398 60 L398 292 C398 328 388 360 366 384 C338 415 292 434 229 434 C127 434 71 384 71 335 C71 309 89 289 115 289 C142 289 160 308 160 333 C160 342 157 351 154 358 C168 367 186 376 220 376 C263 376 294 363 313 342 C325 327 332 306 332 282 L332 223 C310 231 255 243 209 243 C114 243 45 192 45 114 C45 41 104 -8 186 -8 L186 -8 Z M204 48 C146 48 115 78 115 119 C115 163 149 195 217 195 C258 195 300 187 332 178 L332 107 C299 74 255 48 204 48 L204 48 Z M269 503 L287 527 L167 653 C153 667 139 676 124 676 C103 676 84 660 84 633 C84 619 97 602 118 589 L269 503 Z " />
<glyph glyph-name="aacute" unicode="&#xe1;" horiz-adv-x="492" d="M186 -8 C244 -8 299 20 334 54 L334 0 L467 0 L467 60 L398 60 L398 292 C398 328 388 360 366 384 C338 415 292 434 229 434 C127 434 71 384 71 335 C71 309 89 289 115 289 C142 289 160 308 160 333 C160 342 157 351 154 358 C168 367 186 376 220 376 C263 376 294 363 313 342 C325 327 332 306 332 282 L332 223 C310 231 255 243 209 243 C114 243 45 192 45 114 C45 41 104 -8 186 -8 L186 -8 Z M204 48 C146 48 115 78 115 119 C115 163 149 195 217 195 C258 195 300 187 332 178 L332 107 C299 74 255 48 204 48 L204 48 Z M211 503 L362 589 C383 602 396 619 396 633 C396 660 377 676 356 676 C341 676 326 667 313 653 L192 527 L211 503 Z " />
<glyph glyph-name="acircumflex" unicode="&#xe2;" horiz-adv-x="492" d="M186 -8 C244 -8 299 20 334 54 L334 0 L467 0 L467 60 L398 60 L398 292 C398 328 388 360 366 384 C338 415 292 434 229 434 C127 434 71 384 71 335 C71 309 89 289 115 289 C142 289 160 308 160 333 C160 342 157 351 154 358 C168 367 186 376 220 376 C263 376 294 363 313 342 C325 327 332 306 332 282 L332 223 C310 231 255 243 209 243 C114 243 45 192 45 114 C45 41 104 -8 186 -8 L186 -8 Z M204 48 C146 48 115 78 115 119 C115 163 149 195 217 195 C258 195 300 187 332 178 L332 107 C299 74 255 48 204 48 L204 48 Z M117 500 L240 593 L363 500 L394 537 L240 684 L86 537 L117 500 Z " />
<glyph glyph-name="atilde" unicode="&#xe3;" horiz-adv-x="492" d="M186 -8 C244 -8 299 20 334 54 L334 0 L467 0 L467 60 L398 60 L398 292 C398 328 388 360 366 384 C338 415 292 434 229 434 C127 434 71 384 71 335 C71 309 89 289 115 289 C142 289 160 308 160 333 C160 342 157 351 154 358 C168 367 186 376 220 376 C263 376 294 363 313 342 C325 327 332 306 332 282 L332 223 C310 231 255 243 209 243 C114 243 45 192 45 114 C45 41 104 -8 186 -8 L186 -8 Z M204 48 C146 48 115 78 115 119 C115 163 149 195 217 195 C258 195 300 187 332 178 L332 107 C299 74 255 48 204 48 L204 48 Z M314 509 C361 509 405 558 410 627 L356 639 C349 601 333 579 310 579 C295 579 282 587 259 606 C235 626 209 645 170 645 C124 645 80 596 75 527 L129 515 C135 552 151 575 175 575 C189 575 202 567 226 547 C249 527 275 509 314 509 L314 509 Z " />
<glyph glyph-name="adieresis" unicode="&#xe4;" horiz-adv-x="492" d="M186 -8 C244 -8 299 20 334 54 L334 0 L467 0 L467 60 L398 60 L398 292 C398 328 388 360 366 384 C338 415 292 434 229 434 C127 434 71 384 71 335 C71 309 89 289 115 289 C142 289 160 308 160 333 C160 342 157 351 154 358 C168 367 186 376 220 376 C263 376 294 363 313 342 C325 327 332 306 332 282 L332 223 C310 231 255 243 209 243 C114 243 45 192 45 114 C45 41 104 -8 186 -8 L186 -8 Z M204 48 C146 48 115 78 115 119 C115 163 149 195 217 195 C258 195 300 187 332 178 L332 107 C299 74 255 48 204 48 L204 48 Z M327 519 C358 519 383 545 383 576 C383 608 359 634 327 634 C296 634 270 608 270 576 C270 545 295 519 327 519 L327 519 Z M152 519 C184 519 209 545 209 576 C209 608 184 634 153 634 C122 634 96 608 96 576 C96 545 121 519 152 519 L152 519 Z " />
<glyph glyph-name="aring" unicode="&#xe5;" horiz-adv-x="492" d="M186 -8 C244 -8 299 20 334 54 L334 0 L467 0 L467 60 L398 60 L398 292 C398 328 388 360 366 384 C338 415 292 434 229 434 C127 434 71 384 71 335 C71 309 89 289 115 289 C142 289 160 308 160 333 C160 342 157 351 154 358 C168 367 186 376 220 376 C263 376 294 363 313 342 C325 327 332 306 332 282 L332 223 C310 231 255 243 209 243 C114 243 45 192 45 114 C45 41 104 -8 186 -8 L186 -8 Z M204 48 C146 48 115 78 115 119 C115 163 149 195 217 195 C258 195 300 187 332 178 L332 107 C299 74 255 48 204 48 L204 48 Z M239 494 C301 494 349 543 349 605 C349 667 301 716 239 716 C178 716 130 667 130 605 C130 543 178 494 239 494 L239 494 Z M239 545 C207 545 184 572 184 605 C184 638 207 665 239 665 C272 665 295 638 295 605 C295 572 272 545 239 545 L239 545 Z " />
<glyph glyph-name="ae" unicode="&#xe6;" horiz-adv-x="762" d="M220 375 C261 375 293 362 312 339 C324 325 332 303 332 278 L332 223 C310 231 255 243 209 243 C114 243 45 192 45 114 C45 41 104 -8 189 -8 C244 -8 313 18 369 76 C406 23 467 -8 549 -8 C600 -8 655 6 699 33 L705 100 C655 71 612 53 556 53 C462 53 402 97 392 193 L720 193 C722 204 723 217 723 233 C723 339 655 434 531 434 C461 434 407 401 373 351 C369 362 362 373 355 383 C329 415 287 434 229 434 C127 434 71 384 71 335 C71 309 89 289 115 289 C142 289 160 308 160 333 C160 342 157 351 154 358 C168 367 186 375 220 375 L220 375 Z M205 48 C146 48 115 78 115 119 C115 163 149 195 217 195 C253 195 291 189 332 178 C335 154 340 132 349 112 C298 66 252 48 205 48 L205 48 Z M524 375 C605 375 649 323 654 248 L393 248 C403 329 460 375 524 375 L524 375 Z " />
<glyph glyph-name="ccedilla" unicode="&#xe7;" horiz-adv-x="500" d="M260 -199 C324 -199 358 -164 358 -124 C358 -83 326 -51 264 -48 L266 -8 L268 -8 C314 -8 369 4 412 33 L418 100 C368 68 324 53 276 53 C179 53 113 118 113 211 C113 320 191 375 254 375 C297 375 339 356 350 330 C337 322 329 309 329 295 C329 265 352 248 375 248 C406 248 429 274 429 306 C429 370 352 434 255 434 C136 434 42 330 42 212 C42 99 120 12 228 -4 L203 -84 L222 -100 C224 -100 235 -98 240 -98 C277 -98 293 -111 293 -129 C293 -147 276 -158 251 -158 C226 -158 189 -150 163 -139 L148 -171 C181 -188 222 -199 260 -199 L260 -199 Z " />
<glyph glyph-name="egrave" unicode="&#xe8;" horiz-adv-x="485" d="M441 193 C444 204 445 217 445 233 C445 339 377 434 250 434 C120 434 41 330 41 212 C41 82 132 -8 268 -8 C322 -8 377 6 421 33 L427 100 C377 71 334 53 277 53 C185 53 123 99 113 193 L441 193 Z M246 375 C327 375 370 323 375 248 L114 248 C124 329 181 375 246 375 L246 375 Z M274 503 L292 527 L172 653 C158 667 144 676 129 676 C108 676 89 660 89 633 C89 619 102 602 123 589 L274 503 Z " />
<glyph glyph-name="eacute" unicode="&#xe9;" horiz-adv-x="485" d="M441 193 C444 204 445 217 445 233 C445 339 377 434 250 434 C120 434 41 330 41 212 C41 82 132 -8 268 -8 C322 -8 377 6 421 33 L427 100 C377 71 334 53 277 53 C185 53 123 99 113 193 L441 193 Z M246 375 C327 375 370 323 375 248 L114 248 C124 329 181 375 246 375 L246 375 Z M216 503 L367 589 C388 602 401 619 401 633 C401 660 382 676 361 676 C346 676 331 667 318 653 L197 527 L216 503 Z " />
<glyph glyph-name="ecircumflex" unicode="&#xea;" horiz-adv-x="485" d="M441 193 C444 204 445 217 445 233 C445 339 377 434 250 434 C120 434 41 330 41 212 C41 82 132 -8 268 -8 C322 -8 377 6 421 33 L427 100 C377 71 334 53 277 53 C185 53 123 99 113 193 L441 193 Z M246 375 C327 375 370 323 375 248 L114 248 C124 329 181 375 246 375 L246 375 Z M122 500 L245 593 L368 500 L399 537 L245 684 L91 537 L122 500 Z " />
<glyph glyph-name="edieresis" unicode="&#xeb;" horiz-adv-x="485" d="M441 193 C444 204 445 217 445 233 C445 339 377 434 250 434 C120 434 41 330 41 212 C41 82 132 -8 268 -8 C322 -8 377 6 421 33 L427 100 C377 71 334 53 277 53 C185 53 123 99 113 193 L441 193 Z M246 375 C327 375 370 323 375 248 L114 248 C124 329 181 375 246 375 L246 375 Z M332 519 C363 519 388 545 388 576 C388 608 364 634 332 634 C301 634 275 608 275 576 C275 545 300 519 332 519 L332 519 Z M157 519 C189 519 214 545 214 576 C214 608 189 634 158 634 C127 634 101 608 101 576 C101 545 126 519 157 519 L157 519 Z " />
<glyph glyph-name="igrave" unicode="&#xec;" horiz-adv-x="290" d="M43 0 L256 0 L256 60 L184 60 L184 426 L43 426 L43 365 L115 365 L115 60 L43 60 L43 0 Z M173 503 L191 527 L71 653 C57 667 43 676 28 676 C7 676 -12 660 -12 633 C-12 619 1 602 22 589 L173 503 Z " />
<glyph glyph-name="iacute" unicode="&#xed;" horiz-adv-x="290" d="M115 503 L266 589 C287 602 300 619 300 633 C300 660 281 676 260 676 C245 676 230 667 217 653 L96 527 L115 503 Z M43 0 L256 0 L256 60 L184 60 L184 426 L43 426 L43 365 L115 365 L115 60 L43 60 L43 0 Z " />
<glyph glyph-name="icircumflex" unicode="&#xee;" horiz-adv-x="290" d="M21 500 L144 593 L267 500 L298 537 L144 684 L-10 537 L21 500 Z M43 0 L256 0 L256 60 L184 60 L184 426 L43 426 L43 365 L115 365 L115 60 L43 60 L43 0 Z " />
<glyph glyph-name="idieresis" unicode="&#xef;" horiz-adv-x="290" d="M231 519 C262 519 287 545 287 576 C287 608 263 634 231 634 C200 634 174 608 174 576 C174 545 199 519 231 519 L231 519 Z M56 519 C88 519 113 545 113 576 C113 608 88 634 57 634 C26 634 0 608 0 576 C0 545 25 519 56 519 L56 519 Z M43 0 L256 0 L256 60 L184 60 L184 426 L43 426 L43 365 L115 365 L115 60 L43 60 L43 0 Z " />
<glyph glyph-name="eth" unicode="&#xf0;" horiz-adv-x="528" d="M191 463 L307 567 C360 506 405 425 416 336 C383 382 323 413 263 413 C133 413 44 319 44 202 C44 86 133 -8 264 -8 C324 -8 375 11 413 47 C458 91 484 160 484 249 C484 396 427 519 353 604 L449 689 L411 733 L313 647 C278 679 241 704 207 719 C178 733 150 739 126 739 C87 739 59 715 59 685 C59 654 81 634 106 634 C133 634 150 654 153 675 C185 668 227 645 266 609 L153 508 L191 463 Z M416 209 C416 167 399 124 369 94 C343 68 308 52 264 52 C175 52 113 115 113 202 C113 289 175 353 264 353 C353 353 416 289 416 209 L416 209 Z " />
<glyph glyph-name="ntilde" unicode="&#xf1;" horiz-adv-x="563" d="M175 426 L41 426 L41 365 L109 365 L109 60 L41 60 L41 0 L245 0 L245 60 L178 60 L178 295 C216 337 265 370 318 370 C353 370 377 358 389 333 C397 318 400 299 400 276 L400 60 L333 60 L333 0 L537 0 L537 60 L469 60 L469 290 C469 325 462 355 448 379 C427 413 390 434 335 434 C274 434 215 394 175 347 L175 426 Z M362 509 C409 509 453 558 458 627 L404 639 C397 601 381 579 358 579 C343 579 330 587 307 606 C283 626 257 645 218 645 C172 645 128 596 123 527 L177 515 C183 552 199 575 223 575 C237 575 250 567 274 547 C297 527 323 509 362 509 L362 509 Z " />
<glyph glyph-name="ograve" unicode="&#xf2;" horiz-adv-x="526" d="M263 -8 C395 -8 482 92 482 213 C482 334 395 434 263 434 C131 434 44 333 44 213 C44 91 130 -8 263 -8 L263 -8 Z M263 52 C176 52 116 118 116 213 C116 307 176 374 263 374 C350 374 410 307 410 213 C410 118 350 52 263 52 L263 52 Z M292 503 L310 527 L190 653 C176 667 162 676 147 676 C126 676 107 660 107 633 C107 619 120 602 141 589 L292 503 Z " />
<glyph glyph-name="oacute" unicode="&#xf3;" horiz-adv-x="526" d="M233 503 L384 589 C405 602 418 619 418 633 C418 660 399 676 378 676 C363 676 348 667 335 653 L214 527 L233 503 Z M263 -8 C395 -8 482 92 482 213 C482 334 395 434 263 434 C131 434 44 333 44 213 C44 91 130 -8 263 -8 L263 -8 Z M263 52 C176 52 116 118 116 213 C116 307 176 374 263 374 C350 374 410 307 410 213 C410 118 350 52 263 52 L263 52 Z " />
<glyph glyph-name="ocircumflex" unicode="&#xf4;" horiz-adv-x="526" d="M139 500 L262 593 L385 500 L416 537 L262 684 L108 537 L139 500 Z M263 -8 C395 -8 482 92 482 213 C482 334 395 434 263 434 C131 434 44 333 44 213 C44 91 130 -8 263 -8 L263 -8 Z M263 52 C176 52 116 118 116 213 C116 307 176 374 263 374 C350 374 410 307 410 213 C410 118 350 52 263 52 L263 52 Z " />
<glyph glyph-name="otilde" unicode="&#xf5;" horiz-adv-x="526" d="M263 -8 C395 -8 482 92 482 213 C482 334 395 434 263 434 C131 434 44 333 44 213 C44 91 130 -8 263 -8 L263 -8 Z M263 52 C176 52 116 118 116 213 C116 307 176 374 263 374 C350 374 410 307 410 213 C410 118 350 52 263 52 L263 52 Z M336 509 C383 509 427 558 432 627 L378 639 C371 601 355 579 332 579 C317 579 304 587 281 606 C257 626 231 645 192 645 C146 645 102 596 97 527 L151 515 C157 552 173 575 197 575 C211 575 224 567 248 547 C271 527 297 509 336 509 L336 509 Z " />
<glyph glyph-name="odieresis" unicode="&#xf6;" horiz-adv-x="526" d="M350 519 C381 519 406 545 406 576 C406 608 382 634 350 634 C319 634 293 608 293 576 C293 545 318 519 350 519 L350 519 Z M175 519 C207 519 232 545 232 576 C232 608 207 634 176 634 C145 634 119 608 119 576 C119 545 144 519 175 519 L175 519 Z M263 -8 C395 -8 482 92 482 213 C482 334 395 434 263 434 C131 434 44 333 44 213 C44 91 130 -8 263 -8 L263 -8 Z M263 52 C176 52 116 118 116 213 C116 307 176 374 263 374 C350 374 410 307 410 213 C410 118 350 52 263 52 L263 52 Z " />
<glyph glyph-name="divide" unicode="&#xf7;" horiz-adv-x="416" d="M374 240 L374 301 L42 301 L42 240 L374 240 Z M208 358 C234 358 257 381 257 408 C257 435 234 458 208 458 C182 458 159 435 159 408 C159 381 181 358 208 358 L208 358 Z M208 84 C234 84 257 106 257 133 C257 160 234 183 208 183 C182 183 159 160 159 133 C159 106 181 84 208 84 L208 84 Z " />
<glyph glyph-name="oslash" unicode="&#xf8;" horiz-adv-x="526" d="M263 -8 C395 -8 482 92 482 213 C482 267 463 318 429 358 L480 418 L435 456 L385 397 C351 420 309 434 263 434 C131 434 44 333 44 213 C44 157 64 105 99 65 L49 6 L94 -32 L144 26 C177 5 218 -8 263 -8 L263 -8 Z M116 213 C116 307 176 374 263 374 C295 374 324 365 347 348 L145 109 C126 136 116 171 116 213 L116 213 Z M263 52 C231 52 203 60 181 74 L382 313 C400 287 410 252 410 213 C410 118 350 52 263 52 L263 52 Z " />
<glyph glyph-name="ugrave" unicode="&#xf9;" horiz-adv-x="553" d="M228 -8 C289 -8 347 32 387 79 L387 0 L522 0 L522 60 L454 60 L454 426 L315 426 L315 365 L385 365 L385 131 C345 90 298 56 245 56 C210 56 188 67 175 92 C167 106 163 125 163 149 L163 426 L26 426 L26 365 L94 365 L94 136 C94 102 101 72 114 49 C135 13 172 -8 228 -8 L228 -8 Z M298 503 L316 527 L196 653 C182 667 168 676 153 676 C132 676 113 660 113 633 C113 619 126 602 147 589 L298 503 Z " />
<glyph glyph-name="uacute" unicode="&#xfa;" horiz-adv-x="553" d="M239 503 L390 589 C411 602 424 619 424 633 C424 660 405 676 384 676 C369 676 354 667 341 653 L220 527 L239 503 Z M228 -8 C289 -8 347 32 387 79 L387 0 L522 0 L522 60 L454 60 L454 426 L315 426 L315 365 L385 365 L385 131 C345 90 298 56 245 56 C210 56 188 67 175 92 C167 106 163 125 163 149 L163 426 L26 426 L26 365 L94 365 L94 136 C94 102 101 72 114 49 C135 13 172 -8 228 -8 L228 -8 Z " />
<glyph glyph-name="ucircumflex" unicode="&#xfb;" horiz-adv-x="553" d="M145 500 L268 593 L391 500 L422 537 L268 684 L114 537 L145 500 Z M228 -8 C289 -8 347 32 387 79 L387 0 L522 0 L522 60 L454 60 L454 426 L315 426 L315 365 L385 365 L385 131 C345 90 298 56 245 56 C210 56 188 67 175 92 C167 106 163 125 163 149 L163 426 L26 426 L26 365 L94 365 L94 136 C94 102 101 72 114 49 C135 13 172 -8 228 -8 L228 -8 Z " />
<glyph glyph-name="udieresis" unicode="&#xfc;" horiz-adv-x="553" d="M355 519 C386 519 411 545 411 576 C411 608 387 634 355 634 C324 634 298 608 298 576 C298 545 323 519 355 519 L355 519 Z M180 519 C212 519 237 545 237 576 C237 608 212 634 181 634 C150 634 124 608 124 576 C124 545 149 519 180 519 L180 519 Z M228 -8 C289 -8 347 32 387 79 L387 0 L522 0 L522 60 L454 60 L454 426 L315 426 L315 365 L385 365 L385 131 C345 90 298 56 245 56 C210 56 188 67 175 92 C167 106 163 125 163 149 L163 426 L26 426 L26 365 L94 365 L94 136 C94 102 101 72 114 49 C135 13 172 -8 228 -8 L228 -8 Z " />
<glyph glyph-name="yacute" unicode="&#xfd;" horiz-adv-x="513" d="M212 -128 C225 -110 236 -90 247 -67 L448 365 L506 365 L506 426 L310 426 L310 367 L380 367 L258 93 C259 93 138 367 138 367 L205 367 L205 426 L6 426 L6 365 L65 365 L225 24 L199 -29 C187 -53 177 -74 167 -89 C148 -118 132 -131 116 -137 C110 -118 95 -100 71 -100 C47 -100 28 -116 28 -144 C28 -177 62 -200 102 -200 C145 -200 180 -174 212 -128 L212 -128 Z M227 503 L378 589 C399 602 412 619 412 633 C412 660 393 676 372 676 C357 676 342 667 329 653 L208 527 L227 503 Z " />
<glyph glyph-name="thorn" unicode="&#xfe;" horiz-adv-x="526" d="M1 -196 L220 -196 L220 -136 L138 -136 L138 39 C174 11 220 -8 270 -8 C397 -8 480 95 480 215 C480 346 391 433 279 433 C215 433 173 405 138 369 L138 732 L0 732 L0 672 L69 672 L69 -136 L1 -136 L1 -196 Z M266 53 C211 53 170 74 138 101 L138 310 C173 346 214 372 269 372 C349 372 409 310 408 214 C407 121 349 53 266 53 L266 53 Z " />
<glyph glyph-name="ydieresis" unicode="&#xff;" horiz-adv-x="513" d="M212 -128 C225 -110 236 -90 247 -67 L448 365 L506 365 L506 426 L310 426 L310 367 L380 367 L258 93 C259 93 138 367 138 367 L205 367 L205 426 L6 426 L6 365 L65 365 L225 24 L199 -29 C187 -53 177 -74 167 -89 C148 -118 132 -131 116 -137 C110 -118 95 -100 71 -100 C47 -100 28 -116 28 -144 C28 -177 62 -200 102 -200 C145 -200 180 -174 212 -128 L212 -128 Z M343 519 C374 519 399 545 399 576 C399 608 375 634 343 634 C312 634 286 608 286 576 C286 545 311 519 343 519 L343 519 Z M168 519 C200 519 225 545 225 576 C225 608 200 634 169 634 C138 634 112 608 112 576 C112 545 137 519 168 519 L168 519 Z " />
<glyph glyph-name="Amacron" unicode="&#x100;" horiz-adv-x="706" d="M18 0 L238 0 L238 65 L158 65 L217 227 L486 227 L545 65 L468 65 L468 0 L688 0 L688 66 L625 66 L428 593 L503 593 L503 658 L203 658 L203 593 L278 593 L81 66 L18 66 L18 0 Z M239 290 L352 597 L464 290 L239 290 Z M200 749 L504 749 L504 812 L200 812 L200 749 Z " />
<glyph glyph-name="amacron" unicode="&#x101;" horiz-adv-x="492" d="M186 -8 C244 -8 299 20 334 54 L334 0 L467 0 L467 60 L398 60 L398 292 C398 328 388 360 366 384 C338 415 292 434 229 434 C127 434 71 384 71 335 C71 309 89 289 115 289 C142 289 160 308 160 333 C160 342 157 351 154 358 C168 367 186 376 220 376 C263 376 294 363 313 342 C325 327 332 306 332 282 L332 223 C310 231 255 243 209 243 C114 243 45 192 45 114 C45 41 104 -8 186 -8 L186 -8 Z M204 48 C146 48 115 78 115 119 C115 163 149 195 217 195 C258 195 300 187 332 178 L332 107 C299 74 255 48 204 48 L204 48 Z M88 535 L392 535 L392 598 L88 598 L88 535 Z " />
<glyph glyph-name="Abreve" unicode="&#x102;" horiz-adv-x="706" d="M18 0 L238 0 L238 65 L158 65 L217 227 L486 227 L545 65 L468 65 L468 0 L688 0 L688 66 L625 66 L428 593 L503 593 L503 658 L203 658 L203 593 L278 593 L81 66 L18 66 L18 0 Z M239 290 L352 597 L464 290 L239 290 Z M351 722 C424 722 485 774 510 858 L461 879 C440 826 399 791 351 791 C307 791 263 822 241 879 L192 858 C218 774 278 722 351 722 L351 722 Z " />
<glyph glyph-name="abreve" unicode="&#x103;" horiz-adv-x="492" d="M186 -8 C244 -8 299 20 334 54 L334 0 L467 0 L467 60 L398 60 L398 292 C398 328 388 360 366 384 C338 415 292 434 229 434 C127 434 71 384 71 335 C71 309 89 289 115 289 C142 289 160 308 160 333 C160 342 157 351 154 358 C168 367 186 376 220 376 C263 376 294 363 313 342 C325 327 332 306 332 282 L332 223 C310 231 255 243 209 243 C114 243 45 192 45 114 C45 41 104 -8 186 -8 L186 -8 Z M204 48 C146 48 115 78 115 119 C115 163 149 195 217 195 C258 195 300 187 332 178 L332 107 C299 74 255 48 204 48 L204 48 Z M239 508 C312 508 373 560 398 644 L349 665 C328 612 287 577 239 577 C195 577 151 608 129 665 L80 644 C106 560 166 508 239 508 L239 508 Z " />
<glyph glyph-name="Aogonek" unicode="&#x104;" horiz-adv-x="706" d="M584 -201 C621 -201 655 -189 670 -178 L674 -125 C652 -136 626 -144 596 -144 C559 -144 541 -124 541 -92 C541 -55 570 -23 613 0 L688 0 L688 66 L625 66 L428 593 L503 593 L503 658 L203 658 L203 593 L278 593 L81 66 L18 66 L18 0 L238 0 L238 65 L158 65 L217 227 L486 227 L545 65 L468 65 L468 0 L542 0 C504 -27 478 -63 478 -108 C478 -163 514 -201 584 -201 L584 -201 Z M239 290 L352 597 L464 290 L239 290 Z " />
<glyph glyph-name="aogonek" unicode="&#x105;" horiz-adv-x="492" d="M373 -201 C410 -201 444 -189 459 -178 L463 -125 C441 -136 415 -144 385 -144 C348 -144 330 -124 330 -92 C330 -55 359 -23 402 0 L467 0 L467 60 L398 60 L398 292 C398 328 388 360 366 384 C338 415 292 434 229 434 C127 434 71 384 71 335 C71 309 89 289 115 289 C142 289 160 308 160 333 C160 342 157 351 154 358 C168 367 186 376 220 376 C263 376 294 363 313 342 C325 327 332 306 332 282 L332 223 C310 231 255 243 209 243 C114 243 45 192 45 114 C45 41 104 -8 186 -8 C244 -8 299 20 334 54 L334 2 C295 -25 267 -62 267 -108 C267 -163 303 -201 373 -201 L373 -201 Z M204 48 C146 48 115 78 115 119 C115 163 149 195 217 195 C258 195 300 187 332 178 L332 107 C299 74 255 48 204 48 L204 48 Z " />
<glyph glyph-name="Cacute" unicode="&#x106;" horiz-adv-x="702" d="M361 717 L512 803 C533 816 546 833 546 847 C546 874 527 890 506 890 C491 890 476 881 463 867 L342 741 L361 717 Z M393 -12 C484 -12 575 22 641 88 L597 141 C538 86 472 56 393 56 C238 56 132 186 132 327 C132 475 239 602 389 602 C473 602 530 565 548 536 C535 531 523 515 523 496 C523 466 547 443 578 443 C611 443 636 471 636 508 C636 587 528 670 390 670 C212 670 56 529 56 326 C56 145 190 -12 393 -12 L393 -12 Z " />
<glyph glyph-name="cacute" unicode="&#x107;" horiz-adv-x="473" d="M222 503 L373 589 C394 602 407 619 407 633 C407 660 388 676 367 676 C352 676 337 667 324 653 L203 527 L222 503 Z M268 -8 C314 -8 369 4 412 33 L418 100 C368 68 324 53 276 53 C179 53 113 118 113 211 C113 320 191 375 254 375 C297 375 339 356 350 330 C337 322 329 309 329 295 C329 265 352 248 375 248 C406 248 429 274 429 306 C429 370 352 434 255 434 C136 434 42 330 42 212 C42 86 139 -8 268 -8 L268 -8 Z " />
<glyph glyph-name="Cdotaccent" unicode="&#x10a;" horiz-adv-x="702" d="M393 -12 C484 -12 575 22 641 88 L597 141 C538 86 472 56 393 56 C238 56 132 186 132 327 C132 475 239 602 389 602 C473 602 530 565 548 536 C535 531 523 515 523 496 C523 466 547 443 578 443 C611 443 636 471 636 508 C636 587 528 670 390 670 C212 670 56 529 56 326 C56 145 190 -12 393 -12 L393 -12 Z M390 728 C422 728 448 755 448 787 C448 820 423 846 391 846 C359 846 333 820 333 787 C333 755 358 728 390 728 L390 728 Z " />
<glyph glyph-name="cdotaccent" unicode="&#x10b;" horiz-adv-x="473" d="M268 -8 C314 -8 369 4 412 33 L418 100 C368 68 324 53 276 53 C179 53 113 118 113 211 C113 320 191 375 254 375 C297 375 339 356 350 330 C337 322 329 309 329 295 C329 265 352 248 375 248 C406 248 429 274 429 306 C429 370 352 434 255 434 C136 434 42 330 42 212 C42 86 139 -8 268 -8 L268 -8 Z M251 514 C283 514 309 541 309 573 C309 606 284 632 252 632 C220 632 194 606 194 573 C194 541 219 514 251 514 L251 514 Z " />
<glyph glyph-name="Ccaron" unicode="&#x10c;" horiz-adv-x="702" d="M513 899 L390 806 L267 899 L236 862 L390 715 L544 862 L513 899 Z M393 -12 C484 -12 575 22 641 88 L597 141 C538 86 472 56 393 56 C238 56 132 186 132 327 C132 475 239 602 389 602 C473 602 530 565 548 536 C535 531 523 515 523 496 C523 466 547 443 578 443 C611 443 636 471 636 508 C636 587 528 670 390 670 C212 670 56 529 56 326 C56 145 190 -12 393 -12 L393 -12 Z " />
<glyph glyph-name="ccaron" unicode="&#x10d;" horiz-adv-x="473" d="M374 685 L251 592 L128 685 L97 648 L251 501 L405 648 L374 685 Z M268 -8 C314 -8 369 4 412 33 L418 100 C368 68 324 53 276 53 C179 53 113 118 113 211 C113 320 191 375 254 375 C297 375 339 356 350 330 C337 322 329 309 329 295 C329 265 352 248 375 248 C406 248 429 274 429 306 C429 370 352 434 255 434 C136 434 42 330 42 212 C42 86 139 -8 268 -8 L268 -8 Z " />
<glyph glyph-name="Dcaron" unicode="&#x10e;" horiz-adv-x="728" d="M463 899 L340 806 L217 899 L186 862 L340 715 L494 862 L463 899 Z M47 0 L291 0 C533 0 672 137 672 336 C672 531 523 658 294 658 L47 658 L47 592 L131 592 L131 66 L47 66 L47 0 Z M206 66 L206 592 L292 592 C478 592 596 495 596 337 C596 176 497 66 300 66 L206 66 Z " />
<glyph glyph-name="dcaron" unicode="&#x10f;" horiz-adv-x="550" d="M513 507 C563 559 605 628 605 692 C605 723 590 742 562 742 C532 742 517 721 517 696 C517 670 526 657 526 628 C526 594 515 562 490 525 L513 507 Z M246 -8 C309 -8 353 20 389 60 L389 0 L525 0 L525 60 L456 60 L456 732 L307 732 L307 672 L387 672 L387 383 C354 414 308 434 255 434 C127 434 44 331 44 210 C44 80 133 -8 246 -8 L246 -8 Z M256 52 C175 52 115 116 116 211 C116 305 175 374 259 374 C315 374 355 352 387 325 L387 116 C353 80 311 52 256 52 L256 52 Z " />
<glyph glyph-name="Dcroat" unicode="&#x110;" horiz-adv-x="734" d="M138 306 L138 66 L54 66 L54 0 L301 0 C539 0 678 137 678 336 C678 530 528 658 300 658 L54 658 L54 592 L138 592 L138 368 L65 368 L65 306 L138 306 Z M212 66 L212 306 L362 306 L362 368 L212 368 L212 592 L298 592 C484 592 602 495 602 337 C602 176 503 66 306 66 L212 66 Z " />
<glyph glyph-name="dcroat" unicode="&#x111;" horiz-adv-x="550" d="M233 521 L387 521 L387 383 C354 414 308 434 255 434 C127 434 44 331 44 210 C44 80 133 -8 246 -8 C309 -8 353 20 389 60 L389 0 L525 0 L525 60 L456 60 L456 521 L525 521 L525 578 L456 578 L456 732 L307 732 L307 672 L387 672 L387 578 L233 578 L233 521 Z M256 52 C175 52 115 116 116 211 C116 305 175 374 259 374 C315 374 355 352 387 325 L387 116 C353 80 311 52 256 52 L256 52 Z " />
<glyph glyph-name="Emacron" unicode="&#x112;" horiz-adv-x="588" d="M47 0 L526 0 L526 161 L454 161 L454 65 L206 65 L206 303 L421 303 L421 367 L206 367 L206 593 L454 593 L454 497 L525 497 L525 658 L47 658 L47 592 L131 592 L131 66 L47 66 L47 0 Z M137 749 L441 749 L441 812 L137 812 L137 749 Z " />
<glyph glyph-name="emacron" unicode="&#x113;" horiz-adv-x="485" d="M441 193 C444 204 445 217 445 233 C445 339 377 434 250 434 C120 434 41 330 41 212 C41 82 132 -8 268 -8 C322 -8 377 6 421 33 L427 100 C377 71 334 53 277 53 C185 53 123 99 113 193 L441 193 Z M246 375 C327 375 370 323 375 248 L114 248 C124 329 181 375 246 375 L246 375 Z M93 535 L397 535 L397 598 L93 598 L93 535 Z " />
<glyph glyph-name="Ebreve" unicode="&#x114;" horiz-adv-x="588" d="M47 0 L526 0 L526 161 L454 161 L454 65 L206 65 L206 303 L421 303 L421 367 L206 367 L206 593 L454 593 L454 497 L525 497 L525 658 L47 658 L47 592 L131 592 L131 66 L47 66 L47 0 Z M288 722 C361 722 422 774 447 858 L398 879 C377 826 336 791 288 791 C244 791 200 822 178 879 L129 858 C155 774 215 722 288 722 L288 722 Z " />
<glyph glyph-name="ebreve" unicode="&#x115;" horiz-adv-x="485" d="M441 193 C444 204 445 217 445 233 C445 339 377 434 250 434 C120 434 41 330 41 212 C41 82 132 -8 268 -8 C322 -8 377 6 421 33 L427 100 C377 71 334 53 277 53 C185 53 123 99 113 193 L441 193 Z M246 375 C327 375 370 323 375 248 L114 248 C124 329 181 375 246 375 L246 375 Z M244 508 C317 508 378 560 403 644 L354 665 C333 612 292 577 244 577 C200 577 156 608 134 665 L85 644 C111 560 171 508 244 508 L244 508 Z " />
<glyph glyph-name="Edotaccent" unicode="&#x116;" horiz-adv-x="588" d="M47 0 L526 0 L526 161 L454 161 L454 65 L206 65 L206 303 L421 303 L421 367 L206 367 L206 593 L454 593 L454 497 L525 497 L525 658 L47 658 L47 592 L131 592 L131 66 L47 66 L47 0 Z M288 728 C320 728 346 755 346 787 C346 820 321 846 289 846 C257 846 231 820 231 787 C231 755 256 728 288 728 L288 728 Z " />
<glyph glyph-name="edotaccent" unicode="&#x117;" horiz-adv-x="485" d="M441 193 C444 204 445 217 445 233 C445 339 377 434 250 434 C120 434 41 330 41 212 C41 82 132 -8 268 -8 C322 -8 377 6 421 33 L427 100 C377 71 334 53 277 53 C185 53 123 99 113 193 L441 193 Z M246 375 C327 375 370 323 375 248 L114 248 C124 329 181 375 246 375 L246 375 Z M244 514 C276 514 302 541 302 573 C302 606 277 632 245 632 C213 632 187 606 187 573 C187 541 212 514 244 514 L244 514 Z " />
<glyph glyph-name="Eogonek" unicode="&#x118;" horiz-adv-x="588" d="M47 0 L393 0 C355 -27 329 -63 329 -108 C329 -163 365 -201 435 -201 C472 -201 506 -189 521 -178 L525 -125 C503 -136 477 -144 447 -144 C410 -144 392 -124 392 -92 C392 -55 421 -23 464 0 L526 0 L526 161 L454 161 L454 65 L206 65 L206 303 L421 303 L421 367 L206 367 L206 593 L454 593 L454 497 L525 497 L525 658 L47 658 L47 592 L131 592 L131 66 L47 66 L47 0 Z " />
<glyph glyph-name="eogonek" unicode="&#x119;" horiz-adv-x="485" d="M441 193 C444 204 445 217 445 233 C445 339 377 434 250 434 C120 434 41 330 41 212 C41 82 132 -8 268 -8 L270 -8 C238 -33 218 -66 218 -108 C218 -163 254 -201 324 -201 C361 -201 395 -189 411 -178 L414 -125 C392 -136 366 -144 337 -144 C299 -144 281 -124 281 -93 C281 -35 356 0 421 33 L427 100 C377 71 334 53 277 53 C185 53 123 99 113 193 L441 193 Z M246 375 C327 375 370 323 375 248 L114 248 C124 329 181 375 246 375 L246 375 Z " />
<glyph glyph-name="Ecaron" unicode="&#x11a;" horiz-adv-x="588" d="M411 899 L288 806 L165 899 L134 862 L288 715 L442 862 L411 899 Z M47 0 L526 0 L526 161 L454 161 L454 65 L206 65 L206 303 L421 303 L421 367 L206 367 L206 593 L454 593 L454 497 L525 497 L525 658 L47 658 L47 592 L131 592 L131 66 L47 66 L47 0 Z " />
<glyph glyph-name="ecaron" unicode="&#x11b;" horiz-adv-x="485" d="M441 193 C444 204 445 217 445 233 C445 339 377 434 250 434 C120 434 41 330 41 212 C41 82 132 -8 268 -8 C322 -8 377 6 421 33 L427 100 C377 71 334 53 277 53 C185 53 123 99 113 193 L441 193 Z M246 375 C327 375 370 323 375 248 L114 248 C124 329 181 375 246 375 L246 375 Z M367 685 L244 592 L121 685 L90 648 L244 501 L398 648 L367 685 Z " />
<glyph glyph-name="Gbreve" unicode="&#x11e;" horiz-adv-x="737" d="M376 -12 C459 -12 524 14 581 57 L581 0 L652 0 L652 320 L397 320 L397 257 L579 257 L579 117 C522 77 459 54 384 54 C248 54 132 162 132 324 C132 480 239 602 395 602 C469 602 526 574 551 547 C541 539 534 526 534 509 C534 479 557 456 588 456 C620 456 644 481 644 518 C644 588 545 670 397 670 C215 670 56 532 56 324 C56 114 210 -12 376 -12 L376 -12 Z M381 722 C454 722 515 774 540 858 L491 879 C470 826 429 791 381 791 C337 791 293 822 271 879 L222 858 C248 774 308 722 381 722 L381 722 Z " />
<glyph glyph-name="gbreve" unicode="&#x11f;" horiz-adv-x="556" d="M457 365 L526 365 L526 426 L391 426 L391 379 C357 411 312 434 255 434 C128 434 44 330 44 215 C44 91 135 3 246 3 C311 3 353 30 388 66 L388 -17 C388 -53 379 -79 363 -99 C338 -130 298 -141 256 -141 C213 -141 185 -132 172 -124 C178 -116 181 -106 181 -96 C181 -72 164 -53 139 -53 C110 -53 89 -76 89 -105 C89 -122 96 -139 111 -154 C137 -179 189 -200 256 -200 C322 -200 382 -182 418 -138 C443 -108 457 -67 457 -14 L457 365 Z M261 373 C316 373 357 352 388 325 L388 125 C354 89 311 63 257 63 C175 63 116 126 116 216 C116 305 174 373 261 373 L261 373 Z M283 508 C356 508 417 560 442 644 L393 665 C372 612 331 577 283 577 C239 577 195 608 173 665 L124 644 C150 560 210 508 283 508 L283 508 Z " />
<glyph glyph-name="Gdotaccent" unicode="&#x120;" horiz-adv-x="737" d="M376 -12 C459 -12 524 14 581 57 L581 0 L652 0 L652 320 L397 320 L397 257 L579 257 L579 117 C522 77 459 54 384 54 C248 54 132 162 132 324 C132 480 239 602 395 602 C469 602 526 574 551 547 C541 539 534 526 534 509 C534 479 557 456 588 456 C620 456 644 481 644 518 C644 588 545 670 397 670 C215 670 56 532 56 324 C56 114 210 -12 376 -12 L376 -12 Z M381 728 C413 728 439 755 439 787 C439 820 414 846 382 846 C350 846 324 820 324 787 C324 755 349 728 381 728 L381 728 Z " />
<glyph glyph-name="gdotaccent" unicode="&#x121;" horiz-adv-x="556" d="M457 365 L526 365 L526 426 L391 426 L391 379 C357 411 312 434 255 434 C128 434 44 330 44 215 C44 91 135 3 246 3 C311 3 353 30 388 66 L388 -17 C388 -53 379 -79 363 -99 C338 -130 298 -141 256 -141 C213 -141 185 -132 172 -124 C178 -116 181 -106 181 -96 C181 -72 164 -53 139 -53 C110 -53 89 -76 89 -105 C89 -122 96 -139 111 -154 C137 -179 189 -200 256 -200 C322 -200 382 -182 418 -138 C443 -108 457 -67 457 -14 L457 365 Z M261 373 C316 373 357 352 388 325 L388 125 C354 89 311 63 257 63 C175 63 116 126 116 216 C116 305 174 373 261 373 L261 373 Z M281 514 C313 514 339 541 339 573 C339 606 314 632 282 632 C250 632 224 606 224 573 C224 541 249 514 281 514 L281 514 Z " />
<glyph glyph-name="Gcommaaccent" unicode="&#x122;" horiz-adv-x="737" d="M314 -278 C404 -229 436 -164 436 -118 C436 -75 411 -53 380 -53 C354 -53 331 -74 331 -102 C331 -127 350 -147 374 -152 C373 -174 354 -213 298 -255 L314 -278 Z M376 -12 C459 -12 524 14 581 57 L581 0 L652 0 L652 320 L397 320 L397 257 L579 257 L579 117 C522 77 459 54 384 54 C248 54 132 162 132 324 C132 480 239 602 395 602 C469 602 526 574 551 547 C541 539 534 526 534 509 C534 479 557 456 588 456 C620 456 644 481 644 518 C644 588 545 670 397 670 C215 670 56 532 56 324 C56 114 210 -12 376 -12 L376 -12 Z " />
<glyph glyph-name="gcommaaccent" unicode="&#x123;" horiz-adv-x="556" d="M359 744 C269 695 237 630 237 584 C237 541 262 519 293 519 C319 519 342 540 342 568 C342 593 323 613 299 618 C300 640 319 679 375 721 L359 744 Z M457 365 L526 365 L526 426 L391 426 L391 379 C357 411 312 434 255 434 C128 434 44 330 44 215 C44 91 135 3 246 3 C311 3 353 30 388 66 L388 -17 C388 -53 379 -79 363 -99 C338 -130 298 -141 256 -141 C213 -141 185 -132 172 -124 C178 -116 181 -106 181 -96 C181 -72 164 -53 139 -53 C110 -53 89 -76 89 -105 C89 -122 96 -139 111 -154 C137 -179 189 -200 256 -200 C322 -200 382 -182 418 -138 C443 -108 457 -67 457 -14 L457 365 Z M261 373 C316 373 357 352 388 325 L388 125 C354 89 311 63 257 63 C175 63 116 126 116 216 C116 305 174 373 261 373 L261 373 Z " />
<glyph glyph-name="Hbar" unicode="&#x126;" horiz-adv-x="776" d="M67 453 L131 453 L131 66 L47 66 L47 0 L292 0 L292 66 L206 66 L206 298 L570 298 L570 66 L484 66 L484 0 L729 0 L729 66 L645 66 L645 453 L709 453 L709 512 L645 512 L645 595 L729 595 L729 658 L484 658 L484 595 L570 595 L570 512 L206 512 L206 595 L292 595 L292 658 L47 658 L47 595 L131 595 L131 512 L67 512 L67 453 Z M206 363 L206 453 L570 453 L570 363 L206 363 Z " />
<glyph glyph-name="hbar" unicode="&#x127;" horiz-adv-x="556" d="M99 672 L99 578 L31 578 L31 521 L99 521 L99 60 L31 60 L31 0 L235 0 L235 60 L168 60 L168 295 C206 337 255 370 308 370 C337 370 360 361 374 343 C387 328 393 307 393 276 L393 60 L326 60 L326 0 L531 0 L531 60 L462 60 L462 290 C462 329 453 363 434 388 C412 417 376 434 326 434 C265 434 209 396 168 349 L168 521 L323 521 L323 578 L168 578 L168 732 L31 732 L31 672 L99 672 Z " />
<glyph glyph-name="Imacron" unicode="&#x12a;" horiz-adv-x="348" d="M48 0 L300 0 L300 66 L211 66 L211 592 L300 592 L300 658 L48 658 L48 592 L137 592 L137 66 L48 66 L48 0 Z M22 749 L326 749 L326 812 L22 812 L22 749 Z " />
<glyph glyph-name="imacron" unicode="&#x12b;" horiz-adv-x="290" d="M43 0 L256 0 L256 60 L184 60 L184 426 L43 426 L43 365 L115 365 L115 60 L43 60 L43 0 Z M-8 535 L296 535 L296 598 L-8 598 L-8 535 Z " />
<glyph glyph-name="Ibreve" unicode="&#x12c;" horiz-adv-x="348" d="M48 0 L300 0 L300 66 L211 66 L211 592 L300 592 L300 658 L48 658 L48 592 L137 592 L137 66 L48 66 L48 0 Z M173 722 C246 722 307 774 332 858 L283 879 C262 826 221 791 173 791 C129 791 85 822 63 879 L14 858 C40 774 100 722 173 722 L173 722 Z " />
<glyph glyph-name="ibreve" unicode="&#x12d;" horiz-adv-x="290" d="M43 0 L256 0 L256 60 L184 60 L184 426 L43 426 L43 365 L115 365 L115 60 L43 60 L43 0 Z M143 508 C216 508 277 560 302 644 L253 665 C232 612 191 577 143 577 C99 577 55 608 33 665 L-16 644 C10 560 70 508 143 508 L143 508 Z " />
<glyph glyph-name="Iogonek" unicode="&#x12e;" horiz-adv-x="348" d="M48 0 L147 0 C109 -27 83 -63 83 -108 C83 -163 119 -201 189 -201 C226 -201 260 -189 275 -178 L279 -125 C257 -136 231 -144 201 -144 C164 -144 146 -124 146 -92 C146 -55 175 -23 218 0 L300 0 L300 66 L211 66 L211 592 L300 592 L300 658 L48 658 L48 592 L137 592 L137 66 L48 66 L48 0 Z " />
<glyph glyph-name="iogonek" unicode="&#x12f;" horiz-adv-x="290" d="M43 0 L109 0 C71 -27 45 -63 45 -108 C45 -163 81 -201 151 -201 C188 -201 222 -189 237 -178 L241 -125 C219 -136 193 -144 163 -144 C126 -144 108 -124 108 -92 C108 -55 137 -23 180 0 L256 0 L256 60 L184 60 L184 426 L43 426 L43 365 L115 365 L115 60 L43 60 L43 0 Z M140 535 C169 535 195 560 195 590 C195 620 170 646 141 646 C111 646 85 620 85 590 C85 560 110 535 140 535 L140 535 Z " />
<glyph glyph-name="Idotaccent" unicode="&#x130;" horiz-adv-x="348" d="M48 0 L300 0 L300 66 L211 66 L211 592 L300 592 L300 658 L48 658 L48 592 L137 592 L137 66 L48 66 L48 0 Z M174 728 C206 728 232 755 232 787 C232 820 207 846 175 846 C143 846 117 820 117 787 C117 755 142 728 174 728 L174 728 Z " />
<glyph glyph-name="dotlessi" unicode="&#x131;" horiz-adv-x="290" d="M43 0 L256 0 L256 60 L184 60 L184 426 L43 426 L43 365 L115 365 L115 60 L43 60 L43 0 Z " />
<glyph glyph-name="Kcommaaccent" unicode="&#x136;" horiz-adv-x="675" d="M287 -278 C377 -229 409 -164 409 -118 C409 -75 384 -53 353 -53 C327 -53 304 -74 304 -102 C304 -127 323 -147 347 -152 C346 -174 327 -213 271 -255 L287 -278 Z M47 0 L292 0 L292 66 L206 66 L206 222 L314 330 L531 0 L662 0 L662 66 L579 66 L369 379 L583 592 L657 592 L657 658 L403 658 L403 593 L491 593 L206 306 L206 593 L292 593 L292 658 L47 658 L47 592 L131 592 L131 66 L47 66 L47 0 Z " />
<glyph glyph-name="kcommaaccent" unicode="&#x137;" horiz-adv-x="524" d="M199 -278 C289 -229 321 -164 321 -118 C321 -75 296 -53 265 -53 C239 -53 216 -74 216 -102 C216 -127 235 -147 259 -152 C258 -174 239 -213 183 -255 L199 -278 Z M31 0 L237 0 L237 59 L168 59 L168 148 L244 212 L386 0 L504 0 L504 60 L426 60 L294 250 L428 365 L504 365 L504 426 L263 426 L263 368 L346 368 L168 214 L168 732 L31 732 L31 672 L99 672 L99 60 L31 60 L31 0 Z " />
<glyph glyph-name="Lacute" unicode="&#x139;" horiz-adv-x="554" d="M165 728 L316 814 C337 827 350 844 350 858 C350 885 331 901 310 901 C295 901 280 892 267 878 L146 752 L165 728 Z M47 0 L505 0 L505 166 L434 166 L434 65 L206 65 L206 592 L297 592 L297 658 L47 658 L47 592 L131 592 L131 66 L47 66 L47 0 Z " />
<glyph glyph-name="lacute" unicode="&#x13a;" horiz-adv-x="278" d="M127 771 L278 857 C299 870 312 887 312 901 C312 928 293 944 272 944 C257 944 242 935 229 921 L108 795 L127 771 Z M33 0 L246 0 L246 60 L174 60 L174 732 L33 732 L33 672 L105 672 L105 60 L33 60 L33 0 Z " />
<glyph glyph-name="Lcommaaccent" unicode="&#x13b;" horiz-adv-x="554" d="M208 -278 C298 -229 330 -164 330 -118 C330 -75 305 -53 274 -53 C248 -53 225 -74 225 -102 C225 -127 244 -147 268 -152 C267 -174 248 -213 192 -255 L208 -278 Z M47 0 L505 0 L505 166 L434 166 L434 65 L206 65 L206 592 L297 592 L297 658 L47 658 L47 592 L131 592 L131 66 L47 66 L47 0 Z " />
<glyph glyph-name="lcommaaccent" unicode="&#x13c;" horiz-adv-x="278" d="M71 -278 C161 -229 193 -164 193 -118 C193 -75 168 -53 137 -53 C111 -53 88 -74 88 -102 C88 -127 107 -147 131 -152 C130 -174 111 -213 55 -255 L71 -278 Z M33 0 L246 0 L246 60 L174 60 L174 732 L33 732 L33 672 L105 672 L105 60 L33 60 L33 0 Z " />
<glyph glyph-name="Lcaron" unicode="&#x13d;" horiz-adv-x="554" d="M354 425 C404 477 446 546 446 610 C446 641 431 660 403 660 C373 660 358 639 358 614 C358 588 367 575 367 546 C367 512 356 480 331 443 L354 425 Z M47 0 L505 0 L505 166 L434 166 L434 65 L206 65 L206 592 L297 592 L297 658 L47 658 L47 592 L131 592 L131 66 L47 66 L47 0 Z " />
<glyph glyph-name="lcaron" unicode="&#x13e;" horiz-adv-x="278" d="M230 507 C280 559 322 628 322 692 C322 723 307 742 279 742 C249 742 234 721 234 696 C234 670 243 657 243 628 C243 594 232 562 207 525 L230 507 Z M33 0 L246 0 L246 60 L174 60 L174 732 L33 732 L33 672 L105 672 L105 60 L33 60 L33 0 Z " />
<glyph glyph-name="Ldot" unicode="&#x13f;" horiz-adv-x="554" d="M47 0 L505 0 L505 166 L434 166 L434 65 L206 65 L206 592 L297 592 L297 658 L47 658 L47 592 L131 592 L131 66 L47 66 L47 0 Z M445 297 C477 297 503 324 503 356 C503 389 478 415 446 415 C414 415 388 389 388 356 C388 324 413 297 445 297 L445 297 Z " />
<glyph glyph-name="ldot" unicode="&#x140;" horiz-adv-x="316" d="M33 0 L246 0 L246 60 L174 60 L174 732 L33 732 L33 672 L105 672 L105 60 L33 60 L33 0 Z M297 281 C329 281 355 308 355 340 C355 373 330 399 298 399 C266 399 240 373 240 340 C240 308 265 281 297 281 L297 281 Z " />
<glyph glyph-name="Lslash" unicode="&#x141;" horiz-adv-x="560" d="M53 0 L511 0 L511 166 L440 166 L440 65 L212 65 L212 306 L384 407 L353 460 L212 377 L212 592 L303 592 L303 658 L53 658 L53 592 L137 592 L137 334 L25 269 L56 216 L137 263 L137 66 L53 66 L53 0 Z " />
<glyph glyph-name="lslash" unicode="&#x142;" horiz-adv-x="292" d="M40 0 L253 0 L253 60 L181 60 L181 395 L287 458 L258 508 L181 463 L181 732 L40 732 L40 672 L112 672 L112 425 L-2 357 L27 307 L112 357 L112 60 L40 60 L40 0 Z " />
<glyph glyph-name="Nacute" unicode="&#x143;" horiz-adv-x="764" d="M351 717 L502 803 C523 816 536 833 536 847 C536 874 517 890 496 890 C481 890 466 881 453 867 L332 741 L351 717 Z M606 -3 L647 -2 L647 592 L728 592 L728 658 L489 658 L489 592 L576 592 L576 157 L196 658 L47 658 L47 592 L131 592 L131 66 L47 66 L47 0 L289 0 L289 66 L203 66 L203 528 L606 -3 Z " />
<glyph glyph-name="nacute" unicode="&#x144;" horiz-adv-x="563" d="M259 503 L410 589 C431 602 444 619 444 633 C444 660 425 676 404 676 C389 676 374 667 361 653 L240 527 L259 503 Z M175 426 L41 426 L41 365 L109 365 L109 60 L41 60 L41 0 L245 0 L245 60 L178 60 L178 295 C216 337 265 370 318 370 C353 370 377 358 389 333 C397 318 400 299 400 276 L400 60 L333 60 L333 0 L537 0 L537 60 L469 60 L469 290 C469 325 462 355 448 379 C427 413 390 434 335 434 C274 434 215 394 175 347 L175 426 Z " />
<glyph glyph-name="Ncommaaccent" unicode="&#x145;" horiz-adv-x="764" d="M316 -276 C406 -227 438 -162 438 -116 C438 -73 413 -51 382 -51 C356 -51 333 -72 333 -100 C333 -125 352 -145 376 -150 C375 -172 356 -211 300 -253 L316 -276 Z M606 -3 L647 -2 L647 592 L728 592 L728 658 L489 658 L489 592 L576 592 L576 157 L196 658 L47 658 L47 592 L131 592 L131 66 L47 66 L47 0 L289 0 L289 66 L203 66 L203 528 L606 -3 Z " />
<glyph glyph-name="ncommaaccent" unicode="&#x146;" horiz-adv-x="563" d="M221 -278 C311 -229 343 -164 343 -118 C343 -75 318 -53 287 -53 C261 -53 238 -74 238 -102 C238 -127 257 -147 281 -152 C280 -174 261 -213 205 -255 L221 -278 Z M175 426 L41 426 L41 365 L109 365 L109 60 L41 60 L41 0 L245 0 L245 60 L178 60 L178 295 C216 337 265 370 318 370 C353 370 377 358 389 333 C397 318 400 299 400 276 L400 60 L333 60 L333 0 L537 0 L537 60 L469 60 L469 290 C469 325 462 355 448 379 C427 413 390 434 335 434 C274 434 215 394 175 347 L175 426 Z " />
<glyph glyph-name="Ncaron" unicode="&#x147;" horiz-adv-x="764" d="M503 899 L380 806 L257 899 L226 862 L380 715 L534 862 L503 899 Z M606 -3 L647 -2 L647 592 L728 592 L728 658 L489 658 L489 592 L576 592 L576 157 L196 658 L47 658 L47 592 L131 592 L131 66 L47 66 L47 0 L289 0 L289 66 L203 66 L203 528 L606 -3 Z " />
<glyph glyph-name="ncaron" unicode="&#x148;" horiz-adv-x="563" d="M411 685 L288 592 L165 685 L134 648 L288 501 L442 648 L411 685 Z M175 426 L41 426 L41 365 L109 365 L109 60 L41 60 L41 0 L245 0 L245 60 L178 60 L178 295 C216 337 265 370 318 370 C353 370 377 358 389 333 C397 318 400 299 400 276 L400 60 L333 60 L333 0 L537 0 L537 60 L469 60 L469 290 C469 325 462 355 448 379 C427 413 390 434 335 434 C274 434 215 394 175 347 L175 426 Z " />
<glyph glyph-name="Omacron" unicode="&#x14c;" horiz-adv-x="777" d="M236 749 L540 749 L540 812 L236 812 L236 749 Z M387 -12 C580 -12 722 137 722 330 C722 520 582 670 391 670 C197 670 56 521 56 328 C56 138 195 -12 387 -12 L387 -12 Z M389 56 C238 56 132 175 132 330 C132 484 238 602 389 602 C539 602 645 483 645 328 C645 174 539 56 389 56 L389 56 Z " />
<glyph glyph-name="omacron" unicode="&#x14d;" horiz-adv-x="526" d="M110 535 L414 535 L414 598 L110 598 L110 535 Z M263 -8 C395 -8 482 92 482 213 C482 334 395 434 263 434 C131 434 44 333 44 213 C44 91 130 -8 263 -8 L263 -8 Z M263 52 C176 52 116 118 116 213 C116 307 176 374 263 374 C350 374 410 307 410 213 C410 118 350 52 263 52 L263 52 Z " />
<glyph glyph-name="Obreve" unicode="&#x14e;" horiz-adv-x="777" d="M387 -12 C580 -12 722 137 722 330 C722 520 582 670 391 670 C197 670 56 521 56 328 C56 138 195 -12 387 -12 L387 -12 Z M389 56 C238 56 132 175 132 330 C132 484 238 602 389 602 C539 602 645 483 645 328 C645 174 539 56 389 56 L389 56 Z M387 722 C460 722 521 774 546 858 L497 879 C476 826 435 791 387 791 C343 791 299 822 277 879 L228 858 C254 774 314 722 387 722 L387 722 Z " />
<glyph glyph-name="obreve" unicode="&#x14f;" horiz-adv-x="526" d="M263 -8 C395 -8 482 92 482 213 C482 334 395 434 263 434 C131 434 44 333 44 213 C44 91 130 -8 263 -8 L263 -8 Z M263 52 C176 52 116 118 116 213 C116 307 176 374 263 374 C350 374 410 307 410 213 C410 118 350 52 263 52 L263 52 Z M262 508 C335 508 396 560 421 644 L372 665 C351 612 310 577 262 577 C218 577 174 608 152 665 L103 644 C129 560 189 508 262 508 L262 508 Z " />
<glyph glyph-name="Ohungarumlaut" unicode="&#x150;" horiz-adv-x="777" d="M261 719 L422 803 C446 816 460 834 460 849 C460 874 442 890 420 890 C406 890 392 881 377 867 L245 743 L261 719 Z M452 723 L622 799 C649 810 662 828 662 845 C662 867 647 885 623 885 C611 885 597 879 581 866 L439 748 L452 723 Z M387 -12 C580 -12 722 137 722 330 C722 520 582 670 391 670 C197 670 56 521 56 328 C56 138 195 -12 387 -12 L387 -12 Z M389 56 C238 56 132 175 132 330 C132 484 238 602 389 602 C539 602 645 483 645 328 C645 174 539 56 389 56 L389 56 Z " />
<glyph glyph-name="ohungarumlaut" unicode="&#x151;" horiz-adv-x="526" d="M136 505 L297 589 C321 602 335 620 335 635 C335 660 317 676 295 676 C281 676 267 667 252 653 L120 529 L136 505 Z M327 509 L497 585 C524 596 537 614 537 631 C537 653 522 671 498 671 C486 671 472 665 456 652 L314 534 L327 509 Z M263 -8 C395 -8 482 92 482 213 C482 334 395 434 263 434 C131 434 44 333 44 213 C44 91 130 -8 263 -8 L263 -8 Z M263 52 C176 52 116 118 116 213 C116 307 176 374 263 374 C350 374 410 307 410 213 C410 118 350 52 263 52 L263 52 Z " />
<glyph glyph-name="OE" unicode="&#x152;" horiz-adv-x="931" d="M420 0 L868 0 L868 161 L797 161 L797 65 L549 65 L549 303 L764 303 L764 367 L549 367 L549 593 L797 593 L797 497 L868 497 L868 658 L419 658 C195 658 56 521 56 322 C56 128 206 0 420 0 L420 0 Z M422 66 C250 66 132 163 132 321 C132 482 231 592 414 592 L474 592 L474 66 L422 66 Z " />
<glyph glyph-name="oe" unicode="&#x153;" horiz-adv-x="843" d="M641 53 C549 53 487 99 477 193 L805 193 C807 204 808 217 808 233 C808 339 740 434 615 434 C536 434 474 390 442 326 C411 389 347 434 261 434 C131 434 44 333 44 213 C44 91 130 -8 261 -8 C346 -8 410 36 442 99 C474 36 543 -8 633 -8 C686 -8 740 6 784 33 L790 100 C740 71 698 53 641 53 L641 53 Z M263 52 C176 52 116 118 116 213 C116 307 176 374 263 374 C350 374 410 307 410 213 C410 118 350 52 263 52 L263 52 Z M610 375 C690 375 734 323 739 248 L478 248 C488 329 545 375 610 375 L610 375 Z " />
<glyph glyph-name="Racute" unicode="&#x154;" horiz-adv-x="618" d="M278 717 L429 803 C450 816 463 833 463 847 C463 874 444 890 423 890 C408 890 393 881 380 867 L259 741 L278 717 Z M47 0 L292 0 L292 66 L206 66 L206 269 C225 268 256 267 282 267 C295 267 308 268 320 269 L482 0 L612 0 L612 66 L533 66 L395 287 C478 314 536 377 536 467 C536 585 442 658 297 658 L47 658 L47 592 L131 592 L131 66 L47 66 L47 0 Z M286 332 C254 332 226 333 206 334 L206 592 L293 592 C395 592 461 548 461 465 C461 378 386 332 286 332 L286 332 Z " />
<glyph glyph-name="racute" unicode="&#x155;" horiz-adv-x="380" d="M305 434 C259 434 208 388 175 329 L175 426 L41 426 L41 365 L109 365 L109 60 L41 60 L41 0 L258 0 L258 60 L178 60 L178 273 C199 316 238 354 270 363 C277 344 295 327 321 327 C348 327 369 351 369 378 C369 407 347 434 305 434 L305 434 Z M175 503 L326 589 C347 602 360 619 360 633 C360 660 341 676 320 676 C305 676 290 667 277 653 L156 527 L175 503 Z " />
<glyph glyph-name="Rcommaaccent" unicode="&#x156;" horiz-adv-x="618" d="M240 -278 C330 -229 362 -164 362 -118 C362 -75 337 -53 306 -53 C280 -53 257 -74 257 -102 C257 -127 276 -147 300 -152 C299 -174 280 -213 224 -255 L240 -278 Z M47 0 L292 0 L292 66 L206 66 L206 269 C225 268 256 267 282 267 C295 267 308 268 320 269 L482 0 L612 0 L612 66 L533 66 L395 287 C478 314 536 377 536 467 C536 585 442 658 297 658 L47 658 L47 592 L131 592 L131 66 L47 66 L47 0 Z M286 332 C254 332 226 333 206 334 L206 592 L293 592 C395 592 461 548 461 465 C461 378 386 332 286 332 L286 332 Z " />
<glyph glyph-name="rcommaaccent" unicode="&#x157;" horiz-adv-x="380" d="M305 434 C259 434 208 388 175 329 L175 426 L41 426 L41 365 L109 365 L109 60 L41 60 L41 0 L258 0 L258 60 L178 60 L178 273 C199 316 238 354 270 363 C277 344 295 327 321 327 C348 327 369 351 369 378 C369 407 347 434 305 434 L305 434 Z M75 -278 C165 -229 197 -164 197 -118 C197 -75 172 -53 141 -53 C115 -53 92 -74 92 -102 C92 -127 111 -147 135 -152 C134 -174 115 -213 59 -255 L75 -278 Z " />
<glyph glyph-name="Rcaron" unicode="&#x158;" horiz-adv-x="618" d="M430 899 L307 806 L184 899 L153 862 L307 715 L461 862 L430 899 Z M47 0 L292 0 L292 66 L206 66 L206 269 C225 268 256 267 282 267 C295 267 308 268 320 269 L482 0 L612 0 L612 66 L533 66 L395 287 C478 314 536 377 536 467 C536 585 442 658 297 658 L47 658 L47 592 L131 592 L131 66 L47 66 L47 0 Z M286 332 C254 332 226 333 206 334 L206 592 L293 592 C395 592 461 548 461 465 C461 378 386 332 286 332 L286 332 Z " />
<glyph glyph-name="rcaron" unicode="&#x159;" horiz-adv-x="380" d="M305 434 C259 434 208 388 175 329 L175 426 L41 426 L41 365 L109 365 L109 60 L41 60 L41 0 L258 0 L258 60 L178 60 L178 273 C199 316 238 354 270 363 C277 344 295 327 321 327 C348 327 369 351 369 378 C369 407 347 434 305 434 L305 434 Z M328 685 L205 592 L82 685 L51 648 L205 501 L359 648 L328 685 Z " />
<glyph glyph-name="Sacute" unicode="&#x15a;" horiz-adv-x="549" d="M252 717 L403 803 C424 816 437 833 437 847 C437 874 418 890 397 890 C382 890 367 881 354 867 L233 741 L252 717 Z M274 -11 C398 -11 490 60 490 176 C490 287 407 328 299 370 C216 402 154 431 154 501 C154 561 202 604 281 604 C322 604 370 591 388 571 C381 562 374 549 374 533 C374 506 395 482 427 482 C455 482 479 503 479 540 C479 608 391 670 283 670 C160 670 80 596 80 495 C80 382 166 340 279 297 C354 268 416 238 416 170 C416 99 363 54 275 54 C215 54 166 73 144 95 C153 107 160 121 160 139 C160 165 139 188 108 188 C78 188 55 163 55 125 C55 61 145 -11 274 -11 L274 -11 Z " />
<glyph glyph-name="sacute" unicode="&#x15b;" horiz-adv-x="437" d="M376 341 C376 359 369 375 354 390 C328 416 277 434 220 434 C118 434 58 375 58 311 C58 232 122 208 225 182 C286 167 326 152 326 113 C326 72 280 47 222 47 C176 47 141 60 127 71 C131 80 134 88 134 97 C134 123 115 141 88 141 C63 141 45 119 45 94 C45 73 53 56 68 41 C97 12 160 -8 222 -8 C313 -8 392 39 392 120 C392 203 320 227 234 248 C164 266 125 279 125 316 C125 347 159 378 218 378 C250 378 278 373 293 363 C289 355 288 346 288 339 C288 313 308 295 334 295 C358 295 376 314 376 341 L376 341 Z M189 503 L340 589 C361 602 374 619 374 633 C374 660 355 676 334 676 C319 676 304 667 291 653 L170 527 L189 503 Z " />
<glyph glyph-name="Scedilla" unicode="&#x15e;" horiz-adv-x="549" d="M279 -199 C343 -199 377 -164 377 -124 C377 -83 345 -51 283 -48 L284 -11 C403 -7 490 63 490 176 C490 287 407 328 299 370 C216 402 154 431 154 501 C154 561 202 604 281 604 C322 604 370 591 388 571 C381 562 374 549 374 533 C374 506 395 482 427 482 C455 482 479 503 479 540 C479 608 391 670 283 670 C160 670 80 596 80 495 C80 382 166 340 279 297 C354 268 416 238 416 170 C416 99 363 54 275 54 C215 54 166 73 144 95 C153 107 160 121 160 139 C160 165 139 188 108 188 C78 188 55 163 55 125 C55 66 132 0 245 -10 L222 -84 L241 -100 C243 -100 254 -98 259 -98 C296 -98 312 -111 312 -129 C312 -147 295 -158 270 -158 C245 -158 208 -150 182 -139 L167 -171 C200 -188 241 -199 279 -199 L279 -199 Z " />
<glyph glyph-name="scedilla" unicode="&#x15f;" horiz-adv-x="437" d="M226 -199 C290 -199 324 -164 324 -124 C324 -83 292 -51 230 -48 L232 -8 C319 -4 392 42 392 120 C392 203 320 227 234 248 C164 266 125 279 125 316 C125 347 159 378 218 378 C250 378 278 373 293 363 C289 355 288 346 288 339 C288 313 308 295 334 295 C358 295 376 314 376 341 C376 359 369 375 354 390 C328 416 277 434 220 434 C118 434 58 375 58 311 C58 232 122 208 225 182 C286 167 326 152 326 113 C326 72 280 47 222 47 C176 47 141 60 127 71 C131 80 134 88 134 97 C134 123 115 141 88 141 C63 141 45 119 45 94 C45 73 53 56 68 41 C92 16 141 -1 194 -6 L169 -84 L188 -100 C190 -100 201 -98 206 -98 C243 -98 259 -111 259 -129 C259 -147 242 -158 217 -158 C192 -158 155 -150 129 -139 L114 -171 C147 -188 188 -199 226 -199 L226 -199 Z " />
<glyph glyph-name="Scaron" unicode="&#x160;" horiz-adv-x="549" d="M404 899 L281 806 L158 899 L127 862 L281 715 L435 862 L404 899 Z M274 -11 C398 -11 490 60 490 176 C490 287 407 328 299 370 C216 402 154 431 154 501 C154 561 202 604 281 604 C322 604 370 591 388 571 C381 562 374 549 374 533 C374 506 395 482 427 482 C455 482 479 503 479 540 C479 608 391 670 283 670 C160 670 80 596 80 495 C80 382 166 340 279 297 C354 268 416 238 416 170 C416 99 363 54 275 54 C215 54 166 73 144 95 C153 107 160 121 160 139 C160 165 139 188 108 188 C78 188 55 163 55 125 C55 61 145 -11 274 -11 L274 -11 Z " />
<glyph glyph-name="scaron" unicode="&#x161;" horiz-adv-x="437" d="M376 341 C376 359 369 375 354 390 C328 416 277 434 220 434 C118 434 58 375 58 311 C58 232 122 208 225 182 C286 167 326 152 326 113 C326 72 280 47 222 47 C176 47 141 60 127 71 C131 80 134 88 134 97 C134 123 115 141 88 141 C63 141 45 119 45 94 C45 73 53 56 68 41 C97 12 160 -8 222 -8 C313 -8 392 39 392 120 C392 203 320 227 234 248 C164 266 125 279 125 316 C125 347 159 378 218 378 C250 378 278 373 293 363 C289 355 288 346 288 339 C288 313 308 295 334 295 C358 295 376 314 376 341 L376 341 Z M342 685 L219 592 L96 685 L65 648 L219 501 L373 648 L342 685 Z " />
<glyph glyph-name="Tcommaaccent" unicode="&#x162;" horiz-adv-x="631" d="M247 -278 C337 -229 369 -164 369 -118 C369 -75 344 -53 313 -53 C287 -53 264 -74 264 -102 C264 -127 283 -147 307 -152 C306 -174 287 -213 231 -255 L247 -278 Z M189 0 L442 0 L442 66 L353 66 L353 595 L518 595 L518 489 L589 489 L589 658 L42 658 L42 489 L113 489 L113 595 L278 595 L278 66 L189 66 L189 0 Z " />
<glyph glyph-name="tcommaaccent" unicode="&#x163;" horiz-adv-x="333" d="M116 -278 C206 -229 238 -164 238 -118 C238 -75 213 -53 182 -53 C156 -53 133 -74 133 -102 C133 -127 152 -147 176 -152 C175 -174 156 -213 100 -255 L116 -278 Z M200 -8 C239 -8 269 4 291 16 L300 82 C276 68 245 56 220 56 C194 56 178 63 170 78 C165 87 163 97 163 111 L163 365 L294 365 L294 426 L163 426 L163 556 L95 529 L95 426 L16 426 L16 365 L95 365 L95 101 C95 78 98 58 106 42 C123 9 155 -8 200 -8 L200 -8 Z " />
<glyph glyph-name="Tcaron" unicode="&#x164;" horiz-adv-x="631" d="M437 899 L314 806 L191 899 L160 862 L314 715 L468 862 L437 899 Z M189 0 L442 0 L442 66 L353 66 L353 595 L518 595 L518 489 L589 489 L589 658 L42 658 L42 489 L113 489 L113 595 L278 595 L278 66 L189 66 L189 0 Z " />
<glyph glyph-name="tcaron" unicode="&#x165;" horiz-adv-x="333" d="M227 476 C277 528 319 597 319 661 C319 692 304 711 276 711 C246 711 231 690 231 665 C231 639 240 626 240 597 C240 563 229 531 204 494 L227 476 Z M200 -8 C239 -8 269 4 291 16 L300 82 C276 68 245 56 220 56 C194 56 178 63 170 78 C165 87 163 97 163 111 L163 365 L294 365 L294 426 L163 426 L163 556 L95 529 L95 426 L16 426 L16 365 L95 365 L95 101 C95 78 98 58 106 42 C123 9 155 -8 200 -8 L200 -8 Z " />
<glyph glyph-name="Umacron" unicode="&#x16a;" horiz-adv-x="710" d="M354 -12 C502 -12 594 74 594 230 L594 592 L677 592 L677 658 L435 658 L435 592 L522 592 L522 230 C522 112 460 56 355 56 C250 56 189 115 189 232 L189 592 L276 592 L276 658 L33 658 L33 592 L116 592 L116 227 C116 73 204 -12 354 -12 L354 -12 Z M203 749 L507 749 L507 812 L203 812 L203 749 Z " />
<glyph glyph-name="umacron" unicode="&#x16b;" horiz-adv-x="553" d="M228 -8 C289 -8 347 32 387 79 L387 0 L522 0 L522 60 L454 60 L454 426 L315 426 L315 365 L385 365 L385 131 C345 90 298 56 245 56 C210 56 188 67 175 92 C167 106 163 125 163 149 L163 426 L26 426 L26 365 L94 365 L94 136 C94 102 101 72 114 49 C135 13 172 -8 228 -8 L228 -8 Z M116 535 L420 535 L420 598 L116 598 L116 535 Z " />
<glyph glyph-name="Ubreve" unicode="&#x16c;" horiz-adv-x="710" d="M354 -12 C502 -12 594 74 594 230 L594 592 L677 592 L677 658 L435 658 L435 592 L522 592 L522 230 C522 112 460 56 355 56 C250 56 189 115 189 232 L189 592 L276 592 L276 658 L33 658 L33 592 L116 592 L116 227 C116 73 204 -12 354 -12 L354 -12 Z M354 722 C427 722 488 774 513 858 L464 879 C443 826 402 791 354 791 C310 791 266 822 244 879 L195 858 C221 774 281 722 354 722 L354 722 Z " />
<glyph glyph-name="ubreve" unicode="&#x16d;" horiz-adv-x="553" d="M228 -8 C289 -8 347 32 387 79 L387 0 L522 0 L522 60 L454 60 L454 426 L315 426 L315 365 L385 365 L385 131 C345 90 298 56 245 56 C210 56 188 67 175 92 C167 106 163 125 163 149 L163 426 L26 426 L26 365 L94 365 L94 136 C94 102 101 72 114 49 C135 13 172 -8 228 -8 L228 -8 Z M267 508 C340 508 401 560 426 644 L377 665 C356 612 315 577 267 577 C223 577 179 608 157 665 L108 644 C134 560 194 508 267 508 L267 508 Z " />
<glyph glyph-name="Uring" unicode="&#x16e;" horiz-adv-x="710" d="M354 708 C416 708 464 757 464 819 C464 881 416 930 354 930 C293 930 245 881 245 819 C245 757 293 708 354 708 L354 708 Z M354 759 C322 759 299 786 299 819 C299 852 322 879 354 879 C387 879 410 852 410 819 C410 786 387 759 354 759 L354 759 Z M354 -12 C502 -12 594 74 594 230 L594 592 L677 592 L677 658 L435 658 L435 592 L522 592 L522 230 C522 112 460 56 355 56 C250 56 189 115 189 232 L189 592 L276 592 L276 658 L33 658 L33 592 L116 592 L116 227 C116 73 204 -12 354 -12 L354 -12 Z " />
<glyph glyph-name="uring" unicode="&#x16f;" horiz-adv-x="553" d="M268 494 C330 494 378 543 378 605 C378 667 330 716 268 716 C207 716 159 667 159 605 C159 543 207 494 268 494 L268 494 Z M268 545 C236 545 213 572 213 605 C213 638 236 665 268 665 C301 665 324 638 324 605 C324 572 301 545 268 545 L268 545 Z M228 -8 C289 -8 347 32 387 79 L387 0 L522 0 L522 60 L454 60 L454 426 L315 426 L315 365 L385 365 L385 131 C345 90 298 56 245 56 C210 56 188 67 175 92 C167 106 163 125 163 149 L163 426 L26 426 L26 365 L94 365 L94 136 C94 102 101 72 114 49 C135 13 172 -8 228 -8 L228 -8 Z " />
<glyph glyph-name="Uhungarumlaut" unicode="&#x170;" horiz-adv-x="710" d="M354 -12 C502 -12 594 74 594 230 L594 592 L677 592 L677 658 L435 658 L435 592 L522 592 L522 230 C522 112 460 56 355 56 C250 56 189 115 189 232 L189 592 L276 592 L276 658 L33 658 L33 592 L116 592 L116 227 C116 73 204 -12 354 -12 L354 -12 Z M228 719 L389 803 C413 816 427 834 427 849 C427 874 409 890 387 890 C373 890 359 881 344 867 L212 743 L228 719 Z M419 723 L589 799 C616 810 629 828 629 845 C629 867 614 885 590 885 C578 885 564 879 548 866 L406 748 L419 723 Z " />
<glyph glyph-name="uhungarumlaut" unicode="&#x171;" horiz-adv-x="553" d="M228 -8 C289 -8 347 32 387 79 L387 0 L522 0 L522 60 L454 60 L454 426 L315 426 L315 365 L385 365 L385 131 C345 90 298 56 245 56 C210 56 188 67 175 92 C167 106 163 125 163 149 L163 426 L26 426 L26 365 L94 365 L94 136 C94 102 101 72 114 49 C135 13 172 -8 228 -8 L228 -8 Z M142 505 L303 589 C327 602 341 620 341 635 C341 660 323 676 301 676 C287 676 273 667 258 653 L126 529 L142 505 Z M333 509 L503 585 C530 596 543 614 543 631 C543 653 528 671 504 671 C492 671 478 665 462 652 L320 534 L333 509 Z " />
<glyph glyph-name="Uogonek" unicode="&#x172;" horiz-adv-x="710" d="M382 -201 C419 -201 453 -189 469 -178 L472 -125 C451 -136 424 -144 395 -144 C357 -144 339 -124 339 -92 C339 -60 361 -31 396 -9 C519 5 594 89 594 230 L594 592 L677 592 L677 658 L435 658 L435 592 L522 592 L522 230 C522 112 460 56 355 56 C250 56 189 115 189 232 L189 592 L276 592 L276 658 L33 658 L33 592 L116 592 L116 227 C116 82 193 -1 326 -11 C297 -36 277 -69 277 -108 C277 -163 312 -201 382 -201 L382 -201 Z " />
<glyph glyph-name="uogonek" unicode="&#x173;" horiz-adv-x="553" d="M228 -8 C289 -8 347 32 387 79 L387 2 C348 -25 320 -62 320 -108 C320 -163 356 -201 426 -201 C463 -201 497 -189 512 -178 L516 -125 C494 -136 468 -144 438 -144 C401 -144 383 -124 383 -92 C383 -55 412 -23 455 0 L522 0 L522 60 L454 60 L454 426 L315 426 L315 365 L385 365 L385 131 C345 90 298 56 245 56 C210 56 188 67 175 92 C167 106 163 125 163 149 L163 426 L26 426 L26 365 L94 365 L94 136 C94 102 101 72 114 49 C135 13 172 -8 228 -8 L228 -8 Z " />
<glyph glyph-name="Wcircumflex" unicode="&#x174;" horiz-adv-x="990" d="M372 714 L495 807 L618 714 L649 751 L495 898 L341 751 L372 714 Z M284 -10 L327 -10 L498 443 L668 -10 L711 -10 L895 592 L971 592 L971 658 L734 658 L734 592 L820 592 L686 132 L520 579 L479 579 L314 131 L176 592 L259 592 L259 658 L21 658 L21 592 L97 592 L284 -10 Z " />
<glyph glyph-name="wcircumflex" unicode="&#x175;" horiz-adv-x="696" d="M224 500 L347 593 L470 500 L501 537 L347 684 L193 537 L224 500 Z M187 -18 L224 -18 L348 272 L471 -18 L509 -18 L625 365 L689 365 L689 426 L492 426 L492 367 L564 367 L487 98 L369 378 L332 378 L213 98 L136 367 L204 367 L204 426 L7 426 L7 365 L70 365 L187 -18 Z " />
<glyph glyph-name="Ycircumflex" unicode="&#x176;" horiz-adv-x="642" d="M191 0 L451 0 L451 66 L358 66 L358 264 L553 592 L624 592 L624 658 L402 658 L402 592 L473 592 L322 327 L172 592 L240 592 L240 658 L19 658 L19 592 L89 592 L283 263 L283 66 L191 66 L191 0 Z M197 714 L320 807 L443 714 L474 751 L320 898 L166 751 L197 714 Z " />
<glyph glyph-name="ycircumflex" unicode="&#x177;" horiz-adv-x="513" d="M212 -128 C225 -110 236 -90 247 -67 L448 365 L506 365 L506 426 L310 426 L310 367 L380 367 L258 93 C259 93 138 367 138 367 L205 367 L205 426 L6 426 L6 365 L65 365 L225 24 L199 -29 C187 -53 177 -74 167 -89 C148 -118 132 -131 116 -137 C110 -118 95 -100 71 -100 C47 -100 28 -116 28 -144 C28 -177 62 -200 102 -200 C145 -200 180 -174 212 -128 L212 -128 Z M133 500 L256 593 L379 500 L410 537 L256 684 L102 537 L133 500 Z " />
<glyph glyph-name="Ydieresis" unicode="&#x178;" horiz-adv-x="642" d="M191 0 L451 0 L451 66 L358 66 L358 264 L553 592 L624 592 L624 658 L402 658 L402 592 L473 592 L322 327 L172 592 L240 592 L240 658 L19 658 L19 592 L89 592 L283 263 L283 66 L191 66 L191 0 Z M407 733 C438 733 463 759 463 790 C463 822 439 848 407 848 C376 848 350 822 350 790 C350 759 375 733 407 733 L407 733 Z M232 733 C264 733 289 759 289 790 C289 822 264 848 233 848 C202 848 176 822 176 790 C176 759 201 733 232 733 L232 733 Z " />
<glyph glyph-name="Zacute" unicode="&#x179;" horiz-adv-x="606" d="M273 717 L424 803 C445 816 458 833 458 847 C458 874 439 890 418 890 C403 890 388 881 375 867 L254 741 L273 717 Z M45 0 L561 0 L561 166 L494 166 L494 62 L151 62 L554 622 L554 658 L66 658 L66 492 L134 492 L134 596 L448 596 L45 36 L45 0 Z " />
<glyph glyph-name="zacute" unicode="&#x17a;" horiz-adv-x="450" d="M195 503 L346 589 C367 602 380 619 380 633 C380 660 361 676 340 676 C325 676 310 667 297 653 L176 527 L195 503 Z M37 0 L414 0 L414 140 L353 140 L353 57 L137 57 L410 395 L410 426 L54 426 L54 286 L115 286 L115 369 L310 369 L37 31 L37 0 Z " />
<glyph glyph-name="Zdotaccent" unicode="&#x17b;" horiz-adv-x="606" d="M45 0 L561 0 L561 166 L494 166 L494 62 L151 62 L554 622 L554 658 L66 658 L66 492 L134 492 L134 596 L448 596 L45 36 L45 0 Z M301 728 C333 728 359 755 359 787 C359 820 334 846 302 846 C270 846 244 820 244 787 C244 755 269 728 301 728 L301 728 Z " />
<glyph glyph-name="zdotaccent" unicode="&#x17c;" horiz-adv-x="450" d="M37 0 L414 0 L414 140 L353 140 L353 57 L137 57 L410 395 L410 426 L54 426 L54 286 L115 286 L115 369 L310 369 L37 31 L37 0 Z M224 514 C256 514 282 541 282 573 C282 606 257 632 225 632 C193 632 167 606 167 573 C167 541 192 514 224 514 L224 514 Z " />
<glyph glyph-name="Zcaron" unicode="&#x17d;" horiz-adv-x="606" d="M424 899 L301 806 L178 899 L147 862 L301 715 L455 862 L424 899 Z M45 0 L561 0 L561 166 L494 166 L494 62 L151 62 L554 622 L554 658 L66 658 L66 492 L134 492 L134 596 L448 596 L45 36 L45 0 Z " />
<glyph glyph-name="zcaron" unicode="&#x17e;" horiz-adv-x="450" d="M348 685 L225 592 L102 685 L71 648 L225 501 L379 648 L348 685 Z M37 0 L414 0 L414 140 L353 140 L353 57 L137 57 L410 395 L410 426 L54 426 L54 286 L115 286 L115 369 L310 369 L37 31 L37 0 Z " />
<glyph glyph-name="Aringacute" unicode="&#x1fa;" horiz-adv-x="706" d="M325 879 L476 965 C497 978 510 995 510 1009 C510 1036 491 1052 470 1052 C455 1052 440 1043 427 1029 L306 903 L325 879 Z M462 733 C462 790 413 838 352 838 C291 838 242 790 242 733 C242 705 255 678 276 658 L203 658 L203 593 L278 593 L81 66 L18 66 L18 0 L238 0 L238 65 L158 65 L217 227 L486 227 L545 65 L468 65 L468 0 L688 0 L688 66 L625 66 L428 593 L503 593 L503 658 L428 658 C450 678 462 705 462 733 L462 733 Z M239 290 L352 597 L464 290 L239 290 Z M352 667 C320 667 297 694 297 727 C297 761 320 788 352 788 C385 788 408 761 408 727 C408 694 385 667 352 667 L352 667 Z " />
<glyph glyph-name="aringacute" unicode="&#x1fb;" horiz-adv-x="492" d="M186 -8 C244 -8 299 20 334 54 L334 0 L467 0 L467 60 L398 60 L398 292 C398 328 388 360 366 384 C338 415 292 434 229 434 C127 434 71 384 71 335 C71 309 89 289 115 289 C142 289 160 308 160 333 C160 342 157 351 154 358 C168 367 186 376 220 376 C263 376 294 363 313 342 C325 327 332 306 332 282 L332 223 C310 231 255 243 209 243 C114 243 45 192 45 114 C45 41 104 -8 186 -8 L186 -8 Z M204 48 C146 48 115 78 115 119 C115 163 149 195 217 195 C258 195 300 187 332 178 L332 107 C299 74 255 48 204 48 L204 48 Z M219 764 L370 850 C391 863 404 880 404 894 C404 921 385 937 364 937 C349 937 334 928 321 914 L200 788 L219 764 Z M246 494 C308 494 356 543 356 605 C356 667 308 716 246 716 C185 716 137 667 137 605 C137 543 185 494 246 494 L246 494 Z M246 545 C214 545 191 572 191 605 C191 638 214 665 246 665 C279 665 302 638 302 605 C302 572 279 545 246 545 L246 545 Z " />
<glyph glyph-name="AEacute" unicode="&#x1fc;" horiz-adv-x="887" d="M462 717 L613 803 C634 816 647 833 647 847 C647 874 628 890 607 890 C592 890 577 881 564 867 L443 741 L462 717 Z M-5 0 L218 0 L218 65 L147 65 L227 227 L430 227 L430 66 L353 66 L353 0 L825 0 L825 161 L753 161 L753 65 L505 65 L505 303 L720 303 L720 367 L505 367 L505 593 L753 593 L753 497 L824 497 L824 658 L262 658 L262 592 L335 592 L74 66 L-5 66 L-5 0 Z M257 290 L406 593 L430 593 L430 290 L257 290 Z " />
<glyph glyph-name="aeacute" unicode="&#x1fd;" horiz-adv-x="762" d="M220 375 C261 375 293 362 312 339 C324 325 332 303 332 278 L332 223 C310 231 255 243 209 243 C114 243 45 192 45 114 C45 41 104 -8 189 -8 C244 -8 313 18 369 76 C406 23 467 -8 549 -8 C600 -8 655 6 699 33 L705 100 C655 71 612 53 556 53 C462 53 402 97 392 193 L720 193 C722 204 723 217 723 233 C723 339 655 434 531 434 C461 434 407 401 373 351 C369 362 362 373 355 383 C329 415 287 434 229 434 C127 434 71 384 71 335 C71 309 89 289 115 289 C142 289 160 308 160 333 C160 342 157 351 154 358 C168 367 186 375 220 375 L220 375 Z M205 48 C146 48 115 78 115 119 C115 163 149 195 217 195 C253 195 291 189 332 178 C335 154 340 132 349 112 C298 66 252 48 205 48 L205 48 Z M524 375 C605 375 649 323 654 248 L393 248 C403 329 460 375 524 375 L524 375 Z M354 503 L505 589 C526 602 539 619 539 633 C539 660 520 676 499 676 C484 676 469 667 456 653 L335 527 L354 503 Z " />
<glyph glyph-name="Oslashacute" unicode="&#x1fe;" horiz-adv-x="777" d="M387 -12 C580 -12 722 137 722 330 C722 422 688 505 632 566 L712 658 L665 699 L586 607 C532 647 465 670 391 670 C197 670 56 521 56 328 C56 237 88 155 142 94 L60 0 L107 -41 L187 53 C242 12 310 -12 387 -12 L387 -12 Z M389 56 C327 56 273 74 232 106 L582 516 C622 468 645 403 645 328 C645 174 539 56 389 56 L389 56 Z M132 330 C132 484 238 602 389 602 C449 602 502 584 543 554 L193 143 C154 191 132 256 132 330 L132 330 Z M360 717 L511 803 C532 816 545 833 545 847 C545 874 526 890 505 890 C490 890 475 881 462 867 L341 741 L360 717 Z " />
<glyph glyph-name="oslashacute" unicode="&#x1ff;" horiz-adv-x="526" d="M263 -8 C395 -8 482 92 482 213 C482 267 463 318 429 358 L480 418 L435 456 L385 397 C351 420 309 434 263 434 C131 434 44 333 44 213 C44 157 64 105 99 65 L49 6 L94 -32 L144 26 C177 5 218 -8 263 -8 L263 -8 Z M116 213 C116 307 176 374 263 374 C295 374 324 365 347 348 L145 109 C126 136 116 171 116 213 L116 213 Z M263 52 C231 52 203 60 181 74 L382 313 C400 287 410 252 410 213 C410 118 350 52 263 52 L263 52 Z M233 503 L384 589 C405 602 418 619 418 633 C418 660 399 676 378 676 C363 676 348 667 335 653 L214 527 L233 503 Z " />
<glyph glyph-name="Scommaaccent" unicode="&#x218;" horiz-adv-x="549" d="M214 -278 C304 -229 336 -164 336 -118 C336 -75 311 -53 280 -53 C254 -53 231 -74 231 -102 C231 -127 250 -147 274 -152 C273 -174 254 -213 198 -255 L214 -278 Z M274 -11 C398 -11 490 60 490 176 C490 287 407 328 299 370 C216 402 154 431 154 501 C154 561 202 604 281 604 C322 604 370 591 388 571 C381 562 374 549 374 533 C374 506 395 482 427 482 C455 482 479 503 479 540 C479 608 391 670 283 670 C160 670 80 596 80 495 C80 382 166 340 279 297 C354 268 416 238 416 170 C416 99 363 54 275 54 C215 54 166 73 144 95 C153 107 160 121 160 139 C160 165 139 188 108 188 C78 188 55 163 55 125 C55 61 145 -11 274 -11 L274 -11 Z " />
<glyph glyph-name="scommaaccent" unicode="&#x219;" horiz-adv-x="437" d="M376 341 C376 359 369 375 354 390 C328 416 277 434 220 434 C118 434 58 375 58 311 C58 232 122 208 225 182 C286 167 326 152 326 113 C326 72 280 47 222 47 C176 47 141 60 127 71 C131 80 134 88 134 97 C134 123 115 141 88 141 C63 141 45 119 45 94 C45 73 53 56 68 41 C97 12 160 -8 222 -8 C313 -8 392 39 392 120 C392 203 320 227 234 248 C164 266 125 279 125 316 C125 347 159 378 218 378 C250 378 278 373 293 363 C289 355 288 346 288 339 C288 313 308 295 334 295 C358 295 376 314 376 341 L376 341 Z M151 -278 C241 -229 273 -164 273 -118 C273 -75 248 -53 217 -53 C191 -53 168 -74 168 -102 C168 -127 187 -147 211 -152 C210 -174 191 -213 135 -255 L151 -278 Z " />
<glyph glyph-name="schwa" unicode="&#x259;" horiz-adv-x="485" d="M235 -8 C364 -8 444 96 444 214 C444 344 353 434 217 434 C163 434 108 420 64 392 L58 326 C108 355 151 373 207 373 C299 373 361 326 371 233 L44 233 C41 222 40 209 40 193 C40 87 108 -8 235 -8 L235 -8 Z M239 51 C158 51 114 103 110 178 L371 178 C360 96 303 51 239 51 L239 51 Z " />
<glyph glyph-name="circumflex" unicode="&#x2c6;" horiz-adv-x="464" d="M109 500 L232 593 L355 500 L386 537 L232 684 L78 537 L109 500 Z " />
<glyph glyph-name="caron" unicode="&#x2c7;" horiz-adv-x="464" d="M355 685 L232 592 L109 685 L78 648 L232 501 L386 648 L355 685 Z " />
<glyph glyph-name="breve" unicode="&#x2d8;" horiz-adv-x="468" d="M234 508 C307 508 368 560 393 644 L344 665 C323 612 282 577 234 577 C190 577 146 608 124 665 L75 644 C101 560 161 508 234 508 L234 508 Z " />
<glyph glyph-name="dotaccent" unicode="&#x2d9;" horiz-adv-x="403" d="M201 514 C233 514 259 541 259 573 C259 606 234 632 202 632 C170 632 144 606 144 573 C144 541 169 514 201 514 L201 514 Z " />
<glyph glyph-name="ring" unicode="&#x2da;" horiz-adv-x="441" d="M220 494 C282 494 330 543 330 605 C330 667 282 716 220 716 C159 716 111 667 111 605 C111 543 159 494 220 494 L220 494 Z M220 545 C188 545 165 572 165 605 C165 638 188 665 220 665 C253 665 276 638 276 605 C276 572 253 545 220 545 L220 545 Z " />
<glyph glyph-name="ogonek" unicode="&#x2db;" horiz-adv-x="415" d="M211 -201 C248 -201 282 -189 297 -178 L301 -125 C279 -136 253 -144 223 -144 C186 -144 168 -124 168 -92 C168 -42 223 1 294 21 L233 33 C166 9 105 -41 105 -108 C105 -163 141 -201 211 -201 L211 -201 Z " />
<glyph glyph-name="tilde" unicode="&#x2dc;" horiz-adv-x="477" d="M310 509 C357 509 401 558 406 627 L352 639 C345 601 329 579 306 579 C291 579 278 587 255 606 C231 626 205 645 166 645 C120 645 76 596 71 527 L125 515 C131 552 147 575 171 575 C185 575 198 567 222 547 C245 527 271 509 310 509 L310 509 Z " />
<glyph glyph-name="hungarumlaut" unicode="&#x2dd;" horiz-adv-x="502" d="M49 505 L210 589 C234 602 248 620 248 635 C248 660 230 676 208 676 C194 676 180 667 165 653 L33 529 L49 505 Z M240 509 L410 585 C437 596 450 614 450 631 C450 653 435 671 411 671 C399 671 385 665 369 652 L227 534 L240 509 Z " />
<glyph glyph-name="commaaccent" unicode="&#x326;" horiz-adv-x="211" d="M54 -278 C144 -229 176 -164 176 -118 C176 -75 151 -53 120 -53 C94 -53 71 -74 71 -102 C71 -127 90 -147 114 -152 C113 -174 94 -213 38 -255 L54 -278 Z " />
<glyph glyph-name="Wgrave" unicode="&#x1e80;" horiz-adv-x="990" d="M284 -10 L327 -10 L498 443 L668 -10 L711 -10 L895 592 L971 592 L971 658 L734 658 L734 592 L820 592 L686 132 L520 579 L479 579 L314 131 L176 592 L259 592 L259 658 L21 658 L21 592 L97 592 L284 -10 Z M525 717 L543 741 L423 867 C409 881 395 890 380 890 C359 890 340 874 340 847 C340 833 353 816 374 803 L525 717 Z " />
<glyph glyph-name="wgrave" unicode="&#x1e81;" horiz-adv-x="696" d="M187 -18 L224 -18 L348 272 L471 -18 L509 -18 L625 365 L689 365 L689 426 L492 426 L492 367 L564 367 L487 98 L369 378 L332 378 L213 98 L136 367 L204 367 L204 426 L7 426 L7 365 L70 365 L187 -18 Z M377 503 L395 527 L275 653 C261 667 247 676 232 676 C211 676 192 660 192 633 C192 619 205 602 226 589 L377 503 Z " />
<glyph glyph-name="Wacute" unicode="&#x1e82;" horiz-adv-x="990" d="M466 717 L617 803 C638 816 651 833 651 847 C651 874 632 890 611 890 C596 890 581 881 568 867 L447 741 L466 717 Z M284 -10 L327 -10 L498 443 L668 -10 L711 -10 L895 592 L971 592 L971 658 L734 658 L734 592 L820 592 L686 132 L520 579 L479 579 L314 131 L176 592 L259 592 L259 658 L21 658 L21 592 L97 592 L284 -10 Z " />
<glyph glyph-name="wacute" unicode="&#x1e83;" horiz-adv-x="696" d="M318 503 L469 589 C490 602 503 619 503 633 C503 660 484 676 463 676 C448 676 433 667 420 653 L299 527 L318 503 Z M187 -18 L224 -18 L348 272 L471 -18 L509 -18 L625 365 L689 365 L689 426 L492 426 L492 367 L564 367 L487 98 L369 378 L332 378 L213 98 L136 367 L204 367 L204 426 L7 426 L7 365 L70 365 L187 -18 Z " />
<glyph glyph-name="Wdieresis" unicode="&#x1e84;" horiz-adv-x="990" d="M583 733 C614 733 639 759 639 790 C639 822 615 848 583 848 C552 848 526 822 526 790 C526 759 551 733 583 733 L583 733 Z M408 733 C440 733 465 759 465 790 C465 822 440 848 409 848 C378 848 352 822 352 790 C352 759 377 733 408 733 L408 733 Z M284 -10 L327 -10 L498 443 L668 -10 L711 -10 L895 592 L971 592 L971 658 L734 658 L734 592 L820 592 L686 132 L520 579 L479 579 L314 131 L176 592 L259 592 L259 658 L21 658 L21 592 L97 592 L284 -10 Z " />
<glyph glyph-name="wdieresis" unicode="&#x1e85;" horiz-adv-x="696" d="M435 519 C466 519 491 545 491 576 C491 608 467 634 435 634 C404 634 378 608 378 576 C378 545 403 519 435 519 L435 519 Z M260 519 C292 519 317 545 317 576 C317 608 292 634 261 634 C230 634 204 608 204 576 C204 545 229 519 260 519 L260 519 Z M187 -18 L224 -18 L348 272 L471 -18 L509 -18 L625 365 L689 365 L689 426 L492 426 L492 367 L564 367 L487 98 L369 378 L332 378 L213 98 L136 367 L204 367 L204 426 L7 426 L7 365 L70 365 L187 -18 Z " />
<glyph glyph-name="Ygrave" unicode="&#x1ef2;" horiz-adv-x="642" d="M191 0 L451 0 L451 66 L358 66 L358 264 L553 592 L624 592 L624 658 L402 658 L402 592 L473 592 L322 327 L172 592 L240 592 L240 658 L19 658 L19 592 L89 592 L283 263 L283 66 L191 66 L191 0 Z M349 717 L367 741 L247 867 C233 881 219 890 204 890 C183 890 164 874 164 847 C164 833 177 816 198 803 L349 717 Z " />
<glyph glyph-name="ygrave" unicode="&#x1ef3;" horiz-adv-x="513" d="M212 -128 C225 -110 236 -90 247 -67 L448 365 L506 365 L506 426 L310 426 L310 367 L380 367 L258 93 C259 93 138 367 138 367 L205 367 L205 426 L6 426 L6 365 L65 365 L225 24 L199 -29 C187 -53 177 -74 167 -89 C148 -118 132 -131 116 -137 C110 -118 95 -100 71 -100 C47 -100 28 -116 28 -144 C28 -177 62 -200 102 -200 C145 -200 180 -174 212 -128 L212 -128 Z M285 503 L303 527 L183 653 C169 667 155 676 140 676 C119 676 100 660 100 633 C100 619 113 602 134 589 L285 503 Z " />
<glyph glyph-name="enspace" unicode="&#x2002;" horiz-adv-x="500" d="" />
<glyph glyph-name="emspace" unicode="&#x2003;" horiz-adv-x="1000" d="" />
<glyph glyph-name="threeperemspace" unicode="&#x2004;" horiz-adv-x="333" d="" />
<glyph glyph-name="fourperemspace" unicode="&#x2005;" horiz-adv-x="250" d="" />
<glyph glyph-name="figurespace" unicode="&#x2007;" horiz-adv-x="530" d="" />
<glyph glyph-name="thinspace" unicode="&#x2009;" horiz-adv-x="133" d="" />
<glyph glyph-name="hairspace" unicode="&#x200a;" horiz-adv-x="75" d="" />
<glyph glyph-name="endash" unicode="&#x2013;" horiz-adv-x="469" d="M22 244 L447 244 L447 312 L22 312 L22 244 Z " />
<glyph glyph-name="emdash" unicode="&#x2014;" horiz-adv-x="754" d="M22 244 L732 244 L732 312 L22 312 L22 244 Z " />
<glyph glyph-name="quoteleft" unicode="&#x2018;" horiz-adv-x="207" d="M98 411 C130 411 158 437 158 470 C158 499 134 524 106 529 C107 557 129 612 195 660 L177 687 C70 631 32 545 32 490 C32 438 62 411 98 411 L98 411 Z " />
<glyph glyph-name="quoteright" unicode="&#x2019;" horiz-adv-x="207" d="M31 400 C137 457 175 542 175 598 C175 649 145 676 110 676 C78 676 49 650 49 617 C49 588 74 563 102 558 C100 530 78 475 13 427 L31 400 Z " />
<glyph glyph-name="quotesinglbase" unicode="&#x201a;" horiz-adv-x="209" d="M21 -151 C130 -93 167 -16 167 39 C167 90 137 117 102 117 C70 117 42 91 42 59 C42 29 65 4 93 -1 C92 -28 69 -74 2 -124 L21 -151 Z " />
<glyph glyph-name="quotedblleft" unicode="&#x201c;" horiz-adv-x="400" d="M290 411 C322 411 350 437 350 470 C350 499 326 524 298 529 C299 557 321 612 387 660 L369 687 C262 631 224 545 224 490 C224 438 255 411 290 411 L290 411 Z M98 411 C130 411 158 437 158 470 C158 499 134 524 106 529 C107 557 129 612 195 660 L177 687 C70 631 32 545 32 490 C32 438 62 411 98 411 L98 411 Z " />
<glyph glyph-name="quotedblright" unicode="&#x201d;" horiz-adv-x="400" d="M223 400 C330 457 368 542 368 598 C368 649 337 676 302 676 C270 676 242 650 242 617 C242 588 266 563 294 558 C293 530 271 475 205 427 L223 400 Z M31 400 C137 457 175 542 175 598 C175 649 145 676 110 676 C78 676 49 650 49 617 C49 588 74 563 102 558 C100 530 78 475 13 427 L31 400 Z " />
<glyph glyph-name="quotedblbase" unicode="&#x201e;" horiz-adv-x="402" d="M215 -148 C322 -88 357 -17 357 38 C357 87 328 114 294 114 C262 114 235 88 235 57 C235 28 258 4 286 -1 C284 -28 262 -73 197 -122 L215 -148 Z M22 -148 C129 -88 164 -17 164 38 C164 87 135 114 101 114 C69 114 42 88 42 57 C42 28 65 4 93 -1 C91 -28 69 -73 4 -122 L22 -148 Z " />
<glyph glyph-name="dagger" unicode="&#x2020;" horiz-adv-x="466" d="M215 -2 L251 -2 L266 387 L349 397 C348 363 372 340 398 340 C428 340 447 364 447 390 C447 422 422 447 381 447 C371 447 359 445 350 443 L250 422 L276 575 C283 614 263 640 233 640 C203 640 183 614 190 575 L215 422 L116 443 C106 445 94 447 85 447 C44 447 19 422 19 390 C19 364 38 340 67 340 C93 340 117 363 117 397 L200 387 L215 -2 Z " />
<glyph glyph-name="daggerdbl" unicode="&#x2021;" horiz-adv-x="475" d="M237 -124 C268 -124 287 -97 279 -56 L256 70 L342 52 C352 50 362 48 371 48 C409 48 438 71 438 103 C438 128 418 150 390 150 C364 150 340 130 341 95 L272 103 L254 258 L272 413 L341 421 C340 386 364 366 390 366 C418 366 438 389 438 414 C438 446 409 469 371 469 C362 469 352 467 342 465 L256 447 L279 572 C287 613 268 640 237 640 C207 640 188 614 196 572 L219 447 L133 465 C123 467 113 469 104 469 C66 469 37 446 37 414 C37 389 56 366 85 366 C111 366 135 386 134 421 L203 413 L221 258 L203 103 L134 95 C135 130 111 150 85 150 C56 150 37 128 37 103 C37 71 66 48 104 48 C113 48 123 50 133 52 L219 70 L196 -56 C188 -97 207 -124 237 -124 L237 -124 Z " />
<glyph glyph-name="bullet" unicode="&#x2022;" horiz-adv-x="289" d="M144 172 C199 172 241 216 241 271 C241 327 199 372 144 372 C89 372 47 327 47 271 C47 216 89 172 144 172 L144 172 Z " />
<glyph glyph-name="ellipsis" unicode="&#x2026;" horiz-adv-x="620" d="M515 -8 C549 -8 575 19 575 53 C575 87 549 114 515 114 C481 114 456 87 456 53 C456 19 481 -8 515 -8 L515 -8 Z M310 -8 C344 -8 370 19 370 53 C370 87 344 114 310 114 C276 114 250 87 250 53 C250 19 276 -8 310 -8 L310 -8 Z M105 -8 C139 -8 165 19 165 53 C165 87 139 114 105 114 C71 114 45 87 45 53 C45 19 71 -8 105 -8 L105 -8 Z " />
<glyph glyph-name="perthousand" unicode="&#x2030;" horiz-adv-x="924" d="M171 274 C238 274 292 328 292 395 C292 463 238 517 171 517 C103 517 50 463 50 395 C50 328 103 274 171 274 L171 274 Z M753 -8 C820 -8 874 47 874 114 C874 181 820 235 753 235 C685 235 632 181 632 114 C632 47 685 -8 753 -8 L753 -8 Z M475 -8 C543 -8 596 47 596 114 C596 181 543 235 475 235 C408 235 355 181 355 114 C355 47 408 -8 475 -8 L475 -8 Z M130 -22 C149 0 258 138 336 233 C414 328 526 464 547 487 L510 517 L304 261 C225 165 115 30 94 9 L130 -22 Z M171 323 C133 323 105 355 105 395 C105 435 133 467 171 467 C209 467 237 435 237 395 C237 355 209 323 171 323 L171 323 Z M753 41 C714 41 687 73 687 113 C687 153 714 185 753 185 C791 185 818 153 818 113 C818 73 791 41 753 41 L753 41 Z M475 41 C437 41 410 73 410 113 C410 153 437 185 475 185 C514 185 541 153 541 113 C541 73 514 41 475 41 L475 41 Z " />
<glyph glyph-name="guilsinglleft" unicode="&#x2039;" horiz-adv-x="294" d="M202 107 L245 148 L121 275 L245 402 L202 443 L30 275 L202 107 Z " />
<glyph glyph-name="guilsinglright" unicode="&#x203a;" horiz-adv-x="294" d="M92 107 L264 275 L92 443 L49 402 L173 275 L49 148 L92 107 Z " />
<glyph glyph-name="fraction" unicode="&#x2044;" horiz-adv-x="500" d="M74 -13 C96 24 196 192 268 311 L463 627 L425 651 C403 613 305 448 233 331 L36 10 L74 -13 Z " />
<glyph glyph-name="Euro" unicode="&#x20ac;" horiz-adv-x="595" d="M42 288 L103 288 C101 276 101 264 101 252 C101 240 101 228 103 217 L42 217 L42 162 L115 162 C149 62 238 -9 359 -9 C430 -9 500 19 550 71 L509 118 C466 75 417 52 359 52 C278 52 216 98 186 163 L368 163 L368 217 L170 217 C168 229 167 241 167 253 C167 265 168 276 170 288 L368 288 L368 342 L185 342 C215 408 277 455 356 455 C416 455 455 431 467 412 C459 408 449 393 449 376 C449 350 469 330 495 330 C523 330 548 353 548 386 C548 448 468 516 357 516 C248 516 151 448 115 343 L42 343 L42 288 Z " />
<glyph glyph-name="published" unicode="&#x2117;" horiz-adv-x="605" d="M299 -8 C446 -8 556 109 556 254 C556 399 447 516 299 516 C152 516 42 399 42 254 C42 108 152 -8 299 -8 L299 -8 Z M299 28 C176 28 84 129 84 254 C84 380 176 481 299 481 C423 481 515 380 515 254 C515 129 422 28 299 28 L299 28 Z M314 211 C375 211 415 241 415 299 C415 351 373 383 317 383 L213 383 L213 350 L245 350 L245 153 L213 153 L213 120 L317 120 L317 153 L283 153 L283 211 L314 211 Z M317 244 C299 244 289 245 283 245 L283 350 L315 350 C351 350 377 330 377 299 C377 265 354 244 317 244 L317 244 Z " />
<glyph glyph-name="servicemark" unicode="&#x2120;" horiz-adv-x="568" d="M230 410 L335 410 L335 448 L304 448 L309 599 L381 444 L401 444 L472 599 L478 448 L447 448 L447 410 L553 410 L553 448 L518 448 L510 620 L547 620 L547 658 L459 658 L392 507 L324 658 L237 658 L237 620 L273 620 L265 448 L230 448 L230 410 Z M104 405 C156 405 194 432 194 478 C194 523 160 540 115 555 C88 564 64 573 64 595 C64 615 80 626 107 626 C123 626 137 622 145 617 C142 614 140 611 140 605 C140 593 149 583 166 583 C180 583 191 593 191 610 C191 639 156 663 107 663 C56 663 22 632 22 593 C22 549 56 533 102 517 C130 508 152 497 152 476 C152 454 133 441 103 441 C84 441 69 447 60 454 C62 458 64 462 64 469 C64 479 55 491 38 491 C23 491 13 479 13 463 C13 433 51 405 104 405 L104 405 Z " />
<glyph glyph-name="trademark" unicode="&#x2122;" horiz-adv-x="613" d="M275 410 L380 410 L380 448 L349 448 L354 599 L426 444 L446 444 L517 599 L523 448 L492 448 L492 410 L598 410 L598 448 L563 448 L555 620 L592 620 L592 658 L504 658 L437 507 L369 658 L282 658 L282 620 L318 620 L310 448 L275 448 L275 410 Z M72 410 L187 410 L187 448 L151 448 L151 622 L208 622 L208 583 L247 583 L247 658 L13 658 L13 583 L51 583 L51 622 L109 622 L109 448 L72 448 L72 410 Z " />
<glyph glyph-name="minus" unicode="&#x2212;" horiz-adv-x="416" d="M42 240 L374 240 L374 301 L42 301 L42 240 Z " />
<glyph glyph-name="f_f" unicode="&#xfb00;" horiz-adv-x="606" d="M182 426 L182 549 C182 593 190 623 206 640 C214 650 224 656 235 658 C243 632 260 616 287 616 C311 616 330 635 330 663 C330 698 298 720 252 720 C211 720 182 706 158 682 C127 651 113 601 113 533 L113 426 L37 426 L37 365 L113 365 L113 60 L44 60 L44 0 L263 0 L263 60 L182 60 L182 365 L404 365 L404 60 L337 60 L337 0 L556 0 L556 60 L473 60 L473 365 L583 365 L583 426 L473 426 L473 569 C473 611 481 640 496 658 C504 669 516 675 529 678 C537 654 553 636 581 636 C605 636 625 655 625 683 C625 718 592 740 546 740 C504 740 474 725 449 701 C416 668 404 622 404 553 L404 426 L182 426 Z " />
<glyph glyph-name="fi" unicode="&#xfb01;" horiz-adv-x="570" d="M464 426 L182 426 L182 556 C182 599 193 630 210 650 C226 670 247 678 264 678 C268 678 274 678 279 677 L277 676 C274 646 295 618 325 618 C352 618 373 640 373 668 C373 705 336 740 274 740 C231 740 195 725 167 699 C132 666 113 613 113 540 L113 426 L37 426 L37 365 L113 365 L113 60 L44 60 L44 0 L262 0 L262 60 L182 60 L182 365 L395 365 L395 60 L326 60 L326 0 L536 0 L536 60 L464 60 L464 426 Z " />
<glyph glyph-name="fl" unicode="&#xfb02;" horiz-adv-x="573" d="M329 60 L329 0 L541 0 L541 60 L469 60 L469 736 L426 736 L408 699 C379 726 340 740 294 740 C240 740 196 723 163 690 C130 656 113 607 113 544 L113 426 L37 426 L37 365 L113 365 L113 60 L44 60 L44 0 L263 0 L263 60 L182 60 L182 365 L400 365 L400 60 L329 60 Z M291 679 C321 679 349 667 368 648 L372 643 C365 633 361 621 361 609 C361 585 377 565 400 560 L400 548 L400 426 L182 426 L182 550 C182 591 193 627 215 649 C233 668 260 679 291 679 L291 679 Z " />
<glyph glyph-name="f_f_i" unicode="&#xfb03;" horiz-adv-x="857" d="M660 668 C660 705 623 740 561 740 C518 740 482 725 454 699 C419 666 400 613 400 540 L400 426 L182 426 L182 543 C182 578 187 606 205 630 C219 649 242 660 271 660 C277 660 283 659 289 657 C289 626 310 602 338 602 C364 602 381 619 381 646 C381 675 362 697 333 709 C316 716 295 720 272 720 C221 720 185 703 158 674 C125 640 113 594 113 538 L113 426 L37 426 L37 365 L113 365 L113 60 L44 60 L44 0 L263 0 L263 60 L182 60 L182 365 L400 365 L400 60 L333 60 L333 0 L549 0 L549 60 L469 60 L469 365 L682 365 L682 60 L613 60 L613 0 L823 0 L823 60 L751 60 L751 426 L469 426 L469 556 C469 603 483 636 500 654 C516 671 535 678 550 678 C554 678 559 677 564 676 C561 647 581 618 612 618 C639 618 660 640 660 668 L660 668 Z " />
<glyph glyph-name="f_f_l" unicode="&#xfb04;" horiz-adv-x="860" d="M182 543 C182 578 187 606 205 630 C219 649 242 660 271 660 C277 660 283 659 289 658 C289 626 310 602 338 602 C364 602 381 619 381 646 C381 675 362 697 333 709 C316 716 295 720 272 720 C221 720 185 703 158 674 C125 640 113 594 113 538 L113 426 L37 426 L37 365 L113 365 L113 60 L44 60 L44 0 L263 0 L263 60 L182 60 L182 365 L400 365 L400 60 L333 60 L333 0 L550 0 L550 60 L469 60 L469 365 L687 365 L687 60 L616 60 L616 0 L828 0 L828 60 L756 60 L756 736 L713 736 L695 699 C666 726 627 740 581 740 C527 740 482 723 450 690 C417 656 400 607 400 544 L400 426 L182 426 L182 543 Z M469 550 C469 591 480 627 501 649 C520 668 547 679 578 679 C608 679 636 667 655 648 L659 643 C652 633 648 621 648 609 C648 585 664 564 687 560 L687 548 L687 426 L469 426 L469 550 Z " />
</font>
</svg>
