<?xml version="1.0" encoding="UTF-8"?>
<svg xmlns="http://www.w3.org/2000/svg" xmlns:xlink="http://www.w3.org/1999/xlink" version="1.2" >
<font id="Majesti Banner Medium Italic">
<font-face  font-family="Majesti Banner" units-per-em="1000" ascent="750" descent="-250" font-style="italic" font-weight="500" font-stretch="normal" cap-height="618" x-height="408" underline-position="-75" underline-thickness="50" />
<missing-glyph  horiz-adv-x="275" d="" />
<glyph glyph-name="NULL" d="" />
<glyph glyph-name="CR" unicode="&#xd;" horiz-adv-x="250" d="" />
<glyph glyph-name="space" unicode="&#x20;" horiz-adv-x="231" d="" />
<glyph glyph-name="exclam" unicode="&#x21;" horiz-adv-x="243" d="M104 190 L112 190 C183 435 264 504 264 570 C264 607 238 630 204 630 C162 630 125 596 121 543 C115 486 139 396 104 190 L104 190 Z M78 -8 C115 -8 145 22 145 60 C145 98 115 128 78 128 C41 128 11 98 11 60 C11 22 41 -8 78 -8 L78 -8 Z " />
<glyph glyph-name="quotedbl" unicode="&#x22;" horiz-adv-x="370" d="M120 372 L127 372 C173 486 228 537 228 582 C228 607 210 630 177 630 C139 630 110 599 110 549 C110 515 124 454 120 372 L120 372 Z M294 372 L301 372 C347 486 402 537 402 582 C402 607 384 630 351 630 C313 630 284 599 284 549 C284 515 298 454 294 372 L294 372 Z " />
<glyph glyph-name="numbersign" unicode="&#x23;" horiz-adv-x="515" d="M42 0 L52 0 L122 181 L326 181 L256 0 L267 0 L336 181 L431 181 L433 190 L340 190 L432 429 L519 429 L520 439 L436 439 L505 618 L495 618 L426 439 L222 439 L291 618 L280 618 L211 439 L112 439 L110 429 L207 429 L115 190 L24 190 L22 181 L111 181 L42 0 Z M126 190 L218 429 L422 429 L330 190 L126 190 Z " />
<glyph glyph-name="dollar" unicode="&#x24;" horiz-adv-x="550" d="M186 -105 L196 -105 L217 -11 C374 -20 486 55 486 184 C486 298 388 334 306 374 L364 621 C421 616 446 588 459 559 C428 554 404 525 404 491 C404 452 433 422 471 422 C508 422 537 451 537 494 C537 559 473 618 365 628 L381 696 L371 696 L356 628 C233 638 105 579 105 448 C105 342 192 303 272 265 L209 -4 C137 1 107 34 94 63 C126 69 150 97 150 132 C150 171 121 201 83 201 C44 201 16 170 16 129 C16 65 87 0 208 -10 L186 -105 Z M397 132 C397 68 346 -9 219 -4 L280 261 C342 231 397 199 397 132 L397 132 Z M193 501 C193 570 251 629 354 622 L298 378 C241 407 193 438 193 501 L193 501 Z " />
<glyph glyph-name="percent" unicode="&#x25;" horiz-adv-x="718" d="M214 300 C309 300 404 384 404 495 C404 513 401 528 397 542 C418 535 440 533 459 533 C509 533 566 548 616 569 L78 -3 L84 -9 L633 576 C653 584 682 599 682 620 C682 628 677 634 669 634 C651 634 644 604 626 581 C570 557 505 541 459 541 C437 541 414 545 393 552 C372 605 321 628 271 628 C176 628 81 544 81 434 C81 340 148 300 214 300 L214 300 Z M474 -10 C569 -10 664 74 664 185 C664 279 597 318 531 318 C436 318 341 234 341 124 C341 30 408 -10 474 -10 L474 -10 Z M470 -4 C438 -4 422 25 422 77 C422 160 463 311 536 311 C569 311 583 281 583 231 C583 148 543 -4 470 -4 L470 -4 Z M210 306 C178 306 162 335 162 387 C162 470 203 621 276 621 C282 621 288 620 293 617 C300 606 308 596 317 588 C321 575 323 559 323 541 C323 458 283 306 210 306 L210 306 Z " />
<glyph glyph-name="ampersand" unicode="&#x26;" horiz-adv-x="726" d="M228 -12 C315 -12 382 17 431 56 L475 0 L670 0 L672 7 C629 7 611 21 574 69 L513 145 C531 171 547 201 564 236 C598 300 610 328 700 328 L702 335 L483 335 L481 328 C555 328 567 306 561 272 C557 250 544 202 509 151 L348 356 C431 383 575 414 575 516 C575 587 505 630 400 630 C268 630 170 558 170 454 C170 404 193 360 218 328 L232 310 C128 275 19 228 19 127 C19 34 114 -12 228 -12 L228 -12 Z M268 2 C176 2 136 58 136 135 C136 223 188 277 236 305 L425 63 C384 29 330 2 268 2 L268 2 Z M401 623 C455 623 484 592 484 537 C484 450 411 394 345 361 L325 387 C292 428 280 461 280 496 C280 562 326 623 401 623 L401 623 Z " />
<glyph glyph-name="quotesingle" unicode="&#x27;" horiz-adv-x="196" d="M120 372 L127 372 C173 486 228 537 228 582 C228 607 210 630 177 630 C139 630 110 599 110 549 C110 515 124 454 120 372 L120 372 Z " />
<glyph glyph-name="parenleft" unicode="&#x28;" horiz-adv-x="326" d="M228 -182 L232 -178 C187 -134 131 -37 131 129 C131 433 319 626 436 701 L434 706 C312 627 29 459 29 177 C29 -12 158 -114 228 -182 L228 -182 Z " />
<glyph glyph-name="parenright" unicode="&#x29;" horiz-adv-x="326" d="M-102 -182 C20 -104 303 64 303 346 C303 535 174 637 103 706 L99 701 C145 658 200 560 200 395 C200 91 12 -103 -104 -178 L-102 -182 Z " />
<glyph glyph-name="asterisk" unicode="&#x2a;" horiz-adv-x="411" d="M126 548 C109 526 112 505 129 494 C147 481 186 488 244 467 L246 471 C207 515 201 552 183 564 C166 575 143 570 126 548 L126 548 Z M93 378 C101 356 122 351 142 362 C166 375 186 412 243 455 L242 459 C177 438 141 445 117 433 C96 422 85 399 93 378 L93 378 Z M220 293 C248 293 269 314 269 339 C269 362 253 394 253 451 L249 451 C220 380 187 353 187 324 C187 306 199 293 220 293 L220 293 Z M381 378 C398 399 396 422 379 433 C361 445 322 438 265 459 L262 455 C301 412 307 375 326 362 C342 351 365 356 381 378 L381 378 Z M415 548 C408 570 386 575 366 564 C342 552 322 515 265 471 L267 468 C331 488 367 481 391 494 C411 504 423 526 415 548 L415 548 Z M287 634 C259 634 239 612 239 587 C239 564 255 532 255 476 L259 476 C288 547 321 573 321 602 C321 620 309 634 287 634 L287 634 Z " />
<glyph glyph-name="plus" unicode="&#x2b;" horiz-adv-x="510" d="M199 22 L208 22 L258 240 L470 240 L472 250 L260 250 L310 468 L301 468 L251 250 L39 250 L37 240 L249 240 L199 22 Z " />
<glyph glyph-name="comma" unicode="&#x2c;" horiz-adv-x="243" d="M-42 -133 C82 -93 151 -6 151 58 C151 99 123 128 83 128 C42 128 12 99 12 62 C12 30 37 0 74 0 C84 0 93 2 101 5 C82 -54 18 -107 -44 -128 L-42 -133 Z " />
<glyph glyph-name="hyphen" unicode="&#x2d;" horiz-adv-x="379" d="M52 216 L310 216 L318 252 L60 252 L52 216 Z " />
<glyph glyph-name="period" unicode="&#x2e;" horiz-adv-x="236" d="M79 -8 C116 -8 146 22 146 60 C146 98 116 128 79 128 C42 128 12 98 12 60 C12 22 42 -8 79 -8 L79 -8 Z " />
<glyph glyph-name="slash" unicode="&#x2f;" horiz-adv-x="434" d="M-61 -166 L510 693 L503 697 L-68 -162 L-61 -166 Z " />
<glyph glyph-name="zero" unicode="0" horiz-adv-x="611" d="M265 -12 C457 -12 582 195 582 387 C582 539 503 630 375 630 C182 630 57 422 57 231 C57 79 136 -12 265 -12 L265 -12 Z M256 -5 C195 -5 172 62 172 151 C172 343 258 623 382 623 C443 623 467 556 467 465 C467 273 379 -5 256 -5 L256 -5 Z " />
<glyph glyph-name="one" unicode="1" horiz-adv-x="385" d="M-14 0 L305 0 L306 6 C235 6 213 24 230 100 L350 618 L346 619 C267 578 190 560 105 554 L103 548 L173 548 C209 548 212 529 205 498 L114 105 C97 29 64 6 -12 6 L-14 0 Z " />
<glyph glyph-name="two" unicode="2" horiz-adv-x="556" d="M10 0 L19 0 C14 72 58 138 126 138 C226 138 234 -9 341 -9 C456 -9 491 160 490 238 L482 238 C480 160 445 116 376 116 C307 116 254 161 174 161 C107 161 60 133 35 92 C44 112 56 131 74 149 C223 297 542 300 542 484 C542 588 440 630 338 630 C192 630 99 544 99 472 C99 434 125 397 167 397 C205 397 234 428 234 468 C234 503 210 532 177 538 C201 579 248 622 320 622 C393 622 421 579 421 515 C421 331 187 279 73 159 C29 115 8 70 10 0 L10 0 Z " />
<glyph glyph-name="three" unicode="3" horiz-adv-x="564" d="M225 -12 C361 -12 494 48 494 169 C494 274 395 316 281 316 L276 316 L276 320 L282 320 C433 322 548 383 548 485 C548 578 455 630 342 630 C216 630 113 566 113 490 C113 451 140 421 178 421 C215 421 244 451 244 490 C244 523 223 550 195 558 C218 590 260 621 318 621 C388 621 422 575 422 504 C422 409 362 322 244 322 C192 322 189 334 177 334 C165 334 155 326 155 317 C155 309 162 303 170 303 C180 303 192 314 240 314 C324 314 369 269 369 183 C369 87 315 -4 197 -4 C129 -4 101 27 89 56 C123 60 149 89 149 127 C149 166 120 197 83 197 C46 197 15 165 15 120 C15 53 82 -12 225 -12 L225 -12 Z " />
<glyph glyph-name="four" unicode="4" horiz-adv-x="550" d="M152 0 L471 0 L472 6 C401 6 379 24 396 100 L410 162 C468 161 476 152 487 152 C496 152 509 159 509 170 C509 177 504 183 494 183 C481 183 474 172 412 171 L463 389 L458 389 L320 279 L295 171 L13 171 L128 265 C250 361 416 431 416 526 C416 593 328 631 223 628 C251 609 269 572 269 525 C269 423 179 319 116 269 L-2 168 L-2 162 L293 162 L280 105 C262 29 229 6 153 6 L152 0 Z " />
<glyph glyph-name="five" unicode="5" horiz-adv-x="551" d="M214 -12 C367 -12 491 68 491 195 C491 306 396 364 277 364 C213 364 163 347 120 326 L200 569 C271 529 353 494 427 494 C496 494 566 524 566 613 C566 629 564 642 561 653 C509 604 380 608 208 618 L112 324 C92 316 76 308 76 293 C76 288 79 283 87 283 C105 283 111 301 119 318 C148 334 195 350 241 350 C319 350 366 305 366 212 C366 122 323 -4 185 -4 C123 -4 96 21 81 56 C116 59 143 89 143 127 C143 166 116 197 76 197 C37 197 9 166 9 122 C9 54 75 -12 214 -12 L214 -12 Z " />
<glyph glyph-name="six" unicode="6" horiz-adv-x="596" d="M268 -12 C432 -12 538 106 538 227 C538 327 465 391 366 391 C274 391 212 337 180 267 C218 458 301 622 424 622 C475 622 494 594 503 561 C469 557 444 527 444 491 C444 452 473 422 511 422 C550 422 577 453 577 498 C577 565 520 630 402 630 C192 630 53 419 53 223 C53 92 114 -12 268 -12 L268 -12 Z M256 -5 C190 -5 158 50 158 132 C158 263 241 373 336 373 C390 373 423 338 423 256 C423 145 362 -5 256 -5 L256 -5 Z " />
<glyph glyph-name="seven" unicode="7" horiz-adv-x="480" d="M92 0 L220 0 C267 162 329 285 442 438 C488 499 539 553 546 618 L537 618 C532 576 500 506 434 506 C352 506 330 626 236 626 C163 626 129 553 101 467 L100 467 L131 618 L122 618 L71 394 L79 394 C98 464 128 500 196 500 C263 500 328 468 385 468 C442 468 473 499 504 533 L505 531 C485 505 461 483 426 451 C245 266 143 151 92 0 L92 0 Z " />
<glyph glyph-name="eight" unicode="8" horiz-adv-x="603" d="M258 -12 C454 -12 534 89 534 181 C534 260 474 313 355 323 C505 331 589 405 589 492 C589 580 503 630 375 630 C207 630 116 544 116 453 C116 383 170 335 280 325 C101 315 26 223 26 137 C26 49 105 -12 258 -12 L258 -12 Z M245 -5 C184 -5 149 33 149 103 C149 186 199 321 315 321 C375 321 410 282 410 211 C410 125 359 -5 245 -5 L245 -5 Z M382 623 C443 623 468 579 468 522 C468 450 426 327 325 327 C269 327 238 365 238 429 C238 505 284 623 382 623 L382 623 Z " />
<glyph glyph-name="nine" unicode="9" horiz-adv-x="597" d="M220 -12 C441 -12 572 210 572 397 C572 530 506 630 355 630 C193 630 88 514 88 393 C88 291 164 232 261 232 C355 232 413 287 443 347 C413 191 351 -5 204 -5 C147 -5 124 25 113 57 C148 60 174 90 174 128 C174 165 148 196 109 196 C71 196 40 165 40 118 C40 52 101 -12 220 -12 L220 -12 Z M369 623 C432 623 462 565 462 481 C462 355 391 250 297 250 C245 250 204 284 204 372 C204 481 270 623 369 623 L369 623 Z " />
<glyph glyph-name="colon" unicode="&#x3a;" horiz-adv-x="251" d="M82 -8 C119 -8 149 22 149 60 C149 98 119 128 82 128 C45 128 15 98 15 60 C15 22 45 -8 82 -8 L82 -8 Z M147 273 C184 273 214 304 214 342 C214 380 184 410 147 410 C110 410 80 380 80 342 C80 304 110 273 147 273 L147 273 Z " />
<glyph glyph-name="semicolon" unicode="&#x3b;" horiz-adv-x="267" d="M-42 -133 C82 -93 151 -6 151 58 C151 99 124 128 83 128 C42 128 13 99 13 62 C13 30 37 0 75 0 C84 0 93 2 101 5 C82 -54 19 -107 -44 -128 L-42 -133 Z M166 273 C203 273 232 304 232 342 C232 380 203 410 166 410 C128 410 98 380 98 342 C98 304 128 273 166 273 L166 273 Z " />
<glyph glyph-name="less" unicode="&#x3c;" horiz-adv-x="471" d="M371 45 L374 54 L41 244 L461 434 L464 445 L30 248 L29 241 L371 45 Z " />
<glyph glyph-name="equal" unicode="&#x3d;" horiz-adv-x="579" d="M88 347 L533 347 L535 357 L90 357 L88 347 Z M38 134 L483 134 L485 143 L40 143 L38 134 Z " />
<glyph glyph-name="greater" unicode="&#x3e;" horiz-adv-x="471" d="M5 45 L439 241 L440 248 L98 445 L95 435 L428 246 L8 55 L5 45 Z " />
<glyph glyph-name="question" unicode="&#x3f;" horiz-adv-x="526" d="M224 190 L230 190 L256 287 C387 321 539 354 539 471 C539 571 437 630 317 630 C191 630 90 565 90 491 C90 452 119 419 156 419 C193 419 223 451 223 490 C223 523 201 552 171 559 C195 592 240 622 302 622 C386 622 419 567 419 489 C419 372 341 320 244 292 L224 190 Z M199 -8 C236 -8 266 22 266 60 C266 98 236 128 199 128 C162 128 132 98 132 60 C132 22 162 -8 199 -8 L199 -8 Z " />
<glyph glyph-name="at" unicode="&#x40;" horiz-adv-x="805" d="M315 52 C372 52 420 84 460 123 C466 78 508 54 566 54 C687 54 756 156 756 284 C756 450 639 586 460 586 C255 586 37 409 37 177 C37 -2 167 -127 340 -127 C421 -127 503 -100 574 -47 L570 -42 C503 -90 424 -116 347 -116 C177 -116 82 13 82 173 C82 392 260 571 460 571 C629 571 742 442 742 284 C742 152 663 67 590 67 C555 67 544 86 544 113 C544 134 550 153 554 167 L625 390 L622 394 L529 361 C513 385 484 399 439 399 C311 399 211 289 211 171 C211 99 247 52 315 52 L315 52 Z M368 82 C328 82 308 115 308 163 C308 248 371 389 458 389 C493 389 507 366 515 341 L467 188 C461 171 458 154 458 144 C458 140 459 135 459 132 C431 104 400 82 368 82 L368 82 Z " />
<glyph glyph-name="A" unicode="A" horiz-adv-x="648" d="M-94 0 L163 0 L164 6 C43 6 84 116 136 192 L146 208 L375 208 L390 132 C405 54 373 6 304 6 L302 0 L612 0 L614 6 C548 6 526 73 513 139 L409 622 L403 622 L136 209 C75 117 15 6 -92 6 L-94 0 Z M152 218 L322 481 L373 218 L152 218 Z " />
<glyph glyph-name="B" unicode="B" horiz-adv-x="652" d="M-27 0 L300 0 C515 0 589 96 589 187 C589 270 529 314 384 319 L384 322 C573 329 639 406 639 487 C639 575 564 618 422 618 L116 618 L114 611 C189 611 196 588 180 517 L83 100 C67 29 50 6 -26 6 L-27 0 Z M185 7 L256 315 L340 315 C425 315 461 270 461 198 C461 102 399 7 277 7 L185 7 Z M258 323 L324 610 L407 610 C485 610 510 560 510 498 C510 407 459 323 327 323 L258 323 Z " />
<glyph glyph-name="C" unicode="C" horiz-adv-x="671" d="M346 -12 C418 -12 496 2 551 18 L626 205 L622 205 C545 87 450 -5 338 -5 C225 -5 179 88 179 206 C179 370 266 623 474 623 C573 623 634 566 659 424 L664 425 L694 628 C619 609 549 630 467 630 C235 630 52 459 52 247 C52 92 149 -12 346 -12 L346 -12 Z " />
<glyph glyph-name="D" unicode="D" horiz-adv-x="740" d="M-27 0 L286 0 C538 0 715 161 715 364 C715 528 599 618 429 618 L116 618 L114 611 C189 611 196 588 180 517 L83 100 C67 29 50 6 -26 6 L-27 0 Z M185 7 L324 610 L415 610 C539 610 587 519 587 395 C587 222 495 7 275 7 L185 7 Z " />
<glyph glyph-name="E" unicode="E" horiz-adv-x="621" d="M-27 0 L492 0 L558 206 L553 207 C501 102 434 7 264 7 L185 7 L253 304 L276 304 C396 304 432 259 428 167 L433 167 L498 450 L493 450 C455 357 398 312 278 312 L255 312 L324 610 L395 610 C555 610 594 540 593 424 L597 425 L629 618 L116 618 L114 611 C189 611 196 588 180 517 L83 100 C67 29 50 6 -26 6 L-27 0 Z " />
<glyph glyph-name="F" unicode="F" horiz-adv-x="583" d="M-27 0 L280 0 L282 6 C206 6 189 28 207 105 L251 296 L272 296 C392 296 427 246 422 154 L427 154 L495 447 L490 447 C451 354 394 304 274 304 L253 304 L323 610 L392 610 C549 610 590 533 589 417 L593 418 L627 618 L116 618 L114 611 C189 611 196 588 180 517 L83 100 C67 29 50 6 -26 6 L-27 0 Z " />
<glyph glyph-name="G" unicode="G" horiz-adv-x="756" d="M360 -12 C460 -12 549 11 615 31 L653 194 C669 265 685 286 758 286 L759 293 L462 293 L460 286 C540 286 548 257 532 186 L497 35 C456 15 408 -5 351 -5 C227 -5 178 89 178 209 C178 385 281 623 486 623 C588 623 664 564 684 429 L689 430 L718 628 C643 609 555 630 477 630 C257 630 51 467 51 246 C51 97 145 -12 360 -12 L360 -12 Z " />
<glyph glyph-name="H" unicode="H" horiz-adv-x="778" d="M-27 0 L270 0 L272 6 C196 6 189 29 206 100 L254 309 L551 309 L503 100 C487 29 469 6 394 6 L392 0 L690 0 L691 6 C616 6 609 29 625 100 L722 517 C738 588 755 611 831 611 L833 618 L535 618 L533 611 C609 611 616 588 599 517 L553 318 L256 318 L302 517 C319 588 336 611 411 611 L413 618 L116 618 L114 611 C189 611 196 588 180 517 L83 100 C67 29 50 6 -26 6 L-27 0 Z " />
<glyph glyph-name="I" unicode="I" horiz-adv-x="358" d="M-27 0 L270 0 L272 6 C196 6 189 29 206 100 L302 517 C319 588 336 611 411 611 L413 618 L116 618 L114 611 C189 611 196 588 180 517 L83 100 C67 29 50 6 -26 6 L-27 0 Z " />
<glyph glyph-name="J" unicode="J" horiz-adv-x="349" d="M-77 -167 C42 -136 164 -71 189 36 L300 517 C316 588 333 611 409 611 L411 618 L113 618 L111 611 C187 611 194 588 178 517 L61 14 C45 -56 16 -117 -79 -162 L-77 -167 Z " />
<glyph glyph-name="K" unicode="K" horiz-adv-x="690" d="M-27 0 L270 0 L272 6 C196 6 189 29 206 100 L239 245 L323 316 L460 0 L650 0 L651 6 C611 6 581 27 552 93 L419 394 L462 431 C527 484 576 523 619 552 C669 585 722 611 779 611 L781 618 L507 618 L505 611 C554 611 573 597 573 575 C573 544 532 498 453 433 L242 258 L302 517 C319 588 336 611 411 611 L413 618 L116 618 L114 611 C189 611 196 588 180 517 L83 100 C67 29 50 6 -26 6 L-27 0 Z " />
<glyph glyph-name="L" unicode="L" horiz-adv-x="579" d="M-27 0 L481 0 L544 212 L539 213 C487 97 407 7 247 7 L184 7 L301 512 C319 590 346 611 421 611 L423 618 L116 618 L114 611 C189 611 196 588 180 517 L83 100 C67 29 50 6 -26 6 L-27 0 Z " />
<glyph glyph-name="M" unicode="M" horiz-adv-x="892" d="M-55 0 L199 0 L200 6 C96 6 95 50 177 333 L233 520 L358 18 L363 18 L699 543 L622 114 C610 45 586 6 512 6 L511 0 L813 0 L815 6 C740 6 732 40 746 119 L815 496 C828 566 848 611 928 611 L930 618 L737 618 L446 160 L337 618 L126 618 L124 611 C223 611 235 558 204 450 L168 333 C89 49 53 6 -53 6 L-55 0 Z " />
<glyph glyph-name="N" unicode="N" horiz-adv-x="711" d="M-41 0 L212 0 L214 6 C99 6 106 64 166 325 L207 504 L519 -7 L525 -5 L593 292 C653 553 674 611 789 611 L791 618 L537 618 L535 611 C650 611 643 553 583 292 L553 165 L279 618 L107 618 L105 611 C202 611 209 558 185 453 L156 325 C98 64 75 6 -40 6 L-41 0 Z " />
<glyph glyph-name="O" unicode="O" horiz-adv-x="752" d="M333 -12 C550 -12 727 166 727 365 C727 526 611 630 446 630 C228 630 52 451 52 253 C52 91 168 -12 333 -12 L333 -12 Z M322 -4 C218 -4 177 78 177 193 C177 378 277 621 458 621 C564 621 603 539 603 425 C603 234 498 -4 322 -4 L322 -4 Z " />
<glyph glyph-name="P" unicode="P" horiz-adv-x="611" d="M-27 0 L270 0 L272 6 C196 6 189 29 206 100 L323 610 L392 610 C474 610 506 557 506 482 C506 381 447 270 314 270 L291 270 L289 263 L334 263 C554 263 634 367 634 467 C634 560 564 618 416 618 L116 618 L114 611 C189 611 196 588 180 517 L83 100 C67 29 50 6 -26 6 L-27 0 Z " />
<glyph glyph-name="Q" unicode="Q" horiz-adv-x="752" d="M333 -12 C346 -12 359 -11 371 -9 L69 -200 L73 -206 L94 -193 C135 -167 167 -155 204 -155 C315 -155 457 -268 568 -268 C658 -268 712 -194 749 -141 L745 -137 C712 -173 673 -196 630 -196 C520 -196 393 -88 288 -88 C275 -88 264 -90 253 -93 L391 -6 C580 22 727 184 727 365 C727 526 611 630 446 630 C228 630 52 451 52 253 C52 91 168 -12 333 -12 L333 -12 Z M322 -4 C218 -4 177 78 177 193 C177 378 277 621 458 621 C564 621 603 539 603 425 C603 234 498 -4 322 -4 L322 -4 Z " />
<glyph glyph-name="R" unicode="R" horiz-adv-x="685" d="M-27 0 L270 0 L272 6 C196 6 189 29 206 100 L252 300 L330 300 C428 299 424 241 427 127 C427 67 430 17 436 0 L624 0 L625 6 C567 6 555 28 549 93 C535 236 569 299 367 301 L368 304 C478 308 651 339 651 477 C651 574 566 618 418 618 L116 618 L114 611 C189 611 196 588 180 517 L83 100 C67 29 50 6 -26 6 L-27 0 Z M254 307 L324 610 L397 610 C487 610 526 565 526 490 C526 396 465 307 331 307 L254 307 Z " />
<glyph glyph-name="S" unicode="S" horiz-adv-x="564" d="M231 -12 C427 -12 495 79 495 180 C495 392 203 352 203 501 C203 565 257 623 355 623 C463 623 502 552 520 430 L525 431 L559 625 C489 610 432 630 351 630 C186 630 110 544 110 444 C110 249 397 289 397 131 C397 65 347 -6 230 -6 C89 -6 68 96 52 203 L47 202 L13 14 C67 2 154 -12 231 -12 L231 -12 Z " />
<glyph glyph-name="T" unicode="T" horiz-adv-x="639" d="M103 0 L421 0 L423 6 C347 6 330 28 348 105 L465 610 L472 610 C621 610 634 511 640 400 L645 401 L678 618 L132 618 L65 401 L71 400 C126 511 186 610 335 610 L342 610 L226 105 C208 28 181 6 105 6 L103 0 Z " />
<glyph glyph-name="U" unicode="U" horiz-adv-x="688" d="M288 -12 C429 -12 524 62 557 203 L584 316 C640 553 661 611 773 611 L774 618 L522 618 L520 611 C630 611 632 559 574 316 L548 203 C517 71 429 3 324 3 C214 3 190 76 215 187 L290 509 C306 580 325 611 401 611 L402 618 L105 618 L103 611 C179 611 184 580 167 509 L98 209 C61 46 161 -12 288 -12 L288 -12 Z " />
<glyph glyph-name="V" unicode="V" horiz-adv-x="634" d="M259 -5 L265 -5 L487 348 C546 442 586 505 619 543 C657 588 698 611 751 611 L753 618 L506 618 L505 611 C554 611 575 590 575 557 C575 520 543 455 480 353 L348 139 L287 486 C274 562 298 611 374 611 L375 618 L66 618 L64 611 C136 611 150 547 163 480 L259 -5 Z " />
<glyph glyph-name="W" unicode="W" horiz-adv-x="951" d="M250 -5 L255 -5 L523 428 L586 -5 L592 -5 L809 352 C861 439 897 503 931 542 C969 586 1013 611 1067 611 L1069 618 L822 618 L820 611 C869 611 889 592 889 558 C889 523 862 459 801 357 L680 154 L639 486 C631 559 651 611 728 611 L729 618 L422 618 L421 611 C483 611 507 555 517 480 L521 442 L341 147 L284 496 C273 566 290 611 363 611 L365 618 L66 618 L65 611 C139 611 153 540 163 480 L250 -5 Z " />
<glyph glyph-name="X" unicode="X" horiz-adv-x="670" d="M-84 0 L205 0 L207 6 C162 6 141 26 141 55 C141 92 174 141 244 218 L301 279 L364 123 C390 60 380 6 305 6 L304 0 L617 0 L618 6 C550 6 510 79 482 151 L403 348 L448 395 C508 459 563 511 612 548 C663 584 713 611 771 611 L773 618 L494 618 L492 611 C534 611 553 594 553 568 C553 531 517 481 444 402 L400 355 L347 493 C325 549 327 611 409 611 L411 618 L96 618 L94 611 C167 611 199 535 229 461 L299 287 L239 224 C184 165 131 114 83 76 C31 37 -22 6 -82 6 L-84 0 Z " />
<glyph glyph-name="Y" unicode="Y" horiz-adv-x="643" d="M108 0 L425 0 L427 6 C347 6 337 43 355 120 L392 283 L480 389 C551 477 589 521 618 548 C658 587 702 611 761 611 L762 618 L507 618 L506 611 C559 611 578 592 578 566 C578 533 545 484 473 395 L388 289 L385 289 L310 501 C286 569 309 611 379 611 L380 618 L76 618 L75 611 C131 611 160 559 183 495 L266 267 L233 120 C215 43 190 6 109 6 L108 0 Z " />
<glyph glyph-name="Z" unicode="Z" horiz-adv-x="604" d="M-23 0 L485 0 L552 211 L546 212 C497 117 416 8 304 8 L131 8 L642 616 L641 618 L151 618 L89 412 L94 412 C145 512 227 610 335 610 L488 610 L-24 2 L-23 0 Z " />
<glyph glyph-name="bracketleft" unicode="&#x5b;" horiz-adv-x="306" d="M-30 -168 L209 -168 L210 -162 L116 -162 C90 -162 71 -152 79 -119 L255 642 C263 675 286 685 312 685 L406 685 L408 692 L169 692 L-30 -168 Z " />
<glyph glyph-name="backslash" unicode="&#x5c;" horiz-adv-x="524" d="M399 -166 L407 -163 L132 696 L125 693 L399 -166 Z " />
<glyph glyph-name="bracketright" unicode="&#x5d;" horiz-adv-x="307" d="M-95 -168 L143 -168 L342 692 L104 692 L102 686 L196 686 C222 686 241 676 233 643 L58 -119 C50 -152 27 -162 1 -162 L-93 -162 L-95 -168 Z " />
<glyph glyph-name="asciicircum" unicode="&#x5e;" horiz-adv-x="473" d="M70 337 L302 520 L450 337 L455 340 L332 635 L325 635 L67 340 L70 337 Z " />
<glyph glyph-name="underscore" unicode="&#x5f;" horiz-adv-x="516" d="M-71 -58 L445 -58 L447 -49 L-69 -49 L-71 -58 Z " />
<glyph glyph-name="grave" unicode="&#x60;" horiz-adv-x="328" d="M365 472 L368 474 C337 546 317 605 299 630 C281 655 250 661 229 645 C209 629 207 599 226 575 C245 550 295 523 365 472 L365 472 Z " />
<glyph glyph-name="a" unicode="a" horiz-adv-x="548" d="M162 -11 C222 -11 270 21 305 56 C305 15 330 -10 375 -10 C415 -10 460 10 503 37 L504 44 C486 33 459 19 439 19 C418 19 411 35 417 65 L496 412 L491 413 L385 373 C369 398 333 419 276 419 C131 419 22 289 22 153 C22 61 72 -11 162 -11 L162 -11 Z M215 19 C160 19 139 71 139 131 C139 240 209 410 303 410 C347 410 369 374 366 337 L304 66 C280 40 250 19 215 19 L215 19 Z " />
<glyph glyph-name="b" unicode="b" horiz-adv-x="523" d="M210 -11 C372 -11 480 120 480 258 C480 344 438 419 346 419 C283 419 233 385 198 352 L271 668 L86 648 L84 642 C137 642 148 623 136 573 L48 194 C12 37 125 -11 210 -11 L210 -11 Z M194 -4 C132 -4 127 46 133 73 L195 342 C222 368 253 387 287 387 C342 387 363 334 363 275 C363 180 310 -4 194 -4 L194 -4 Z " />
<glyph glyph-name="c" unicode="c" horiz-adv-x="462" d="M193 -11 C293 -11 359 49 399 101 L394 104 C357 55 304 11 241 11 C177 11 138 58 138 148 C138 255 194 411 297 411 C342 411 359 380 366 352 C335 348 312 321 312 288 C312 254 336 225 373 225 C413 225 436 259 436 298 C436 357 383 419 285 419 C153 419 22 307 22 160 C22 60 82 -11 193 -11 L193 -11 Z " />
<glyph glyph-name="d" unicode="d" horiz-adv-x="548" d="M162 -11 C222 -11 270 21 305 56 C305 15 330 -10 375 -10 C415 -10 460 10 503 37 L504 44 C486 33 459 19 439 19 C418 19 411 35 417 65 L555 668 L361 648 L359 642 C412 642 434 629 421 573 L377 380 C359 403 324 419 276 419 C131 419 22 289 22 153 C22 61 72 -11 162 -11 L162 -11 Z M215 19 C160 19 139 71 139 131 C139 240 209 410 303 410 C346 410 368 375 367 339 L304 66 C280 40 250 19 215 19 L215 19 Z " />
<glyph glyph-name="e" unicode="e" horiz-adv-x="478" d="M198 -11 C305 -11 372 52 413 100 L408 104 C372 61 315 12 246 12 C172 12 140 68 140 145 C140 165 142 186 146 209 C247 200 447 201 447 313 C447 375 384 419 295 419 C154 419 22 308 22 161 C22 67 77 -11 198 -11 L198 -11 Z M293 412 C330 412 344 385 344 346 C344 243 248 211 147 216 C167 312 222 412 293 412 L293 412 Z " />
<glyph glyph-name="f" unicode="f" horiz-adv-x="318" d="M-48 -163 C33 -163 116 -115 141 -7 L235 396 L346 396 L348 408 L238 408 L266 528 C281 593 307 652 360 652 C388 652 404 635 413 609 C386 603 367 578 367 548 C367 514 393 486 426 486 C457 486 485 511 485 550 C485 597 444 659 349 659 C254 659 170 597 143 481 L126 408 L43 408 L40 396 L123 396 L12 -78 C1 -125 -18 -157 -56 -157 C-78 -157 -89 -145 -95 -132 C-73 -126 -54 -105 -54 -75 C-54 -45 -75 -19 -107 -19 C-137 -19 -163 -41 -163 -77 C-163 -120 -124 -163 -48 -163 L-48 -163 Z " />
<glyph glyph-name="g" unicode="g" horiz-adv-x="453" d="M134 -174 C310 -174 382 -113 382 -39 C382 109 92 37 92 100 C92 116 109 128 128 135 C150 127 177 123 206 123 C324 123 421 197 421 292 C421 348 387 388 332 407 C347 443 374 480 406 492 C405 487 404 482 404 478 C404 448 429 423 458 423 C487 423 512 448 512 480 C512 509 491 536 455 536 C399 536 350 468 327 408 C306 415 282 419 256 419 C128 419 40 339 40 249 C40 195 72 157 121 138 C69 121 17 88 17 43 C17 15 37 -1 65 -10 C22 -16 -64 -39 -64 -95 C-64 -150 25 -174 134 -174 L134 -174 Z M144 -168 C47 -168 0 -140 0 -92 C0 -56 29 -27 73 -12 C155 -38 302 -21 302 -88 C302 -115 277 -168 144 -168 L144 -168 Z M258 413 C301 413 316 377 316 327 C316 246 279 129 204 129 C162 129 146 165 146 215 C146 292 181 413 258 413 L258 413 Z " />
<glyph glyph-name="h" unicode="h" horiz-adv-x="542" d="M13 0 L126 0 L196 304 C231 335 275 375 320 375 C357 375 368 347 358 304 L308 90 C294 30 316 -10 374 -10 C414 -10 458 10 501 37 L502 44 C484 33 458 19 438 19 C416 19 409 35 416 65 L466 287 C488 382 442 419 386 419 C314 419 245 358 199 315 L280 668 L96 648 L94 642 C146 642 158 623 146 573 L13 0 Z " />
<glyph glyph-name="i" unicode="i" horiz-adv-x="287" d="M116 -10 C156 -10 200 10 243 37 L244 44 C226 33 200 19 180 19 C158 19 151 35 158 65 L216 319 C230 379 208 419 150 419 C110 419 66 399 23 372 L22 365 C40 376 66 390 86 390 C108 390 115 374 108 344 L50 90 C36 30 58 -10 116 -10 L116 -10 Z M209 489 C247 489 278 517 278 557 C278 597 247 624 209 624 C170 624 139 597 139 557 C139 517 170 489 209 489 L209 489 Z " />
<glyph glyph-name="j" unicode="j" horiz-adv-x="272" d="M-44 -163 C37 -163 120 -115 145 -7 L221 319 C235 379 213 419 155 419 C115 419 71 399 28 372 L27 365 C45 376 71 390 91 390 C113 390 120 374 113 344 L16 -78 C5 -125 -14 -157 -52 -157 C-74 -157 -85 -145 -91 -132 C-69 -126 -50 -105 -50 -75 C-50 -45 -71 -19 -103 -19 C-133 -19 -159 -41 -159 -77 C-159 -120 -120 -163 -44 -163 L-44 -163 Z M214 489 C252 489 283 517 283 557 C283 597 252 624 214 624 C175 624 144 597 144 557 C144 517 175 489 214 489 L214 489 Z " />
<glyph glyph-name="k" unicode="k" horiz-adv-x="489" d="M14 0 L126 0 L171 196 C183 197 195 200 206 202 L269 33 C280 4 302 -12 341 -12 C381 -12 420 5 467 35 L468 42 C452 33 429 17 408 17 C393 17 386 24 382 35 L310 226 C402 257 452 304 452 353 C452 388 425 419 388 419 C352 419 325 390 325 356 C325 319 359 298 388 295 C355 241 264 214 173 203 L280 668 L96 648 L94 642 C146 642 158 623 146 573 L14 0 Z " />
<glyph glyph-name="l" unicode="l" horiz-adv-x="276" d="M102 -10 C142 -10 187 10 230 37 L231 44 C213 33 186 19 166 19 C145 19 138 35 144 65 L282 668 L98 648 L96 642 C148 642 160 623 148 573 L37 90 C23 30 45 -10 102 -10 L102 -10 Z " />
<glyph glyph-name="m" unicode="m" horiz-adv-x="806" d="M32 0 L143 0 L213 307 C251 344 288 375 327 375 C364 375 373 347 363 304 L293 0 L404 0 L473 305 C512 342 548 375 588 375 C625 375 634 347 624 304 L575 91 C561 31 581 -9 639 -9 C679 -9 722 11 765 38 L766 44 C748 34 722 19 702 19 C680 19 673 36 680 65 L730 287 C752 382 709 419 652 419 C581 419 519 359 474 315 C481 389 442 419 391 419 C321 419 260 361 215 318 C229 381 208 419 152 419 C112 419 68 399 25 372 L24 365 C42 376 69 390 89 390 C110 390 117 374 111 344 L32 0 Z " />
<glyph glyph-name="n" unicode="n" horiz-adv-x="560" d="M32 0 L146 0 L216 305 C250 335 294 375 338 375 C376 375 386 347 376 304 L327 90 C313 30 335 -10 392 -10 C432 -10 477 10 520 37 L521 44 C503 33 476 19 456 19 C435 19 428 35 434 65 L485 287 C506 382 461 419 404 419 C332 419 265 359 218 316 C232 380 209 419 153 419 C113 419 68 399 25 372 L24 365 C42 376 69 390 89 390 C110 390 117 374 111 344 L32 0 Z " />
<glyph glyph-name="o" unicode="o" horiz-adv-x="526" d="M212 -11 C344 -11 482 92 482 242 C482 369 382 419 292 419 C160 419 23 315 23 166 C23 43 117 -11 212 -11 L212 -11 Z M207 -3 C165 -3 132 26 132 101 C132 196 184 411 298 411 C341 411 373 382 373 307 C373 212 322 -3 207 -3 L207 -3 Z " />
<glyph glyph-name="p" unicode="p" horiz-adv-x="549" d="M-74 -163 L179 -163 L181 -157 C129 -157 111 -140 123 -90 L150 26 C168 3 203 -11 253 -11 C401 -11 505 119 505 252 C505 348 452 419 362 419 C302 419 256 388 222 353 C221 392 197 417 153 417 C113 417 68 397 25 370 L24 363 C42 374 69 388 89 388 C110 388 117 372 111 342 L12 -86 C0 -136 -20 -157 -73 -157 L-74 -163 Z M311 389 C364 389 388 340 388 276 C388 172 325 -3 226 -3 C177 -3 152 35 164 84 L224 343 C247 368 275 389 311 389 L311 389 Z " />
<glyph glyph-name="q" unicode="q" horiz-adv-x="531" d="M180 -163 L433 -163 L435 -157 C382 -157 371 -136 383 -86 L498 415 L494 415 C389 397 352 419 289 419 C134 419 21 290 21 149 C21 63 63 -11 155 -11 C217 -11 268 21 303 55 L271 -86 C258 -139 234 -157 182 -157 L180 -163 Z M306 411 C361 411 375 373 370 344 L305 65 C279 40 247 21 214 21 C159 21 138 73 138 132 C138 227 191 411 306 411 L306 411 Z " />
<glyph glyph-name="r" unicode="r" horiz-adv-x="411" d="M32 0 L145 0 L204 256 C228 306 260 350 295 363 C295 359 294 355 294 351 C294 314 323 285 357 285 C392 285 421 314 421 352 C421 387 396 419 356 419 C294 419 239 344 205 271 L216 319 C231 379 209 419 152 419 C113 419 68 399 25 372 L24 365 C42 376 69 390 89 390 C110 390 117 374 111 344 L32 0 Z " />
<glyph glyph-name="s" unicode="s" horiz-adv-x="428" d="M163 -11 C271 -11 357 49 357 132 C357 264 144 241 144 335 C144 378 188 413 247 413 C297 413 317 388 327 363 C305 358 289 338 289 314 C289 285 311 261 340 261 C372 261 393 290 393 320 C393 367 339 419 241 419 C135 419 60 359 60 280 C60 148 271 173 271 77 C271 33 226 -5 159 -5 C105 -5 83 18 72 45 C94 51 110 71 110 97 C110 127 89 151 58 151 C24 151 3 120 3 91 C3 44 61 -11 163 -11 L163 -11 Z " />
<glyph glyph-name="t" unicode="t" horiz-adv-x="333" d="M139 -10 C209 -10 262 34 302 73 L298 77 C271 50 235 21 197 21 C161 21 149 48 160 97 L229 396 L351 396 L354 408 L232 408 L261 535 L145 514 L120 408 L52 408 L49 396 L118 396 L52 112 C33 31 71 -10 139 -10 L139 -10 Z " />
<glyph glyph-name="u" unicode="u" horiz-adv-x="559" d="M138 -9 C208 -9 276 44 319 81 C312 23 335 -10 387 -10 C427 -10 471 10 514 37 L515 44 C497 33 471 19 451 19 C429 19 422 35 429 65 L507 410 L395 410 L321 91 C291 65 251 32 208 32 C168 32 153 61 165 114 L213 319 C227 379 205 419 147 419 C107 419 63 399 20 372 L19 365 C37 376 63 390 83 390 C105 390 112 374 105 344 L55 123 C34 28 78 -9 138 -9 L138 -9 Z " />
<glyph glyph-name="v" unicode="v" horiz-adv-x="462" d="M164 -8 C314 105 441 257 441 346 C441 380 423 419 378 419 C338 419 311 389 311 354 C311 320 338 293 374 293 C382 293 390 295 396 297 C390 218 319 131 249 67 L204 363 C199 398 176 419 135 419 C95 419 51 399 8 372 L7 365 C25 376 50 390 68 390 C83 390 90 380 93 364 L161 -7 L164 -8 Z " />
<glyph glyph-name="w" unicode="w" horiz-adv-x="677" d="M160 -8 C234 48 305 113 357 176 L388 -7 L392 -8 C542 105 655 257 655 345 C655 381 637 419 592 419 C552 419 525 389 525 354 C525 320 552 293 588 293 C596 293 604 294 610 297 C606 218 542 131 474 66 L427 408 L318 408 L354 191 C325 145 283 101 243 64 L201 363 C196 398 175 419 135 419 C95 419 50 399 7 372 L6 365 C24 376 49 390 67 390 C82 390 89 380 92 364 L156 -7 L160 -8 Z " />
<glyph glyph-name="x" unicode="x" horiz-adv-x="488" d="M50 -11 C116 -11 161 73 196 158 L237 39 C246 11 263 -11 305 -11 C345 -11 388 9 431 36 L432 43 C414 32 390 18 372 18 C361 18 349 23 344 38 L273 246 C297 298 325 345 358 361 C357 317 388 290 421 290 C453 290 482 317 482 355 C482 394 453 418 416 418 C350 418 305 335 270 252 L232 369 C222 397 206 419 164 419 C124 419 81 399 38 372 L37 365 C55 376 78 390 97 390 C108 390 120 385 125 370 L194 164 C170 110 141 61 108 45 C109 91 78 117 45 117 C13 117 -16 90 -16 52 C-16 13 13 -11 50 -11 L50 -11 Z " />
<glyph glyph-name="y" unicode="y" horiz-adv-x="462" d="M-65 -174 C16 -174 83 -74 131 -37 L173 -2 C318 109 441 258 441 346 C441 380 423 419 378 419 C338 419 311 389 311 354 C311 320 338 293 374 293 C382 293 390 295 396 297 C390 218 319 131 249 67 L204 363 C199 398 176 419 135 419 C95 419 51 399 8 372 L7 365 C25 376 50 390 68 390 C83 390 90 380 93 364 L160 -2 L129 -27 C44 -94 -110 -59 -110 -138 C-110 -160 -93 -174 -65 -174 L-65 -174 Z " />
<glyph glyph-name="z" unicode="z" horiz-adv-x="453" d="M34 -8 C93 -8 112 54 111 95 C179 61 180 -11 253 -11 C337 -11 370 91 384 156 L381 157 C360 99 325 86 270 86 C207 86 157 101 109 105 L335 301 L346 301 C412 301 448 331 449 369 C449 392 435 415 399 415 C346 415 320 363 322 312 C251 345 249 419 179 419 C96 419 62 315 48 251 L52 251 C72 306 100 322 159 322 C217 322 274 306 324 302 L98 106 C95 106 91 106 87 106 C21 106 -16 76 -16 39 C-17 15 -2 -8 34 -8 L34 -8 Z " />
<glyph glyph-name="braceleft" unicode="&#x7b;" horiz-adv-x="339" d="M230 -174 L231 -169 C143 -167 124 -142 124 -106 C124 -19 233 90 233 168 C233 233 155 249 45 259 L46 264 C191 271 288 297 288 419 C288 447 280 508 280 544 C280 659 326 691 430 692 L431 698 C286 698 221 660 204 585 C193 535 202 489 186 420 C159 302 91 265 -7 265 L-8 258 C76 258 121 228 121 148 C121 46 51 -11 51 -84 C51 -146 105 -174 230 -174 L230 -174 Z " />
<glyph glyph-name="bar" unicode="&#x7c;" horiz-adv-x="143" d="M-30 -168 L-20 -168 L179 692 L169 692 L-30 -168 Z " />
<glyph glyph-name="braceright" unicode="&#x7d;" horiz-adv-x="338" d="M-87 -174 C58 -174 123 -137 140 -62 C152 -12 142 34 158 103 C185 221 253 258 351 258 L353 265 C268 265 224 295 224 376 C224 477 294 534 294 608 C294 669 239 698 115 698 L113 692 C201 691 220 665 220 629 C220 542 112 433 112 356 C112 291 190 274 299 264 L299 260 C154 252 57 226 57 104 C57 76 64 15 64 -20 C64 -136 18 -167 -85 -169 L-87 -174 Z " />
<glyph glyph-name="asciitilde" unicode="&#x7e;" horiz-adv-x="474" d="M54 182 C68 209 92 247 137 247 C194 247 238 186 299 186 C366 186 397 255 429 328 L424 330 C409 299 385 265 341 265 C284 265 241 326 179 326 C115 326 85 263 49 183 L54 182 Z " />
<glyph glyph-name="exclamdown" unicode="&#xa1;" horiz-adv-x="230" d="M10 -228 C52 -228 88 -194 93 -141 C98 -84 76 6 110 212 L102 212 C31 -34 -50 -102 -50 -168 C-50 -205 -24 -228 10 -228 L10 -228 Z M136 410 C99 410 70 379 70 341 C70 303 99 273 136 273 C174 273 204 303 204 341 C204 379 174 410 136 410 L136 410 Z " />
<glyph glyph-name="cent" unicode="&#xa2;" horiz-adv-x="481" d="M205 13 L214 13 L235 107 C331 109 395 168 434 219 L429 222 C392 173 339 129 276 129 C212 129 173 176 173 266 C173 373 229 529 332 529 C377 529 394 498 401 470 C370 466 347 439 347 406 C347 372 371 343 408 343 C448 343 471 377 471 416 C471 471 423 530 335 536 L355 620 L346 620 L326 536 C192 540 57 427 57 278 C57 180 115 109 226 107 L205 13 Z " />
<glyph glyph-name="sterling" unicode="&#xa3;" horiz-adv-x="598" d="M85 -7 C149 -7 189 38 213 100 C275 60 295 -11 376 -11 C492 -11 522 136 536 222 L530 222 C513 142 475 98 390 98 C342 98 280 112 222 123 C232 151 238 184 241 220 C247 257 250 290 254 321 L429 321 L431 330 L254 330 C258 367 261 400 266 426 C280 517 304 622 416 622 C479 622 505 589 519 550 C484 547 458 516 458 480 C458 441 488 409 525 409 C561 409 591 438 591 486 C591 552 533 630 392 630 C251 630 144 552 144 408 C144 381 147 355 151 330 L65 330 L63 321 L153 321 C164 252 183 193 183 130 C163 134 144 136 127 136 C55 136 9 107 9 58 C9 24 31 -7 85 -7 L85 -7 Z M84 0 C36 0 18 29 18 58 C18 96 51 127 119 127 C145 127 165 123 183 116 C177 54 148 0 84 0 L84 0 Z " />
<glyph glyph-name="yen" unicode="&#xa5;" horiz-adv-x="716" d="M134 0 L439 0 L440 6 C359 6 351 43 369 120 L386 197 L547 197 L549 206 L388 206 L406 284 L442 329 L577 329 L579 338 L450 338 L490 387 C563 478 592 516 622 545 C664 587 707 611 763 611 L764 618 L515 618 L514 611 C567 611 585 592 585 566 C585 533 556 485 481 390 L403 292 L400 292 L334 501 C312 571 338 611 404 611 L405 618 L111 618 L110 611 C167 611 192 561 215 495 L270 338 L158 338 L156 329 L273 329 L293 271 L278 206 L125 206 L123 197 L276 197 L259 120 C241 43 215 6 135 6 L134 0 Z " />
<glyph glyph-name="brokenbar" unicode="&#xa6;" horiz-adv-x="152" d="M-25 -168 L-16 -168 L76 232 L67 232 L-25 -168 Z M93 342 L102 342 L183 692 L174 692 L93 342 Z " />
<glyph glyph-name="section" unicode="&#xa7;" horiz-adv-x="464" d="M171 -71 C294 -71 354 -3 354 70 C354 124 322 154 282 177 C376 218 426 250 426 315 C426 449 214 431 214 537 C214 581 249 624 318 624 C367 624 390 601 401 580 C374 576 356 554 356 526 C356 496 379 472 409 472 C436 472 461 492 461 528 C461 575 418 630 313 630 C198 630 133 566 133 489 C133 434 165 403 205 380 C121 344 57 311 57 240 C57 111 272 127 272 21 C272 -16 246 -66 161 -66 C107 -66 82 -45 69 -20 C93 -14 110 7 110 34 C110 64 87 89 56 89 C27 89 4 67 4 34 C4 -18 62 -71 171 -71 L171 -71 Z M277 181 C213 216 134 233 134 293 C134 339 179 362 211 376 C273 342 350 323 350 263 C350 217 307 198 277 181 L277 181 Z " />
<glyph glyph-name="dieresis" unicode="&#xa8;" horiz-adv-x="475" d="M276 491 C309 491 336 518 336 552 C336 586 309 613 275 613 C241 613 215 585 215 552 C215 518 243 491 276 491 L276 491 Z M454 491 C487 491 514 518 514 552 C514 586 487 613 453 613 C419 613 393 585 393 552 C393 518 421 491 454 491 L454 491 Z " />
<glyph glyph-name="copyright" unicode="&#xa9;" horiz-adv-x="741" d="M376 129 C422 129 463 137 495 146 L541 259 L538 260 C491 187 439 133 374 133 C314 133 284 179 284 249 C284 329 324 485 441 485 C495 485 540 453 555 368 L558 368 L575 488 C531 478 483 489 434 489 C296 489 186 396 186 279 C186 185 258 129 376 129 L376 129 Z M350 -12 C540 -12 707 147 707 337 C707 501 584 630 418 630 C230 630 61 472 61 281 C61 118 184 -12 350 -12 L350 -12 Z M351 -3 C190 -3 70 124 70 282 C70 468 234 622 417 622 C579 622 699 495 699 336 C699 151 535 -3 351 -3 L351 -3 Z " />
<glyph glyph-name="ordfeminine" unicode="&#xaa;" horiz-adv-x="506" d="M196 281 C255 281 294 311 319 338 C318 305 341 283 382 283 C430 283 464 315 488 347 L484 351 C472 336 444 303 420 303 C409 303 399 309 404 331 L446 512 C466 601 379 634 306 634 C221 634 154 590 154 541 C154 516 171 491 202 491 C229 491 251 512 251 540 C251 560 239 581 219 588 C231 608 261 628 303 628 C359 628 373 590 361 538 L342 455 C322 461 294 468 259 468 C173 468 99 432 99 361 C99 308 141 281 196 281 L196 281 Z M239 303 C212 303 192 318 192 359 C192 409 222 458 287 458 C308 458 326 453 341 448 L316 345 C298 324 270 303 239 303 L239 303 Z M53 212 L439 212 L441 221 L55 221 L53 212 Z " />
<glyph glyph-name="guillemotleft" unicode="&#xab;" horiz-adv-x="587" d="M262 23 L266 27 L98 224 L357 420 L355 425 L20 225 L19 222 L262 23 Z M496 23 L500 27 L331 224 L590 420 L589 425 L253 225 L253 222 L496 23 Z " />
<glyph glyph-name="uni00AD" unicode="&#xad;" horiz-adv-x="364" d="M45 220 L304 220 L309 245 L51 245 L45 220 Z " />
<glyph glyph-name="registered" unicode="&#xae;" horiz-adv-x="409" d="M279 458 C279 448 280 430 282 418 L335 418 L336 421 C321 421 318 425 317 441 C314 477 324 492 267 492 L267 493 C300 494 342 502 342 535 C342 559 321 572 281 572 L197 572 L196 569 C214 569 217 565 212 546 L188 443 C184 424 180 421 162 421 L161 418 L241 418 L242 421 C226 421 222 424 226 443 L237 491 L252 491 C274 491 279 484 279 458 L279 458 Z M303 540 C303 519 290 494 257 494 L238 494 L255 569 L273 569 C295 569 303 556 303 540 L303 540 Z M244 339 C334 339 416 416 416 509 C416 588 357 651 275 651 C184 651 102 574 102 481 C102 402 162 339 244 339 L244 339 Z M245 347 C167 347 110 407 110 482 C110 570 188 643 274 643 C351 643 408 583 408 508 C408 420 330 347 245 347 L245 347 Z " />
<glyph glyph-name="macron" unicode="&#xaf;" horiz-adv-x="424" d="M188 500 L466 500 L474 534 L196 534 L188 500 Z " />
<glyph glyph-name="degree" unicode="&#xb0;" horiz-adv-x="373" d="M228 388 C309 388 394 443 394 531 C394 616 317 641 262 641 C181 641 96 586 96 498 C96 414 172 388 228 388 L228 388 Z M220 393 C185 393 172 422 172 460 C172 517 202 635 269 635 C305 635 318 605 318 569 C318 515 289 393 220 393 L220 393 Z " />
<glyph glyph-name="plusminus" unicode="&#xb1;" horiz-adv-x="570" d="M254 102 L263 102 L313 320 L531 320 L533 330 L315 330 L366 548 L357 548 L306 330 L88 330 L86 320 L304 320 L254 102 Z M12 0 L457 0 L459 9 L14 9 L12 0 Z " />
<glyph glyph-name="twosuperior" unicode="&#xb2;" horiz-adv-x="370" d="M63 335 L69 335 C68 384 96 423 138 423 C205 423 211 329 283 329 C362 329 385 443 383 493 L379 493 C377 440 351 417 307 417 C265 417 228 440 179 440 C130 440 99 423 81 396 C84 403 92 415 107 429 C207 523 414 516 414 633 C414 699 346 726 278 726 C179 726 118 671 118 625 C118 599 136 575 164 575 C190 575 210 595 210 623 C210 648 193 667 173 670 C189 696 219 721 263 721 C308 721 327 694 327 654 C327 538 173 506 104 432 C75 405 64 377 63 335 L63 335 Z " />
<glyph glyph-name="threesuperior" unicode="&#xb3;" horiz-adv-x="375" d="M206 328 C297 328 384 364 384 438 C384 503 318 530 240 530 L235 530 L235 533 L240 533 C339 533 418 568 418 634 C418 692 360 726 281 726 C196 726 129 686 129 638 C129 613 147 591 174 591 C200 591 219 612 219 637 C219 660 204 678 187 683 C200 702 226 719 262 719 C306 719 328 693 328 648 C328 592 294 535 212 534 C182 533 178 541 169 541 C163 541 155 537 155 530 C155 525 161 522 166 522 C171 522 182 529 210 529 C268 529 293 501 293 450 C293 390 259 334 185 334 C146 334 128 350 120 366 C142 370 159 390 159 415 C159 441 140 462 114 462 C88 462 67 440 67 410 C67 368 110 328 206 328 L206 328 Z " />
<glyph glyph-name="acute" unicode="&#xb4;" horiz-adv-x="328" d="M178 473 C263 513 350 544 378 565 C401 583 409 613 393 633 C378 652 348 654 320 632 C294 611 237 541 176 475 L178 473 Z " />
<glyph glyph-name="mu" unicode="&#xb5;" horiz-adv-x="574" d="M35 -195 C67 -195 81 -172 81 -151 C81 -102 0 -62 21 26 L30 68 C34 13 71 -9 119 -9 C189 -9 258 44 301 82 C289 22 315 -10 367 -10 C407 -10 452 10 495 37 L496 44 C478 33 451 19 431 19 C410 19 402 35 409 65 L488 415 L374 402 L302 91 C272 66 232 32 189 32 C149 32 134 61 146 114 L215 415 L100 402 L9 9 C-8 -64 -37 -195 35 -195 L35 -195 Z " />
<glyph glyph-name="paragraph" unicode="&#xb6;" horiz-adv-x="484" d="M171 -59 L181 -59 L335 610 L460 610 L306 -59 L314 -59 L469 610 L527 610 L529 618 L322 618 C186 618 74 528 74 419 C74 344 132 282 250 282 L171 -59 Z " />
<glyph glyph-name="periodcentered" unicode="&#xb7;" horiz-adv-x="246" d="M120 171 C157 171 187 201 187 239 C187 277 157 307 120 307 C83 307 53 277 53 239 C53 201 83 171 120 171 L120 171 Z " />
<glyph glyph-name="cedilla" unicode="&#xb8;" horiz-adv-x="327" d="M108 -219 C178 -219 253 -190 253 -126 C253 -77 208 -57 151 -57 C129 -57 112 -60 98 -64 L164 -7 L156 -5 L75 -75 L77 -77 C88 -73 102 -69 116 -69 C153 -69 166 -95 166 -125 C166 -169 136 -204 78 -204 C47 -204 12 -194 -4 -182 L-8 -187 C15 -206 60 -219 108 -219 L108 -219 Z " />
<glyph glyph-name="onesuperior" unicode="&#xb9;" horiz-adv-x="244" d="M40 335 L255 335 L256 339 C213 339 195 348 208 399 L283 718 L281 719 C225 692 172 681 116 676 L115 672 L159 672 C182 672 185 661 180 641 L123 403 C111 351 88 339 40 339 L40 335 Z " />
<glyph glyph-name="ordmasculine" unicode="&#xba;" horiz-adv-x="502" d="M273 281 C385 281 490 368 490 486 C490 588 411 634 329 634 C216 634 111 548 111 430 C111 326 192 281 273 281 L273 281 Z M267 288 C222 288 207 328 207 383 C207 482 250 628 335 628 C380 628 395 588 395 532 C395 429 350 288 267 288 L267 288 Z M60 212 L428 212 L430 221 L62 221 L60 212 Z " />
<glyph glyph-name="guillemotright" unicode="&#xbb;" horiz-adv-x="586" d="M-14 23 L321 222 L322 225 L79 425 L75 420 L243 224 L-16 27 L-14 23 Z M219 23 L555 222 L555 225 L312 425 L308 420 L477 224 L218 27 L219 23 Z " />
<glyph glyph-name="onequarter" unicode="&#xbc;" horiz-adv-x="861" d="M43 235 L258 235 L259 239 C216 239 199 248 211 299 L287 618 L284 619 C228 592 176 581 119 576 L118 572 L163 572 C185 572 188 561 183 541 L127 303 C114 251 91 239 44 239 L43 235 Z M151 -9 L735 623 L729 627 L145 -5 L151 -9 Z M556 0 L771 0 L772 4 C728 4 712 13 724 64 L732 99 C770 100 775 94 782 94 C788 94 796 97 796 104 C796 108 793 112 786 112 C778 112 773 105 733 106 L766 246 L763 246 L663 167 L648 106 L465 106 L533 157 C610 212 731 255 731 322 C731 370 664 392 595 390 C613 376 626 351 626 320 C626 258 572 192 525 159 L454 104 L454 101 L646 101 L639 68 C626 16 604 4 556 4 L556 0 Z " />
<glyph glyph-name="onehalf" unicode="&#xbd;" horiz-adv-x="875" d="M36 235 L251 235 L252 239 C209 239 192 248 204 299 L280 618 L277 619 C221 592 169 581 112 576 L111 572 L156 572 C178 572 181 561 176 541 L120 303 C107 251 84 239 37 239 L36 235 Z M144 -9 L728 623 L722 627 L138 -5 L144 -9 Z M489 0 L495 0 C494 49 521 88 564 88 C630 88 637 -6 708 -6 C787 -6 810 108 809 158 L804 158 C803 105 776 82 732 82 C690 82 654 105 604 105 C556 105 525 88 507 61 C509 68 518 80 532 94 C633 188 839 181 839 298 C839 364 772 391 703 391 C604 391 544 336 544 290 C544 264 562 240 590 240 C616 240 636 260 636 288 C636 313 619 332 599 335 C615 361 644 386 688 386 C734 386 752 359 752 319 C752 203 599 171 529 97 C501 70 490 42 489 0 L489 0 Z " />
<glyph glyph-name="threequarters" unicode="&#xbe;" horiz-adv-x="922" d="M212 -9 L796 623 L790 627 L206 -5 L212 -9 Z M617 0 L832 0 L833 4 C789 4 773 13 785 64 L793 99 C831 100 836 94 843 94 C849 94 857 97 857 104 C857 108 854 112 847 112 C839 112 834 105 794 106 L827 246 L824 246 L724 167 L709 106 L526 106 L594 157 C671 212 792 255 792 322 C792 370 725 392 656 390 C674 376 687 351 687 320 C687 258 633 192 586 159 L515 104 L515 101 L707 101 L700 68 C687 16 665 4 617 4 L617 0 Z M197 228 C287 228 375 264 375 338 C375 403 308 430 230 430 L225 430 L226 433 L231 433 C330 433 409 468 409 534 C409 592 350 626 272 626 C187 626 120 586 120 538 C120 513 137 491 164 491 C190 491 210 512 210 537 C210 560 195 578 177 583 C191 602 217 619 252 619 C296 619 318 593 318 548 C318 492 284 435 203 434 C172 433 169 441 160 441 C153 441 146 437 146 430 C146 425 152 422 156 422 C162 422 172 429 201 429 C258 429 284 401 284 350 C284 290 249 234 175 234 C136 234 118 250 110 266 C133 270 149 290 149 315 C149 341 130 362 105 362 C78 362 57 340 57 310 C57 268 101 228 197 228 L197 228 Z " />
<glyph glyph-name="questiondown" unicode="&#xbf;" horiz-adv-x="518" d="M183 -228 C308 -228 410 -163 410 -90 C410 -51 381 -18 343 -18 C306 -18 277 -49 277 -88 C277 -122 298 -150 328 -157 C304 -190 259 -221 197 -221 C113 -221 80 -166 80 -88 C80 29 158 82 256 109 L276 212 L270 212 L243 114 C113 81 -40 47 -40 -69 C-40 -170 63 -228 183 -228 L183 -228 Z M300 410 C263 410 234 379 234 341 C234 303 263 273 300 273 C338 273 368 303 368 341 C368 379 338 410 300 410 L300 410 Z " />
<glyph glyph-name="Agrave" unicode="&#xc0;" horiz-adv-x="648" d="M-94 0 L163 0 L164 6 C43 6 84 116 136 192 L146 208 L375 208 L390 132 C405 54 373 6 304 6 L302 0 L612 0 L614 6 C548 6 526 73 513 139 L409 622 L403 622 L136 209 C75 117 15 6 -92 6 L-94 0 Z M152 218 L322 481 L373 218 L152 218 Z M474 672 L476 674 C445 746 426 805 408 830 C389 855 358 861 338 845 C318 829 315 799 334 775 C353 750 403 723 474 672 L474 672 Z " />
<glyph glyph-name="Aacute" unicode="&#xc1;" horiz-adv-x="648" d="M-94 0 L163 0 L164 6 C43 6 84 116 136 192 L146 208 L375 208 L390 132 C405 54 373 6 304 6 L302 0 L612 0 L614 6 C548 6 526 73 513 139 L409 622 L403 622 L136 209 C75 117 15 6 -92 6 L-94 0 Z M152 218 L322 481 L373 218 L152 218 Z M332 673 C417 713 504 744 532 765 C555 783 563 813 547 833 C532 852 502 854 474 832 C448 811 391 741 330 675 L332 673 Z " />
<glyph glyph-name="Acircumflex" unicode="&#xc2;" horiz-adv-x="648" d="M-94 0 L163 0 L164 6 C43 6 84 116 136 192 L146 208 L375 208 L390 132 C405 54 373 6 304 6 L302 0 L612 0 L614 6 C548 6 526 73 513 139 L409 622 L403 622 L136 209 C75 117 15 6 -92 6 L-94 0 Z M152 218 L322 481 L373 218 L152 218 Z M266 666 L430 746 L557 666 L559 668 L481 812 C475 825 465 832 450 832 C434 832 421 825 409 812 L264 668 L266 666 Z " />
<glyph glyph-name="Atilde" unicode="&#xc3;" horiz-adv-x="648" d="M-94 0 L163 0 L164 6 C43 6 84 116 136 192 L146 208 L375 208 L390 132 C405 54 373 6 304 6 L302 0 L612 0 L614 6 C548 6 526 73 513 139 L409 622 L403 622 L136 209 C75 117 15 6 -92 6 L-94 0 Z M152 218 L322 481 L373 218 L152 218 Z M264 686 L269 686 C279 713 294 749 337 749 C391 749 434 693 485 693 C548 693 572 771 592 833 L587 834 C577 806 563 771 520 771 C466 771 423 827 371 827 C305 827 281 740 264 686 L264 686 Z " />
<glyph glyph-name="Adieresis" unicode="&#xc4;" horiz-adv-x="648" d="M-94 0 L163 0 L164 6 C43 6 84 116 136 192 L146 208 L375 208 L390 132 C405 54 373 6 304 6 L302 0 L612 0 L614 6 C548 6 526 73 513 139 L409 622 L403 622 L136 209 C75 117 15 6 -92 6 L-94 0 Z M152 218 L322 481 L373 218 L152 218 Z M337 691 C370 691 397 718 397 752 C397 786 370 813 336 813 C302 813 276 785 276 752 C276 718 304 691 337 691 L337 691 Z M515 691 C548 691 575 718 575 752 C575 786 548 813 514 813 C480 813 454 785 454 752 C454 718 482 691 515 691 L515 691 Z " />
<glyph glyph-name="Aring" unicode="&#xc5;" horiz-adv-x="648" d="M-94 0 L163 0 L164 6 C43 6 84 116 136 192 L146 208 L375 208 L390 132 C405 54 373 6 304 6 L302 0 L612 0 L614 6 C548 6 526 73 513 139 L409 622 L403 622 L136 209 C75 117 15 6 -92 6 L-94 0 Z M152 218 L322 481 L373 218 L152 218 Z M418 664 C492 664 550 717 550 777 C550 832 501 861 447 861 C373 861 316 808 316 747 C316 693 364 664 418 664 L418 664 Z M414 668 C394 668 384 686 384 717 C384 763 407 856 451 856 C471 856 481 838 481 807 C481 760 457 668 414 668 L414 668 Z " />
<glyph glyph-name="AE" unicode="&#xc6;" horiz-adv-x="976" d="M-98 0 L179 0 L180 6 C67 6 101 96 196 198 L216 221 L466 221 L439 100 C422 29 405 6 330 6 L328 0 L848 0 L914 206 L908 207 C856 102 789 7 620 7 L540 7 L608 304 L631 304 C751 304 788 259 784 167 L789 167 L854 450 L849 450 C810 357 753 312 633 312 L610 312 L679 610 L750 610 C911 610 949 540 948 424 L953 425 L985 618 L471 618 L469 611 C511 611 532 603 539 583 L189 205 C105 115 5 6 -96 6 L-98 0 Z M225 230 L541 574 C544 560 541 542 535 517 L469 230 L225 230 Z " />
<glyph glyph-name="Ccedilla" unicode="&#xc7;" horiz-adv-x="671" d="M255 -219 C326 -219 400 -190 400 -126 C400 -77 356 -57 299 -57 C277 -57 260 -60 246 -64 L307 -11 C320 -12 332 -12 346 -12 C418 -12 496 2 551 18 L626 205 L622 205 C545 87 450 -5 338 -5 C225 -5 179 88 179 206 C179 370 266 623 474 623 C573 623 634 566 659 424 L664 425 L694 628 C619 609 549 630 467 630 C235 630 52 459 52 247 C52 105 133 5 297 -10 L222 -75 L224 -77 C235 -73 249 -69 263 -69 C300 -69 314 -95 314 -125 C314 -169 283 -204 225 -204 C194 -204 159 -194 144 -182 L139 -187 C162 -206 208 -219 255 -219 L255 -219 Z " />
<glyph glyph-name="Egrave" unicode="&#xc8;" horiz-adv-x="621" d="M-27 0 L492 0 L558 206 L553 207 C501 102 434 7 264 7 L185 7 L253 304 L276 304 C396 304 432 259 428 167 L433 167 L498 450 L493 450 C455 357 398 312 278 312 L255 312 L324 610 L395 610 C555 610 594 540 593 424 L597 425 L629 618 L116 618 L114 611 C189 611 196 588 180 517 L83 100 C67 29 50 6 -26 6 L-27 0 Z M474 672 L477 674 C446 746 426 805 408 830 C390 855 359 861 338 845 C318 829 316 799 335 775 C354 750 404 723 474 672 L474 672 Z " />
<glyph glyph-name="Eacute" unicode="&#xc9;" horiz-adv-x="621" d="M-27 0 L492 0 L558 206 L553 207 C501 102 434 7 264 7 L185 7 L253 304 L276 304 C396 304 432 259 428 167 L433 167 L498 450 L493 450 C455 357 398 312 278 312 L255 312 L324 610 L395 610 C555 610 594 540 593 424 L597 425 L629 618 L116 618 L114 611 C189 611 196 588 180 517 L83 100 C67 29 50 6 -26 6 L-27 0 Z M342 673 C427 713 514 744 542 765 C565 783 573 813 557 833 C542 852 512 854 484 832 C458 811 401 741 340 675 L342 673 Z " />
<glyph glyph-name="Ecircumflex" unicode="&#xca;" horiz-adv-x="621" d="M-27 0 L492 0 L558 206 L553 207 C501 102 434 7 264 7 L185 7 L253 304 L276 304 C396 304 432 259 428 167 L433 167 L498 450 L493 450 C455 357 398 312 278 312 L255 312 L324 610 L395 610 C555 610 594 540 593 424 L597 425 L629 618 L116 618 L114 611 C189 611 196 588 180 517 L83 100 C67 29 50 6 -26 6 L-27 0 Z M263 666 L427 746 L554 666 L556 668 L478 812 C472 825 462 832 447 832 C431 832 418 825 406 812 L261 668 L263 666 Z " />
<glyph glyph-name="Edieresis" unicode="&#xcb;" horiz-adv-x="621" d="M-27 0 L492 0 L558 206 L553 207 C501 102 434 7 264 7 L185 7 L253 304 L276 304 C396 304 432 259 428 167 L433 167 L498 450 L493 450 C455 357 398 312 278 312 L255 312 L324 610 L395 610 C555 610 594 540 593 424 L597 425 L629 618 L116 618 L114 611 C189 611 196 588 180 517 L83 100 C67 29 50 6 -26 6 L-27 0 Z M338 691 C371 691 398 718 398 752 C398 786 371 813 337 813 C303 813 277 785 277 752 C277 718 305 691 338 691 L338 691 Z M516 691 C549 691 576 718 576 752 C576 786 549 813 515 813 C481 813 455 785 455 752 C455 718 483 691 516 691 L516 691 Z " />
<glyph glyph-name="Igrave" unicode="&#xcc;" horiz-adv-x="358" d="M-27 0 L270 0 L272 6 C196 6 189 29 206 100 L302 517 C319 588 336 611 411 611 L413 618 L116 618 L114 611 C189 611 196 588 180 517 L83 100 C67 29 50 6 -26 6 L-27 0 Z M340 672 L342 674 C311 746 292 805 274 830 C255 855 224 861 204 845 C184 829 181 799 200 775 C219 750 269 723 340 672 L340 672 Z " />
<glyph glyph-name="Iacute" unicode="&#xcd;" horiz-adv-x="358" d="M-27 0 L270 0 L272 6 C196 6 189 29 206 100 L302 517 C319 588 336 611 411 611 L413 618 L116 618 L114 611 C189 611 196 588 180 517 L83 100 C67 29 50 6 -26 6 L-27 0 Z M207 673 C291 713 379 744 406 765 C430 783 437 813 421 833 C407 852 376 854 348 832 C322 811 266 741 205 675 L207 673 Z " />
<glyph glyph-name="Icircumflex" unicode="&#xce;" horiz-adv-x="358" d="M-27 0 L270 0 L272 6 C196 6 189 29 206 100 L302 517 C319 588 336 611 411 611 L413 618 L116 618 L114 611 C189 611 196 588 180 517 L83 100 C67 29 50 6 -26 6 L-27 0 Z M130 666 L293 746 L421 666 L423 668 L345 812 C338 825 329 832 313 832 C298 832 284 825 272 812 L128 668 L130 666 Z " />
<glyph glyph-name="Idieresis" unicode="&#xcf;" horiz-adv-x="358" d="M-27 0 L270 0 L272 6 C196 6 189 29 206 100 L302 517 C319 588 336 611 411 611 L413 618 L116 618 L114 611 C189 611 196 588 180 517 L83 100 C67 29 50 6 -26 6 L-27 0 Z M207 691 C239 691 267 718 267 752 C267 786 239 813 206 813 C172 813 146 785 146 752 C146 718 174 691 207 691 L207 691 Z M384 691 C417 691 445 718 445 752 C445 786 417 813 384 813 C350 813 324 785 324 752 C324 718 351 691 384 691 L384 691 Z " />
<glyph glyph-name="Eth" unicode="&#xd0;" horiz-adv-x="740" d="M-27 0 L287 0 C539 0 715 158 715 370 C715 525 606 618 430 618 L116 618 L114 611 C190 611 197 588 180 517 L133 315 L59 315 L57 306 L131 306 L84 100 C67 29 50 6 -25 6 L-27 0 Z M185 7 L254 306 L432 306 L434 315 L256 315 L324 610 L415 610 C539 610 587 518 587 397 C587 231 495 7 276 7 L185 7 Z " />
<glyph glyph-name="Ntilde" unicode="&#xd1;" horiz-adv-x="711" d="M-41 0 L212 0 L214 6 C99 6 106 64 166 325 L207 504 L519 -7 L525 -5 L593 292 C653 553 674 611 789 611 L791 618 L537 618 L535 611 C650 611 643 553 583 292 L553 165 L279 618 L107 618 L105 611 C202 611 209 558 185 453 L156 325 C98 64 75 6 -40 6 L-41 0 Z M319 686 L323 686 C334 713 348 749 391 749 C445 749 488 693 540 693 C602 693 627 771 646 833 L641 834 C632 806 617 771 574 771 C521 771 478 827 425 827 C359 827 336 740 319 686 L319 686 Z " />
<glyph glyph-name="Ograve" unicode="&#xd2;" horiz-adv-x="752" d="M333 -12 C550 -12 727 166 727 365 C727 526 611 630 446 630 C228 630 52 451 52 253 C52 91 168 -12 333 -12 L333 -12 Z M322 -4 C218 -4 177 78 177 193 C177 378 277 621 458 621 C564 621 603 539 603 425 C603 234 498 -4 322 -4 L322 -4 Z M538 682 L540 684 C509 756 490 815 472 840 C453 865 422 871 402 855 C382 839 379 809 398 785 C417 760 467 733 538 682 L538 682 Z " />
<glyph glyph-name="Oacute" unicode="&#xd3;" horiz-adv-x="752" d="M333 -12 C550 -12 727 166 727 365 C727 526 611 630 446 630 C228 630 52 451 52 253 C52 91 168 -12 333 -12 L333 -12 Z M322 -4 C218 -4 177 78 177 193 C177 378 277 621 458 621 C564 621 603 539 603 425 C603 234 498 -4 322 -4 L322 -4 Z M401 683 C485 723 573 754 600 775 C624 793 631 823 615 843 C601 862 570 864 542 842 C516 821 460 751 399 685 L401 683 Z " />
<glyph glyph-name="Ocircumflex" unicode="&#xd4;" horiz-adv-x="752" d="M333 -12 C550 -12 727 166 727 365 C727 526 611 630 446 630 C228 630 52 451 52 253 C52 91 168 -12 333 -12 L333 -12 Z M322 -4 C218 -4 177 78 177 193 C177 378 277 621 458 621 C564 621 603 539 603 425 C603 234 498 -4 322 -4 L322 -4 Z M324 676 L488 756 L615 676 L617 678 L539 822 C533 835 523 842 508 842 C492 842 479 835 467 822 L322 678 L324 676 Z " />
<glyph glyph-name="Otilde" unicode="&#xd5;" horiz-adv-x="752" d="M333 -12 C550 -12 727 166 727 365 C727 526 611 630 446 630 C228 630 52 451 52 253 C52 91 168 -12 333 -12 L333 -12 Z M322 -4 C218 -4 177 78 177 193 C177 378 277 621 458 621 C564 621 603 539 603 425 C603 234 498 -4 322 -4 L322 -4 Z M328 696 L333 696 C343 723 358 759 401 759 C455 759 498 703 549 703 C612 703 636 781 656 843 L651 844 C641 816 627 781 584 781 C530 781 487 837 435 837 C369 837 345 750 328 696 L328 696 Z " />
<glyph glyph-name="Odieresis" unicode="&#xd6;" horiz-adv-x="752" d="M333 -12 C550 -12 727 166 727 365 C727 526 611 630 446 630 C228 630 52 451 52 253 C52 91 168 -12 333 -12 L333 -12 Z M322 -4 C218 -4 177 78 177 193 C177 378 277 621 458 621 C564 621 603 539 603 425 C603 234 498 -4 322 -4 L322 -4 Z M398 701 C430 701 458 728 458 762 C458 796 430 823 397 823 C363 823 337 795 337 762 C337 728 365 701 398 701 L398 701 Z M575 701 C608 701 636 728 636 762 C636 796 608 823 575 823 C541 823 515 795 515 762 C515 728 542 701 575 701 L575 701 Z " />
<glyph glyph-name="multiply" unicode="&#xd7;" horiz-adv-x="462" d="M8 59 L230 239 L367 60 L374 65 L236 244 L456 423 L451 429 L232 251 L94 429 L87 424 L224 246 L3 65 L8 59 Z " />
<glyph glyph-name="Oslash" unicode="&#xd8;" horiz-adv-x="752" d="M333 -12 C550 -12 727 166 727 365 C727 443 700 507 653 552 L738 632 L732 639 L647 558 C598 604 528 630 446 630 C228 630 52 451 52 253 C52 175 79 111 126 65 L41 -16 L47 -22 L132 59 C182 13 251 -12 333 -12 L333 -12 Z M322 -4 C247 -4 205 40 188 111 L594 495 C600 474 603 450 603 425 C603 234 498 -4 322 -4 L322 -4 Z M458 621 C534 621 575 577 591 506 L186 122 C179 143 177 167 177 193 C177 378 277 621 458 621 L458 621 Z " />
<glyph glyph-name="Ugrave" unicode="&#xd9;" horiz-adv-x="688" d="M288 -12 C429 -12 524 62 557 203 L584 316 C640 553 661 611 773 611 L774 618 L522 618 L520 611 C630 611 632 559 574 316 L548 203 C517 71 429 3 324 3 C214 3 190 76 215 187 L290 509 C306 580 325 611 401 611 L402 618 L105 618 L103 611 C179 611 184 580 167 509 L98 209 C61 46 161 -12 288 -12 L288 -12 Z M517 672 L519 674 C488 746 469 805 451 830 C432 855 401 861 381 845 C361 829 358 799 377 775 C396 750 446 723 517 672 L517 672 Z " />
<glyph glyph-name="Uacute" unicode="&#xda;" horiz-adv-x="688" d="M288 -12 C429 -12 524 62 557 203 L584 316 C640 553 661 611 773 611 L774 618 L522 618 L520 611 C630 611 632 559 574 316 L548 203 C517 71 429 3 324 3 C214 3 190 76 215 187 L290 509 C306 580 325 611 401 611 L402 618 L105 618 L103 611 C179 611 184 580 167 509 L98 209 C61 46 161 -12 288 -12 L288 -12 Z M398 673 C483 713 570 744 598 765 C621 783 629 813 613 833 C598 852 568 854 540 832 C514 811 457 741 396 675 L398 673 Z " />
<glyph glyph-name="Ucircumflex" unicode="&#xdb;" horiz-adv-x="688" d="M288 -12 C429 -12 524 62 557 203 L584 316 C640 553 661 611 773 611 L774 618 L522 618 L520 611 C630 611 632 559 574 316 L548 203 C517 71 429 3 324 3 C214 3 190 76 215 187 L290 509 C306 580 325 611 401 611 L402 618 L105 618 L103 611 C179 611 184 580 167 509 L98 209 C61 46 161 -12 288 -12 L288 -12 Z M313 666 L477 746 L604 666 L606 668 L528 812 C522 825 512 832 497 832 C481 832 468 825 456 812 L311 668 L313 666 Z " />
<glyph glyph-name="Udieresis" unicode="&#xdc;" horiz-adv-x="688" d="M288 -12 C429 -12 524 62 557 203 L584 316 C640 553 661 611 773 611 L774 618 L522 618 L520 611 C630 611 632 559 574 316 L548 203 C517 71 429 3 324 3 C214 3 190 76 215 187 L290 509 C306 580 325 611 401 611 L402 618 L105 618 L103 611 C179 611 184 580 167 509 L98 209 C61 46 161 -12 288 -12 L288 -12 Z M387 691 C419 691 447 718 447 752 C447 786 419 813 386 813 C352 813 326 785 326 752 C326 718 354 691 387 691 L387 691 Z M564 691 C597 691 625 718 625 752 C625 786 597 813 564 813 C530 813 504 785 504 752 C504 718 531 691 564 691 L564 691 Z " />
<glyph glyph-name="Yacute" unicode="&#xdd;" horiz-adv-x="643" d="M108 0 L425 0 L427 6 C347 6 337 43 355 120 L392 283 L480 389 C551 477 589 521 618 548 C658 587 702 611 761 611 L762 618 L507 618 L506 611 C559 611 578 592 578 566 C578 533 545 484 473 395 L388 289 L385 289 L310 501 C286 569 309 611 379 611 L380 618 L76 618 L75 611 C131 611 160 559 183 495 L266 267 L233 120 C215 43 190 6 109 6 L108 0 Z M382 673 C467 713 554 744 582 765 C605 783 613 813 597 833 C582 852 552 854 524 832 C498 811 441 741 380 675 L382 673 Z " />
<glyph glyph-name="Thorn" unicode="&#xde;" horiz-adv-x="613" d="M-27 0 L270 0 L272 6 C196 6 189 29 206 100 L294 485 L363 485 C445 485 477 426 477 357 C477 275 428 145 285 145 L262 145 L260 138 L305 138 C518 138 605 236 605 339 C605 429 540 493 387 493 L296 493 L302 517 C319 588 336 611 411 611 L413 618 L116 618 L114 611 C189 611 196 588 180 517 L83 100 C67 29 50 6 -26 6 L-27 0 Z " />
<glyph glyph-name="germandbls" unicode="&#xdf;" horiz-adv-x="598" d="M-48 -163 C33 -163 117 -115 142 -8 L267 533 C283 604 323 653 380 653 C475 653 459 515 450 442 C355 419 283 379 283 303 C283 182 467 179 467 84 C467 50 442 -5 365 -5 C316 -5 291 18 279 44 C303 48 321 70 321 97 C321 127 300 151 269 151 C235 151 214 120 214 91 C214 44 268 -11 375 -11 C495 -11 548 59 548 131 C548 267 363 263 363 355 C363 431 486 445 553 456 C557 548 527 659 384 659 C271 659 170 596 142 476 L126 408 L43 408 L40 396 L123 396 L12 -78 C1 -125 -18 -157 -56 -157 C-78 -157 -89 -145 -95 -132 C-73 -126 -54 -105 -54 -75 C-54 -45 -75 -19 -107 -19 C-137 -19 -163 -41 -163 -77 C-163 -120 -124 -163 -48 -163 L-48 -163 Z " />
<glyph glyph-name="agrave" unicode="&#xe0;" horiz-adv-x="548" d="M162 -11 C222 -11 270 21 305 56 C305 15 330 -10 375 -10 C415 -10 460 10 503 37 L504 44 C486 33 459 19 439 19 C418 19 411 35 417 65 L496 412 L491 413 L385 373 C369 398 333 419 276 419 C131 419 22 289 22 153 C22 61 72 -11 162 -11 L162 -11 Z M215 19 C160 19 139 71 139 131 C139 240 209 410 303 410 C347 410 369 374 366 337 L304 66 C280 40 250 19 215 19 L215 19 Z M391 472 L393 474 C362 546 343 605 325 630 C306 655 275 661 255 645 C235 629 232 599 251 575 C270 550 320 523 391 472 L391 472 Z " />
<glyph glyph-name="aacute" unicode="&#xe1;" horiz-adv-x="548" d="M162 -11 C222 -11 270 21 305 56 C305 15 330 -10 375 -10 C415 -10 460 10 503 37 L504 44 C486 33 459 19 439 19 C418 19 411 35 417 65 L496 412 L491 413 L385 373 C369 398 333 419 276 419 C131 419 22 289 22 153 C22 61 72 -11 162 -11 L162 -11 Z M215 19 C160 19 139 71 139 131 C139 240 209 410 303 410 C347 410 369 374 366 337 L304 66 C280 40 250 19 215 19 L215 19 Z M278 473 C363 513 450 544 478 565 C501 583 509 613 493 633 C478 652 448 654 420 632 C394 611 337 541 276 475 L278 473 Z " />
<glyph glyph-name="acircumflex" unicode="&#xe2;" horiz-adv-x="548" d="M162 -11 C222 -11 270 21 305 56 C305 15 330 -10 375 -10 C415 -10 460 10 503 37 L504 44 C486 33 459 19 439 19 C418 19 411 35 417 65 L496 412 L491 413 L385 373 C369 398 333 419 276 419 C131 419 22 289 22 153 C22 61 72 -11 162 -11 L162 -11 Z M215 19 C160 19 139 71 139 131 C139 240 209 410 303 410 C347 410 369 374 366 337 L304 66 C280 40 250 19 215 19 L215 19 Z M176 466 L340 546 L467 466 L469 468 L391 612 C385 625 375 632 360 632 C344 632 331 625 319 612 L174 468 L176 466 Z " />
<glyph glyph-name="atilde" unicode="&#xe3;" horiz-adv-x="548" d="M162 -11 C222 -11 270 21 305 56 C305 15 330 -10 375 -10 C415 -10 460 10 503 37 L504 44 C486 33 459 19 439 19 C418 19 411 35 417 65 L496 412 L491 413 L385 373 C369 398 333 419 276 419 C131 419 22 289 22 153 C22 61 72 -11 162 -11 L162 -11 Z M215 19 C160 19 139 71 139 131 C139 240 209 410 303 410 C347 410 369 374 366 337 L304 66 C280 40 250 19 215 19 L215 19 Z M180 486 L185 486 C195 513 210 549 253 549 C307 549 350 493 401 493 C464 493 488 571 508 633 L503 634 C493 606 479 571 436 571 C382 571 339 627 287 627 C221 627 197 540 180 486 L180 486 Z " />
<glyph glyph-name="adieresis" unicode="&#xe4;" horiz-adv-x="548" d="M162 -11 C222 -11 270 21 305 56 C305 15 330 -10 375 -10 C415 -10 460 10 503 37 L504 44 C486 33 459 19 439 19 C418 19 411 35 417 65 L496 412 L491 413 L385 373 C369 398 333 419 276 419 C131 419 22 289 22 153 C22 61 72 -11 162 -11 L162 -11 Z M215 19 C160 19 139 71 139 131 C139 240 209 410 303 410 C347 410 369 374 366 337 L304 66 C280 40 250 19 215 19 L215 19 Z M250 491 C283 491 310 518 310 552 C310 586 283 613 249 613 C215 613 189 585 189 552 C189 518 217 491 250 491 L250 491 Z M428 491 C461 491 488 518 488 552 C488 586 461 613 427 613 C393 613 367 585 367 552 C367 518 395 491 428 491 L428 491 Z " />
<glyph glyph-name="aring" unicode="&#xe5;" horiz-adv-x="548" d="M162 -11 C222 -11 270 21 305 56 C305 15 330 -10 375 -10 C415 -10 460 10 503 37 L504 44 C486 33 459 19 439 19 C418 19 411 35 417 65 L496 412 L491 413 L385 373 C369 398 333 419 276 419 C131 419 22 289 22 153 C22 61 72 -11 162 -11 L162 -11 Z M215 19 C160 19 139 71 139 131 C139 240 209 410 303 410 C347 410 369 374 366 337 L304 66 C280 40 250 19 215 19 L215 19 Z M328 464 C402 464 460 517 460 577 C460 632 411 661 357 661 C283 661 226 608 226 547 C226 493 274 464 328 464 L328 464 Z M324 468 C304 468 294 486 294 517 C294 563 317 656 361 656 C381 656 391 638 391 607 C391 560 367 468 324 468 L324 468 Z " />
<glyph glyph-name="ae" unicode="&#xe6;" horiz-adv-x="753" d="M153 -11 C227 -11 290 14 336 58 C360 17 403 -11 473 -11 C580 -11 648 52 689 100 L684 104 C648 61 591 12 522 12 C447 12 415 68 415 145 C415 165 417 186 421 209 C523 200 722 201 722 313 C722 375 660 419 571 419 C502 419 436 391 389 344 C364 389 318 419 244 419 C143 419 62 368 62 309 C62 278 84 245 121 245 C155 245 181 271 181 305 C181 330 165 354 142 363 C157 389 183 413 225 413 C304 413 313 325 313 280 C313 257 311 234 308 213 C212 209 1 203 1 88 C1 25 63 -11 153 -11 L153 -11 Z M167 -5 C130 -5 107 20 107 67 C107 165 216 201 308 205 C292 87 238 -5 167 -5 L167 -5 Z M568 412 C606 412 619 385 619 346 C619 243 524 211 423 216 C443 312 498 412 568 412 L568 412 Z " />
<glyph glyph-name="ccedilla" unicode="&#xe7;" horiz-adv-x="462" d="M127 -219 C197 -219 272 -190 272 -126 C272 -77 227 -57 170 -57 C148 -57 131 -60 117 -64 L178 -10 C183 -11 188 -11 193 -11 C293 -11 359 49 399 101 L394 104 C357 55 304 11 241 11 C177 11 138 58 138 148 C138 255 194 411 297 411 C342 411 359 380 366 352 C335 348 312 321 312 288 C312 254 336 225 373 225 C413 225 436 259 436 298 C436 357 383 419 285 419 C153 419 22 307 22 160 C22 67 74 0 169 -9 L94 -75 L96 -77 C107 -73 121 -69 135 -69 C172 -69 185 -95 185 -125 C185 -169 155 -204 97 -204 C66 -204 31 -194 15 -182 L11 -187 C34 -206 79 -219 127 -219 L127 -219 Z " />
<glyph glyph-name="egrave" unicode="&#xe8;" horiz-adv-x="477" d="M198 -11 C305 -11 372 52 413 100 L408 104 C372 61 315 12 246 12 C172 12 140 68 140 145 C140 165 142 186 146 209 C247 200 447 201 447 313 C447 375 384 419 295 419 C154 419 22 308 22 161 C22 67 77 -11 198 -11 L198 -11 Z M293 412 C330 412 344 385 344 346 C344 243 248 211 147 216 C167 312 222 412 293 412 L293 412 Z M349 472 L351 474 C320 546 301 605 283 630 C264 655 233 661 213 645 C193 629 190 599 209 575 C228 550 278 523 349 472 L349 472 Z " />
<glyph glyph-name="eacute" unicode="&#xe9;" horiz-adv-x="477" d="M198 -11 C305 -11 372 52 413 100 L408 104 C372 61 315 12 246 12 C172 12 140 68 140 145 C140 165 142 186 146 209 C247 200 447 201 447 313 C447 375 384 419 295 419 C154 419 22 308 22 161 C22 67 77 -11 198 -11 L198 -11 Z M293 412 C330 412 344 385 344 346 C344 243 248 211 147 216 C167 312 222 412 293 412 L293 412 Z M228 473 C312 513 400 544 427 565 C451 583 458 613 442 633 C428 652 397 654 369 632 C343 611 287 541 226 475 L228 473 Z " />
<glyph glyph-name="ecircumflex" unicode="&#xea;" horiz-adv-x="477" d="M198 -11 C305 -11 372 52 413 100 L408 104 C372 61 315 12 246 12 C172 12 140 68 140 145 C140 165 142 186 146 209 C247 200 447 201 447 313 C447 375 384 419 295 419 C154 419 22 308 22 161 C22 67 77 -11 198 -11 L198 -11 Z M293 412 C330 412 344 385 344 346 C344 243 248 211 147 216 C167 312 222 412 293 412 L293 412 Z M151 466 L314 546 L442 466 L444 468 L366 612 C359 625 350 632 334 632 C319 632 305 625 293 612 L149 468 L151 466 Z " />
<glyph glyph-name="edieresis" unicode="&#xeb;" horiz-adv-x="477" d="M198 -11 C305 -11 372 52 413 100 L408 104 C372 61 315 12 246 12 C172 12 140 68 140 145 C140 165 142 186 146 209 C247 200 447 201 447 313 C447 375 384 419 295 419 C154 419 22 308 22 161 C22 67 77 -11 198 -11 L198 -11 Z M293 412 C330 412 344 385 344 346 C344 243 248 211 147 216 C167 312 222 412 293 412 L293 412 Z M234 491 C266 491 294 518 294 552 C294 586 266 613 233 613 C199 613 173 585 173 552 C173 518 201 491 234 491 L234 491 Z M411 491 C444 491 472 518 472 552 C472 586 444 613 411 613 C377 613 351 585 351 552 C351 518 378 491 411 491 L411 491 Z " />
<glyph glyph-name="igrave" unicode="&#xec;" horiz-adv-x="287" d="M116 -10 C156 -10 200 10 243 37 L244 44 C226 33 200 19 180 19 C158 19 151 35 158 65 L216 319 C230 379 208 419 150 419 C110 419 66 399 23 372 L22 365 C40 376 66 390 86 390 C108 390 115 374 108 344 L50 90 C36 30 58 -10 116 -10 L116 -10 Z M259 472 L262 474 C231 546 211 605 193 630 C175 655 144 661 123 645 C103 629 101 599 120 575 C139 550 189 523 259 472 L259 472 Z " />
<glyph glyph-name="iacute" unicode="&#xed;" horiz-adv-x="287" d="M116 -10 C156 -10 200 10 243 37 L244 44 C226 33 200 19 180 19 C158 19 151 35 158 65 L216 319 C230 379 208 419 150 419 C110 419 66 399 23 372 L22 365 C40 376 66 390 86 390 C108 390 115 374 108 344 L50 90 C36 30 58 -10 116 -10 L116 -10 Z M98 473 C182 513 270 544 297 565 C321 583 328 613 312 633 C298 652 267 654 239 632 C213 611 157 541 96 475 L98 473 Z " />
<glyph glyph-name="icircumflex" unicode="&#xee;" horiz-adv-x="287" d="M116 -10 C156 -10 200 10 243 37 L244 44 C226 33 200 19 180 19 C158 19 151 35 158 65 L216 319 C230 379 208 419 150 419 C110 419 66 399 23 372 L22 365 C40 376 66 390 86 390 C108 390 115 374 108 344 L50 90 C36 30 58 -10 116 -10 L116 -10 Z M33 466 L197 546 L324 466 L326 468 L248 612 C242 625 232 632 217 632 C201 632 188 625 176 612 L31 468 L33 466 Z " />
<glyph glyph-name="idieresis" unicode="&#xef;" horiz-adv-x="287" d="M116 -10 C156 -10 200 10 243 37 L244 44 C226 33 200 19 180 19 C158 19 151 35 158 65 L216 319 C230 379 208 419 150 419 C110 419 66 399 23 372 L22 365 C40 376 66 390 86 390 C108 390 115 374 108 344 L50 90 C36 30 58 -10 116 -10 L116 -10 Z M110 491 C142 491 170 518 170 552 C170 586 142 613 109 613 C75 613 49 585 49 552 C49 518 77 491 110 491 L110 491 Z M287 491 C320 491 348 518 348 552 C348 586 320 613 287 613 C253 613 227 585 227 552 C227 518 254 491 287 491 L287 491 Z " />
<glyph glyph-name="eth" unicode="&#xf0;" horiz-adv-x="536" d="M221 -12 C418 -12 494 154 494 284 C494 399 429 494 353 566 L477 628 C477 631 476 633 475 636 L346 572 C308 608 266 638 228 662 L224 656 C265 630 297 597 321 560 L159 479 L162 472 L325 553 C358 498 375 435 379 371 C355 385 321 398 278 398 C138 398 22 291 22 159 C22 50 100 -12 221 -12 L221 -12 Z M216 -4 C159 -4 132 40 132 117 C132 214 176 385 308 385 C339 385 361 373 380 360 C384 246 350 -4 216 -4 L216 -4 Z " />
<glyph glyph-name="ntilde" unicode="&#xf1;" horiz-adv-x="560" d="M32 0 L146 0 L216 305 C250 335 294 375 338 375 C376 375 386 347 376 304 L327 90 C313 30 335 -10 392 -10 C432 -10 477 10 520 37 L521 44 C503 33 476 19 456 19 C435 19 428 35 434 65 L485 287 C506 382 461 419 404 419 C332 419 265 359 218 316 C232 380 209 419 153 419 C113 419 68 399 25 372 L24 365 C42 376 69 390 89 390 C110 390 117 374 111 344 L32 0 Z M184 486 L188 486 C199 513 213 549 256 549 C310 549 353 493 405 493 C467 493 492 571 511 633 L506 634 C497 606 482 571 439 571 C386 571 343 627 290 627 C224 627 201 540 184 486 L184 486 Z " />
<glyph glyph-name="ograve" unicode="&#xf2;" horiz-adv-x="526" d="M212 -11 C344 -11 482 92 482 242 C482 369 382 419 292 419 C160 419 23 315 23 166 C23 43 117 -11 212 -11 L212 -11 Z M207 -3 C165 -3 132 26 132 101 C132 196 184 411 298 411 C341 411 373 382 373 307 C373 212 322 -3 207 -3 L207 -3 Z M377 472 L380 474 C349 546 329 605 311 630 C293 655 262 661 241 645 C221 629 219 599 238 575 C257 550 307 523 377 472 L377 472 Z " />
<glyph glyph-name="oacute" unicode="&#xf3;" horiz-adv-x="526" d="M212 -11 C344 -11 482 92 482 242 C482 369 382 419 292 419 C160 419 23 315 23 166 C23 43 117 -11 212 -11 L212 -11 Z M207 -3 C165 -3 132 26 132 101 C132 196 184 411 298 411 C341 411 373 382 373 307 C373 212 322 -3 207 -3 L207 -3 Z M258 473 C342 513 430 544 457 565 C481 583 488 613 472 633 C458 652 427 654 399 632 C373 611 317 541 256 475 L258 473 Z " />
<glyph glyph-name="ocircumflex" unicode="&#xf4;" horiz-adv-x="526" d="M212 -11 C344 -11 482 92 482 242 C482 369 382 419 292 419 C160 419 23 315 23 166 C23 43 117 -11 212 -11 L212 -11 Z M207 -3 C165 -3 132 26 132 101 C132 196 184 411 298 411 C341 411 373 382 373 307 C373 212 322 -3 207 -3 L207 -3 Z M170 466 L333 546 L461 466 L463 468 L385 612 C378 625 369 632 353 632 C338 632 324 625 312 612 L168 468 L170 466 Z " />
<glyph glyph-name="otilde" unicode="&#xf5;" horiz-adv-x="526" d="M212 -11 C344 -11 482 92 482 242 C482 369 382 419 292 419 C160 419 23 315 23 166 C23 43 117 -11 212 -11 L212 -11 Z M207 -3 C165 -3 132 26 132 101 C132 196 184 411 298 411 C341 411 373 382 373 307 C373 212 322 -3 207 -3 L207 -3 Z M171 486 L176 486 C186 513 201 549 244 549 C298 549 341 493 392 493 C455 493 479 571 499 633 L494 634 C484 606 470 571 427 571 C373 571 330 627 278 627 C212 627 188 540 171 486 L171 486 Z " />
<glyph glyph-name="odieresis" unicode="&#xf6;" horiz-adv-x="526" d="M212 -11 C344 -11 482 92 482 242 C482 369 382 419 292 419 C160 419 23 315 23 166 C23 43 117 -11 212 -11 L212 -11 Z M207 -3 C165 -3 132 26 132 101 C132 196 184 411 298 411 C341 411 373 382 373 307 C373 212 322 -3 207 -3 L207 -3 Z M244 491 C277 491 304 518 304 552 C304 586 277 613 243 613 C209 613 183 585 183 552 C183 518 211 491 244 491 L244 491 Z M422 491 C455 491 482 518 482 552 C482 586 455 613 421 613 C387 613 361 585 361 552 C361 518 389 491 422 491 L422 491 Z " />
<glyph glyph-name="divide" unicode="&#xf7;" horiz-adv-x="582" d="M329 363 C355 363 375 385 375 410 C375 436 355 457 329 457 C303 457 282 436 282 410 C282 385 303 363 329 363 L329 363 Z M252 34 C278 34 298 56 298 81 C298 107 278 127 252 127 C226 127 205 107 205 81 C205 56 226 34 252 34 L252 34 Z M67 240 L512 240 L514 250 L69 250 L67 240 Z " />
<glyph glyph-name="oslash" unicode="&#xf8;" horiz-adv-x="526" d="M212 -11 C344 -11 482 92 482 242 C482 297 463 338 434 366 L494 422 L489 427 L429 371 C392 404 340 419 292 419 C160 419 23 315 23 166 C23 111 41 70 70 42 L10 -14 L15 -19 L75 37 C111 4 161 -11 212 -11 L212 -11 Z M207 -3 C156 -3 141 48 137 91 L368 309 C375 202 320 -3 207 -3 L207 -3 Z M298 411 C350 411 364 362 368 318 L136 100 C129 207 187 411 298 411 L298 411 Z " />
<glyph glyph-name="ugrave" unicode="&#xf9;" horiz-adv-x="559" d="M138 -9 C208 -9 276 44 319 81 C312 23 335 -10 387 -10 C427 -10 471 10 514 37 L515 44 C497 33 471 19 451 19 C429 19 422 35 429 65 L507 410 L395 410 L321 91 C291 65 251 32 208 32 C168 32 153 61 165 114 L213 319 C227 379 205 419 147 419 C107 419 63 399 20 372 L19 365 C37 376 63 390 83 390 C105 390 112 374 105 344 L55 123 C34 28 78 -9 138 -9 L138 -9 Z M370 472 L372 474 C341 546 322 605 304 630 C285 655 254 661 234 645 C214 629 211 599 230 575 C249 550 299 523 370 472 L370 472 Z " />
<glyph glyph-name="uacute" unicode="&#xfa;" horiz-adv-x="559" d="M138 -9 C208 -9 276 44 319 81 C312 23 335 -10 387 -10 C427 -10 471 10 514 37 L515 44 C497 33 471 19 451 19 C429 19 422 35 429 65 L507 410 L395 410 L321 91 C291 65 251 32 208 32 C168 32 153 61 165 114 L213 319 C227 379 205 419 147 419 C107 419 63 399 20 372 L19 365 C37 376 63 390 83 390 C105 390 112 374 105 344 L55 123 C34 28 78 -9 138 -9 L138 -9 Z M249 473 C334 513 421 544 449 565 C472 583 480 613 464 633 C449 652 419 654 391 632 C365 611 308 541 247 475 L249 473 Z " />
<glyph glyph-name="ucircumflex" unicode="&#xfb;" horiz-adv-x="559" d="M138 -9 C208 -9 276 44 319 81 C312 23 335 -10 387 -10 C427 -10 471 10 514 37 L515 44 C497 33 471 19 451 19 C429 19 422 35 429 65 L507 410 L395 410 L321 91 C291 65 251 32 208 32 C168 32 153 61 165 114 L213 319 C227 379 205 419 147 419 C107 419 63 399 20 372 L19 365 C37 376 63 390 83 390 C105 390 112 374 105 344 L55 123 C34 28 78 -9 138 -9 L138 -9 Z M172 466 L336 546 L463 466 L465 468 L387 612 C381 625 371 632 356 632 C340 632 327 625 315 612 L170 468 L172 466 Z " />
<glyph glyph-name="udieresis" unicode="&#xfc;" horiz-adv-x="559" d="M138 -9 C208 -9 276 44 319 81 C312 23 335 -10 387 -10 C427 -10 471 10 514 37 L515 44 C497 33 471 19 451 19 C429 19 422 35 429 65 L507 410 L395 410 L321 91 C291 65 251 32 208 32 C168 32 153 61 165 114 L213 319 C227 379 205 419 147 419 C107 419 63 399 20 372 L19 365 C37 376 63 390 83 390 C105 390 112 374 105 344 L55 123 C34 28 78 -9 138 -9 L138 -9 Z M248 491 C280 491 308 518 308 552 C308 586 280 613 247 613 C213 613 187 585 187 552 C187 518 215 491 248 491 L248 491 Z M425 491 C458 491 486 518 486 552 C486 586 458 613 425 613 C391 613 365 585 365 552 C365 518 392 491 425 491 L425 491 Z " />
<glyph glyph-name="yacute" unicode="&#xfd;" horiz-adv-x="462" d="M-65 -174 C16 -174 83 -74 131 -37 L173 -2 C318 109 441 258 441 346 C441 380 423 419 378 419 C338 419 311 389 311 354 C311 320 338 293 374 293 C382 293 390 295 396 297 C390 218 319 131 249 67 L204 363 C199 398 176 419 135 419 C95 419 51 399 8 372 L7 365 C25 376 50 390 68 390 C83 390 90 380 93 364 L160 -2 L129 -27 C44 -94 -110 -59 -110 -138 C-110 -160 -93 -174 -65 -174 L-65 -174 Z M221 473 C305 513 393 544 420 565 C444 583 451 613 435 633 C421 652 390 654 362 632 C336 611 280 541 219 475 L221 473 Z " />
<glyph glyph-name="thorn" unicode="&#xfe;" horiz-adv-x="530" d="M-93 -163 L161 -163 L162 -157 C111 -157 93 -140 105 -90 L132 26 C149 3 184 -11 234 -11 C383 -11 487 119 487 252 C487 348 433 419 343 419 C286 419 241 390 208 357 L280 668 L95 648 L94 642 C147 642 158 623 146 573 L-7 -86 C-19 -136 -38 -157 -91 -157 L-93 -163 Z M292 389 C346 389 370 340 370 276 C370 172 306 -3 208 -3 C157 -3 134 37 145 83 L205 345 C228 369 257 389 292 389 L292 389 Z " />
<glyph glyph-name="ydieresis" unicode="&#xff;" horiz-adv-x="462" d="M-65 -174 C16 -174 83 -74 131 -37 L173 -2 C318 109 441 258 441 346 C441 380 423 419 378 419 C338 419 311 389 311 354 C311 320 338 293 374 293 C382 293 390 295 396 297 C390 218 319 131 249 67 L204 363 C199 398 176 419 135 419 C95 419 51 399 8 372 L7 365 C25 376 50 390 68 390 C83 390 90 380 93 364 L160 -2 L129 -27 C44 -94 -110 -59 -110 -138 C-110 -160 -93 -174 -65 -174 L-65 -174 Z M213 491 C246 491 273 518 273 552 C273 586 246 613 212 613 C178 613 152 585 152 552 C152 518 180 491 213 491 L213 491 Z M391 491 C424 491 451 518 451 552 C451 586 424 613 390 613 C356 613 330 585 330 552 C330 518 358 491 391 491 L391 491 Z " />
<glyph glyph-name="Amacron" unicode="&#x100;" horiz-adv-x="648" d="M-94 0 L163 0 L164 6 C43 6 84 116 136 192 L146 208 L375 208 L390 132 C405 54 373 6 304 6 L302 0 L612 0 L614 6 C548 6 526 73 513 139 L409 622 L403 622 L136 209 C75 117 15 6 -92 6 L-94 0 Z M152 218 L322 481 L373 218 L152 218 Z M279 700 L558 700 L566 734 L287 734 L279 700 Z " />
<glyph glyph-name="amacron" unicode="&#x101;" horiz-adv-x="548" d="M162 -11 C222 -11 270 21 305 56 C305 15 330 -10 375 -10 C415 -10 460 10 503 37 L504 44 C486 33 459 19 439 19 C418 19 411 35 417 65 L496 412 L491 413 L385 373 C369 398 333 419 276 419 C131 419 22 289 22 153 C22 61 72 -11 162 -11 L162 -11 Z M215 19 C160 19 139 71 139 131 C139 240 209 410 303 410 C347 410 369 374 366 337 L304 66 C280 40 250 19 215 19 L215 19 Z M188 500 L467 500 L475 534 L196 534 L188 500 Z " />
<glyph glyph-name="Abreve" unicode="&#x102;" horiz-adv-x="648" d="M-94 0 L163 0 L164 6 C43 6 84 116 136 192 L146 208 L375 208 L390 132 C405 54 373 6 304 6 L302 0 L612 0 L614 6 C548 6 526 73 513 139 L409 622 L403 622 L136 209 C75 117 15 6 -92 6 L-94 0 Z M152 218 L322 481 L373 218 L152 218 Z M412 676 C506 676 551 777 566 840 L563 840 C546 802 508 757 428 757 C349 757 329 801 329 840 L327 840 C312 783 316 676 412 676 L412 676 Z " />
<glyph glyph-name="abreve" unicode="&#x103;" horiz-adv-x="548" d="M162 -11 C222 -11 270 21 305 56 C305 15 330 -10 375 -10 C415 -10 460 10 503 37 L504 44 C486 33 459 19 439 19 C418 19 411 35 417 65 L496 412 L491 413 L385 373 C369 398 333 419 276 419 C131 419 22 289 22 153 C22 61 72 -11 162 -11 L162 -11 Z M215 19 C160 19 139 71 139 131 C139 240 209 410 303 410 C347 410 369 374 366 337 L304 66 C280 40 250 19 215 19 L215 19 Z M331 476 C424 476 469 577 484 640 L482 640 C464 602 426 557 346 557 C267 557 248 601 248 640 L245 640 C231 583 234 476 331 476 L331 476 Z " />
<glyph glyph-name="Aogonek" unicode="&#x104;" horiz-adv-x="648" d="M418 -216 C458 -216 500 -204 532 -192 L531 -187 C519 -190 501 -195 479 -195 C439 -195 416 -178 416 -134 C416 -60 481 -23 531 0 L612 0 L614 6 C548 6 526 73 513 139 L409 622 L403 622 L136 209 C75 117 15 6 -92 6 L-94 0 L163 0 L164 6 C43 6 84 116 136 192 L146 208 L375 208 L390 132 C405 54 373 6 304 6 L302 0 L516 0 C445 -28 321 -70 321 -149 C321 -195 363 -216 418 -216 L418 -216 Z M152 218 L322 481 L373 218 L152 218 Z " />
<glyph glyph-name="aogonek" unicode="&#x105;" horiz-adv-x="548" d="M300 -216 C341 -216 383 -204 414 -192 L413 -187 C402 -190 384 -195 362 -195 C321 -195 298 -178 298 -134 C298 -68 350 -32 398 -8 C432 -2 468 15 503 37 L504 44 C486 33 459 19 439 19 C418 19 411 35 417 65 L496 412 L491 413 L385 373 C369 398 333 419 276 419 C131 419 22 289 22 153 C22 61 72 -11 162 -11 C222 -11 270 21 305 56 C305 16 328 -8 372 -10 C301 -37 203 -79 203 -149 C203 -195 245 -216 300 -216 L300 -216 Z M215 19 C160 19 139 71 139 131 C139 240 209 410 303 410 C347 410 369 374 366 337 L304 66 C280 40 250 19 215 19 L215 19 Z " />
<glyph glyph-name="Cacute" unicode="&#x106;" horiz-adv-x="671" d="M346 -12 C418 -12 496 2 551 18 L626 205 L622 205 C545 87 450 -5 338 -5 C225 -5 179 88 179 206 C179 370 266 623 474 623 C573 623 634 566 659 424 L664 425 L694 628 C619 609 549 630 467 630 C235 630 52 459 52 247 C52 92 149 -12 346 -12 L346 -12 Z M399 673 C483 713 571 744 598 765 C622 783 629 813 613 833 C599 852 568 854 540 832 C514 811 458 741 397 675 L399 673 Z " />
<glyph glyph-name="cacute" unicode="&#x107;" horiz-adv-x="462" d="M193 -11 C293 -11 359 49 399 101 L394 104 C357 55 304 11 241 11 C177 11 138 58 138 148 C138 255 194 411 297 411 C342 411 359 380 366 352 C335 348 312 321 312 288 C312 254 336 225 373 225 C413 225 436 259 436 298 C436 357 383 419 285 419 C153 419 22 307 22 160 C22 60 82 -11 193 -11 L193 -11 Z M217 473 C302 513 389 544 417 565 C440 583 448 613 432 633 C417 652 387 654 359 632 C333 611 276 541 215 475 L217 473 Z " />
<glyph glyph-name="Ccircumflex" unicode="&#x108;" horiz-adv-x="671" d="M346 -12 C418 -12 496 2 551 18 L626 205 L622 205 C545 87 450 -5 338 -5 C225 -5 179 88 179 206 C179 370 266 623 474 623 C573 623 634 566 659 424 L664 425 L694 628 C619 609 549 630 467 630 C235 630 52 459 52 247 C52 92 149 -12 346 -12 L346 -12 Z M333 666 L496 746 L624 666 L626 668 L548 812 C541 825 532 832 516 832 C501 832 487 825 475 812 L331 668 L333 666 Z " />
<glyph glyph-name="ccircumflex" unicode="&#x109;" horiz-adv-x="462" d="M193 -11 C293 -11 359 49 399 101 L394 104 C357 55 304 11 241 11 C177 11 138 58 138 148 C138 255 194 411 297 411 C342 411 359 380 366 352 C335 348 312 321 312 288 C312 254 336 225 373 225 C413 225 436 259 436 298 C436 357 383 419 285 419 C153 419 22 307 22 160 C22 60 82 -11 193 -11 L193 -11 Z M143 466 L307 546 L434 466 L436 468 L358 612 C352 625 342 632 327 632 C311 632 298 625 286 612 L141 468 L143 466 Z " />
<glyph glyph-name="Cdotaccent" unicode="&#x10a;" horiz-adv-x="671" d="M346 -12 C418 -12 496 2 551 18 L626 205 L622 205 C545 87 450 -5 338 -5 C225 -5 179 88 179 206 C179 370 266 623 474 623 C573 623 634 566 659 424 L664 425 L694 628 C619 609 549 630 467 630 C235 630 52 459 52 247 C52 92 149 -12 346 -12 L346 -12 Z M491 691 C526 691 555 720 555 755 C555 790 526 819 491 819 C455 819 427 790 427 755 C427 720 455 691 491 691 L491 691 Z " />
<glyph glyph-name="cdotaccent" unicode="&#x10b;" horiz-adv-x="462" d="M193 -11 C293 -11 359 49 399 101 L394 104 C357 55 304 11 241 11 C177 11 138 58 138 148 C138 255 194 411 297 411 C342 411 359 380 366 352 C335 348 312 321 312 288 C312 254 336 225 373 225 C413 225 436 259 436 298 C436 357 383 419 285 419 C153 419 22 307 22 160 C22 60 82 -11 193 -11 L193 -11 Z M322 491 C357 491 386 520 386 555 C386 590 357 619 322 619 C286 619 258 590 258 555 C258 520 286 491 322 491 L322 491 Z " />
<glyph glyph-name="Ccaron" unicode="&#x10c;" horiz-adv-x="671" d="M346 -12 C418 -12 496 2 551 18 L626 205 L622 205 C545 87 450 -5 338 -5 C225 -5 179 88 179 206 C179 370 266 623 474 623 C573 623 634 566 659 424 L664 425 L694 628 C619 609 549 630 467 630 C235 630 52 459 52 247 C52 92 149 -12 346 -12 L346 -12 Z M479 665 C495 665 508 672 520 685 L665 829 L663 831 L499 751 L372 831 L370 829 L448 685 C455 672 464 665 479 665 L479 665 Z " />
<glyph glyph-name="ccaron" unicode="&#x10d;" horiz-adv-x="462" d="M193 -11 C293 -11 359 49 399 101 L394 104 C357 55 304 11 241 11 C177 11 138 58 138 148 C138 255 194 411 297 411 C342 411 359 380 366 352 C335 348 312 321 312 288 C312 254 336 225 373 225 C413 225 436 259 436 298 C436 357 383 419 285 419 C153 419 22 307 22 160 C22 60 82 -11 193 -11 L193 -11 Z M291 465 C306 465 320 472 332 485 L476 629 L475 631 L311 551 L184 631 L182 629 L260 485 C266 472 275 465 291 465 L291 465 Z " />
<glyph glyph-name="Dcaron" unicode="&#x10e;" horiz-adv-x="740" d="M-27 0 L286 0 C538 0 715 161 715 364 C715 528 599 618 429 618 L116 618 L114 611 C189 611 196 588 180 517 L83 100 C67 29 50 6 -26 6 L-27 0 Z M185 7 L324 610 L415 610 C539 610 587 519 587 395 C587 222 495 7 275 7 L185 7 Z M447 665 C462 665 476 672 488 685 L632 829 L631 831 L467 751 L340 831 L338 829 L416 685 C422 672 431 665 447 665 L447 665 Z " />
<glyph glyph-name="dcaron" unicode="&#x10f;" horiz-adv-x="563" d="M575 453 C632 516 686 570 703 597 C718 622 715 650 692 660 C666 671 640 654 627 629 C611 600 598 537 572 454 L575 453 Z M162 -11 C222 -11 270 21 305 56 C305 15 330 -10 375 -10 C415 -10 460 10 503 37 L504 44 C486 33 459 19 439 19 C418 19 411 35 417 65 L555 668 L361 648 L359 642 C412 642 434 629 421 573 L377 380 C359 403 324 419 276 419 C131 419 22 289 22 153 C22 61 72 -11 162 -11 L162 -11 Z M215 19 C160 19 139 71 139 131 C139 240 209 410 303 410 C346 410 368 375 367 339 L304 66 C280 40 250 19 215 19 L215 19 Z " />
<glyph glyph-name="Dcroat" unicode="&#x110;" horiz-adv-x="740" d="M-27 0 L287 0 C539 0 715 158 715 370 C715 525 606 618 430 618 L116 618 L114 611 C190 611 197 588 180 517 L133 315 L59 315 L57 306 L131 306 L84 100 C67 29 50 6 -25 6 L-27 0 Z M185 7 L254 306 L432 306 L434 315 L256 315 L324 610 L415 610 C539 610 587 518 587 397 C587 231 495 7 276 7 L185 7 Z " />
<glyph glyph-name="dcroat" unicode="&#x111;" horiz-adv-x="548" d="M162 -11 C222 -11 270 21 305 56 C305 15 330 -10 375 -10 C415 -10 460 10 503 37 L504 44 C486 33 459 19 439 19 C418 19 411 35 417 65 L516 500 L596 500 L598 509 L518 509 L555 668 L361 648 L359 642 C412 642 434 629 421 573 L406 509 L268 509 L266 500 L404 500 L377 380 C359 403 324 419 276 419 C131 419 22 289 22 153 C22 61 72 -11 162 -11 L162 -11 Z M215 19 C160 19 139 71 139 131 C139 240 209 410 303 410 C346 410 368 375 367 339 L304 66 C280 40 250 19 215 19 L215 19 Z " />
<glyph glyph-name="Emacron" unicode="&#x112;" horiz-adv-x="621" d="M-27 0 L492 0 L558 206 L553 207 C501 102 434 7 264 7 L185 7 L253 304 L276 304 C396 304 432 259 428 167 L433 167 L498 450 L493 450 C455 357 398 312 278 312 L255 312 L324 610 L395 610 C555 610 594 540 593 424 L597 425 L629 618 L116 618 L114 611 C189 611 196 588 180 517 L83 100 C67 29 50 6 -26 6 L-27 0 Z M279 700 L558 700 L566 734 L287 734 L279 700 Z " />
<glyph glyph-name="emacron" unicode="&#x113;" horiz-adv-x="477" d="M198 -11 C305 -11 372 52 413 100 L408 104 C372 61 315 12 246 12 C172 12 140 68 140 145 C140 165 142 186 146 209 C247 200 447 201 447 313 C447 375 384 419 295 419 C154 419 22 308 22 161 C22 67 77 -11 198 -11 L198 -11 Z M293 412 C330 412 344 385 344 346 C344 243 248 211 147 216 C167 312 222 412 293 412 L293 412 Z M161 500 L440 500 L448 534 L169 534 L161 500 Z " />
<glyph glyph-name="Ebreve" unicode="&#x114;" horiz-adv-x="621" d="M-27 0 L492 0 L558 206 L553 207 C501 102 434 7 264 7 L185 7 L253 304 L276 304 C396 304 432 259 428 167 L433 167 L498 450 L493 450 C455 357 398 312 278 312 L255 312 L324 610 L395 610 C555 610 594 540 593 424 L597 425 L629 618 L116 618 L114 611 C189 611 196 588 180 517 L83 100 C67 29 50 6 -26 6 L-27 0 Z M414 676 C507 676 552 777 567 840 L565 840 C547 802 509 757 429 757 C350 757 331 801 331 840 L328 840 C314 783 317 676 414 676 L414 676 Z " />
<glyph glyph-name="ebreve" unicode="&#x115;" horiz-adv-x="477" d="M198 -11 C305 -11 372 52 413 100 L408 104 C372 61 315 12 246 12 C172 12 140 68 140 145 C140 165 142 186 146 209 C247 200 447 201 447 313 C447 375 384 419 295 419 C154 419 22 308 22 161 C22 67 77 -11 198 -11 L198 -11 Z M293 412 C330 412 344 385 344 346 C344 243 248 211 147 216 C167 312 222 412 293 412 L293 412 Z M300 476 C393 476 438 577 453 640 L451 640 C433 602 395 557 315 557 C236 557 217 601 217 640 L214 640 C200 583 203 476 300 476 L300 476 Z " />
<glyph glyph-name="Edotaccent" unicode="&#x116;" horiz-adv-x="621" d="M-27 0 L492 0 L558 206 L553 207 C501 102 434 7 264 7 L185 7 L253 304 L276 304 C396 304 432 259 428 167 L433 167 L498 450 L493 450 C455 357 398 312 278 312 L255 312 L324 610 L395 610 C555 610 594 540 593 424 L597 425 L629 618 L116 618 L114 611 C189 611 196 588 180 517 L83 100 C67 29 50 6 -26 6 L-27 0 Z M424 691 C459 691 488 720 488 755 C488 790 459 819 424 819 C389 819 360 790 360 755 C360 720 389 691 424 691 L424 691 Z " />
<glyph glyph-name="edotaccent" unicode="&#x117;" horiz-adv-x="477" d="M198 -11 C305 -11 372 52 413 100 L408 104 C372 61 315 12 246 12 C172 12 140 68 140 145 C140 165 142 186 146 209 C247 200 447 201 447 313 C447 375 384 419 295 419 C154 419 22 308 22 161 C22 67 77 -11 198 -11 L198 -11 Z M293 412 C330 412 344 385 344 346 C344 243 248 211 147 216 C167 312 222 412 293 412 L293 412 Z M308 491 C343 491 372 520 372 555 C372 590 343 619 308 619 C273 619 244 590 244 555 C244 520 273 491 308 491 L308 491 Z " />
<glyph glyph-name="Eogonek" unicode="&#x118;" horiz-adv-x="621" d="M333 -216 C374 -216 416 -204 447 -192 L446 -187 C435 -190 417 -195 395 -195 C354 -195 331 -178 331 -134 C331 -60 397 -23 447 0 L492 0 L558 206 L553 207 C501 102 434 7 264 7 L185 7 L253 304 L276 304 C396 304 432 259 428 167 L433 167 L498 450 L493 450 C455 357 398 312 278 312 L255 312 L324 610 L395 610 C555 610 594 540 593 424 L597 425 L629 618 L116 618 L114 611 C189 611 196 588 180 517 L83 100 C67 29 50 6 -26 6 L-27 0 L431 0 C361 -28 236 -70 236 -149 C236 -195 278 -216 333 -216 L333 -216 Z " />
<glyph glyph-name="eogonek" unicode="&#x119;" horiz-adv-x="478" d="M179 -216 C219 -216 261 -204 293 -192 L292 -187 C280 -190 262 -195 241 -195 C200 -195 177 -176 177 -133 C177 -54 252 -9 300 11 C351 31 383 65 413 100 L408 104 C372 61 315 12 246 12 C172 12 140 68 140 145 C140 165 142 186 146 209 C247 200 447 201 447 313 C447 375 384 419 295 419 C154 419 22 308 22 161 C22 67 77 -11 198 -11 C220 -11 240 -8 258 -4 C186 -33 82 -74 82 -147 C82 -193 124 -216 179 -216 L179 -216 Z M293 412 C330 412 344 385 344 346 C344 243 248 211 147 216 C167 312 222 412 293 412 L293 412 Z " />
<glyph glyph-name="Ecaron" unicode="&#x11a;" horiz-adv-x="621" d="M-27 0 L492 0 L558 206 L553 207 C501 102 434 7 264 7 L185 7 L253 304 L276 304 C396 304 432 259 428 167 L433 167 L498 450 L493 450 C455 357 398 312 278 312 L255 312 L324 610 L395 610 C555 610 594 540 593 424 L597 425 L629 618 L116 618 L114 611 C189 611 196 588 180 517 L83 100 C67 29 50 6 -26 6 L-27 0 Z M411 665 C426 665 440 672 452 685 L596 829 L595 831 L431 751 L304 831 L302 829 L380 685 C386 672 395 665 411 665 L411 665 Z " />
<glyph glyph-name="ecaron" unicode="&#x11b;" horiz-adv-x="477" d="M198 -11 C305 -11 372 52 413 100 L408 104 C372 61 315 12 246 12 C172 12 140 68 140 145 C140 165 142 186 146 209 C247 200 447 201 447 313 C447 375 384 419 295 419 C154 419 22 308 22 161 C22 67 77 -11 198 -11 L198 -11 Z M293 412 C330 412 344 385 344 346 C344 243 248 211 147 216 C167 312 222 412 293 412 L293 412 Z M294 465 C309 465 323 472 335 485 L479 629 L478 631 L314 551 L187 631 L185 629 L263 485 C269 472 278 465 294 465 L294 465 Z " />
<glyph glyph-name="Gcircumflex" unicode="&#x11c;" horiz-adv-x="756" d="M360 -12 C460 -12 549 11 615 31 L653 194 C669 265 685 286 758 286 L759 293 L462 293 L460 286 C540 286 548 257 532 186 L497 35 C456 15 408 -5 351 -5 C227 -5 178 89 178 209 C178 385 281 623 486 623 C588 623 664 564 684 429 L689 430 L718 628 C643 609 555 630 477 630 C257 630 51 467 51 246 C51 97 145 -12 360 -12 L360 -12 Z M336 666 L499 746 L627 666 L629 668 L551 812 C544 825 535 832 519 832 C504 832 490 825 478 812 L334 668 L336 666 Z " />
<glyph glyph-name="gcircumflex" unicode="&#x11d;" horiz-adv-x="502" d="M134 -174 C310 -174 382 -113 382 -39 C382 109 92 37 92 100 C92 116 109 128 128 135 C150 127 177 123 206 123 C324 123 421 197 421 292 C421 329 407 358 381 380 C404 373 426 370 447 370 C495 370 543 388 543 433 C543 464 520 490 488 490 C458 490 432 467 432 438 C432 416 446 396 463 388 C452 383 436 381 420 381 C404 381 387 383 371 387 C342 407 303 419 256 419 C128 419 40 339 40 249 C40 195 72 157 121 138 C69 121 17 88 17 43 C17 15 37 -1 65 -10 C22 -16 -64 -39 -64 -95 C-64 -150 25 -174 134 -174 L134 -174 Z M144 -168 C47 -168 0 -140 0 -92 C0 -56 29 -27 73 -12 C155 -38 302 -21 302 -88 C302 -115 277 -168 144 -168 L144 -168 Z M258 413 C301 413 316 377 316 327 C316 246 279 129 204 129 C162 129 146 165 146 215 C146 292 181 413 258 413 L258 413 Z M130 471 L294 551 L421 471 L423 473 L345 617 C338 630 329 637 314 637 C298 637 286 629 273 617 L128 473 L130 471 Z " />
<glyph glyph-name="Gbreve" unicode="&#x11e;" horiz-adv-x="756" d="M360 -12 C460 -12 549 11 615 31 L653 194 C669 265 685 286 758 286 L759 293 L462 293 L460 286 C540 286 548 257 532 186 L497 35 C456 15 408 -5 351 -5 C227 -5 178 89 178 209 C178 385 281 623 486 623 C588 623 664 564 684 429 L689 430 L718 628 C643 609 555 630 477 630 C257 630 51 467 51 246 C51 97 145 -12 360 -12 L360 -12 Z M490 676 C584 676 629 777 644 840 L641 840 C624 802 586 757 506 757 C427 757 407 801 407 840 L405 840 C390 783 394 676 490 676 L490 676 Z " />
<glyph glyph-name="gbreve" unicode="&#x11f;" horiz-adv-x="502" d="M134 -174 C310 -174 382 -113 382 -39 C382 109 92 37 92 100 C92 116 109 128 128 135 C150 127 177 123 206 123 C324 123 421 197 421 292 C421 329 407 358 381 380 C404 373 426 370 447 370 C495 370 543 388 543 433 C543 464 520 490 488 490 C458 490 432 467 432 438 C432 416 446 396 463 388 C452 383 436 381 420 381 C404 381 387 383 371 387 C342 407 303 419 256 419 C128 419 40 339 40 249 C40 195 72 157 121 138 C69 121 17 88 17 43 C17 15 37 -1 65 -10 C22 -16 -64 -39 -64 -95 C-64 -150 25 -174 134 -174 L134 -174 Z M144 -168 C47 -168 0 -140 0 -92 C0 -56 29 -27 73 -12 C155 -38 302 -21 302 -88 C302 -115 277 -168 144 -168 L144 -168 Z M258 413 C301 413 316 377 316 327 C316 246 279 129 204 129 C162 129 146 165 146 215 C146 292 181 413 258 413 L258 413 Z M270 476 C364 476 409 577 424 640 L421 640 C404 602 366 557 286 557 C207 557 187 601 187 640 L185 640 C170 583 174 476 270 476 L270 476 Z " />
<glyph glyph-name="Gdotaccent" unicode="&#x120;" horiz-adv-x="756" d="M360 -12 C460 -12 549 11 615 31 L653 194 C669 265 685 286 758 286 L759 293 L462 293 L460 286 C540 286 548 257 532 186 L497 35 C456 15 408 -5 351 -5 C227 -5 178 89 178 209 C178 385 281 623 486 623 C588 623 664 564 684 429 L689 430 L718 628 C643 609 555 630 477 630 C257 630 51 467 51 246 C51 97 145 -12 360 -12 L360 -12 Z M509 691 C544 691 573 720 573 755 C573 790 544 819 509 819 C473 819 445 790 445 755 C445 720 473 691 509 691 L509 691 Z " />
<glyph glyph-name="gdotaccent" unicode="&#x121;" horiz-adv-x="502" d="M134 -174 C310 -174 382 -113 382 -39 C382 109 92 37 92 100 C92 116 109 128 128 135 C150 127 177 123 206 123 C324 123 421 197 421 292 C421 329 407 358 381 380 C404 373 426 370 447 370 C495 370 543 388 543 433 C543 464 520 490 488 490 C458 490 432 467 432 438 C432 416 446 396 463 388 C452 383 436 381 420 381 C404 381 387 383 371 387 C342 407 303 419 256 419 C128 419 40 339 40 249 C40 195 72 157 121 138 C69 121 17 88 17 43 C17 15 37 -1 65 -10 C22 -16 -64 -39 -64 -95 C-64 -150 25 -174 134 -174 L134 -174 Z M144 -168 C47 -168 0 -140 0 -92 C0 -56 29 -27 73 -12 C155 -38 302 -21 302 -88 C302 -115 277 -168 144 -168 L144 -168 Z M258 413 C301 413 316 377 316 327 C316 246 279 129 204 129 C162 129 146 165 146 215 C146 292 181 413 258 413 L258 413 Z M292 491 C327 491 356 520 356 555 C356 590 327 619 292 619 C256 619 228 590 228 555 C228 520 256 491 292 491 L292 491 Z " />
<glyph glyph-name="uni0122" unicode="&#x122;" horiz-adv-x="756" d="M360 -12 C460 -12 549 11 615 31 L653 194 C669 265 685 286 758 286 L759 293 L462 293 L460 286 C540 286 548 257 532 186 L497 35 C456 15 408 -5 351 -5 C227 -5 178 89 178 209 C178 385 281 623 486 623 C588 623 664 564 684 429 L689 430 L718 628 C643 609 555 630 477 630 C257 630 51 467 51 246 C51 97 145 -12 360 -12 L360 -12 Z M212 -319 C325 -282 387 -203 387 -145 C387 -108 362 -82 326 -82 C289 -82 262 -108 262 -141 C262 -171 284 -197 318 -197 C327 -197 335 -195 342 -192 C325 -246 267 -295 210 -314 L212 -319 Z " />
<glyph glyph-name="uni0123" unicode="&#x123;" horiz-adv-x="502" d="M406 721 C293 683 231 604 231 547 C231 510 256 483 292 483 C329 483 355 510 355 543 C355 572 333 599 300 599 C291 599 282 597 275 594 C292 648 350 696 408 716 L406 721 Z M134 -174 C310 -174 382 -113 382 -39 C382 109 92 37 92 100 C92 116 109 128 128 135 C150 127 177 123 206 123 C324 123 421 197 421 292 C421 329 407 358 381 380 C404 373 426 370 447 370 C495 370 543 388 543 433 C543 464 520 490 488 490 C458 490 432 467 432 438 C432 416 446 396 463 388 C452 383 436 381 420 381 C404 381 387 383 371 387 C342 407 303 419 256 419 C128 419 40 339 40 249 C40 195 72 157 121 138 C69 121 17 88 17 43 C17 15 37 -1 65 -10 C22 -16 -64 -39 -64 -95 C-64 -150 25 -174 134 -174 L134 -174 Z M144 -168 C47 -168 0 -140 0 -92 C0 -56 29 -27 73 -12 C155 -38 302 -21 302 -88 C302 -115 277 -168 144 -168 L144 -168 Z M258 413 C301 413 316 377 316 327 C316 246 279 129 204 129 C162 129 146 165 146 215 C146 292 181 413 258 413 L258 413 Z " />
<glyph glyph-name="Hcircumflex" unicode="&#x124;" horiz-adv-x="778" d="M-27 0 L270 0 L272 6 C196 6 189 29 206 100 L254 309 L551 309 L503 100 C487 29 469 6 394 6 L392 0 L690 0 L691 6 C616 6 609 29 625 100 L722 517 C738 588 755 611 831 611 L833 618 L535 618 L533 611 C609 611 616 588 599 517 L553 318 L256 318 L302 517 C319 588 336 611 411 611 L413 618 L116 618 L114 611 C189 611 196 588 180 517 L83 100 C67 29 50 6 -26 6 L-27 0 Z M343 666 L506 746 L634 666 L636 668 L558 812 C551 825 542 832 526 832 C511 832 497 825 485 812 L341 668 L343 666 Z " />
<glyph glyph-name="hcircumflex" unicode="&#x125;" horiz-adv-x="542" d="M13 0 L126 0 L196 304 C231 335 275 375 320 375 C357 375 368 347 358 304 L308 90 C294 30 316 -10 374 -10 C414 -10 458 10 501 37 L502 44 C484 33 458 19 438 19 C416 19 409 35 416 65 L466 287 C488 382 442 419 386 419 C314 419 245 358 199 315 L280 668 L96 648 L94 642 C146 642 158 623 146 573 L13 0 Z M163 703 L326 783 L454 703 L456 705 L378 850 C371 862 362 870 346 870 C331 870 317 862 305 850 L161 705 L163 703 Z " />
<glyph glyph-name="Hbar" unicode="&#x126;" horiz-adv-x="778" d="M-26 0 L271 0 L273 6 C197 6 190 29 207 100 L255 309 L552 309 L504 100 C488 29 470 6 395 6 L393 0 L691 0 L692 6 C617 6 610 29 626 100 L707 452 L780 452 L782 461 L709 461 L723 517 C739 588 756 611 832 611 L834 618 L536 618 L534 611 C610 611 617 588 600 517 L587 461 L290 461 L303 517 C320 588 337 611 412 611 L414 618 L117 618 L115 611 C190 611 197 588 181 517 L167 461 L94 461 L92 452 L165 452 L84 100 C68 29 51 6 -25 6 L-26 0 Z M257 318 L288 452 L585 452 L554 318 L257 318 Z " />
<glyph glyph-name="hbar" unicode="&#x127;" horiz-adv-x="542" d="M14 0 L126 0 L196 304 C231 335 276 375 320 375 C358 375 368 347 358 304 L309 90 C295 30 317 -10 374 -10 C414 -10 459 10 502 37 L503 44 C485 33 458 19 438 19 C417 19 410 35 416 65 L467 287 C488 382 443 419 386 419 C314 419 246 358 199 315 L241 500 L385 500 L387 509 L243 509 L281 668 L96 648 L94 642 C147 642 159 623 147 573 L132 509 L65 509 L63 500 L130 500 L14 0 Z " />
<glyph glyph-name="Itilde" unicode="&#x128;" horiz-adv-x="358" d="M-27 0 L270 0 L272 6 C196 6 189 29 206 100 L302 517 C319 588 336 611 411 611 L413 618 L116 618 L114 611 C189 611 196 588 180 517 L83 100 C67 29 50 6 -26 6 L-27 0 Z M133 686 L137 686 C148 713 162 749 205 749 C259 749 302 693 354 693 C416 693 441 771 460 833 L455 834 C446 806 431 771 388 771 C335 771 292 827 239 827 C173 827 150 740 133 686 L133 686 Z " />
<glyph glyph-name="itilde" unicode="&#x129;" horiz-adv-x="287" d="M116 -10 C156 -10 200 10 243 37 L244 44 C226 33 200 19 180 19 C158 19 151 35 158 65 L216 319 C230 379 208 419 150 419 C110 419 66 399 23 372 L22 365 C40 376 66 390 86 390 C108 390 115 374 108 344 L50 90 C36 30 58 -10 116 -10 L116 -10 Z M28 486 L32 486 C43 513 57 549 100 549 C154 549 197 493 249 493 C311 493 336 571 355 633 L350 634 C341 606 326 571 283 571 C230 571 187 627 134 627 C68 627 45 540 28 486 L28 486 Z " />
<glyph glyph-name="Imacron" unicode="&#x12a;" horiz-adv-x="358" d="M-27 0 L270 0 L272 6 C196 6 189 29 206 100 L302 517 C319 588 336 611 411 611 L413 618 L116 618 L114 611 C189 611 196 588 180 517 L83 100 C67 29 50 6 -26 6 L-27 0 Z M144 700 L423 700 L431 734 L152 734 L144 700 Z " />
<glyph glyph-name="imacron" unicode="&#x12b;" horiz-adv-x="287" d="M116 -10 C156 -10 200 10 243 37 L244 44 C226 33 200 19 180 19 C158 19 151 35 158 65 L216 319 C230 379 208 419 150 419 C110 419 66 399 23 372 L22 365 C40 376 66 390 86 390 C108 390 115 374 108 344 L50 90 C36 30 58 -10 116 -10 L116 -10 Z M37 500 L316 500 L324 534 L45 534 L37 500 Z " />
<glyph glyph-name="Ibreve" unicode="&#x12c;" horiz-adv-x="358" d="M-27 0 L270 0 L272 6 C196 6 189 29 206 100 L302 517 C319 588 336 611 411 611 L413 618 L116 618 L114 611 C189 611 196 588 180 517 L83 100 C67 29 50 6 -26 6 L-27 0 Z M274 676 C368 676 413 777 428 840 L425 840 C408 802 370 757 290 757 C211 757 191 801 191 840 L189 840 C174 783 178 676 274 676 L274 676 Z " />
<glyph glyph-name="ibreve" unicode="&#x12d;" horiz-adv-x="287" d="M116 -10 C156 -10 200 10 243 37 L244 44 C226 33 200 19 180 19 C158 19 151 35 158 65 L216 319 C230 379 208 419 150 419 C110 419 66 399 23 372 L22 365 C40 376 66 390 86 390 C108 390 115 374 108 344 L50 90 C36 30 58 -10 116 -10 L116 -10 Z M173 476 C266 476 311 577 326 640 L324 640 C306 602 268 557 188 557 C109 557 90 601 90 640 L87 640 C73 583 76 476 173 476 L173 476 Z " />
<glyph glyph-name="Iogonek" unicode="&#x12e;" horiz-adv-x="358" d="M74 -216 C115 -216 157 -204 188 -192 L187 -187 C176 -190 158 -195 136 -195 C95 -195 72 -178 72 -134 C72 -60 138 -23 188 0 L270 0 L272 6 C196 6 189 29 206 100 L302 517 C319 588 336 611 411 611 L413 618 L116 618 L114 611 C189 611 196 588 180 517 L83 100 C67 29 50 6 -26 6 L-27 0 L172 0 C102 -28 -23 -70 -23 -149 C-23 -195 19 -216 74 -216 L74 -216 Z " />
<glyph glyph-name="iogonek" unicode="&#x12f;" horiz-adv-x="287" d="M53 -216 C93 -216 135 -204 167 -192 L166 -187 C154 -190 136 -195 114 -195 C74 -195 51 -178 51 -134 C51 -59 118 -23 166 -1 C192 6 218 21 243 37 L244 44 C226 33 200 19 180 19 C158 19 151 35 158 65 L216 319 C230 379 208 419 150 419 C110 419 66 399 23 372 L22 365 C40 376 66 390 86 390 C108 390 115 374 108 344 L50 90 C34 22 65 -13 127 -9 C56 -36 -44 -78 -44 -149 C-44 -195 -2 -216 53 -216 L53 -216 Z M209 489 C247 489 278 517 278 557 C278 597 247 624 209 624 C170 624 139 597 139 557 C139 517 170 489 209 489 L209 489 Z " />
<glyph glyph-name="Idotaccent" unicode="&#x130;" horiz-adv-x="358" d="M-27 0 L270 0 L272 6 C196 6 189 29 206 100 L302 517 C319 588 336 611 411 611 L413 618 L116 618 L114 611 C189 611 196 588 180 517 L83 100 C67 29 50 6 -26 6 L-27 0 Z M287 691 C322 691 351 720 351 755 C351 790 322 819 287 819 C252 819 223 790 223 755 C223 720 252 691 287 691 L287 691 Z " />
<glyph glyph-name="dotlessi" unicode="&#x131;" horiz-adv-x="287" d="M116 -10 C156 -10 200 10 243 37 L244 44 C226 33 200 19 180 19 C158 19 151 35 158 65 L216 319 C230 379 208 419 150 419 C110 419 66 399 23 372 L22 365 C40 376 66 390 86 390 C108 390 115 374 108 344 L50 90 C36 30 58 -10 116 -10 L116 -10 Z " />
<glyph glyph-name="Jcircumflex" unicode="&#x134;" horiz-adv-x="349" d="M-77 -167 C42 -136 164 -71 189 36 L300 517 C316 588 333 611 409 611 L411 618 L113 618 L111 611 C187 611 194 588 178 517 L61 14 C45 -56 16 -117 -79 -162 L-77 -167 Z M122 666 L286 746 L413 666 L415 668 L337 812 C331 825 321 832 306 832 C290 832 277 825 265 812 L120 668 L122 666 Z " />
<glyph glyph-name="jcircumflex" unicode="&#x135;" horiz-adv-x="272" d="M-44 -163 C37 -163 120 -115 145 -7 L221 319 C235 379 213 419 155 419 C115 419 71 399 28 372 L27 365 C45 376 71 390 91 390 C113 390 120 374 113 344 L16 -78 C5 -125 -14 -157 -52 -157 C-74 -157 -85 -145 -91 -132 C-69 -126 -50 -105 -50 -75 C-50 -45 -71 -19 -103 -19 C-133 -19 -159 -41 -159 -77 C-159 -120 -120 -163 -44 -163 L-44 -163 Z M27 466 L190 546 L318 466 L320 468 L242 612 C235 625 226 632 210 632 C195 632 181 625 169 612 L25 468 L27 466 Z " />
<glyph glyph-name="uni0136" unicode="&#x136;" horiz-adv-x="690" d="M-27 0 L270 0 L272 6 C196 6 189 29 206 100 L239 245 L323 316 L460 0 L650 0 L651 6 C611 6 581 27 552 93 L419 394 L462 431 C527 484 576 523 619 552 C669 585 722 611 779 611 L781 618 L507 618 L505 611 C554 611 573 597 573 575 C573 544 532 498 453 433 L242 258 L302 517 C319 588 336 611 411 611 L413 618 L116 618 L114 611 C189 611 196 588 180 517 L83 100 C67 29 50 6 -26 6 L-27 0 Z M193 -319 C306 -282 368 -203 368 -145 C368 -108 343 -82 307 -82 C270 -82 244 -108 244 -141 C244 -171 266 -197 299 -197 C308 -197 316 -195 323 -192 C307 -246 249 -295 191 -314 L193 -319 Z " />
<glyph glyph-name="uni0137" unicode="&#x137;" horiz-adv-x="489" d="M14 0 L126 0 L171 196 C183 197 195 200 206 202 L269 33 C280 4 302 -12 341 -12 C381 -12 420 5 467 35 L468 42 C452 33 429 17 408 17 C393 17 386 24 382 35 L310 226 C402 257 452 304 452 353 C452 388 425 419 388 419 C352 419 325 390 325 356 C325 319 359 298 388 295 C355 241 264 214 173 203 L280 668 L96 648 L94 642 C146 642 158 623 146 573 L14 0 Z M73 -319 C186 -282 248 -203 248 -145 C248 -108 223 -82 187 -82 C150 -82 124 -108 124 -141 C124 -171 146 -197 179 -197 C188 -197 196 -195 203 -192 C187 -246 129 -295 71 -314 L73 -319 Z " />
<glyph glyph-name="kgreenlandic" unicode="&#x138;" horiz-adv-x="490" d="M15 0 L127 0 L172 196 C184 198 195 200 207 202 L270 33 C281 4 303 -12 342 -12 C382 -12 421 5 468 35 L469 42 C453 33 430 17 409 17 C394 17 387 24 383 35 L311 226 C403 257 453 304 453 353 C453 388 426 419 389 419 C353 419 326 390 326 356 C326 319 360 298 389 295 C356 240 264 214 174 203 L224 418 L39 398 L37 392 C90 392 102 373 90 323 L15 0 Z " />
<glyph glyph-name="Lacute" unicode="&#x139;" horiz-adv-x="579" d="M-27 0 L481 0 L544 212 L539 213 C487 97 407 7 247 7 L184 7 L301 512 C319 590 346 611 421 611 L423 618 L116 618 L114 611 C189 611 196 588 180 517 L83 100 C67 29 50 6 -26 6 L-27 0 Z M231 673 C316 713 403 744 431 765 C454 783 462 813 446 833 C431 852 401 854 373 832 C347 811 290 741 229 675 L231 673 Z " />
<glyph glyph-name="lacute" unicode="&#x13a;" horiz-adv-x="276" d="M102 -10 C142 -10 187 10 230 37 L231 44 C213 33 186 19 166 19 C145 19 138 35 144 65 L282 668 L98 648 L96 642 C148 642 160 623 148 573 L37 90 C23 30 45 -10 102 -10 L102 -10 Z M146 703 C231 743 318 774 346 795 C369 813 377 844 361 864 C346 882 316 885 288 862 C262 841 205 772 144 705 L146 703 Z " />
<glyph glyph-name="uni013B" unicode="&#x13b;" horiz-adv-x="579" d="M-27 0 L481 0 L544 212 L539 213 C487 97 407 7 247 7 L184 7 L301 512 C319 590 346 611 421 611 L423 618 L116 618 L114 611 C189 611 196 588 180 517 L83 100 C67 29 50 6 -26 6 L-27 0 Z M123 -319 C236 -282 298 -203 298 -145 C298 -108 273 -82 237 -82 C200 -82 173 -108 173 -141 C173 -171 195 -197 229 -197 C238 -197 246 -195 253 -192 C236 -246 178 -295 121 -314 L123 -319 Z " />
<glyph glyph-name="uni013C" unicode="&#x13c;" horiz-adv-x="276" d="M102 -10 C142 -10 187 10 230 37 L231 44 C213 33 186 19 166 19 C145 19 138 35 144 65 L282 668 L98 648 L96 642 C148 642 160 623 148 573 L37 90 C23 30 45 -10 102 -10 L102 -10 Z M-55 -319 C58 -282 120 -203 120 -145 C120 -108 95 -82 59 -82 C22 -82 -4 -108 -4 -141 C-4 -171 18 -197 51 -197 C60 -197 68 -195 75 -192 C59 -246 1 -295 -57 -314 L-55 -319 Z " />
<glyph glyph-name="Lcaron" unicode="&#x13d;" horiz-adv-x="581" d="M462 418 C519 481 573 535 589 562 C605 587 601 615 578 625 C553 636 527 619 513 594 C498 565 485 502 459 419 L462 418 Z M-27 0 L481 0 L544 212 L539 213 C487 97 407 7 247 7 L184 7 L301 512 C319 590 346 611 421 611 L423 618 L116 618 L114 611 C189 611 196 588 180 517 L83 100 C67 29 50 6 -26 6 L-27 0 Z " />
<glyph glyph-name="lcaron" unicode="&#x13e;" horiz-adv-x="290" d="M302 453 C359 516 413 570 430 597 C445 622 442 650 419 660 C393 671 367 654 354 629 C338 600 325 537 299 454 L302 453 Z M102 -10 C142 -10 187 10 230 37 L231 44 C213 33 186 19 166 19 C145 19 138 35 144 65 L282 668 L98 648 L96 642 C148 642 160 623 148 573 L37 90 C23 30 45 -10 102 -10 L102 -10 Z " />
<glyph glyph-name="Ldot" unicode="&#x13f;" horiz-adv-x="579" d="M-27 0 L481 0 L544 212 L539 213 C487 97 407 7 247 7 L184 7 L301 512 C319 590 346 611 421 611 L423 618 L116 618 L114 611 C189 611 196 588 180 517 L83 100 C67 29 50 6 -26 6 L-27 0 Z M475 294 C510 294 539 323 539 358 C539 393 510 422 475 422 C439 422 411 393 411 358 C411 323 439 294 475 294 L475 294 Z " />
<glyph glyph-name="ldot" unicode="&#x140;" horiz-adv-x="375" d="M102 -10 C142 -10 187 10 230 37 L231 44 C213 33 186 19 166 19 C145 19 138 35 144 65 L282 668 L98 648 L96 642 C148 642 160 623 148 573 L37 90 C23 30 45 -10 102 -10 L102 -10 Z M330 234 C365 234 394 263 394 298 C394 333 365 362 330 362 C295 362 266 333 266 298 C266 263 295 234 330 234 L330 234 Z " />
<glyph glyph-name="Lslash" unicode="&#x141;" horiz-adv-x="580" d="M-26 0 L483 0 L546 212 L541 213 C489 97 408 7 249 7 L186 7 L259 327 L428 384 L426 393 L262 337 L302 512 C320 590 347 611 423 611 L425 618 L117 618 L115 611 C191 611 198 588 181 517 L129 294 L31 261 L32 252 L127 284 L85 100 C68 29 51 6 -24 6 L-26 0 Z " />
<glyph glyph-name="lslash" unicode="&#x142;" horiz-adv-x="291" d="M113 -10 C153 -10 198 10 241 37 L242 44 C224 33 197 19 177 19 C156 19 149 35 155 65 L217 337 L312 377 L311 385 L219 346 L293 668 L109 648 L107 642 C159 642 171 623 159 573 L95 297 L10 262 L12 254 L93 288 L48 90 C34 30 56 -10 113 -10 L113 -10 Z " />
<glyph glyph-name="Nacute" unicode="&#x143;" horiz-adv-x="711" d="M-41 0 L212 0 L214 6 C99 6 106 64 166 325 L207 504 L519 -7 L525 -5 L593 292 C653 553 674 611 789 611 L791 618 L537 618 L535 611 C650 611 643 553 583 292 L553 165 L279 618 L107 618 L105 611 C202 611 209 558 185 453 L156 325 C98 64 75 6 -40 6 L-41 0 Z M388 673 C472 713 560 744 587 765 C611 783 618 813 602 833 C588 852 557 854 529 832 C503 811 447 741 386 675 L388 673 Z " />
<glyph glyph-name="nacute" unicode="&#x144;" horiz-adv-x="560" d="M32 0 L146 0 L216 305 C250 335 294 375 338 375 C376 375 386 347 376 304 L327 90 C313 30 335 -10 392 -10 C432 -10 477 10 520 37 L521 44 C503 33 476 19 456 19 C435 19 428 35 434 65 L485 287 C506 382 461 419 404 419 C332 419 265 359 218 316 C232 380 209 419 153 419 C113 419 68 399 25 372 L24 365 C42 376 69 390 89 390 C110 390 117 374 111 344 L32 0 Z M248 473 C333 513 420 544 448 565 C471 583 479 613 463 633 C448 652 418 654 390 632 C364 611 307 541 246 475 L248 473 Z " />
<glyph glyph-name="uni0145" unicode="&#x145;" horiz-adv-x="711" d="M-41 0 L212 0 L214 6 C99 6 106 64 166 325 L207 504 L519 -7 L525 -5 L593 292 C653 553 674 611 789 611 L791 618 L537 618 L535 611 C650 611 643 553 583 292 L553 165 L279 618 L107 618 L105 611 C202 611 209 558 185 453 L156 325 C98 64 75 6 -40 6 L-41 0 Z M175 -319 C288 -282 350 -203 350 -145 C350 -108 325 -82 289 -82 C252 -82 226 -108 226 -141 C226 -171 248 -197 281 -197 C290 -197 298 -195 305 -192 C289 -246 231 -295 173 -314 L175 -319 Z " />
<glyph glyph-name="uni0146" unicode="&#x146;" horiz-adv-x="560" d="M32 0 L146 0 L216 305 C250 335 294 375 338 375 C376 375 386 347 376 304 L327 90 C313 30 335 -10 392 -10 C432 -10 477 10 520 37 L521 44 C503 33 476 19 456 19 C435 19 428 35 434 65 L485 287 C506 382 461 419 404 419 C332 419 265 359 218 316 C232 380 209 419 153 419 C113 419 68 399 25 372 L24 365 C42 376 69 390 89 390 C110 390 117 374 111 344 L32 0 Z M103 -319 C216 -282 278 -203 278 -145 C278 -108 253 -82 217 -82 C180 -82 154 -108 154 -141 C154 -171 176 -197 209 -197 C218 -197 226 -195 233 -192 C217 -246 159 -295 101 -314 L103 -319 Z " />
<glyph glyph-name="Ncaron" unicode="&#x147;" horiz-adv-x="711" d="M-41 0 L212 0 L214 6 C99 6 106 64 166 325 L207 504 L519 -7 L525 -5 L593 292 C653 553 674 611 789 611 L791 618 L537 618 L535 611 C650 611 643 553 583 292 L553 165 L279 618 L107 618 L105 611 C202 611 209 558 185 453 L156 325 C98 64 75 6 -40 6 L-41 0 Z M450 665 C465 665 479 672 491 685 L635 829 L634 831 L470 751 L343 831 L341 829 L419 685 C425 672 434 665 450 665 L450 665 Z " />
<glyph glyph-name="ncaron" unicode="&#x148;" horiz-adv-x="560" d="M32 0 L146 0 L216 305 C250 335 294 375 338 375 C376 375 386 347 376 304 L327 90 C313 30 335 -10 392 -10 C432 -10 477 10 520 37 L521 44 C503 33 476 19 456 19 C435 19 428 35 434 65 L485 287 C506 382 461 419 404 419 C332 419 265 359 218 316 C232 380 209 419 153 419 C113 419 68 399 25 372 L24 365 C42 376 69 390 89 390 C110 390 117 374 111 344 L32 0 Z M307 465 C323 465 336 472 348 485 L493 629 L491 631 L327 551 L200 631 L198 629 L276 485 C283 472 292 465 307 465 L307 465 Z " />
<glyph glyph-name="Eng" unicode="&#x14a;" horiz-adv-x="710" d="M-41 0 L212 0 L214 6 C99 6 106 64 166 325 L207 504 L465 76 L454 26 C434 -58 386 -120 267 -162 L268 -167 C396 -136 511 -67 537 46 L593 292 C653 553 674 611 789 611 L791 618 L537 618 L535 611 C650 611 643 553 583 292 L553 165 L279 618 L107 618 L105 611 C202 611 209 558 185 453 L156 325 C98 64 75 6 -40 6 L-41 0 Z " />
<glyph glyph-name="eng" unicode="&#x14b;" horiz-adv-x="526" d="M223 -179 C304 -179 387 -130 413 -23 L485 287 C506 382 461 419 404 419 C332 419 265 359 218 316 C234 380 209 419 153 419 C113 419 68 399 25 372 L24 365 C42 376 69 390 89 390 C110 390 117 374 111 344 L32 0 L146 0 L216 305 C250 335 294 375 338 375 C376 375 386 347 376 304 L283 -94 C272 -141 253 -173 215 -173 C193 -173 182 -161 176 -148 C198 -142 217 -120 217 -91 C217 -60 196 -34 164 -34 C134 -34 109 -57 109 -93 C109 -136 147 -179 223 -179 L223 -179 Z " />
<glyph glyph-name="Omacron" unicode="&#x14c;" horiz-adv-x="752" d="M333 -12 C550 -12 727 166 727 365 C727 526 611 630 446 630 C228 630 52 451 52 253 C52 91 168 -12 333 -12 L333 -12 Z M322 -4 C218 -4 177 78 177 193 C177 378 277 621 458 621 C564 621 603 539 603 425 C603 234 498 -4 322 -4 L322 -4 Z M332 700 L611 700 L619 734 L340 734 L332 700 Z " />
<glyph glyph-name="omacron" unicode="&#x14d;" horiz-adv-x="526" d="M212 -11 C344 -11 482 92 482 242 C482 369 382 419 292 419 C160 419 23 315 23 166 C23 43 117 -11 212 -11 L212 -11 Z M207 -3 C165 -3 132 26 132 101 C132 196 184 411 298 411 C341 411 373 382 373 307 C373 212 322 -3 207 -3 L207 -3 Z M180 500 L459 500 L467 534 L188 534 L180 500 Z " />
<glyph glyph-name="Obreve" unicode="&#x14e;" horiz-adv-x="752" d="M333 -12 C550 -12 727 166 727 365 C727 526 611 630 446 630 C228 630 52 451 52 253 C52 91 168 -12 333 -12 L333 -12 Z M322 -4 C218 -4 177 78 177 193 C177 378 277 621 458 621 C564 621 603 539 603 425 C603 234 498 -4 322 -4 L322 -4 Z M470 676 C564 676 609 777 624 840 L621 840 C604 802 566 757 486 757 C407 757 387 801 387 840 L385 840 C370 783 374 676 470 676 L470 676 Z " />
<glyph glyph-name="obreve" unicode="&#x14f;" horiz-adv-x="526" d="M212 -11 C344 -11 482 92 482 242 C482 369 382 419 292 419 C160 419 23 315 23 166 C23 43 117 -11 212 -11 L212 -11 Z M207 -3 C165 -3 132 26 132 101 C132 196 184 411 298 411 C341 411 373 382 373 307 C373 212 322 -3 207 -3 L207 -3 Z M317 476 C410 476 455 577 470 640 L468 640 C450 602 412 557 332 557 C253 557 234 601 234 640 L231 640 C217 583 220 476 317 476 L317 476 Z " />
<glyph glyph-name="Ohungarumlaut" unicode="&#x150;" horiz-adv-x="752" d="M333 -12 C550 -12 727 166 727 365 C727 526 611 630 446 630 C228 630 52 451 52 253 C52 91 168 -12 333 -12 L333 -12 Z M322 -4 C218 -4 177 78 177 193 C177 378 277 621 458 621 C564 621 603 539 603 425 C603 234 498 -4 322 -4 L322 -4 Z M350 671 C423 722 487 761 508 784 C531 808 528 833 513 845 C496 859 469 854 449 833 C428 811 395 746 349 672 L350 671 Z M512 671 C585 722 649 761 670 784 C693 808 690 833 675 845 C658 859 631 854 611 833 C590 811 557 746 511 672 L512 671 Z " />
<glyph glyph-name="ohungarumlaut" unicode="&#x151;" horiz-adv-x="526" d="M212 -11 C344 -11 482 92 482 242 C482 369 382 419 292 419 C160 419 23 315 23 166 C23 43 117 -11 212 -11 L212 -11 Z M207 -3 C165 -3 132 26 132 101 C132 196 184 411 298 411 C341 411 373 382 373 307 C373 212 322 -3 207 -3 L207 -3 Z M193 471 C265 522 329 561 351 584 C374 608 370 633 355 645 C339 659 311 654 292 633 C271 611 237 546 191 472 L193 471 Z M355 471 C427 522 491 561 513 584 C536 608 532 633 517 645 C501 659 473 654 454 633 C433 611 399 546 353 472 L355 471 Z " />
<glyph glyph-name="OE" unicode="&#x152;" horiz-adv-x="1022" d="M322 -12 C366 -12 466 0 534 0 L893 0 L960 206 L955 207 C902 102 834 7 665 7 L586 7 L655 304 L678 304 C798 304 833 259 829 167 L834 167 L899 450 L894 450 C856 357 799 312 679 312 L656 312 L725 610 L795 610 C956 610 996 540 994 424 L999 425 L1030 618 L677 618 C604 618 486 630 443 630 C219 630 50 438 50 242 C50 91 165 -12 322 -12 L322 -12 Z M331 -4 C219 -4 174 79 174 191 C174 374 265 621 454 621 C534 621 597 586 579 507 L487 110 C469 31 421 -4 331 -4 L331 -4 Z " />
<glyph glyph-name="oe" unicode="&#x153;" horiz-adv-x="813" d="M212 -11 C276 -11 343 15 391 61 C415 18 461 -11 533 -11 C640 -11 707 52 748 100 L743 104 C707 61 650 12 581 12 C507 12 475 68 475 145 C475 165 477 186 481 209 C582 200 782 201 782 313 C782 375 719 419 630 419 C560 419 493 390 444 342 C412 396 351 419 292 419 C160 419 23 315 23 166 C23 43 117 -11 212 -11 L212 -11 Z M207 -3 C165 -3 132 26 132 101 C132 196 184 411 298 411 C341 411 373 382 373 307 C373 212 322 -3 207 -3 L207 -3 Z M628 412 C665 412 679 385 679 346 C679 243 583 211 482 216 C502 312 558 412 628 412 L628 412 Z " />
<glyph glyph-name="Racute" unicode="&#x154;" horiz-adv-x="685" d="M-27 0 L270 0 L272 6 C196 6 189 29 206 100 L252 300 L330 300 C428 299 424 241 427 127 C427 67 430 17 436 0 L624 0 L625 6 C567 6 555 28 549 93 C535 236 569 299 367 301 L368 304 C478 308 651 339 651 477 C651 574 566 618 418 618 L116 618 L114 611 C189 611 196 588 180 517 L83 100 C67 29 50 6 -26 6 L-27 0 Z M254 307 L324 610 L397 610 C487 610 526 565 526 490 C526 396 465 307 331 307 L254 307 Z M349 673 C433 713 521 744 548 765 C572 783 579 813 563 833 C549 852 518 854 490 832 C464 811 408 741 347 675 L349 673 Z " />
<glyph glyph-name="racute" unicode="&#x155;" horiz-adv-x="411" d="M32 0 L145 0 L204 256 C228 306 260 350 295 363 C295 359 294 355 294 351 C294 314 323 285 357 285 C392 285 421 314 421 352 C421 387 396 419 356 419 C294 419 239 344 205 271 L216 319 C231 379 209 419 152 419 C113 419 68 399 25 372 L24 365 C42 376 69 390 89 390 C110 390 117 374 111 344 L32 0 Z M193 473 C277 513 365 544 392 565 C416 583 423 613 407 633 C393 652 362 654 334 632 C308 611 252 541 191 475 L193 473 Z " />
<glyph glyph-name="uni0156" unicode="&#x156;" horiz-adv-x="685" d="M-27 0 L270 0 L272 6 C196 6 189 29 206 100 L252 300 L330 300 C428 299 424 241 427 127 C427 67 430 17 436 0 L624 0 L625 6 C567 6 555 28 549 93 C535 236 569 299 367 301 L368 304 C478 308 651 339 651 477 C651 574 566 618 418 618 L116 618 L114 611 C189 611 196 588 180 517 L83 100 C67 29 50 6 -26 6 L-27 0 Z M254 307 L324 610 L397 610 C487 610 526 565 526 490 C526 396 465 307 331 307 L254 307 Z M191 -319 C304 -282 366 -203 366 -145 C366 -108 341 -82 305 -82 C268 -82 241 -108 241 -141 C241 -171 263 -197 297 -197 C306 -197 314 -195 321 -192 C304 -246 246 -295 189 -314 L191 -319 Z " />
<glyph glyph-name="uni0157" unicode="&#x157;" horiz-adv-x="411" d="M32 0 L145 0 L204 256 C228 306 260 350 295 363 C295 359 294 355 294 351 C294 314 323 285 357 285 C392 285 421 314 421 352 C421 387 396 419 356 419 C294 419 239 344 205 271 L216 319 C231 379 209 419 152 419 C113 419 68 399 25 372 L24 365 C42 376 69 390 89 390 C110 390 117 374 111 344 L32 0 Z M-56 -319 C57 -282 119 -203 119 -145 C119 -108 94 -82 58 -82 C21 -82 -6 -108 -6 -141 C-6 -171 16 -197 50 -197 C59 -197 67 -195 74 -192 C57 -246 -1 -295 -58 -314 L-56 -319 Z " />
<glyph glyph-name="Rcaron" unicode="&#x158;" horiz-adv-x="685" d="M-27 0 L270 0 L272 6 C196 6 189 29 206 100 L252 300 L330 300 C428 299 424 241 427 127 C427 67 430 17 436 0 L624 0 L625 6 C567 6 555 28 549 93 C535 236 569 299 367 301 L368 304 C478 308 651 339 651 477 C651 574 566 618 418 618 L116 618 L114 611 C189 611 196 588 180 517 L83 100 C67 29 50 6 -26 6 L-27 0 Z M254 307 L324 610 L397 610 C487 610 526 565 526 490 C526 396 465 307 331 307 L254 307 Z M405 665 C421 665 434 672 446 685 L591 829 L589 831 L425 751 L298 831 L296 829 L374 685 C381 672 390 665 405 665 L405 665 Z " />
<glyph glyph-name="rcaron" unicode="&#x159;" horiz-adv-x="411" d="M32 0 L145 0 L204 256 C228 306 260 350 295 363 C295 359 294 355 294 351 C294 314 323 285 357 285 C392 285 421 314 421 352 C421 387 396 419 356 419 C294 419 239 344 205 271 L216 319 C231 379 209 419 152 419 C113 419 68 399 25 372 L24 365 C42 376 69 390 89 390 C110 390 117 374 111 344 L32 0 Z M247 465 C263 465 276 472 288 485 L433 629 L431 631 L267 551 L140 631 L138 629 L216 485 C223 472 232 465 247 465 L247 465 Z " />
<glyph glyph-name="Sacute" unicode="&#x15a;" horiz-adv-x="564" d="M231 -12 C427 -12 495 79 495 180 C495 392 203 352 203 501 C203 565 257 623 355 623 C463 623 502 552 520 430 L525 431 L559 625 C489 610 432 630 351 630 C186 630 110 544 110 444 C110 249 397 289 397 131 C397 65 347 -6 230 -6 C89 -6 68 96 52 203 L47 202 L13 14 C67 2 154 -12 231 -12 L231 -12 Z M305 673 C390 713 477 744 505 765 C528 783 536 813 520 833 C505 852 475 854 447 832 C421 811 364 741 303 675 L305 673 Z " />
<glyph glyph-name="sacute" unicode="&#x15b;" horiz-adv-x="428" d="M163 -11 C271 -11 357 49 357 132 C357 264 144 241 144 335 C144 378 188 413 247 413 C297 413 317 388 327 363 C305 358 289 338 289 314 C289 285 311 261 340 261 C372 261 393 290 393 320 C393 367 339 419 241 419 C135 419 60 359 60 280 C60 148 271 173 271 77 C271 33 226 -5 159 -5 C105 -5 83 18 72 45 C94 51 110 71 110 97 C110 127 89 151 58 151 C24 151 3 120 3 91 C3 44 61 -11 163 -11 L163 -11 Z M192 473 C277 513 364 544 392 565 C415 583 423 613 407 633 C392 652 362 654 334 632 C308 611 251 541 190 475 L192 473 Z " />
<glyph glyph-name="Scircumflex" unicode="&#x15c;" horiz-adv-x="564" d="M231 -12 C427 -12 495 79 495 180 C495 392 203 352 203 501 C203 565 257 623 355 623 C463 623 502 552 520 430 L525 431 L559 625 C489 610 432 630 351 630 C186 630 110 544 110 444 C110 249 397 289 397 131 C397 65 347 -6 230 -6 C89 -6 68 96 52 203 L47 202 L13 14 C67 2 154 -12 231 -12 L231 -12 Z M222 666 L386 746 L513 666 L515 668 L437 812 C431 825 421 832 406 832 C390 832 377 825 365 812 L220 668 L222 666 Z " />
<glyph glyph-name="scircumflex" unicode="&#x15d;" horiz-adv-x="428" d="M163 -11 C271 -11 357 49 357 132 C357 264 144 241 144 335 C144 378 188 413 247 413 C297 413 317 388 327 363 C305 358 289 338 289 314 C289 285 311 261 340 261 C372 261 393 290 393 320 C393 367 339 419 241 419 C135 419 60 359 60 280 C60 148 271 173 271 77 C271 33 226 -5 159 -5 C105 -5 83 18 72 45 C94 51 110 71 110 97 C110 127 89 151 58 151 C24 151 3 120 3 91 C3 44 61 -11 163 -11 L163 -11 Z M113 466 L276 546 L404 466 L406 468 L328 612 C321 625 312 632 296 632 C281 632 267 625 255 612 L111 468 L113 466 Z " />
<glyph glyph-name="Scedilla" unicode="&#x15e;" horiz-adv-x="564" d="M170 -219 C240 -219 315 -190 315 -126 C315 -77 270 -57 213 -57 C191 -57 174 -60 160 -64 L220 -12 L231 -12 C427 -12 495 79 495 180 C495 392 203 352 203 501 C203 565 257 623 355 623 C463 623 502 552 520 430 L525 431 L559 625 C489 610 432 630 351 630 C186 630 110 544 110 444 C110 249 397 289 397 131 C397 65 347 -6 230 -6 C89 -6 68 96 52 203 L47 202 L13 14 C62 3 138 -10 210 -12 L137 -75 L139 -77 C150 -73 164 -69 178 -69 C215 -69 228 -95 228 -125 C228 -169 198 -204 140 -204 C109 -204 74 -194 58 -182 L54 -187 C77 -206 122 -219 170 -219 L170 -219 Z " />
<glyph glyph-name="scedilla" unicode="&#x15f;" horiz-adv-x="428" d="M94 -219 C165 -219 239 -190 239 -126 C239 -77 195 -57 138 -57 C116 -57 99 -60 85 -64 L146 -11 C151 -11 157 -11 163 -11 C271 -11 357 49 357 132 C357 264 144 241 144 335 C144 378 188 413 247 413 C297 413 317 388 327 363 C305 358 289 338 289 314 C289 285 311 261 340 261 C372 261 393 290 393 320 C393 367 339 419 241 419 C135 419 60 359 60 280 C60 148 271 173 271 77 C271 33 226 -5 159 -5 C105 -5 83 18 72 45 C94 51 110 71 110 97 C110 127 89 151 58 151 C24 151 3 120 3 91 C3 48 50 -2 136 -10 L61 -75 L63 -77 C74 -73 88 -69 102 -69 C139 -69 153 -95 153 -125 C153 -169 122 -204 64 -204 C33 -204 -2 -194 -17 -182 L-22 -187 C1 -206 47 -219 94 -219 L94 -219 Z " />
<glyph glyph-name="Scaron" unicode="&#x160;" horiz-adv-x="564" d="M231 -12 C427 -12 495 79 495 180 C495 392 203 352 203 501 C203 565 257 623 355 623 C463 623 502 552 520 430 L525 431 L559 625 C489 610 432 630 351 630 C186 630 110 544 110 444 C110 249 397 289 397 131 C397 65 347 -6 230 -6 C89 -6 68 96 52 203 L47 202 L13 14 C67 2 154 -12 231 -12 L231 -12 Z M373 675 C388 675 402 682 414 695 L558 839 L557 841 L393 761 L266 841 L264 839 L342 695 C348 682 357 675 373 675 L373 675 Z " />
<glyph glyph-name="scaron" unicode="&#x161;" horiz-adv-x="428" d="M163 -11 C271 -11 357 49 357 132 C357 264 144 241 144 335 C144 378 188 413 247 413 C297 413 317 388 327 363 C305 358 289 338 289 314 C289 285 311 261 340 261 C372 261 393 290 393 320 C393 367 339 419 241 419 C135 419 60 359 60 280 C60 148 271 173 271 77 C271 33 226 -5 159 -5 C105 -5 83 18 72 45 C94 51 110 71 110 97 C110 127 89 151 58 151 C24 151 3 120 3 91 C3 44 61 -11 163 -11 L163 -11 Z M259 465 C274 465 288 472 300 485 L444 629 L443 631 L279 551 L152 631 L150 629 L228 485 C234 472 243 465 259 465 L259 465 Z " />
<glyph glyph-name="uni0162" unicode="&#x162;" horiz-adv-x="639" d="M206 -209 C276 -209 351 -180 351 -116 C351 -67 306 -47 249 -47 C227 -47 210 -50 196 -54 L258 0 L421 0 L423 6 C347 6 330 28 348 105 L465 610 L472 610 C621 610 634 511 640 400 L645 401 L678 618 L132 618 L65 401 L71 400 C126 511 186 610 335 610 L342 610 L226 105 C208 28 181 6 105 6 L103 0 L247 0 L173 -65 L175 -67 C186 -63 200 -59 214 -59 C251 -59 264 -85 264 -115 C264 -159 234 -194 176 -194 C145 -194 110 -184 94 -172 L90 -177 C113 -196 158 -209 206 -209 L206 -209 Z " />
<glyph glyph-name="uni0163" unicode="&#x163;" horiz-adv-x="333" d="M81 -219 C151 -219 226 -190 226 -126 C226 -77 181 -57 124 -57 C102 -57 85 -60 71 -64 L133 -10 C204 -13 259 31 302 73 L298 77 C271 50 235 21 197 21 C161 21 149 48 160 97 L229 396 L351 396 L354 408 L232 408 L261 535 L145 514 L120 408 L52 408 L49 396 L118 396 L52 112 C35 37 65 -3 123 -9 L48 -75 L50 -77 C61 -73 75 -69 89 -69 C126 -69 139 -95 139 -125 C139 -169 109 -204 51 -204 C20 -204 -15 -194 -31 -182 L-35 -187 C-12 -206 33 -219 81 -219 L81 -219 Z " />
<glyph glyph-name="Tcaron" unicode="&#x164;" horiz-adv-x="639" d="M103 0 L421 0 L423 6 C347 6 330 28 348 105 L465 610 L472 610 C621 610 634 511 640 400 L645 401 L678 618 L132 618 L65 401 L71 400 C126 511 186 610 335 610 L342 610 L226 105 C208 28 181 6 105 6 L103 0 Z M413 665 C428 665 442 672 454 685 L598 829 L597 831 L433 751 L306 831 L304 829 L382 685 C388 672 397 665 413 665 L413 665 Z " />
<glyph glyph-name="tcaron" unicode="&#x165;" horiz-adv-x="333" d="M317 471 C374 535 428 588 445 615 C460 641 457 668 434 678 C408 689 382 672 369 647 C353 619 340 556 314 472 L317 471 Z M139 -10 C209 -10 262 34 302 73 L298 77 C271 50 235 21 197 21 C161 21 149 48 160 97 L229 396 L351 396 L354 408 L232 408 L261 535 L145 514 L120 408 L52 408 L49 396 L118 396 L52 112 C33 31 71 -10 139 -10 L139 -10 Z " />
<glyph glyph-name="Tbar" unicode="&#x166;" horiz-adv-x="641" d="M103 0 L421 0 L423 6 C347 6 330 28 348 105 L393 298 L529 298 L531 307 L395 307 L465 610 L472 610 C621 610 634 511 640 400 L645 401 L678 618 L132 618 L65 401 L71 400 C126 511 186 610 335 610 L342 610 L272 307 L136 307 L134 298 L270 298 L226 105 C208 28 181 6 105 6 L103 0 Z " />
<glyph glyph-name="tbar" unicode="&#x167;" horiz-adv-x="335" d="M141 -10 C212 -10 265 34 305 73 L301 77 C273 50 238 21 199 21 C163 21 151 48 163 97 L195 238 L309 238 L311 247 L197 247 L232 396 L354 396 L356 408 L235 408 L264 535 L147 514 L123 408 L54 408 L52 396 L120 396 L86 247 L23 247 L21 238 L84 238 L55 112 C36 31 73 -10 141 -10 L141 -10 Z " />
<glyph glyph-name="Utilde" unicode="&#x168;" horiz-adv-x="688" d="M288 -12 C429 -12 524 62 557 203 L584 316 C640 553 661 611 773 611 L774 618 L522 618 L520 611 C630 611 632 559 574 316 L548 203 C517 71 429 3 324 3 C214 3 190 76 215 187 L290 509 C306 580 325 611 401 611 L402 618 L105 618 L103 611 C179 611 184 580 167 509 L98 209 C61 46 161 -12 288 -12 L288 -12 Z M316 686 L321 686 C331 713 346 749 389 749 C443 749 486 693 537 693 C600 693 624 771 644 833 L639 834 C629 806 615 771 572 771 C518 771 475 827 423 827 C357 827 333 740 316 686 L316 686 Z " />
<glyph glyph-name="utilde" unicode="&#x169;" horiz-adv-x="559" d="M138 -9 C208 -9 276 44 319 81 C312 23 335 -10 387 -10 C427 -10 471 10 514 37 L515 44 C497 33 471 19 451 19 C429 19 422 35 429 65 L507 410 L395 410 L321 91 C291 65 251 32 208 32 C168 32 153 61 165 114 L213 319 C227 379 205 419 147 419 C107 419 63 399 20 372 L19 365 C37 376 63 390 83 390 C105 390 112 374 105 344 L55 123 C34 28 78 -9 138 -9 L138 -9 Z M165 486 L170 486 C180 513 195 549 238 549 C292 549 335 493 386 493 C449 493 473 571 493 633 L488 634 C478 606 464 571 421 571 C367 571 324 627 272 627 C206 627 182 540 165 486 L165 486 Z " />
<glyph glyph-name="Umacron" unicode="&#x16a;" horiz-adv-x="688" d="M288 -12 C429 -12 524 62 557 203 L584 316 C640 553 661 611 773 611 L774 618 L522 618 L520 611 C630 611 632 559 574 316 L548 203 C517 71 429 3 324 3 C214 3 190 76 215 187 L290 509 C306 580 325 611 401 611 L402 618 L105 618 L103 611 C179 611 184 580 167 509 L98 209 C61 46 161 -12 288 -12 L288 -12 Z M322 700 L600 700 L608 734 L330 734 L322 700 Z " />
<glyph glyph-name="umacron" unicode="&#x16b;" horiz-adv-x="559" d="M138 -9 C208 -9 276 44 319 81 C312 23 335 -10 387 -10 C427 -10 471 10 514 37 L515 44 C497 33 471 19 451 19 C429 19 422 35 429 65 L507 410 L395 410 L321 91 C291 65 251 32 208 32 C168 32 153 61 165 114 L213 319 C227 379 205 419 147 419 C107 419 63 399 20 372 L19 365 C37 376 63 390 83 390 C105 390 112 374 105 344 L55 123 C34 28 78 -9 138 -9 L138 -9 Z M176 500 L455 500 L463 534 L184 534 L176 500 Z " />
<glyph glyph-name="Ubreve" unicode="&#x16c;" horiz-adv-x="688" d="M288 -12 C429 -12 524 62 557 203 L584 316 C640 553 661 611 773 611 L774 618 L522 618 L520 611 C630 611 632 559 574 316 L548 203 C517 71 429 3 324 3 C214 3 190 76 215 187 L290 509 C306 580 325 611 401 611 L402 618 L105 618 L103 611 C179 611 184 580 167 509 L98 209 C61 46 161 -12 288 -12 L288 -12 Z M462 676 C555 676 600 777 615 840 L613 840 C595 802 557 757 477 757 C398 757 379 801 379 840 L376 840 C362 783 365 676 462 676 L462 676 Z " />
<glyph glyph-name="ubreve" unicode="&#x16d;" horiz-adv-x="559" d="M138 -9 C208 -9 276 44 319 81 C312 23 335 -10 387 -10 C427 -10 471 10 514 37 L515 44 C497 33 471 19 451 19 C429 19 422 35 429 65 L507 410 L395 410 L321 91 C291 65 251 32 208 32 C168 32 153 61 165 114 L213 319 C227 379 205 419 147 419 C107 419 63 399 20 372 L19 365 C37 376 63 390 83 390 C105 390 112 374 105 344 L55 123 C34 28 78 -9 138 -9 L138 -9 Z M309 476 C403 476 448 577 463 640 L460 640 C443 602 405 557 325 557 C246 557 226 601 226 640 L224 640 C209 583 213 476 309 476 L309 476 Z " />
<glyph glyph-name="Uring" unicode="&#x16e;" horiz-adv-x="688" d="M288 -12 C429 -12 524 62 557 203 L584 316 C640 553 661 611 773 611 L774 618 L522 618 L520 611 C630 611 632 559 574 316 L548 203 C517 71 429 3 324 3 C214 3 190 76 215 187 L290 509 C306 580 325 611 401 611 L402 618 L105 618 L103 611 C179 611 184 580 167 509 L98 209 C61 46 161 -12 288 -12 L288 -12 Z M463 664 C537 664 595 717 595 777 C595 832 546 861 492 861 C418 861 361 808 361 747 C361 693 409 664 463 664 L463 664 Z M459 668 C439 668 429 686 429 717 C429 763 452 856 496 856 C516 856 526 838 526 807 C526 760 502 668 459 668 L459 668 Z " />
<glyph glyph-name="uring" unicode="&#x16f;" horiz-adv-x="559" d="M138 -9 C208 -9 276 44 319 81 C312 23 335 -10 387 -10 C427 -10 471 10 514 37 L515 44 C497 33 471 19 451 19 C429 19 422 35 429 65 L507 410 L395 410 L321 91 C291 65 251 32 208 32 C168 32 153 61 165 114 L213 319 C227 379 205 419 147 419 C107 419 63 399 20 372 L19 365 C37 376 63 390 83 390 C105 390 112 374 105 344 L55 123 C34 28 78 -9 138 -9 L138 -9 Z M313 464 C387 464 445 517 445 577 C445 632 396 661 342 661 C268 661 211 608 211 547 C211 493 259 464 313 464 L313 464 Z M309 468 C289 468 279 486 279 517 C279 563 302 656 346 656 C366 656 376 638 376 607 C376 560 352 468 309 468 L309 468 Z " />
<glyph glyph-name="Uhungarumlaut" unicode="&#x170;" horiz-adv-x="688" d="M288 -12 C429 -12 524 62 557 203 L584 316 C640 553 661 611 773 611 L774 618 L522 618 L520 611 C630 611 632 559 574 316 L548 203 C517 71 429 3 324 3 C214 3 190 76 215 187 L290 509 C306 580 325 611 401 611 L402 618 L105 618 L103 611 C179 611 184 580 167 509 L98 209 C61 46 161 -12 288 -12 L288 -12 Z M333 671 C405 722 469 761 491 784 C514 808 510 833 495 845 C479 859 451 854 432 833 C411 811 377 746 331 672 L333 671 Z M495 671 C567 722 631 761 653 784 C676 808 672 833 657 845 C641 859 613 854 594 833 C573 811 539 746 493 672 L495 671 Z " />
<glyph glyph-name="uhungarumlaut" unicode="&#x171;" horiz-adv-x="559" d="M138 -9 C208 -9 276 44 319 81 C312 23 335 -10 387 -10 C427 -10 471 10 514 37 L515 44 C497 33 471 19 451 19 C429 19 422 35 429 65 L507 410 L395 410 L321 91 C291 65 251 32 208 32 C168 32 153 61 165 114 L213 319 C227 379 205 419 147 419 C107 419 63 399 20 372 L19 365 C37 376 63 390 83 390 C105 390 112 374 105 344 L55 123 C34 28 78 -9 138 -9 L138 -9 Z M184 471 C256 522 320 561 342 584 C365 608 361 633 346 645 C330 659 302 654 283 633 C262 611 228 546 182 472 L184 471 Z M346 471 C418 522 482 561 504 584 C527 608 523 633 508 645 C492 659 464 654 445 633 C424 611 390 546 344 472 L346 471 Z " />
<glyph glyph-name="Uogonek" unicode="&#x172;" horiz-adv-x="688" d="M271 -216 C312 -216 354 -204 385 -192 L384 -187 C372 -191 350 -195 332 -195 C293 -195 269 -178 269 -132 C269 -49 350 -15 392 2 C463 32 529 84 557 203 L584 316 C640 548 659 611 773 611 L774 618 L522 618 L520 611 C631 611 631 556 574 316 L548 203 C518 74 432 3 324 3 C214 3 190 76 215 187 L290 509 C306 580 325 611 401 611 L402 618 L105 618 L103 611 C179 611 184 580 167 509 L98 209 C61 46 161 -12 287 -12 C310 -12 330 -10 349 -7 C277 -35 174 -76 174 -149 C174 -195 216 -216 271 -216 L271 -216 Z " />
<glyph glyph-name="uogonek" unicode="&#x173;" horiz-adv-x="559" d="M321 -216 C362 -216 404 -204 435 -192 L434 -187 C423 -190 405 -195 383 -195 C342 -195 319 -178 319 -134 C319 -61 384 -25 431 -2 C460 4 488 20 514 37 L515 44 C497 33 471 19 451 19 C429 19 422 35 429 65 L507 410 L395 410 L321 91 C291 65 251 32 208 32 C168 32 153 61 165 114 L213 319 C227 379 205 419 147 419 C107 419 63 399 20 372 L19 365 C37 376 63 390 83 390 C105 390 112 374 105 344 L55 123 C34 28 78 -9 138 -9 C208 -9 276 44 319 81 C317 55 329 38 357 36 C356 8 370 -8 396 -9 C324 -36 224 -78 224 -149 C224 -195 266 -216 321 -216 L321 -216 Z " />
<glyph glyph-name="Wcircumflex" unicode="&#x174;" horiz-adv-x="951" d="M250 -5 L255 -5 L523 428 L586 -5 L592 -5 L809 352 C861 439 897 503 931 542 C969 586 1013 611 1067 611 L1069 618 L822 618 L820 611 C869 611 889 592 889 558 C889 523 862 459 801 357 L680 154 L639 486 C631 559 651 611 728 611 L729 618 L422 618 L421 611 C483 611 507 555 517 480 L521 442 L341 147 L284 496 C273 566 290 611 363 611 L365 618 L66 618 L65 611 C139 611 153 540 163 480 L250 -5 Z M435 666 L599 746 L726 666 L728 668 L650 812 C644 825 634 832 619 832 C603 832 590 825 578 812 L433 668 L435 666 Z " />
<glyph glyph-name="wcircumflex" unicode="&#x175;" horiz-adv-x="677" d="M160 -8 C234 48 305 113 357 176 L388 -7 L392 -8 C542 105 655 257 655 345 C655 381 637 419 592 419 C552 419 525 389 525 354 C525 320 552 293 588 293 C596 293 604 294 610 297 C606 218 542 131 474 66 L427 408 L318 408 L354 191 C325 145 283 101 243 64 L201 363 C196 398 175 419 135 419 C95 419 50 399 7 372 L6 365 C24 376 49 390 67 390 C82 390 89 380 92 364 L156 -7 L160 -8 Z M238 466 L401 546 L529 466 L531 468 L453 612 C446 625 437 632 421 632 C406 632 392 625 380 612 L236 468 L238 466 Z " />
<glyph glyph-name="Ycircumflex" unicode="&#x176;" horiz-adv-x="643" d="M108 0 L425 0 L427 6 C347 6 337 43 355 120 L392 283 L480 389 C551 477 589 521 618 548 C658 587 702 611 761 611 L762 618 L507 618 L506 611 C559 611 578 592 578 566 C578 533 545 484 473 395 L388 289 L385 289 L310 501 C286 569 309 611 379 611 L380 618 L76 618 L75 611 C131 611 160 559 183 495 L266 267 L233 120 C215 43 190 6 109 6 L108 0 Z M296 666 L460 746 L587 666 L589 668 L511 812 C505 825 495 832 480 832 C464 832 451 825 439 812 L294 668 L296 666 Z " />
<glyph glyph-name="ycircumflex" unicode="&#x177;" horiz-adv-x="462" d="M-65 -174 C16 -174 83 -74 131 -37 L173 -2 C318 109 441 258 441 346 C441 380 423 419 378 419 C338 419 311 389 311 354 C311 320 338 293 374 293 C382 293 390 295 396 297 C390 218 319 131 249 67 L204 363 C199 398 176 419 135 419 C95 419 51 399 8 372 L7 365 C25 376 50 390 68 390 C83 390 90 380 93 364 L160 -2 L129 -27 C44 -94 -110 -59 -110 -138 C-110 -160 -93 -174 -65 -174 L-65 -174 Z M133 466 L296 546 L424 466 L426 468 L348 612 C341 625 332 632 316 632 C301 632 287 625 275 612 L131 468 L133 466 Z " />
<glyph glyph-name="Ydieresis" unicode="&#x178;" horiz-adv-x="643" d="M108 0 L425 0 L427 6 C347 6 337 43 355 120 L392 283 L480 389 C551 477 589 521 618 548 C658 587 702 611 761 611 L762 618 L507 618 L506 611 C559 611 578 592 578 566 C578 533 545 484 473 395 L388 289 L385 289 L310 501 C286 569 309 611 379 611 L380 618 L76 618 L75 611 C131 611 160 559 183 495 L266 267 L233 120 C215 43 190 6 109 6 L108 0 Z M370 691 C402 691 430 718 430 752 C430 786 402 813 369 813 C335 813 309 785 309 752 C309 718 337 691 370 691 L370 691 Z M547 691 C580 691 608 718 608 752 C608 786 580 813 547 813 C513 813 487 785 487 752 C487 718 514 691 547 691 L547 691 Z " />
<glyph glyph-name="Zacute" unicode="&#x179;" horiz-adv-x="604" d="M-23 0 L485 0 L552 211 L546 212 C497 117 416 8 304 8 L131 8 L642 616 L641 618 L151 618 L89 412 L94 412 C145 512 227 610 335 610 L488 610 L-24 2 L-23 0 Z M323 673 C407 713 495 744 522 765 C546 783 553 813 537 833 C523 852 492 854 464 832 C438 811 382 741 321 675 L323 673 Z " />
<glyph glyph-name="zacute" unicode="&#x17a;" horiz-adv-x="453" d="M34 -8 C93 -8 112 54 111 95 C179 61 180 -11 253 -11 C337 -11 370 91 384 156 L381 157 C360 99 325 86 270 86 C207 86 157 101 109 105 L335 301 L346 301 C412 301 448 331 449 369 C449 392 435 415 399 415 C346 415 320 363 322 312 C251 345 249 419 179 419 C96 419 62 315 48 251 L52 251 C72 306 100 322 159 322 C217 322 274 306 324 302 L98 106 C95 106 91 106 87 106 C21 106 -16 76 -16 39 C-17 15 -2 -8 34 -8 L34 -8 Z M219 473 C304 513 391 544 419 565 C442 583 450 613 434 633 C419 652 389 654 361 632 C335 611 278 541 217 475 L219 473 Z " />
<glyph glyph-name="Zdotaccent" unicode="&#x17b;" horiz-adv-x="604" d="M-23 0 L485 0 L552 211 L546 212 C497 117 416 8 304 8 L131 8 L642 616 L641 618 L151 618 L89 412 L94 412 C145 512 227 610 335 610 L488 610 L-24 2 L-23 0 Z M408 691 C443 691 472 720 472 755 C472 790 443 819 408 819 C373 819 344 790 344 755 C344 720 373 691 408 691 L408 691 Z " />
<glyph glyph-name="zdotaccent" unicode="&#x17c;" horiz-adv-x="453" d="M34 -8 C93 -8 112 54 111 95 C179 61 180 -11 253 -11 C337 -11 370 91 384 156 L381 157 C360 99 325 86 270 86 C207 86 157 101 109 105 L335 301 L346 301 C412 301 448 331 449 369 C449 392 435 415 399 415 C346 415 320 363 322 312 C251 345 249 419 179 419 C96 419 62 315 48 251 L52 251 C72 306 100 322 159 322 C217 322 274 306 324 302 L98 106 C95 106 91 106 87 106 C21 106 -16 76 -16 39 C-17 15 -2 -8 34 -8 L34 -8 Z M305 491 C340 491 369 520 369 555 C369 590 340 619 305 619 C269 619 241 590 241 555 C241 520 269 491 305 491 L305 491 Z " />
<glyph glyph-name="Zcaron" unicode="&#x17d;" horiz-adv-x="604" d="M-23 0 L485 0 L552 211 L546 212 C497 117 416 8 304 8 L131 8 L642 616 L641 618 L151 618 L89 412 L94 412 C145 512 227 610 335 610 L488 610 L-24 2 L-23 0 Z M397 665 C413 665 426 672 438 685 L583 829 L581 831 L417 751 L290 831 L288 829 L366 685 C373 672 382 665 397 665 L397 665 Z " />
<glyph glyph-name="zcaron" unicode="&#x17e;" horiz-adv-x="453" d="M34 -8 C93 -8 112 54 111 95 C179 61 180 -11 253 -11 C337 -11 370 91 384 156 L381 157 C360 99 325 86 270 86 C207 86 157 101 109 105 L335 301 L346 301 C412 301 448 331 449 369 C449 392 435 415 399 415 C346 415 320 363 322 312 C251 345 249 419 179 419 C96 419 62 315 48 251 L52 251 C72 306 100 322 159 322 C217 322 274 306 324 302 L98 106 C95 106 91 106 87 106 C21 106 -16 76 -16 39 C-17 15 -2 -8 34 -8 L34 -8 Z M278 465 C294 465 307 472 319 485 L464 629 L462 631 L298 551 L171 631 L169 629 L247 485 C254 472 263 465 278 465 L278 465 Z " />
<glyph glyph-name="AEacute" unicode="&#x1fc;" horiz-adv-x="976" d="M-98 0 L179 0 L180 6 C67 6 101 96 196 198 L216 221 L466 221 L439 100 C422 29 405 6 330 6 L328 0 L848 0 L914 206 L908 207 C856 102 789 7 620 7 L540 7 L608 304 L631 304 C751 304 788 259 784 167 L789 167 L854 450 L849 450 C810 357 753 312 633 312 L610 312 L679 610 L750 610 C911 610 949 540 948 424 L953 425 L985 618 L471 618 L469 611 C511 611 532 603 539 583 L189 205 C105 115 5 6 -96 6 L-98 0 Z M225 230 L541 574 C544 560 541 542 535 517 L469 230 L225 230 Z M646 673 C730 713 818 744 845 765 C869 783 876 813 860 833 C846 852 815 854 787 832 C761 811 705 741 644 675 L646 673 Z " />
<glyph glyph-name="aeacute" unicode="&#x1fd;" horiz-adv-x="753" d="M153 -11 C227 -11 290 14 336 58 C360 17 403 -11 473 -11 C580 -11 648 52 689 100 L684 104 C648 61 591 12 522 12 C447 12 415 68 415 145 C415 165 417 186 421 209 C523 200 722 201 722 313 C722 375 660 419 571 419 C502 419 436 391 389 344 C364 389 318 419 244 419 C143 419 62 368 62 309 C62 278 84 245 121 245 C155 245 181 271 181 305 C181 330 165 354 142 363 C157 389 183 413 225 413 C304 413 313 325 313 280 C313 257 311 234 308 213 C212 209 1 203 1 88 C1 25 63 -11 153 -11 L153 -11 Z M167 -5 C130 -5 107 20 107 67 C107 165 216 201 308 205 C292 87 238 -5 167 -5 L167 -5 Z M568 412 C606 412 619 385 619 346 C619 243 524 211 423 216 C443 312 498 412 568 412 L568 412 Z M364 473 C448 513 536 544 563 565 C587 583 594 613 578 633 C564 652 533 654 505 632 C479 611 423 541 362 475 L364 473 Z " />
<glyph glyph-name="Oslashacute" unicode="&#x1fe;" horiz-adv-x="752" d="M333 -12 C550 -12 727 166 727 365 C727 443 700 507 653 552 L738 632 L732 639 L647 558 C598 604 528 630 446 630 C228 630 52 451 52 253 C52 175 79 111 126 65 L41 -16 L47 -22 L132 59 C182 13 251 -12 333 -12 L333 -12 Z M322 -4 C247 -4 205 40 188 111 L594 495 C600 474 603 450 603 425 C603 234 498 -4 322 -4 L322 -4 Z M458 621 C534 621 575 577 591 506 L186 122 C179 143 177 167 177 193 C177 378 277 621 458 621 L458 621 Z M401 683 C485 723 573 754 600 775 C624 793 631 823 615 843 C601 862 570 864 542 842 C516 821 460 751 399 685 L401 683 Z " />
<glyph glyph-name="oslashacute" unicode="&#x1ff;" horiz-adv-x="526" d="M258 473 C342 513 430 544 457 565 C481 583 488 613 472 633 C458 652 427 654 399 632 C373 611 317 541 256 475 L258 473 Z M212 -11 C344 -11 482 92 482 242 C482 297 463 338 434 366 L494 422 L489 427 L429 371 C392 404 340 419 292 419 C160 419 23 315 23 166 C23 111 41 70 70 42 L10 -14 L15 -19 L75 37 C111 4 161 -11 212 -11 L212 -11 Z M207 -3 C156 -3 141 48 137 91 L368 309 C375 202 320 -3 207 -3 L207 -3 Z M298 411 C350 411 364 362 368 318 L136 100 C129 207 187 411 298 411 L298 411 Z " />
<glyph glyph-name="uni0218" unicode="&#x218;" horiz-adv-x="564" d="M231 -12 C427 -12 495 79 495 180 C495 392 203 352 203 501 C203 565 257 623 355 623 C463 623 502 552 520 430 L525 431 L559 625 C489 610 432 630 351 630 C186 630 110 544 110 444 C110 249 397 289 397 131 C397 65 347 -6 230 -6 C89 -6 68 96 52 203 L47 202 L13 14 C67 2 154 -12 231 -12 L231 -12 Z M81 -319 C194 -282 256 -203 256 -145 C256 -108 231 -82 195 -82 C158 -82 132 -108 132 -141 C132 -171 154 -197 187 -197 C196 -197 204 -195 211 -192 C195 -246 137 -295 79 -314 L81 -319 Z " />
<glyph glyph-name="uni0219" unicode="&#x219;" horiz-adv-x="428" d="M163 -11 C271 -11 357 49 357 132 C357 264 144 241 144 335 C144 378 188 413 247 413 C297 413 317 388 327 363 C305 358 289 338 289 314 C289 285 311 261 340 261 C372 261 393 290 393 320 C393 367 339 419 241 419 C135 419 60 359 60 280 C60 148 271 173 271 77 C271 33 226 -5 159 -5 C105 -5 83 18 72 45 C94 51 110 71 110 97 C110 127 89 151 58 151 C24 151 3 120 3 91 C3 44 61 -11 163 -11 L163 -11 Z M13 -319 C126 -282 188 -203 188 -145 C188 -108 163 -82 127 -82 C90 -82 63 -108 63 -141 C63 -171 85 -197 119 -197 C128 -197 136 -195 143 -192 C126 -246 68 -295 11 -314 L13 -319 Z " />
<glyph glyph-name="uni021A" unicode="&#x21a;" horiz-adv-x="639" d="M103 0 L421 0 L423 6 C347 6 330 28 348 105 L465 610 L472 610 C621 610 634 511 640 400 L645 401 L678 618 L132 618 L65 401 L71 400 C126 511 186 610 335 610 L342 610 L226 105 C208 28 181 6 105 6 L103 0 Z M121 -319 C234 -282 296 -203 296 -145 C296 -108 271 -82 235 -82 C198 -82 172 -108 172 -141 C172 -171 194 -197 227 -197 C236 -197 244 -195 251 -192 C235 -246 177 -295 119 -314 L121 -319 Z " />
<glyph glyph-name="uni021B" unicode="&#x21b;" horiz-adv-x="333" d="M139 -10 C209 -10 262 34 302 73 L298 77 C271 50 235 21 197 21 C161 21 149 48 160 97 L229 396 L351 396 L354 408 L232 408 L261 535 L145 514 L120 408 L52 408 L49 396 L118 396 L52 112 C33 31 71 -10 139 -10 L139 -10 Z M-8 -319 C105 -282 167 -203 167 -145 C167 -108 142 -82 106 -82 C69 -82 42 -108 42 -141 C42 -171 64 -197 98 -197 C107 -197 115 -195 122 -192 C105 -246 47 -295 -10 -314 L-8 -319 Z " />
<glyph glyph-name="circumflex" unicode="&#x2c6;" horiz-adv-x="442" d="M184 466 L348 546 L475 466 L477 468 L399 612 C393 625 383 632 368 632 C352 632 339 625 327 612 L182 468 L184 466 Z " />
<glyph glyph-name="caron" unicode="&#x2c7;" horiz-adv-x="433" d="M329 465 C344 465 358 472 370 485 L514 629 L513 631 L349 551 L222 631 L220 629 L298 485 C304 472 313 465 329 465 L329 465 Z " />
<glyph glyph-name="breve" unicode="&#x2d8;" horiz-adv-x="353" d="M292 476 C386 476 431 577 446 640 L443 640 C426 602 388 557 308 557 C229 557 209 601 209 640 L207 640 C192 583 196 476 292 476 L292 476 Z " />
<glyph glyph-name="dotaccent" unicode="&#x2d9;" horiz-adv-x="292" d="M279 491 C314 491 343 520 343 555 C343 590 314 619 279 619 C243 619 215 590 215 555 C215 520 243 491 279 491 L279 491 Z " />
<glyph glyph-name="ring" unicode="&#x2da;" horiz-adv-x="329" d="M280 464 C353 464 412 517 412 577 C412 632 363 661 308 661 C235 661 177 608 177 547 C177 493 225 464 280 464 L280 464 Z M276 468 C256 468 246 486 246 517 C246 563 268 656 312 656 C332 656 342 638 342 607 C342 560 319 468 276 468 L276 468 Z " />
<glyph glyph-name="ogonek" unicode="&#x2db;" horiz-adv-x="343" d="M128 -216 C169 -216 211 -204 242 -192 L241 -187 C230 -190 212 -195 190 -195 C149 -195 126 -178 126 -134 C126 -55 203 -19 252 4 L250 9 C189 -18 31 -60 31 -149 C31 -195 73 -216 128 -216 L128 -216 Z " />
<glyph glyph-name="tilde" unicode="&#x2dc;" horiz-adv-x="405" d="M173 486 L177 486 C188 513 202 549 245 549 C299 549 342 493 394 493 C456 493 481 571 500 633 L495 634 C486 606 471 571 428 571 C375 571 332 627 279 627 C213 627 190 540 173 486 L173 486 Z " />
<glyph glyph-name="hungarumlaut" unicode="&#x2dd;" horiz-adv-x="461" d="M193 471 C266 522 330 561 351 584 C374 608 371 633 356 645 C339 659 312 654 292 633 C271 611 238 546 192 472 L193 471 Z M355 471 C428 522 492 561 513 584 C536 608 533 633 518 645 C501 659 474 654 454 633 C433 611 400 546 354 472 L355 471 Z " />
<glyph glyph-name="Wgrave" unicode="&#x1e80;" horiz-adv-x="951" d="M250 -5 L255 -5 L523 428 L586 -5 L592 -5 L809 352 C861 439 897 503 931 542 C969 586 1013 611 1067 611 L1069 618 L822 618 L820 611 C869 611 889 592 889 558 C889 523 862 459 801 357 L680 154 L639 486 C631 559 651 611 728 611 L729 618 L422 618 L421 611 C483 611 507 555 517 480 L521 442 L341 147 L284 496 C273 566 290 611 363 611 L365 618 L66 618 L65 611 C139 611 153 540 163 480 L250 -5 Z M637 672 L640 674 C609 746 589 805 571 830 C553 855 522 861 501 845 C481 829 479 799 498 775 C517 750 567 723 637 672 L637 672 Z " />
<glyph glyph-name="wgrave" unicode="&#x1e81;" horiz-adv-x="677" d="M160 -8 C234 48 305 113 357 176 L388 -7 L392 -8 C542 105 655 257 655 345 C655 381 637 419 592 419 C552 419 525 389 525 354 C525 320 552 293 588 293 C596 293 604 294 610 297 C606 218 542 131 474 66 L427 408 L318 408 L354 191 C325 145 283 101 243 64 L201 363 C196 398 175 419 135 419 C95 419 50 399 7 372 L6 365 C24 376 49 390 67 390 C82 390 89 380 92 364 L156 -7 L160 -8 Z M435 472 L437 474 C406 546 387 605 369 630 C350 655 319 661 299 645 C279 629 276 599 295 575 C314 550 364 523 435 472 L435 472 Z " />
<glyph glyph-name="Wacute" unicode="&#x1e82;" horiz-adv-x="951" d="M250 -5 L255 -5 L523 428 L586 -5 L592 -5 L809 352 C861 439 897 503 931 542 C969 586 1013 611 1067 611 L1069 618 L822 618 L820 611 C869 611 889 592 889 558 C889 523 862 459 801 357 L680 154 L639 486 C631 559 651 611 728 611 L729 618 L422 618 L421 611 C483 611 507 555 517 480 L521 442 L341 147 L284 496 C273 566 290 611 363 611 L365 618 L66 618 L65 611 C139 611 153 540 163 480 L250 -5 Z M513 673 C598 713 685 744 713 765 C736 783 744 813 728 833 C713 852 683 854 655 832 C629 811 572 741 511 675 L513 673 Z " />
<glyph glyph-name="wacute" unicode="&#x1e83;" horiz-adv-x="677" d="M160 -8 C234 48 305 113 357 176 L388 -7 L392 -8 C542 105 655 257 655 345 C655 381 637 419 592 419 C552 419 525 389 525 354 C525 320 552 293 588 293 C596 293 604 294 610 297 C606 218 542 131 474 66 L427 408 L318 408 L354 191 C325 145 283 101 243 64 L201 363 C196 398 175 419 135 419 C95 419 50 399 7 372 L6 365 C24 376 49 390 67 390 C82 390 89 380 92 364 L156 -7 L160 -8 Z M324 473 C408 513 496 544 523 565 C547 583 554 613 538 633 C524 652 493 654 465 632 C439 611 383 541 322 475 L324 473 Z " />
<glyph glyph-name="Wdieresis" unicode="&#x1e84;" horiz-adv-x="951" d="M250 -5 L255 -5 L523 428 L586 -5 L592 -5 L809 352 C861 439 897 503 931 542 C969 586 1013 611 1067 611 L1069 618 L822 618 L820 611 C869 611 889 592 889 558 C889 523 862 459 801 357 L680 154 L639 486 C631 559 651 611 728 611 L729 618 L422 618 L421 611 C483 611 507 555 517 480 L521 442 L341 147 L284 496 C273 566 290 611 363 611 L365 618 L66 618 L65 611 C139 611 153 540 163 480 L250 -5 Z M504 691 C536 691 564 718 564 752 C564 786 536 813 503 813 C469 813 443 785 443 752 C443 718 471 691 504 691 L504 691 Z M681 691 C714 691 742 718 742 752 C742 786 714 813 681 813 C647 813 621 785 621 752 C621 718 648 691 681 691 L681 691 Z " />
<glyph glyph-name="wdieresis" unicode="&#x1e85;" horiz-adv-x="677" d="M160 -8 C234 48 305 113 357 176 L388 -7 L392 -8 C542 105 655 257 655 345 C655 381 637 419 592 419 C552 419 525 389 525 354 C525 320 552 293 588 293 C596 293 604 294 610 297 C606 218 542 131 474 66 L427 408 L318 408 L354 191 C325 145 283 101 243 64 L201 363 C196 398 175 419 135 419 C95 419 50 399 7 372 L6 365 C24 376 49 390 67 390 C82 390 89 380 92 364 L156 -7 L160 -8 Z M313 491 C345 491 373 518 373 552 C373 586 345 613 312 613 C278 613 252 585 252 552 C252 518 280 491 313 491 L313 491 Z M490 491 C523 491 551 518 551 552 C551 586 523 613 490 613 C456 613 430 585 430 552 C430 518 457 491 490 491 L490 491 Z " />
<glyph glyph-name="Ygrave" unicode="&#x1ef2;" horiz-adv-x="643" d="M108 0 L425 0 L427 6 C347 6 337 43 355 120 L392 283 L480 389 C551 477 589 521 618 548 C658 587 702 611 761 611 L762 618 L507 618 L506 611 C559 611 578 592 578 566 C578 533 545 484 473 395 L388 289 L385 289 L310 501 C286 569 309 611 379 611 L380 618 L76 618 L75 611 C131 611 160 559 183 495 L266 267 L233 120 C215 43 190 6 109 6 L108 0 Z M490 672 L492 674 C461 746 442 805 424 830 C405 855 374 861 354 845 C334 829 331 799 350 775 C369 750 419 723 490 672 L490 672 Z " />
<glyph glyph-name="ygrave" unicode="&#x1ef3;" horiz-adv-x="462" d="M-65 -174 C16 -174 83 -74 131 -37 L173 -2 C318 109 441 258 441 346 C441 380 423 419 378 419 C338 419 311 389 311 354 C311 320 338 293 374 293 C382 293 390 295 396 297 C390 218 319 131 249 67 L204 363 C199 398 176 419 135 419 C95 419 51 399 8 372 L7 365 C25 376 50 390 68 390 C83 390 90 380 93 364 L160 -2 L129 -27 C44 -94 -110 -59 -110 -138 C-110 -160 -93 -174 -65 -174 L-65 -174 Z M322 472 L325 474 C294 546 274 605 256 630 C238 655 207 661 186 645 C166 629 164 599 183 575 C202 550 252 523 322 472 L322 472 Z " />
<glyph glyph-name="endash" unicode="&#x2013;" horiz-adv-x="579" d="M52 216 L510 216 L518 252 L60 252 L52 216 Z " />
<glyph glyph-name="emdash" unicode="&#x2014;" horiz-adv-x="875" d="M52 216 L806 216 L814 252 L60 252 L52 216 Z " />
<glyph glyph-name="quoteleft" unicode="&#x2018;" horiz-adv-x="237" d="M286 667 C162 627 93 540 93 476 C93 435 121 406 161 406 C202 406 232 435 232 472 C232 504 207 534 170 534 C160 534 151 532 143 529 C162 588 226 641 288 662 L286 667 Z " />
<glyph glyph-name="quoteright" unicode="&#x2019;" horiz-adv-x="241" d="M89 405 C213 445 282 532 282 596 C282 637 254 666 214 666 C173 666 143 637 143 600 C143 568 168 538 205 538 C215 538 224 540 232 543 C213 484 149 431 87 410 L89 405 Z " />
<glyph glyph-name="quotesinglbase" unicode="&#x201a;" horiz-adv-x="243" d="M-42 -133 C82 -93 151 -6 151 58 C151 99 123 128 83 128 C42 128 12 99 12 62 C12 30 37 0 74 0 C84 0 93 2 101 5 C82 -54 18 -107 -44 -128 L-42 -133 Z " />
<glyph glyph-name="quotedblleft" unicode="&#x201c;" horiz-adv-x="439" d="M286 667 C162 627 93 540 93 476 C93 435 121 406 161 406 C202 406 232 435 232 472 C232 504 207 534 170 534 C160 534 151 532 143 529 C162 588 226 641 288 662 L286 667 Z M488 667 C364 627 295 540 295 476 C295 435 323 406 363 406 C404 406 434 435 434 472 C434 504 409 534 372 534 C362 534 353 532 345 529 C364 588 428 641 490 662 L488 667 Z " />
<glyph glyph-name="quotedblright" unicode="&#x201d;" horiz-adv-x="443" d="M89 405 C213 445 282 532 282 596 C282 637 254 666 214 666 C173 666 143 637 143 600 C143 568 168 538 205 538 C215 538 224 540 232 543 C213 484 149 431 87 410 L89 405 Z M291 405 C415 445 484 532 484 596 C484 637 456 666 416 666 C375 666 345 637 345 600 C345 568 370 538 407 538 C417 538 426 540 434 543 C415 484 351 431 289 410 L291 405 Z " />
<glyph glyph-name="quotedblbase" unicode="&#x201e;" horiz-adv-x="445" d="M-42 -133 C82 -93 151 -6 151 58 C151 99 123 128 83 128 C42 128 12 99 12 62 C12 30 37 0 74 0 C84 0 93 2 101 5 C82 -54 18 -107 -44 -128 L-42 -133 Z M160 -133 C284 -93 353 -6 353 58 C353 99 325 128 285 128 C244 128 214 99 214 62 C214 30 239 0 276 0 C286 0 295 2 303 5 C284 -54 220 -107 158 -128 L160 -133 Z " />
<glyph glyph-name="dagger" unicode="&#x2020;" horiz-adv-x="513" d="M159 -173 C201 -173 228 -142 232 -66 C242 17 240 159 296 406 C418 405 436 387 436 345 C436 315 436 314 439 314 C458 314 504 379 504 421 C504 443 492 456 473 456 C431 456 369 413 298 412 C317 492 390 569 390 618 C390 644 375 659 351 659 C315 659 286 631 286 571 C286 529 302 467 291 412 C218 413 176 456 136 456 C105 456 81 431 81 383 C81 351 91 314 104 314 C106 314 110 315 113 323 C135 380 142 405 289 406 C209 67 117 -48 117 -127 C117 -157 131 -173 159 -173 L159 -173 Z " />
<glyph glyph-name="daggerdbl" unicode="&#x2021;" horiz-adv-x="513" d="M159 -182 C195 -182 224 -155 224 -95 C224 -53 208 9 219 64 C291 63 333 21 374 21 C406 21 429 45 429 93 C429 126 419 162 406 162 C404 162 401 161 398 153 C376 96 368 71 221 71 C238 135 294 190 301 246 C307 296 288 348 298 406 C421 405 438 387 438 345 C438 315 439 314 441 314 C460 314 506 379 506 421 C506 443 495 456 475 456 C434 456 372 413 300 412 C319 492 392 569 392 618 C392 644 377 659 353 659 C318 659 288 631 288 571 C288 529 305 467 293 412 C221 413 179 456 138 456 C107 456 83 431 83 383 C83 351 93 314 106 314 C109 314 112 315 115 323 C137 380 144 405 291 406 C273 340 222 285 216 229 C210 181 225 128 214 71 C92 71 74 89 74 132 C74 161 74 162 71 162 C52 162 6 97 6 55 C6 33 18 21 37 21 C78 21 140 63 212 64 C193 -15 120 -93 120 -141 C120 -167 135 -182 159 -182 L159 -182 Z " />
<glyph glyph-name="bullet" unicode="&#x2022;" horiz-adv-x="354" d="M174 144 C228 144 273 188 273 243 C273 297 228 342 174 342 C119 342 75 297 75 243 C75 188 119 144 174 144 L174 144 Z " />
<glyph glyph-name="ellipsis" unicode="&#x2026;" horiz-adv-x="796" d="M79 -8 C116 -8 146 22 146 60 C146 98 116 128 79 128 C42 128 12 98 12 60 C12 22 42 -8 79 -8 L79 -8 Z M359 -8 C396 -8 426 22 426 60 C426 98 396 128 359 128 C322 128 292 98 292 60 C292 22 322 -8 359 -8 L359 -8 Z M639 -8 C676 -8 706 22 706 60 C706 98 676 128 639 128 C602 128 572 98 572 60 C572 22 602 -8 639 -8 L639 -8 Z " />
<glyph glyph-name="perthousand" unicode="&#x2030;" horiz-adv-x="1082" d="M214 300 C309 300 404 384 404 495 C404 513 401 528 397 542 C418 535 440 533 459 533 C509 533 566 548 616 569 L78 -3 L84 -9 L633 576 C653 584 682 599 682 620 C682 628 677 634 669 634 C651 634 644 604 626 581 C570 557 505 541 459 541 C437 541 414 545 393 552 C372 605 321 628 271 628 C176 628 81 544 81 434 C81 340 148 300 214 300 L214 300 Z M841 -10 C936 -10 1031 74 1031 185 C1031 279 964 318 898 318 C803 318 708 234 708 124 C708 30 775 -10 841 -10 L841 -10 Z M474 -10 C569 -10 664 74 664 185 C664 279 597 318 531 318 C436 318 341 234 341 124 C341 30 408 -10 474 -10 L474 -10 Z M837 -4 C805 -4 789 25 789 77 C789 160 830 311 903 311 C936 311 950 281 950 231 C950 148 910 -4 837 -4 L837 -4 Z M470 -4 C438 -4 422 25 422 77 C422 160 463 311 536 311 C569 311 583 281 583 231 C583 148 543 -4 470 -4 L470 -4 Z M210 306 C178 306 162 335 162 387 C162 470 203 621 276 621 C282 621 288 620 293 617 C300 606 308 596 317 588 C321 575 323 559 323 541 C323 458 283 306 210 306 L210 306 Z " />
<glyph glyph-name="guilsinglleft" unicode="&#x2039;" horiz-adv-x="353" d="M262 23 L266 27 L98 224 L357 420 L355 425 L20 225 L19 222 L262 23 Z " />
<glyph glyph-name="guilsinglright" unicode="&#x203a;" horiz-adv-x="353" d="M-14 23 L321 222 L322 225 L79 425 L75 420 L243 224 L-16 27 L-14 23 Z " />
<glyph glyph-name="fraction" unicode="&#x2044;" horiz-adv-x="160" d="M-196 -9 L389 623 L383 627 L-202 -5 L-196 -9 Z " />
<glyph glyph-name="uni2070" unicode="&#x2070;" horiz-adv-x="405" d="M230 328 C355 328 440 450 440 573 C440 669 388 726 302 726 C177 726 94 602 94 480 C94 384 145 328 230 328 L230 328 Z M225 332 C189 332 176 369 176 424 C176 542 230 721 308 721 C344 721 357 684 357 628 C357 512 303 332 225 332 L225 332 Z " />
<glyph glyph-name="uni2074" unicode="&#x2074;" horiz-adv-x="361" d="M152 335 L368 335 L368 339 C325 339 309 348 321 399 L329 434 C366 435 371 429 378 429 C384 429 393 432 393 439 C393 443 389 447 383 447 C375 447 370 440 330 441 L363 581 L360 581 L259 502 L244 441 L61 441 L130 492 C206 547 327 590 327 657 C327 705 261 727 191 725 C209 711 222 686 222 655 C222 593 168 527 122 494 L50 439 L51 436 L243 436 L235 403 C223 351 200 339 152 339 L152 335 Z " />
<glyph glyph-name="uni2075" unicode="&#x2075;" horiz-adv-x="366" d="M199 328 C300 328 381 375 381 456 C381 528 316 562 240 562 C196 562 162 551 133 536 L184 685 C235 653 282 631 331 631 C378 631 429 652 429 722 C429 728 428 736 427 742 C389 702 257 714 189 718 L128 535 C116 531 105 526 105 517 C105 513 107 509 113 509 C124 509 129 522 133 531 C152 542 183 553 214 553 C264 553 291 524 291 469 C291 411 261 333 175 333 C142 333 124 345 114 366 C137 368 155 389 155 415 C155 440 138 462 110 462 C82 462 62 440 62 411 C62 367 106 328 199 328 L199 328 Z " />
<glyph glyph-name="uni2076" unicode="&#x2076;" horiz-adv-x="395" d="M233 328 C342 328 412 400 412 477 C412 540 364 579 300 579 C240 579 201 544 182 502 C206 620 261 721 337 721 C367 721 378 705 384 685 C362 682 346 663 346 639 C346 612 365 592 391 592 C419 592 438 613 438 643 C438 686 399 726 321 726 C182 726 91 599 91 474 C91 390 132 328 233 328 L233 328 Z M224 332 C188 332 166 360 167 415 C168 497 216 566 278 566 C309 566 330 548 330 500 C330 438 294 332 224 332 L224 332 Z " />
<glyph glyph-name="uni2077" unicode="&#x2077;" horiz-adv-x="318" d="M115 335 L205 335 C242 456 290 531 372 634 C392 660 410 684 415 718 L409 718 C405 694 384 648 341 648 C287 648 271 724 210 724 C162 724 140 675 121 622 L120 622 L140 718 L134 718 L99 567 L105 567 C118 617 140 634 179 634 C224 634 268 617 301 617 C343 617 371 645 387 665 C388 665 388 665 389 664 C370 638 339 612 309 584 C201 486 138 407 115 335 L115 335 Z " />
<glyph glyph-name="uni2078" unicode="&#x2078;" horiz-adv-x="403" d="M230 328 C365 328 413 393 413 447 C413 495 376 529 293 535 C393 541 448 586 448 640 C448 695 391 726 304 726 C188 726 131 671 131 616 C131 572 165 543 242 536 C119 529 74 470 74 420 C74 368 122 328 230 328 L230 328 Z M219 332 C188 332 164 350 164 396 C164 450 196 534 267 534 C298 534 323 517 323 469 C323 415 292 332 219 332 L219 332 Z M309 721 C344 721 359 697 359 662 C359 619 336 538 271 538 C240 538 220 557 220 598 C220 645 247 721 309 721 L309 721 Z " />
<glyph glyph-name="uni2079" unicode="&#x2079;" horiz-adv-x="396" d="M201 328 C346 328 433 462 433 579 C433 663 389 726 288 726 C180 726 112 653 112 578 C112 514 161 479 224 479 C286 479 322 513 341 553 C323 461 286 333 190 333 C157 333 142 348 134 366 C156 370 174 389 174 415 C174 440 157 461 130 461 C103 461 82 439 82 409 C82 367 122 328 201 328 L201 328 Z M298 721 C335 721 353 689 353 638 C353 554 306 491 250 491 C221 491 195 509 195 563 C195 629 234 721 298 721 L298 721 Z " />
<glyph glyph-name="uni2080" unicode="&#x2080;" horiz-adv-x="405" d="M129 -107 C254 -107 339 15 339 138 C339 234 287 291 201 291 C76 291 -7 167 -7 45 C-7 -51 44 -107 129 -107 L129 -107 Z M124 -103 C88 -103 75 -66 75 -11 C75 107 129 286 207 286 C243 286 256 249 256 193 C256 77 202 -103 124 -103 L124 -103 Z " />
<glyph glyph-name="uni2081" unicode="&#x2081;" horiz-adv-x="244" d="M-62 -100 L153 -100 L154 -96 C111 -96 93 -87 106 -36 L181 283 L179 284 C123 257 70 246 14 241 L13 237 L57 237 C80 237 83 226 78 206 L21 -32 C9 -84 -14 -96 -62 -96 L-62 -100 Z " />
<glyph glyph-name="uni2082" unicode="&#x2082;" horiz-adv-x="370" d="M-37 -100 L-31 -100 C-32 -51 -5 -12 38 -12 C104 -12 111 -106 182 -106 C261 -106 284 8 283 58 L278 58 C277 5 250 -18 206 -18 C164 -18 128 5 78 5 C30 5 -1 -12 -19 -39 C-17 -32 -8 -20 6 -6 C107 88 313 81 313 198 C313 264 246 291 177 291 C78 291 18 236 18 190 C18 164 36 140 64 140 C90 140 110 160 110 188 C110 213 93 232 73 235 C89 261 118 286 162 286 C208 286 226 259 226 219 C226 103 73 71 3 -3 C-25 -30 -36 -58 -37 -100 L-37 -100 Z " />
<glyph glyph-name="uni2083" unicode="&#x2083;" horiz-adv-x="375" d="M106 -107 C196 -107 284 -71 284 3 C284 68 217 95 139 95 L134 95 L135 98 L140 98 C239 98 318 133 318 199 C318 257 259 291 181 291 C96 291 29 251 29 203 C29 178 46 156 73 156 C99 156 119 177 119 202 C119 225 104 243 86 248 C100 267 126 284 161 284 C205 284 227 258 227 213 C227 157 193 100 112 99 C81 98 78 106 69 106 C62 106 55 102 55 95 C55 90 61 87 65 87 C71 87 81 94 110 94 C167 94 193 66 193 15 C193 -45 158 -101 84 -101 C45 -101 27 -85 19 -69 C42 -65 58 -45 58 -20 C58 6 39 27 14 27 C-13 27 -34 5 -34 -25 C-34 -67 10 -107 106 -107 L106 -107 Z " />
<glyph glyph-name="uni2084" unicode="&#x2084;" horiz-adv-x="361" d="M52 -100 L267 -100 L268 -96 C224 -96 208 -87 220 -36 L228 -1 C266 0 271 -6 278 -6 C284 -6 292 -3 292 4 C292 8 289 12 282 12 C274 12 269 5 229 6 L262 146 L259 146 L159 67 L144 6 L-39 6 L29 57 C106 112 227 155 227 222 C227 270 160 292 91 290 C109 276 122 251 122 220 C122 158 68 92 21 59 L-50 4 L-50 1 L142 1 L135 -32 C122 -84 100 -96 52 -96 L52 -100 Z " />
<glyph glyph-name="uni2085" unicode="&#x2085;" horiz-adv-x="366" d="M99 -107 C200 -107 281 -60 281 21 C281 93 216 127 140 127 C96 127 62 116 33 101 L84 250 C135 218 182 196 231 196 C278 196 329 217 329 287 C329 293 328 301 327 307 C289 267 157 279 89 283 L28 100 C16 96 5 91 5 82 C5 78 7 74 13 74 C24 74 29 87 33 96 C52 107 83 118 114 118 C164 118 191 89 191 34 C191 -24 161 -102 75 -102 C42 -102 24 -90 14 -69 C37 -67 55 -46 55 -20 C55 5 38 27 10 27 C-18 27 -38 5 -38 -24 C-38 -68 6 -107 99 -107 L99 -107 Z " />
<glyph glyph-name="uni2086" unicode="&#x2086;" horiz-adv-x="395" d="M132 -107 C242 -107 311 -35 311 42 C311 105 264 144 200 144 C139 144 101 109 81 67 C106 185 160 286 236 286 C266 286 278 270 283 250 C262 247 245 228 245 204 C245 177 264 157 291 157 C319 157 337 178 337 208 C337 251 299 291 221 291 C82 291 -10 164 -10 39 C-10 -45 31 -107 132 -107 L132 -107 Z M123 -103 C87 -103 65 -75 66 -20 C67 62 116 131 177 131 C208 131 230 113 230 65 C230 3 194 -103 123 -103 L123 -103 Z " />
<glyph glyph-name="uni2087" unicode="&#x2087;" horiz-adv-x="318" d="M15 -100 L105 -100 C141 21 190 96 271 199 C291 225 309 249 314 283 L308 283 C305 259 283 213 241 213 C187 213 171 289 110 289 C61 289 40 240 20 187 L19 187 L39 283 L33 283 L-1 132 L4 132 C18 182 39 199 78 199 C124 199 168 182 201 182 C243 182 271 210 287 230 C287 230 288 230 288 229 C270 203 238 177 208 149 C100 51 38 -28 15 -100 L15 -100 Z " />
<glyph glyph-name="uni2088" unicode="&#x2088;" horiz-adv-x="403" d="M129 -107 C265 -107 313 -42 313 12 C313 60 275 94 192 100 C292 106 348 151 348 205 C348 260 291 291 203 291 C88 291 31 236 31 181 C31 137 65 108 142 101 C18 94 -27 35 -27 -15 C-27 -67 22 -107 129 -107 L129 -107 Z M118 -103 C87 -103 63 -85 63 -39 C63 15 95 99 166 99 C198 99 222 82 222 34 C222 -20 191 -103 118 -103 L118 -103 Z M209 286 C243 286 259 262 259 227 C259 184 236 103 171 103 C140 103 119 122 119 163 C119 210 146 286 209 286 L209 286 Z " />
<glyph glyph-name="uni2089" unicode="&#x2089;" horiz-adv-x="396" d="M101 -107 C246 -107 333 27 333 144 C333 228 289 291 188 291 C80 291 12 218 12 143 C12 79 61 44 124 44 C186 44 222 78 241 118 C223 26 186 -102 90 -102 C57 -102 42 -87 34 -69 C56 -65 74 -46 74 -20 C74 5 57 26 30 26 C3 26 -18 4 -18 -26 C-18 -68 22 -107 101 -107 L101 -107 Z M198 286 C235 286 253 254 253 203 C253 119 206 56 150 56 C121 56 95 74 95 128 C95 194 134 286 198 286 L198 286 Z " />
<glyph glyph-name="Euro" unicode="&#x20ac;" horiz-adv-x="646" d="M324 -12 C445 -12 514 55 579 158 L573 161 C515 67 442 1 353 1 C255 1 212 82 212 198 C212 212 213 227 214 242 L423 242 L425 251 L215 251 C219 291 227 333 239 375 L454 375 L456 384 L242 384 C282 510 361 622 475 622 C542 622 565 581 575 538 C539 536 511 505 511 467 C511 428 541 396 579 396 C615 396 645 425 645 475 C645 540 594 630 456 630 C308 630 181 524 126 384 L66 384 L64 375 L122 375 C108 335 99 294 97 251 L35 251 L33 242 L96 242 L96 230 C96 66 194 -12 324 -12 L324 -12 Z " />
<glyph glyph-name="uni2116" unicode="&#x2116;" horiz-adv-x="1113" d="M51 -122 C142 -122 197 -9 228 126 L315 504 L568 -7 L574 -5 L686 479 C712 594 758 649 845 649 C890 649 914 631 933 608 C950 681 923 742 856 742 C766 742 711 628 680 494 L603 165 L387 618 L215 618 L213 611 C311 611 318 558 293 453 L222 141 C195 25 149 -29 63 -29 C17 -29 -7 -12 -25 12 C-42 -62 -15 -122 51 -122 L51 -122 Z M880 171 C990 171 1086 258 1086 369 C1086 473 1002 512 928 512 C818 512 721 424 721 314 C721 214 802 171 880 171 L880 171 Z M873 177 C843 177 818 198 818 260 C818 330 849 506 936 506 C966 506 990 485 990 423 C990 354 960 177 873 177 L873 177 Z M667 106 L1033 106 L1035 115 L670 115 L667 106 Z M651 36 L1016 36 L1019 45 L653 45 L651 36 Z " />
<glyph glyph-name="uni2117" unicode="&#x2117;" horiz-adv-x="741" d="M178 132 L368 132 L369 135 C327 135 322 149 331 190 L398 481 L435 481 C484 481 499 449 499 409 C499 346 463 286 390 286 L377 286 L377 282 L408 282 C548 282 591 341 591 395 C591 453 540 486 455 486 L260 486 L259 482 C301 482 307 469 297 427 L242 190 C232 149 221 135 179 135 L178 132 Z M350 -12 C540 -12 707 147 707 337 C707 501 584 630 418 630 C230 630 61 472 61 281 C61 118 184 -12 350 -12 L350 -12 Z M351 -3 C190 -3 70 124 70 282 C70 468 234 622 417 622 C579 622 699 495 699 336 C699 151 535 -3 351 -3 L351 -3 Z " />
<glyph glyph-name="trademark" unicode="&#x2122;" horiz-adv-x="837" d="M374 330 L498 330 L499 333 C450 333 447 356 480 466 L512 570 L574 336 L576 336 L734 577 L700 386 C694 352 682 333 649 333 L648 330 L799 330 L800 333 C766 333 762 350 769 390 L799 558 C805 593 816 614 851 614 L852 618 L754 618 L622 415 L570 618 L460 618 L459 614 C508 614 512 588 497 537 L475 465 C443 356 424 333 375 333 L374 330 Z M128 330 L290 330 L291 333 C257 333 246 341 255 382 L309 614 L312 614 C378 614 387 567 391 515 L394 515 L410 618 L142 618 L110 515 L113 515 C140 567 172 614 236 614 L240 614 L187 382 C177 341 162 333 129 333 L128 330 Z " />
<glyph glyph-name="minus" unicode="&#x2212;" horiz-adv-x="577" d="M63 241 L508 241 L510 250 L65 250 L63 241 Z " />
<glyph glyph-name="notequal" unicode="&#x2260;" horiz-adv-x="579" d="M75 -2 L211 164 L487 164 L489 173 L219 173 L387 377 L536 377 L538 387 L395 387 L529 549 L522 554 L383 387 L93 387 L91 377 L375 377 L208 173 L44 173 L42 164 L200 164 L68 3 L75 -2 Z " />
<glyph glyph-name="fi" unicode="&#xfb01;" horiz-adv-x="577" d="M-48 -163 C33 -163 116 -115 141 -7 L235 396 L378 396 C399 396 406 380 400 351 L340 91 C326 29 349 -10 406 -10 C446 -10 490 10 533 37 L534 44 C516 33 490 19 470 19 C448 19 441 35 448 65 L505 313 C519 374 501 408 444 408 L238 408 L266 528 C284 604 326 652 389 652 C429 652 451 632 463 607 C435 599 417 574 417 543 C417 507 445 477 481 477 C517 477 545 507 545 545 C545 602 483 659 381 659 C274 659 170 597 143 481 L126 408 L43 408 L40 396 L123 396 L12 -78 C1 -125 -18 -157 -56 -157 C-78 -157 -89 -145 -95 -132 C-73 -126 -54 -105 -54 -75 C-54 -45 -75 -19 -107 -19 C-137 -19 -163 -41 -163 -77 C-163 -120 -124 -163 -48 -163 L-48 -163 Z " />
<glyph glyph-name="fl" unicode="&#xfb02;" horiz-adv-x="584" d="M-48 -163 C33 -163 116 -115 141 -7 L235 396 L345 396 L349 408 L238 408 L266 528 C282 596 319 652 384 652 C424 652 444 631 454 607 C426 599 407 574 407 543 C407 520 418 499 436 488 L345 90 C331 30 353 -10 410 -10 C450 -10 495 10 538 37 L539 44 C521 33 494 19 474 19 C453 19 446 35 452 65 L590 668 L586 668 L504 613 C477 640 434 659 377 659 C272 659 170 597 143 481 L126 408 L43 408 L40 396 L123 396 L12 -78 C1 -125 -18 -157 -56 -157 C-78 -157 -89 -145 -95 -132 C-73 -126 -54 -105 -54 -75 C-54 -45 -75 -19 -107 -19 C-137 -19 -163 -41 -163 -77 C-163 -120 -124 -163 -48 -163 L-48 -163 Z " />
<glyph glyph-name="s_t" unicode="&#xfb06;" horiz-adv-x="730" d="M163 -11 C271 -11 357 49 357 132 C357 264 144 241 144 335 C144 378 188 413 247 413 C297 413 317 388 327 363 C305 358 289 338 289 314 C289 285 311 261 340 261 C372 261 393 290 393 320 C393 347 374 376 338 396 C318 424 304 467 304 506 C304 610 405 691 505 691 C580 691 648 646 648 556 C648 479 595 404 457 404 L455 396 L514 396 L449 112 C430 31 467 -10 535 -10 C606 -10 659 34 699 73 L695 77 C667 50 632 21 593 21 C557 21 545 48 557 97 L626 396 L748 396 L750 408 L628 408 L652 511 C655 524 657 545 657 558 C657 637 600 699 506 699 C396 699 295 615 295 504 C295 470 304 433 322 403 C301 413 273 419 241 419 C135 419 60 359 60 280 C60 148 271 173 271 77 C271 33 226 -5 159 -5 C105 -5 83 18 72 45 C94 51 110 71 110 97 C110 127 89 151 58 151 C24 151 3 120 3 91 C3 44 61 -11 163 -11 L163 -11 Z " />
</font>
</svg>
