<?xml version="1.0" encoding="UTF-8"?>
<svg xmlns="http://www.w3.org/2000/svg" xmlns:xlink="http://www.w3.org/1999/xlink" version="1.2" >
<font id="Sinkin Sans 500 Medium">
<font-face  font-family="Sinkin Sans" units-per-em="1000" ascent="810" descent="-190" font-style="normal" font-weight="500" font-stretch="normal" cap-height="810" x-height="630" underline-position="-75" underline-thickness="50" />
<missing-glyph  horiz-adv-x="1000" d="" />
<glyph glyph-name="NULL" d="" />
<glyph glyph-name="&amp;#x0;" horiz-adv-x="1000" d="" />
<glyph glyph-name="&amp;#xd;" unicode="&#xd;" horiz-adv-x="1000" d="" />
<glyph glyph-name="space" unicode="&#x20;" horiz-adv-x="310" d="" />
<glyph glyph-name="HT" unicode="&#x9;" horiz-adv-x="1000" d="" />
<glyph glyph-name="LF" unicode="&#xa;" horiz-adv-x="1000" d="" />
<glyph glyph-name="DLE" unicode="&#x10;" horiz-adv-x="1000" d="" />
<glyph glyph-name="DC1" unicode="&#x11;" horiz-adv-x="1000" d="" />
<glyph glyph-name="DC2" unicode="&#x12;" horiz-adv-x="1000" d="" />
<glyph glyph-name="DC3" unicode="&#x13;" horiz-adv-x="1000" d="" />
<glyph glyph-name="DC4" unicode="&#x14;" horiz-adv-x="1000" d="" />
<glyph glyph-name="RS" unicode="&#x1e;" horiz-adv-x="1000" d="" />
<glyph glyph-name="US" unicode="&#x1f;" horiz-adv-x="1000" d="" />
<glyph glyph-name="exclam" unicode="&#x21;" horiz-adv-x="302" d="M232 79 C232 131 204 167 151 167 C98 167 70 131 70 79 C70 26 98 -10 151 -10 C204 -10 232 26 232 79 L232 79 Z M80 810 L108 222 L194 222 L222 810 L80 810 Z " />
<glyph glyph-name="quotedbl" unicode="&#x22;" horiz-adv-x="433" d="M55 840 L80 531 L153 531 L178 840 L55 840 Z M255 840 L280 531 L353 531 L378 840 L255 840 Z " />
<glyph glyph-name="numbersign" unicode="&#x23;" horiz-adv-x="744" d="M488 494 L442 317 L446 305 L248 305 L256 317 L301 494 L297 505 L498 505 L488 494 Z M714 605 L610 605 L618 617 L668 810 L569 810 L519 617 L523 605 L325 605 L333 616 L383 810 L284 810 L234 616 L238 605 L107 605 L107 505 L213 505 L204 494 L157 317 L161 305 L30 305 L30 205 L136 205 L125 194 L76 0 L175 0 L225 194 L221 205 L421 205 L410 194 L361 0 L460 0 L509 194 L506 205 L637 205 L637 305 L533 305 L541 317 L587 494 L582 505 L714 505 L714 605 Z " />
<glyph glyph-name="dollar" unicode="&#x24;" horiz-adv-x="752" d="M560 197 C560 154 525 115 440 102 C437 102 431 102 427 101 L433 114 L433 290 L428 303 C429 303 437 300 438 300 C440 300 447 298 448 297 C531 273 560 232 560 197 L560 197 Z M330 615 L330 459 L336 445 C333 446 328 447 325 448 C232 475 202 502 202 537 C202 573 239 616 324 627 C328 628 333 628 337 628 L330 615 Z M682 202 C682 289 626 363 493 402 C483 405 469 409 454 413 C450 414 435 418 427 420 L433 430 L433 611 L427 625 C431 624 437 623 441 622 C496 608 538 578 577 532 L667 615 C606 682 531 723 442 735 C438 736 431 737 427 737 L433 749 L433 839 L330 839 L330 750 L337 739 C333 739 326 739 322 738 C161 722 81 632 81 534 C81 422 169 374 293 339 C299 337 309 334 319 332 C322 331 332 329 337 327 L330 316 L330 114 L336 101 C333 102 327 102 323 103 C264 113 211 143 146 202 L55 120 C128 42 223 3 322 -9 C326 -9 333 -10 337 -10 L330 -22 L330 -110 L433 -110 L433 -22 L427 -10 C431 -10 438 -10 442 -9 C613 6 682 103 682 202 L682 202 Z " />
<glyph glyph-name="percent" unicode="&#x25;" horiz-adv-x="925" d="M297 592 C297 504 270 463 213 463 C158 463 131 507 131 592 C131 679 156 726 214 726 C273 726 297 678 297 592 L297 592 Z M795 214 C795 126 767 84 711 84 C655 84 628 129 628 214 C628 301 654 348 712 348 C771 348 795 299 795 214 L795 214 Z M398 592 C398 717 337 821 214 821 C92 821 30 717 30 592 C30 466 89 368 214 368 C339 368 398 466 398 592 L398 592 Z M559 820 L269 -10 L368 -10 L658 820 L559 820 Z M895 214 C895 339 835 442 711 442 C589 442 528 339 528 214 C528 88 587 -11 711 -11 C837 -11 895 88 895 214 L895 214 Z " />
<glyph glyph-name="ampersand" unicode="&#x26;" horiz-adv-x="790" d="M524 141 C489 112 437 98 366 98 C250 99 178 138 178 214 C178 255 197 285 224 310 C239 323 257 335 276 346 C284 351 310 367 318 371 L321 359 L512 146 L524 141 L524 141 Z M459 618 C459 555 415 525 342 491 L340 499 C335 505 327 517 322 523 C300 551 272 580 272 617 C272 669 313 708 366 708 C418 708 459 668 459 618 L459 618 Z M681 121 L670 124 C702 161 724 219 724 262 L724 285 L601 285 C604 266 600 234 591 215 L587 227 C583 232 448 382 424 409 L412 415 C507 462 572 518 572 620 C572 731 479 818 365 818 C251 818 159 730 159 620 C159 575 172 542 191 511 C203 493 220 473 236 455 L249 450 C140 395 55 320 55 214 C55 68 191 -12 366 -12 C465 -12 545 12 601 56 L603 44 L641 0 L790 0 L681 121 Z " />
<glyph glyph-name="quotesingle" unicode="&#x27;" horiz-adv-x="233" d="M55 840 L80 531 L153 531 L178 840 L55 840 Z " />
<glyph glyph-name="parenleft" unicode="&#x28;" horiz-adv-x="298" d="M288 -191 C197 -12 160 178 160 371 C160 556 201 730 288 907 L188 907 C88 725 40 549 40 358 C40 169 84 0 188 -191 L288 -191 L288 -191 Z " />
<glyph glyph-name="parenright" unicode="&#x29;" horiz-adv-x="298" d="M258 358 C258 549 210 725 110 907 L10 907 C97 730 138 556 138 371 C138 178 101 -12 10 -191 L109 -191 C214 0 258 169 258 358 L258 358 Z " />
<glyph glyph-name="asterisk" unicode="&#x2a;" horiz-adv-x="577" d="M359 631 L494 726 L443 790 L320 679 L329 845 L248 845 L257 680 L134 790 L83 727 L218 631 L55 602 L73 523 L231 568 L152 424 L225 388 L288 541 L352 389 L425 424 L346 569 L504 523 L522 602 L359 631 Z " />
<glyph glyph-name="plus" unicode="&#x2b;" horiz-adv-x="685" d="M595 460 L390 460 L397 472 L397 678 L288 678 L288 472 L295 460 L90 460 L90 350 L295 350 L288 338 L288 133 L397 133 L397 338 L390 350 L595 350 L595 460 Z " />
<glyph glyph-name="comma" unicode="&#x2c;" horiz-adv-x="292" d="M222 78 C222 131 195 167 141 167 C88 167 60 131 60 78 C60 28 83 -4 132 -10 L118 -22 L60 -161 L120 -186 L208 19 C215 36 222 61 222 78 L222 78 Z " />
<glyph glyph-name="hyphen" unicode="&#x2d;" horiz-adv-x="405" d="M375 385 L30 385 L30 275 L375 275 L375 385 Z " />
<glyph glyph-name="period" unicode="&#x2e;" horiz-adv-x="292" d="M222 79 C222 131 194 167 141 167 C88 167 60 131 60 79 C60 26 88 -10 141 -10 C194 -10 222 26 222 79 L222 79 Z " />
<glyph glyph-name="slash" unicode="&#x2f;" horiz-adv-x="254" d="M220 860 L-70 -50 L34 -50 L324 860 L220 860 Z " />
<glyph glyph-name="zero" unicode="0" horiz-adv-x="780" d="M602 400 C602 221 543 101 389 101 C235 101 178 228 178 400 C178 576 237 709 390 709 C551 709 602 571 602 400 L602 400 Z M725 400 C725 643 609 820 390 820 C174 820 55 642 55 400 C55 158 169 -10 390 -10 C612 -10 725 158 725 400 L725 400 Z " />
<glyph glyph-name="one" unicode="1" horiz-adv-x="428" d="M328 810 L225 810 L20 607 L96 530 L164 598 L214 662 L216 662 L208 578 L208 0 L328 0 L328 810 Z " />
<glyph glyph-name="two" unicode="2" horiz-adv-x="706" d="M651 593 C651 707 566 820 361 820 C240 820 141 777 64 688 L151 603 C207 676 274 709 361 709 C490 709 528 650 528 593 C528 538 493 497 376 457 L267 420 C120 370 53 257 55 141 L57 0 L650 0 L650 111 L165 111 L172 119 C172 123 176 131 176 135 C176 218 221 281 307 310 L436 354 C590 407 651 486 651 593 L651 593 Z " />
<glyph glyph-name="three" unicode="3" horiz-adv-x="735" d="M680 230 C680 323 623 398 532 426 L532 428 C611 466 663 526 663 606 C663 716 577 820 361 820 C238 820 142 780 63 695 L151 609 C207 674 275 708 362 708 C503 708 540 655 540 605 C540 557 505 496 375 483 C348 480 244 478 244 478 L244 371 C244 371 346 370 380 367 C504 356 557 302 557 230 C557 174 508 101 362 101 C270 101 201 140 144 207 L55 122 C135 35 234 -10 362 -10 C588 -10 680 114 680 230 L680 230 Z " />
<glyph glyph-name="four" unicode="4" horiz-adv-x="745" d="M487 295 C456 295 198 295 198 295 L198 297 L250 347 L434 562 L484 627 L486 627 L480 539 L480 308 L487 295 L487 295 Z M705 295 L594 295 L600 308 L600 810 L504 810 L40 270 L40 184 L487 184 L480 173 L480 0 L600 0 L600 172 L594 184 L705 184 L705 295 Z " />
<glyph glyph-name="five" unicode="5" horiz-adv-x="748" d="M693 268 C693 415 591 548 378 548 C310 548 255 535 203 501 L201 502 L217 576 L232 687 L221 699 L635 699 L635 810 L129 810 L80 409 L158 334 C220 406 288 437 378 437 C516 437 570 349 570 268 C570 186 514 100 368 100 C276 100 206 135 140 226 L55 143 C143 29 232 -11 368 -11 C596 -11 693 125 693 268 L693 268 Z " />
<glyph glyph-name="six" unicode="6" horiz-adv-x="774" d="M598 268 C596 188 524 100 395 100 C259 100 196 191 198 267 C199 344 269 437 401 437 C539 437 599 344 598 268 L598 268 Z M719 268 C721 415 615 548 403 548 C312 548 228 509 181 452 C181 452 179 453 179 452 C191 607 271 709 404 709 C488 709 550 677 600 610 L688 698 C613 782 530 820 405 820 C207 820 60 665 55 400 C51 158 167 -11 393 -11 C616 -11 716 129 719 268 L719 268 Z " />
<glyph glyph-name="seven" unicode="7" horiz-adv-x="685" d="M655 810 L30 810 L30 699 L503 699 L503 697 L440 632 L335 497 C255 395 226 299 226 154 L226 0 L346 0 L346 148 C346 270 372 358 432 435 L655 718 L655 810 Z " />
<glyph glyph-name="eight" unicode="8" horiz-adv-x="777" d="M599 236 C599 181 535 101 388 101 C241 101 178 181 178 236 C178 307 253 377 388 377 C523 377 599 307 599 236 L599 236 Z M570 594 C570 547 517 476 388 476 C259 476 207 546 207 594 C207 644 250 708 389 708 C529 708 570 644 570 594 L570 594 Z M722 234 C722 328 658 400 569 430 L569 432 C639 466 694 520 694 600 C694 713 602 820 386 820 C171 820 84 713 84 600 C84 519 136 463 206 433 L206 431 C114 393 55 325 55 234 C55 117 163 -10 389 -10 C614 -10 722 117 722 234 L722 234 Z " />
<glyph glyph-name="nine" unicode="9" horiz-adv-x="774" d="M576 543 C575 465 504 372 373 372 C235 372 175 466 176 541 C177 621 250 709 379 709 C515 709 577 619 576 543 L576 543 Z M719 409 C723 652 607 820 380 820 C158 820 58 681 55 542 C52 394 159 262 371 262 C462 262 545 300 593 357 C593 357 595 357 595 357 C583 203 506 100 373 100 C288 100 221 131 168 201 L81 113 C159 26 247 -11 373 -11 C571 -11 714 145 719 409 L719 409 Z " />
<glyph glyph-name="colon" unicode="&#x3a;" horiz-adv-x="302" d="M232 79 C232 131 204 167 151 167 C98 167 70 131 70 79 C70 26 98 -10 151 -10 C204 -10 232 26 232 79 L232 79 Z M232 521 C232 574 204 610 151 610 C98 610 70 574 70 521 C70 468 98 432 151 432 C204 432 232 468 232 521 L232 521 Z " />
<glyph glyph-name="semicolon" unicode="&#x3b;" horiz-adv-x="302" d="M232 78 C232 131 205 167 151 167 C98 167 70 131 70 78 C70 28 93 -4 142 -10 L128 -22 L70 -161 L130 -186 L218 19 C225 36 232 61 232 78 L232 78 Z M232 521 C232 574 204 610 151 610 C98 610 70 574 70 521 C70 468 98 432 151 432 C204 432 232 468 232 521 L232 521 Z " />
<glyph glyph-name="less" unicode="&#x3c;" horiz-adv-x="524" d="M279 339 L231 382 L203 405 L258 450 L434 626 L356 705 L55 405 L356 105 L434 184 L279 339 Z " />
<glyph glyph-name="equal" unicode="&#x3d;" horiz-adv-x="685" d="M595 345 L90 345 L90 235 L595 235 L595 345 Z M595 575 L90 575 L90 465 L595 465 L595 575 Z " />
<glyph glyph-name="greater" unicode="&#x3e;" horiz-adv-x="524" d="M169 705 L90 626 L245 471 L293 428 L321 404 L267 360 L90 184 L169 105 L469 405 L169 705 Z " />
<glyph glyph-name="question" unicode="&#x3f;" horiz-adv-x="669" d="M366 79 C366 131 338 167 285 167 C232 167 204 131 204 79 C204 26 231 -10 285 -10 C337 -10 366 26 366 79 L366 79 Z M614 606 C614 708 514 820 346 820 C225 820 132 776 55 688 L146 605 C202 678 260 710 346 710 C434 710 491 652 491 606 C491 565 472 538 415 516 L392 508 C249 454 225 383 225 265 L225 222 L345 222 L345 256 C345 345 356 372 432 400 L470 415 C551 446 614 515 614 606 L614 606 Z " />
<glyph glyph-name="at" unicode="&#x40;" horiz-adv-x="990" d="M574 444 C574 355 528 246 438 246 C370 246 350 301 350 371 C350 449 405 557 491 557 C557 557 574 503 574 444 L574 444 Z M920 444 C920 670 730 845 507 845 C275 845 70 655 70 419 C70 160 263 -26 517 -26 C599 -26 689 4 761 57 L702 113 C643 73 578 51 511 51 C309 51 158 213 158 415 C158 607 316 769 509 769 C687 769 831 619 831 442 C831 357 791 244 693 244 C664 244 637 266 637 294 C637 320 642 346 648 371 L717 629 L617 629 L606 592 L604 592 C584 619 540 640 502 640 C353 640 248 492 248 359 C248 258 302 158 420 158 C474 158 530 181 571 222 L573 222 C596 183 636 159 685 159 C832 159 920 316 920 444 L920 444 Z " />
<glyph glyph-name="A" unicode="A" horiz-adv-x="881" d="M280 310 L292 322 L417 598 L440 671 L442 671 L465 597 L589 322 L601 310 L280 310 Z M499 810 L382 810 L15 0 L146 0 L231 188 L225 199 L656 199 L650 188 L735 0 L866 0 L499 810 Z " />
<glyph glyph-name="B" unicode="B" horiz-adv-x="812" d="M644 235 C644 156 602 111 482 111 L198 111 L210 123 L210 349 L198 361 L482 361 C597 361 644 312 644 235 L644 235 Z M609 587 C609 523 573 472 464 472 L198 472 L210 484 L210 687 L198 699 L464 699 C563 699 609 661 609 587 L609 587 Z M767 235 C767 324 725 395 647 424 L647 426 C706 464 732 515 732 586 C732 705 648 810 474 810 L90 810 L90 0 L482 0 C666 0 767 90 767 235 L767 235 Z " />
<glyph glyph-name="C" unicode="C" horiz-adv-x="810" d="M780 692 C703 776 601 820 465 820 C200 820 55 645 55 400 C55 156 194 -10 464 -10 C599 -10 702 34 779 119 L692 204 C639 137 570 101 464 101 C259 101 178 232 178 400 C178 572 263 709 465 709 C571 709 639 672 691 606 L780 692 L780 692 Z " />
<glyph glyph-name="D" unicode="D" horiz-adv-x="848" d="M670 405 C670 245 634 111 403 111 L198 111 L210 123 L210 687 L198 699 L399 699 C632 699 670 564 670 405 L670 405 Z M793 405 C793 595 736 810 409 810 L90 810 L90 0 L413 0 C737 0 793 215 793 405 L793 405 Z " />
<glyph glyph-name="E" unicode="E" horiz-adv-x="780" d="M710 111 L198 111 L210 123 L210 338 L198 350 L662 350 L662 460 L198 460 L210 473 L210 687 L198 699 L710 699 L710 810 L90 810 L90 0 L710 0 L710 111 Z " />
<glyph glyph-name="F" unicode="F" horiz-adv-x="720" d="M690 810 L90 810 L90 0 L210 0 L210 318 L198 330 L642 330 L642 441 L198 441 L210 453 L210 687 L198 699 L690 699 L690 810 Z " />
<glyph glyph-name="G" unicode="G" horiz-adv-x="910" d="M820 461 L446 461 L446 350 L722 350 L710 339 C706 203 608 101 462 101 C268 101 178 212 178 397 C178 591 271 709 468 709 C555 709 642 686 702 611 L790 697 C704 789 583 820 468 820 C207 820 55 653 55 397 C55 148 202 -10 462 -10 C568 -10 663 35 715 104 C716 104 717 104 717 104 L717 0 L820 0 L820 461 Z " />
<glyph glyph-name="H" unicode="H" horiz-adv-x="870" d="M780 810 L660 810 L660 472 L672 460 L198 460 L210 472 L210 810 L90 810 L90 0 L210 0 L210 337 L198 349 L672 349 L660 337 L660 0 L780 0 L780 810 Z " />
<glyph glyph-name="I" unicode="I" horiz-adv-x="310" d="M215 810 L95 810 L95 0 L215 0 L215 810 Z " />
<glyph glyph-name="J" unicode="J" horiz-adv-x="637" d="M552 810 L432 810 L432 295 C432 146 340 101 251 101 C194 101 130 138 84 200 L0 115 C63 37 152 -10 250 -10 C409 -10 552 69 552 300 L552 810 Z " />
<glyph glyph-name="K" unicode="K" horiz-adv-x="793" d="M210 810 L90 810 L90 0 L210 0 L210 810 Z M379 408 L379 410 L780 809 L610 809 L220 409 L619 0 L793 0 L379 408 Z " />
<glyph glyph-name="L" unicode="L" horiz-adv-x="678" d="M663 111 L198 111 L210 123 L210 810 L90 810 L90 0 L663 0 L663 111 Z " />
<glyph glyph-name="M" unicode="M" horiz-adv-x="1000" d="M910 810 L809 810 L541 306 L502 210 L500 210 L460 306 L193 810 L193 810 L90 810 L90 0 L210 0 L210 547 L212 547 L254 444 L498 -11 L501 -11 L744 441 L788 548 L790 548 L790 0 L910 0 L910 810 Z " />
<glyph glyph-name="N" unicode="N" horiz-adv-x="870" d="M780 810 L660 810 L660 194 L658 194 L604 285 L196 810 L90 810 L90 0 L210 0 L210 616 L212 616 L268 524 L674 0 L780 0 L780 810 Z " />
<glyph glyph-name="O" unicode="O" horiz-adv-x="894" d="M716 400 C716 231 640 101 447 101 C256 101 178 231 178 400 C178 573 255 709 447 709 C640 709 716 568 716 400 L716 400 Z M839 400 C839 645 705 820 447 820 C190 820 55 644 55 400 C55 156 190 -10 447 -10 C700 -10 839 156 839 400 L839 400 Z " />
<glyph glyph-name="P" unicode="P" horiz-adv-x="797" d="M629 556 C629 472 580 412 472 412 L198 412 L210 424 L210 687 L198 699 L472 699 C581 699 629 642 629 556 L629 556 Z M752 556 C752 704 651 810 472 810 L90 810 L90 0 L210 0 L210 289 L198 301 L472 301 C651 301 752 413 752 556 L752 556 Z " />
<glyph glyph-name="Q" unicode="Q" horiz-adv-x="894" d="M716 403 C716 329 702 263 670 212 L670 196 L548 318 L472 242 L589 126 L571 127 C537 110 496 101 447 101 C256 101 178 233 178 403 C178 575 255 709 447 709 C640 709 716 571 716 403 L716 403 Z M749 117 C808 189 839 287 839 403 C839 647 705 820 447 820 C190 820 55 646 55 403 C55 158 190 -10 447 -10 C534 -10 608 10 667 47 L790 -76 L866 -1 L749 117 Z " />
<glyph glyph-name="R" unicode="R" horiz-adv-x="819" d="M619 566 C619 491 559 435 447 435 L198 435 L210 448 L210 687 L198 699 L457 699 C553 699 619 662 619 566 L619 566 Z M685 263 C661 312 623 346 590 360 L590 362 C672 390 742 467 742 566 C742 730 610 810 457 810 L90 810 L90 0 L210 0 L210 313 L198 324 L380 324 C482 324 538 289 575 214 L680 0 L814 0 L685 263 Z " />
<glyph glyph-name="S" unicode="S" horiz-adv-x="798" d="M748 225 C748 324 677 407 514 448 C495 453 400 479 383 483 C246 520 196 549 196 599 C196 653 253 709 403 709 C506 709 582 670 639 603 L727 690 C647 774 535 820 403 820 C179 820 73 713 73 595 C73 471 181 418 328 378 C346 373 460 344 477 339 C586 311 625 264 625 219 C625 156 558 101 409 101 C309 101 232 132 139 214 L50 128 C143 31 280 -10 413 -10 C654 -10 748 107 748 225 L748 225 Z " />
<glyph glyph-name="T" unicode="T" horiz-adv-x="730" d="M710 810 L20 810 L20 699 L312 699 L305 687 L305 0 L425 0 L425 687 L419 699 L710 699 L710 810 Z " />
<glyph glyph-name="U" unicode="U" horiz-adv-x="882" d="M797 810 L677 810 L677 373 C677 202 613 101 441 101 C267 101 205 202 205 373 L205 810 L85 810 L85 372 C85 124 199 -10 442 -10 C684 -10 797 126 797 372 L797 810 Z " />
<glyph glyph-name="V" unicode="V" horiz-adv-x="849" d="M702 810 L451 217 L426 137 L424 137 L400 217 L149 810 L15 810 L366 0 L483 0 L834 810 L702 810 Z " />
<glyph glyph-name="W" unicode="W" horiz-adv-x="1077" d="M926 810 L771 233 L757 152 L755 152 L742 233 L585 810 L493 810 L337 233 L322 151 L320 151 L307 233 L153 810 L25 810 L248 0 L389 0 L521 490 L536 582 L538 582 L554 490 L686 0 L829 0 L1052 810 L926 810 Z " />
<glyph glyph-name="X" unicode="X" horiz-adv-x="804" d="M477 406 L782 810 L632 810 L451 570 L403 494 L401 494 L353 570 L173 810 L21 810 L327 406 L20 0 L170 0 L349 238 L401 320 L403 320 L454 238 L632 0 L784 0 L477 406 Z " />
<glyph glyph-name="Y" unicode="Y" horiz-adv-x="840" d="M675 810 L472 527 L421 439 L419 439 L367 526 L166 810 L15 810 L360 338 L360 0 L481 0 L481 338 L825 810 L675 810 Z " />
<glyph glyph-name="Z" unicode="Z" horiz-adv-x="810" d="M750 111 L222 111 L222 113 L293 183 L745 717 L745 810 L70 810 L70 699 L586 699 L586 697 L515 629 L60 94 L60 0 L750 0 L750 111 Z " />
<glyph glyph-name="bracketleft" unicode="&#x5b;" horiz-adv-x="294" d="M279 -96 L158 -96 L158 814 L279 814 L279 907 L60 907 L60 -190 L279 -190 L279 -96 Z " />
<glyph glyph-name="backslash" unicode="&#x5c;" horiz-adv-x="334" d="M74 860 L-30 860 L260 -50 L364 -50 L74 860 Z " />
<glyph glyph-name="bracketright" unicode="&#x5d;" horiz-adv-x="295" d="M235 907 L15 907 L15 814 L137 814 L137 -96 L15 -96 L15 -190 L235 -190 L235 907 Z " />
<glyph glyph-name="asciicircum" unicode="&#x5e;" horiz-adv-x="686" d="M386 810 L300 810 L75 415 L198 415 L313 620 L342 685 L344 685 L373 620 L488 415 L611 415 L386 810 Z " />
<glyph glyph-name="underscore" unicode="&#x5f;" horiz-adv-x="673" d="M683 -83 L-10 -83 L-10 -185 L683 -185 L683 -83 Z " />
<glyph glyph-name="grave" unicode="&#x60;" horiz-adv-x="720" d="M304 951 L227 873 L435 695 L482 743 L304 951 Z " />
<glyph glyph-name="a" unicode="a" horiz-adv-x="720" d="M518 282 L518 188 C518 107 384 94 325 94 C262 94 171 113 171 188 C171 236 209 264 269 279 C302 287 340 292 376 294 C412 296 447 296 476 296 C491 296 519 294 530 294 L518 282 Z M635 406 C635 586 494 639 357 639 C259 639 174 619 89 553 L166 474 C221 520 293 534 357 534 C444 534 511 503 517 419 C518 418 517 409 518 407 L530 395 C518 396 487 397 471 397 C312 397 55 385 55 188 C55 37 197 -11 325 -11 C393 -11 462 5 516 48 L518 48 L518 0 L635 0 L635 406 L635 406 Z " />
<glyph glyph-name="b" unicode="b" horiz-adv-x="753" d="M581 313 C581 187 529 95 390 95 C253 95 199 187 199 313 C199 440 251 534 390 534 C528 534 581 439 581 313 L581 313 Z M698 313 C698 501 601 640 399 640 C320 640 253 612 209 563 L207 563 L207 840 L90 840 L90 0 L207 0 L207 62 L209 62 C252 15 318 -10 399 -10 C599 -10 698 126 698 313 L698 313 Z " />
<glyph glyph-name="c" unicode="c" horiz-adv-x="641" d="M534 162 C486 113 432 95 367 95 C228 95 172 192 172 310 C172 433 237 534 369 535 C434 535 489 515 529 475 L607 552 C548 610 471 640 368 640 C168 640 55 495 55 310 C55 129 155 -10 367 -10 C463 -10 543 18 611 85 L534 162 Z " />
<glyph glyph-name="d" unicode="d" horiz-adv-x="753" d="M554 313 C554 187 501 95 363 95 C225 95 172 187 172 313 C172 439 227 534 363 534 C502 534 554 440 554 313 L554 313 Z M663 840 L546 840 L546 563 L544 563 C502 610 432 640 354 640 C155 640 55 501 55 312 C55 126 155 -10 354 -10 C436 -10 501 15 544 62 L546 62 L546 0 L663 0 L663 840 Z " />
<glyph glyph-name="e" unicode="e" horiz-adv-x="730" d="M166 366 L179 378 C199 471 256 536 367 536 C475 536 535 474 553 378 L565 366 L166 366 Z M675 310 C675 498 576 640 367 640 C169 640 55 501 55 310 C55 129 155 -10 372 -10 C468 -10 552 20 623 85 L543 165 C493 118 438 94 372 94 C258 94 195 154 177 252 L165 264 L672 264 C674 280 675 295 675 310 L675 310 Z " />
<glyph glyph-name="f" unicode="f" horiz-adv-x="432" d="M412 629 L216 630 L222 642 C222 704 255 742 325 742 C353 742 387 735 412 725 L412 829 C386 839 350 845 315 845 C182 845 106 774 105 650 C104 649 105 643 105 642 L111 630 L30 630 L30 529 L111 529 L105 517 L105 0 L222 0 L222 517 L216 529 L412 529 L412 629 Z " />
<glyph glyph-name="g" unicode="g" horiz-adv-x="753" d="M554 339 C554 229 498 147 361 147 C236 147 172 224 172 339 C172 450 232 535 361 535 C489 535 554 453 554 339 L554 339 Z M546 630 L546 566 L544 566 C503 612 432 640 354 640 C157 640 55 503 55 339 C55 163 155 42 355 42 C433 42 497 65 544 112 L546 112 L546 60 C546 -47 486 -110 365 -110 C301 -110 227 -86 174 -45 L95 -125 C178 -188 265 -215 365 -215 C565 -215 663 -114 663 60 L663 630 L546 630 Z " />
<glyph glyph-name="h" unicode="h" horiz-adv-x="753" d="M668 397 C668 540 580 640 402 640 C328 640 252 611 209 562 L207 562 L207 840 L90 840 L90 0 L207 0 L207 369 C207 477 286 535 388 535 C524 535 551 467 551 382 L551 0 L668 0 L668 397 L668 397 Z " />
<glyph glyph-name="i" unicode="i" horiz-adv-x="297" d="M207 630 L90 630 L90 0 L207 0 L207 630 Z M219 772 C219 815 193 846 149 846 C106 846 79 815 79 772 C79 729 105 698 149 698 C192 698 219 729 219 772 L219 772 Z " />
<glyph glyph-name="j" unicode="j" horiz-adv-x="297" d="M208 630 L91 630 L91 -31 C91 -81 66 -106 27 -106 C-1 -106 -31 -100 -59 -86 L-59 -195 C-31 -208 2 -215 33 -215 C143 -215 208 -160 208 -42 L208 630 Z M219 772 C219 815 193 846 149 846 C106 846 79 815 79 772 C79 729 105 698 149 698 C192 698 219 729 219 772 L219 772 Z " />
<glyph glyph-name="k" unicode="k" horiz-adv-x="683" d="M207 840 L90 840 L90 0 L207 0 L207 840 Z M360 319 L360 321 L672 630 L519 630 L217 318 L531 0 L683 0 L360 319 Z " />
<glyph glyph-name="l" unicode="l" horiz-adv-x="297" d="M207 840 L90 840 L90 0 L207 0 L207 840 Z " />
<glyph glyph-name="m" unicode="m" horiz-adv-x="1030" d="M945 372 C945 545 873 640 726 640 C649 640 579 595 541 535 C541 535 540 536 539 535 C509 595 444 640 364 640 C304 640 244 611 209 567 L208 567 L208 630 L90 630 L90 0 L208 0 L208 376 C208 469 265 535 342 535 C438 535 458 471 458 372 L458 0 L576 0 L576 377 C575 461 620 535 710 535 C813 535 827 462 827 349 L827 0 L944 0 L945 372 L945 372 Z " />
<glyph glyph-name="n" unicode="n" horiz-adv-x="753" d="M668 398 C668 553 566 640 402 640 C328 640 252 610 209 562 L207 562 L207 630 L90 630 L90 0 L207 0 L207 372 C207 479 286 535 388 535 C524 535 551 471 551 380 L551 0 L668 0 L668 398 L668 398 Z " />
<glyph glyph-name="o" unicode="o" horiz-adv-x="730" d="M558 315 C558 190 501 95 365 95 C230 95 172 191 172 315 C172 441 229 535 365 535 C500 535 558 440 558 315 L558 315 Z M675 315 C675 503 572 640 364 640 C158 640 55 501 55 315 C55 129 157 -10 365 -10 C570 -10 675 130 675 315 L675 315 Z " />
<glyph glyph-name="p" unicode="p" horiz-adv-x="753" d="M581 313 C581 187 528 95 390 95 C251 95 199 186 199 313 C199 439 253 535 390 535 C529 535 581 439 581 313 L581 313 Z M698 315 C698 502 599 640 399 640 C318 640 251 612 209 565 L207 565 L207 630 L90 630 L90 -210 L207 -210 L207 65 L209 65 C254 15 320 -10 399 -10 C601 -10 698 127 698 315 L698 315 Z " />
<glyph glyph-name="q" unicode="q" horiz-adv-x="753" d="M554 313 C554 186 502 95 363 95 C226 95 172 187 172 313 C172 439 225 535 363 535 C501 535 554 439 554 313 L554 313 Z M663 630 L546 630 L546 565 L544 565 C502 612 435 640 354 640 C155 640 55 502 55 315 C55 127 153 -10 354 -10 C433 -10 499 15 544 65 L546 65 L546 -210 L663 -210 L663 630 Z " />
<glyph glyph-name="r" unicode="r" horiz-adv-x="450" d="M430 637 L403 637 C320 637 245 598 209 529 L207 529 L207 630 L90 630 L90 0 L207 0 L207 311 C207 461 288 519 393 518 L430 518 L430 637 Z " />
<glyph glyph-name="s" unicode="s" horiz-adv-x="661" d="M606 178 C606 264 550 322 422 356 C408 359 334 381 321 385 C227 410 191 428 191 462 C191 491 226 535 334 535 C406 535 463 508 511 453 L591 533 C521 606 434 640 334 640 C161 640 73 557 73 459 C73 356 164 312 274 282 C288 278 373 254 386 251 C472 229 488 205 488 174 C488 137 449 94 338 94 C268 94 211 115 135 182 L55 101 C136 19 241 -11 341 -11 C528 -11 606 81 606 178 L606 178 Z " />
<glyph glyph-name="t" unicode="t" horiz-adv-x="493" d="M406 143 C365 107 337 95 298 95 C250 95 219 128 219 194 L219 517 L213 529 L411 529 L411 630 L213 630 L219 642 L219 798 L102 735 L102 642 L109 630 L30 630 L30 529 L109 529 L102 517 L102 195 C102 67 172 -10 293 -10 C360 -10 416 13 484 65 L406 143 Z " />
<glyph glyph-name="u" unicode="u" horiz-adv-x="745" d="M655 630 L538 630 L538 258 C538 151 463 95 361 95 C227 95 202 160 202 245 L202 630 L85 630 L85 241 C85 87 163 -10 347 -10 C422 -10 490 18 536 68 L538 68 L538 0 L655 0 L655 630 Z " />
<glyph glyph-name="v" unicode="v" horiz-adv-x="675" d="M535 630 L365 214 L338 132 L336 132 L310 214 L140 630 L10 630 L279 0 L396 0 L665 630 L535 630 Z " />
<glyph glyph-name="w" unicode="w" horiz-adv-x="915" d="M778 630 L661 220 L649 141 L647 141 L633 220 L507 630 L409 630 L283 220 L270 141 L268 141 L255 220 L139 630 L15 630 L201 0 L328 0 L442 350 L457 434 L459 434 L474 350 L586 0 L714 0 L900 630 L778 630 Z " />
<glyph glyph-name="x" unicode="x" horiz-adv-x="657" d="M400 316 L635 630 L491 630 L365 461 L330 402 L328 402 L292 461 L168 630 L22 630 L257 316 L20 0 L165 0 L295 175 L327 231 L329 231 L362 175 L491 0 L637 0 L400 316 Z " />
<glyph glyph-name="y" unicode="y" horiz-adv-x="700" d="M555 630 L388 213 L361 128 L359 128 L331 213 L145 630 L15 630 L302 6 C270 -72 233 -107 187 -107 C152 -107 114 -98 69 -74 L69 -186 C110 -207 151 -215 199 -215 C285 -215 355 -156 393 -65 L685 630 L555 630 Z " />
<glyph glyph-name="z" unicode="z" horiz-adv-x="677" d="M617 107 L211 107 L210 108 L279 170 L614 547 L614 629 L67 629 L67 522 L457 522 L456 521 L391 463 L60 87 L60 0 L617 0 L617 107 Z " />
<glyph glyph-name="braceleft" unicode="&#x7b;" horiz-adv-x="349" d="M339 -107 C334 -107 314 -107 309 -106 C225 -104 211 -82 211 -15 L211 210 C211 290 209 318 135 359 C197 394 211 432 211 506 L211 733 C211 800 225 822 309 824 C314 825 333 825 339 825 L339 914 C339 914 249 914 228 911 C134 899 113 823 113 741 L113 505 C113 452 94 417 40 407 L40 311 C100 301 113 258 113 204 L113 -23 C113 -105 134 -181 228 -193 C249 -196 339 -196 339 -196 L339 -107 Z " />
<glyph glyph-name="bar" unicode="&#x7c;" horiz-adv-x="334" d="M219 860 L115 860 L115 -50 L219 -50 L219 860 Z " />
<glyph glyph-name="braceright" unicode="&#x7d;" horiz-adv-x="349" d="M309 407 C255 417 236 452 236 505 L236 741 C236 823 215 899 121 911 C100 914 10 914 10 914 L10 825 C16 825 35 825 40 824 C124 822 138 800 138 733 L138 506 C138 432 151 394 213 359 C140 318 138 290 138 210 L138 -15 C138 -82 124 -104 40 -106 C35 -107 15 -107 10 -107 L10 -196 C10 -196 100 -196 121 -193 C215 -181 236 -105 236 -23 L236 204 C236 258 249 301 309 311 L309 407 Z " />
<glyph glyph-name="asciitilde" unicode="&#x7e;" horiz-adv-x="594" d="M499 421 C486 376 457 335 408 335 C347 335 271 418 193 418 C111 418 48 361 30 296 L95 231 C108 277 138 316 184 316 C250 316 321 234 400 234 C478 234 542 283 564 355 L499 421 Z " />
<glyph glyph-name="DEL" unicode="&#x7f;" horiz-adv-x="1000" d="" />
<glyph glyph-name="uni00A0" unicode="&#xa0;" horiz-adv-x="310" d="" />
<glyph glyph-name="exclamdown" unicode="&#xa1;" horiz-adv-x="304" d="M195 588 L108 588 L81 0 L222 0 L195 588 Z M234 731 C234 782 206 820 152 820 C99 820 70 782 70 731 C70 680 98 643 152 643 C206 643 234 681 234 731 L234 731 Z " />
<glyph glyph-name="cent" unicode="&#xa2;" horiz-adv-x="641" d="M345 611 L270 223 L275 207 C201 241 172 319 172 400 C172 513 226 608 346 620 C348 620 352 620 354 621 L345 611 Z M531 255 C485 209 435 187 367 188 L355 188 L364 199 L442 602 L437 614 C471 604 503 585 526 562 L607 642 C563 685 517 707 458 722 L466 732 L484 820 L386 820 L370 741 L375 730 C367 731 356 730 348 730 C171 724 55 587 55 400 C55 252 121 135 254 96 L244 87 L225 -10 L323 -10 L339 71 L333 81 C346 79 355 80 367 80 C464 80 545 110 611 175 L531 255 Z " />
<glyph glyph-name="sterling" unicode="&#xa3;" horiz-adv-x="738" d="M668 688 C605 762 510 820 391 820 C243 820 114 755 114 589 C114 558 122 512 132 472 L141 460 L72 460 L72 350 L169 350 L165 337 C192 190 144 145 55 102 L55 0 L654 0 L654 111 L226 111 L226 113 C281 154 307 224 286 337 L278 350 L490 350 L490 460 L250 460 L254 472 C244 516 237 565 237 593 C237 677 295 709 387 709 C465 709 530 675 585 605 L668 688 L668 688 Z " />
<glyph glyph-name="currency" unicode="&#xa4;" horiz-adv-x="624" d="M431 403 C431 370 420 342 397 319 C374 296 346 285 312 285 C278 285 250 297 228 320 C205 343 194 370 194 403 C194 436 205 464 228 488 C251 512 279 523 312 523 C346 523 373 511 396 488 C420 464 431 436 431 403 L431 403 Z M497 659 L426 590 C391 612 354 622 312 622 C270 622 231 612 196 590 L126 659 L55 590 L126 517 C104 481 93 443 93 403 C93 362 104 324 125 288 L56 217 L126 148 L196 217 C231 195 269 185 312 185 C354 185 391 195 426 216 L497 147 L567 216 L499 287 C521 322 531 361 531 403 C531 442 520 480 498 517 L569 590 L497 659 Z " />
<glyph glyph-name="yen" unicode="&#xa5;" horiz-adv-x="850" d="M675 810 L472 527 L426 447 L424 447 L377 526 L176 810 L25 810 L282 458 L295 447 L128 447 L128 346 L371 346 L368 340 L365 297 L367 271 L371 263 L128 263 L128 162 L371 162 L365 150 L365 0 L375 0 L475 0 L485 0 L485 151 L479 162 L724 162 L724 263 L479 263 L485 276 L485 333 L479 346 L724 346 L724 447 L554 443 L568 457 L825 810 L675 810 Z " />
<glyph glyph-name="brokenbar" unicode="&#xa6;" horiz-adv-x="335" d="M220 360 L115 360 L115 -50 L220 -50 L220 360 Z M220 860 L115 860 L115 450 L220 450 L220 860 Z " />
<glyph glyph-name="section" unicode="&#xa7;" horiz-adv-x="657" d="M494 274 C494 232 456 196 425 169 L249 270 C207 294 163 328 163 373 C163 414 205 451 236 478 L400 381 C440 357 494 326 494 274 L494 274 Z M614 290 C614 395 505 457 410 508 C386 521 363 533 341 546 C320 558 301 570 284 583 C255 606 240 627 240 650 C240 688 279 712 341 712 C403 712 467 678 517 625 L598 704 C527 774 433 819 341 819 C223 819 114 763 114 651 C114 611 135 574 161 546 C102 502 44 446 44 363 C44 270 121 212 204 165 C243 142 286 120 324 98 C361 76 393 54 415 28 C426 15 435 -3 435 -18 C435 -72 399 -92 341 -92 C278 -92 207 -66 156 -12 L75 -91 C149 -163 250 -201 341 -201 C454 -201 562 -146 562 -19 C562 36 542 69 508 105 C567 151 614 209 614 290 L614 290 Z " />
<glyph glyph-name="dieresis" unicode="&#xa8;" horiz-adv-x="720" d="M291 778 C291 821 269 849 226 849 C184 849 162 820 162 778 C162 736 184 707 226 707 C268 707 291 736 291 778 L291 778 Z M535 778 C535 821 513 849 470 849 C428 849 406 820 406 778 C406 736 428 707 470 707 C512 707 535 736 535 778 L535 778 Z " />
<glyph glyph-name="copyright" unicode="&#xa9;" horiz-adv-x="959" d="M615 272 C576 230 533 213 478 213 C362 213 315 295 315 396 C315 501 369 587 480 588 C534 588 578 570 609 537 L671 599 C626 648 564 673 479 673 C318 673 227 552 227 396 C227 244 307 127 478 127 C557 127 624 152 677 210 L615 272 Z M816 401 C816 216 665 55 480 55 C294 55 143 216 143 401 C143 585 295 746 480 746 C664 746 816 585 816 401 L816 401 Z M899 401 C899 632 711 820 480 820 C248 820 60 632 60 401 C60 169 248 -20 480 -20 C711 -20 899 169 899 401 L899 401 Z " />
<glyph glyph-name="ordfeminine" unicode="&#xaa;" horiz-adv-x="467" d="M330 576 L330 521 C330 472 250 463 208 463 C162 463 112 478 112 520 C112 552 138 570 179 579 C200 584 223 586 245 587 C267 588 288 588 306 588 C311 588 330 588 339 588 L330 576 Z M412 664 C412 784 318 820 229 820 C162 820 105 806 43 755 L100 699 C138 734 186 744 229 744 C287 744 318 723 330 677 C330 677 331 670 332 669 C333 667 339 660 339 660 C329 661 309 661 303 661 C203 661 30 655 30 520 C30 419 125 387 208 387 C252 387 294 397 329 426 C329 426 330 426 330 426 L330 394 L412 394 L412 664 L412 664 Z " />
<glyph glyph-name="guillemotleft" unicode="&#xab;" horiz-adv-x="673" d="M255 212 C255 212 208 249 200 253 C200 254 199 255 199 255 L255 298 L344 387 L267 465 L55 255 L267 45 L344 123 L255 212 Z M529 212 C529 212 482 249 474 253 C474 254 473 255 473 255 L529 298 L618 387 L541 465 L329 255 L541 45 L618 123 L529 212 Z " />
<glyph glyph-name="logicalnot" unicode="&#xac;" horiz-adv-x="583" d="M553 370 L30 370 L30 264 L447 264 L442 253 L442 50 L553 50 L553 370 Z " />
<glyph glyph-name="softhyphen" unicode="&#xad;" horiz-adv-x="405" d="M375 385 L30 385 L30 275 L375 275 L375 385 Z " />
<glyph glyph-name="registered" unicode="&#xae;" horiz-adv-x="959" d="M575 491 C575 456 548 427 492 427 L364 427 L374 438 L374 544 L364 555 L497 555 C546 555 575 536 575 491 L575 491 Z M626 324 C617 345 604 362 588 373 C629 392 661 437 661 491 C661 591 583 638 497 638 L289 638 L289 162 L374 162 L374 333 L364 344 L456 344 C507 344 531 327 549 288 L608 162 L703 162 L626 324 Z M816 400 C816 216 665 55 480 55 C294 55 143 216 143 400 C143 585 295 746 480 746 C664 746 816 585 816 400 L816 400 Z M899 401 C899 632 711 820 480 820 C248 820 60 632 60 401 C60 169 248 -20 480 -20 C711 -20 899 169 899 401 L899 401 Z " />
<glyph glyph-name="macron" unicode="&#xaf;" horiz-adv-x="709" d="M565 822 L170 822 L170 742 L565 742 L565 822 Z " />
<glyph glyph-name="degree" unicode="&#xb0;" horiz-adv-x="437" d="M301 627 C301 563 272 516 206 516 C140 516 111 563 111 627 C111 693 139 739 206 739 C272 739 301 692 301 627 L301 627 Z M382 627 C382 738 324 820 206 820 C88 820 30 737 30 627 C30 518 88 435 206 435 C323 435 382 518 382 627 L382 627 Z " />
<glyph glyph-name="plusminus" unicode="&#xb1;" horiz-adv-x="685" d="M595 160 L90 160 L90 50 L595 50 L595 160 Z M595 535 L390 535 L397 547 L397 753 L288 753 L288 547 L295 535 L90 535 L90 425 L295 425 L288 413 L288 208 L397 208 L397 413 L390 425 L595 425 L595 535 Z " />
<glyph glyph-name="twosuperior" unicode="&#xb2;" horiz-adv-x="434" d="M379 685 C379 751 330 815 222 815 C158 815 105 792 55 733 L118 670 C154 718 183 732 221 732 C280 732 292 706 292 685 C292 665 282 647 225 627 L170 608 C90 579 57 511 57 446 L57 361 L379 361 L379 444 L135 444 L142 452 L143 454 C155 484 163 514 199 527 L263 549 C344 578 379 623 379 685 L379 685 Z " />
<glyph glyph-name="threesuperior" unicode="&#xb3;" horiz-adv-x="469" d="M414 496 C414 547 386 583 346 600 L346 602 C379 621 406 656 406 694 C406 762 351 820 235 820 C166 820 110 798 59 742 L121 680 C156 721 187 738 234 738 C305 738 319 711 319 694 C319 676 306 645 241 639 C228 637 168 636 168 636 L168 560 C168 560 227 559 244 557 C306 552 328 524 328 494 C328 473 306 436 233 436 C184 436 153 455 117 498 L55 437 C106 380 161 355 234 355 C357 355 414 427 414 496 L414 496 Z " />
<glyph glyph-name="acute" unicode="&#xb4;" horiz-adv-x="725" d="M428 951 L250 743 L298 695 L505 873 L428 951 Z " />
<glyph glyph-name="mu" unicode="&#xb5;" horiz-adv-x="730" d="M640 630 L524 630 L524 260 C524 156 455 94 354 94 C267 94 207 155 207 257 L207 630 L90 630 L90 -210 L207 -210 L207 49 L208 50 C250 4 295 -11 355 -11 C416 -11 477 6 522 53 C523 53 524 53 524 53 L524 -1 L640 -1 L640 630 Z " />
<glyph glyph-name="paragraph" unicode="&#xb6;" horiz-adv-x="665" d="M595 810 L262 810 C118 810 0 695 0 554 C0 417 108 307 248 299 C250 299 255 299 257 299 L250 289 L250 -181 L361 -181 L361 695 L355 705 L433 705 L427 695 L427 -181 L537 -181 L537 695 L531 705 L595 705 L595 810 Z " />
<glyph glyph-name="periodcentered" unicode="&#xb7;" horiz-adv-x="292" d="M222 406 C222 458 194 494 141 494 C88 494 60 458 60 406 C60 353 88 317 141 317 C194 317 222 353 222 406 L222 406 Z " />
<glyph glyph-name="cedilla" unicode="&#xb8;" horiz-adv-x="641" d="M382 4 L305 4 L340 -31 C354 -45 358 -59 330 -87 L264 -153 L320 -208 L410 -118 C442 -86 440 -49 411 -22 L382 4 Z " />
<glyph glyph-name="onesuperior" unicode="&#xb9;" horiz-adv-x="297" d="M222 810 L148 810 L30 694 L88 636 L110 659 L128 681 L144 702 L137 655 L137 355 L222 355 L222 810 Z " />
<glyph glyph-name="ordmasculine" unicode="&#xba;" horiz-adv-x="494" d="M357 604 C357 522 320 464 234 464 C149 464 112 523 112 604 C112 685 148 743 234 743 C320 743 357 685 357 604 L357 604 Z M439 604 C439 728 371 820 234 820 C98 820 30 727 30 604 C30 480 98 387 234 387 C370 387 439 481 439 604 L439 604 Z " />
<glyph glyph-name="guillemotright" unicode="&#xbb;" horiz-adv-x="673" d="M132 465 L55 387 L128 314 L173 274 L200 254 C192 249 144 212 144 212 L55 123 L132 45 L344 255 L132 465 Z M406 465 L329 387 L402 314 L447 274 L474 254 C466 249 418 212 418 212 L329 123 L406 45 L618 255 L406 465 Z " />
<glyph glyph-name="onequarter" unicode="&#xbc;" horiz-adv-x="795" d="M481 179 L482 181 L509 208 L577 290 L595 317 L605 331 L604 298 L604 188 L609 180 L481 179 Z M222 810 L148 810 L30 694 L88 636 L110 659 L128 681 L144 702 L137 655 L137 355 L222 355 L222 810 Z M444 820 L153 -10 L244 -10 L535 820 L444 820 Z M740 180 L686 180 L691 189 L691 454 L615 454 L372 161 L372 98 L609 98 L604 89 L604 -1 L691 -1 L690 90 L685 98 L740 98 L740 180 Z " />
<glyph glyph-name="onehalf" unicode="&#xbd;" horiz-adv-x="819" d="M222 810 L148 810 L30 694 L88 636 L110 659 L128 681 L144 702 L137 655 L137 355 L222 355 L222 810 Z M445 820 L154 -10 L245 -10 L536 820 L445 820 Z M764 323 C764 390 715 454 606 454 C543 454 490 430 440 372 L503 309 C539 356 568 371 606 371 C665 371 677 344 677 323 C677 303 667 285 609 265 L555 246 C474 218 441 150 441 85 L441 -1 L763 -1 L763 82 L520 82 L526 90 L527 92 C539 122 547 153 583 165 L648 188 C728 216 764 261 764 323 L764 323 Z " />
<glyph glyph-name="threequarters" unicode="&#xbe;" horiz-adv-x="947" d="M633 179 L634 181 L662 208 L730 290 L748 317 L758 331 L756 298 L756 188 L761 180 L633 179 Z M414 496 C414 547 386 583 346 600 L346 602 C379 621 406 656 406 694 C406 762 351 820 235 820 C166 820 110 798 59 742 L121 680 C156 721 187 738 234 738 C305 738 319 711 319 694 C319 676 306 645 241 639 C228 637 168 636 168 636 L168 560 C168 560 227 559 244 557 C306 552 328 524 328 494 C328 473 306 436 233 436 C184 436 153 455 117 498 L55 437 C106 380 161 355 234 355 C357 355 414 427 414 496 L414 496 Z M596 820 L305 -10 L396 -10 L687 820 L596 820 Z M892 180 L838 180 L843 189 L843 454 L767 454 L525 161 L525 98 L762 98 L756 89 L756 -1 L843 -1 L843 90 L837 98 L892 98 L892 180 Z " />
<glyph glyph-name="questiondown" unicode="&#xbf;" horiz-adv-x="669" d="M522 204 C467 132 409 99 323 99 C235 99 178 158 178 203 C178 245 197 272 254 294 L277 302 C420 356 444 427 444 545 L444 588 L324 588 L324 554 C324 465 312 438 237 409 L199 395 C117 364 55 295 55 203 C55 102 155 -10 323 -10 C444 -10 537 34 614 122 L522 204 Z M465 731 C465 784 437 820 384 820 C331 820 303 784 303 731 C303 678 331 643 384 643 C437 643 465 679 465 731 L465 731 Z " />
<glyph glyph-name="Agrave" unicode="&#xc0;" horiz-adv-x="881" d="M280 310 L292 322 L417 598 L440 671 L442 671 L465 597 L589 322 L601 310 L280 310 Z M499 810 L382 810 L15 0 L146 0 L231 188 L225 199 L656 199 L650 188 L735 0 L866 0 L499 810 Z M384 1129 L307 1052 L515 874 L562 922 L384 1129 Z " />
<glyph glyph-name="Aacute" unicode="&#xc1;" horiz-adv-x="881" d="M280 310 L292 322 L417 598 L440 671 L442 671 L465 597 L589 322 L601 310 L280 310 Z M499 810 L382 810 L15 0 L146 0 L231 188 L225 199 L656 199 L650 188 L735 0 L866 0 L499 810 Z M501 1129 L323 922 L371 874 L579 1052 L501 1129 Z " />
<glyph glyph-name="Acircumflex" unicode="&#xc2;" horiz-adv-x="881" d="M280 310 L292 322 L417 598 L440 671 L442 671 L465 597 L589 322 L601 310 L280 310 Z M499 810 L382 810 L15 0 L146 0 L231 188 L225 199 L656 199 L650 188 L735 0 L866 0 L499 810 Z M442 1106 L440 1106 L252 920 L299 873 L439 987 L441 987 L582 873 L629 920 L442 1106 Z " />
<glyph glyph-name="Atilde" unicode="&#xc3;" horiz-adv-x="881" d="M280 310 L292 322 L417 598 L440 671 L442 671 L465 597 L589 322 L601 310 L280 310 Z M499 810 L382 810 L15 0 L146 0 L231 188 L225 199 L656 199 L650 188 L735 0 L866 0 L499 810 Z M624 1041 C609 992 579 964 540 964 C527 964 514 968 500 974 C485 981 470 990 454 999 C421 1019 386 1039 350 1039 C280 1039 221 981 206 926 L258 874 C275 925 306 950 342 950 C355 950 369 946 383 939 C399 933 414 924 429 914 C461 895 495 875 531 875 C597 875 657 922 678 988 L624 1041 Z " />
<glyph glyph-name="Adieresis" unicode="&#xc4;" horiz-adv-x="881" d="M280 310 L292 322 L417 598 L440 671 L442 671 L465 597 L589 322 L601 310 L280 310 Z M499 810 L382 810 L15 0 L146 0 L231 188 L225 199 L656 199 L650 188 L735 0 L866 0 L499 810 Z M384 971 C384 1013 362 1042 319 1042 C277 1042 255 1013 255 971 C255 929 277 900 320 900 C362 900 384 929 384 971 L384 971 Z M628 971 C628 1013 606 1042 563 1042 C521 1042 499 1013 499 971 C499 929 521 900 564 900 C606 900 628 929 628 971 L628 971 Z " />
<glyph glyph-name="Aring" unicode="&#xc5;" horiz-adv-x="881" d="M280 310 L292 322 L417 598 L440 671 L442 671 L465 597 L589 322 L601 310 L280 310 Z M493 992 C493 959 476 935 441 935 C406 935 389 959 389 992 C389 1025 405 1048 441 1048 C476 1048 493 1024 493 992 L493 992 Z M499 810 L382 810 L15 0 L146 0 L231 188 L225 199 L656 199 L650 188 L735 0 L866 0 L499 810 Z M554 992 C554 1059 517 1108 441 1108 C365 1108 328 1058 328 992 C328 925 365 875 441 875 C516 875 554 925 554 992 L554 992 Z " />
<glyph glyph-name="AE" unicode="&#xc6;" horiz-adv-x="1076" d="M280 310 L290 320 L455 687 L452 699 L525 699 L518 687 L518 322 L528 310 L280 310 Z M1006 111 L625 111 L637 123 L637 338 L625 350 L963 350 L963 460 L625 460 L637 473 L637 687 L631 699 L1006 699 L1006 810 L382 810 L15 0 L146 0 L231 187 L225 199 L525 199 L517 187 L517 0 L1006 0 L1006 111 Z " />
<glyph glyph-name="Ccedilla" unicode="&#xc7;" horiz-adv-x="810" d="M780 692 C703 776 601 820 465 820 C200 820 55 645 55 400 C55 170 178 10 416 -8 L439 -31 C453 -45 457 -59 429 -87 L363 -153 L419 -208 L509 -118 C541 -86 539 -49 510 -22 L496 -9 C615 -3 708 41 779 119 L692 204 C639 137 570 101 464 101 C259 101 178 232 178 400 C178 572 263 709 465 709 C571 709 639 672 691 606 L780 692 L780 692 Z " />
<glyph glyph-name="Egrave" unicode="&#xc8;" horiz-adv-x="780" d="M710 111 L198 111 L210 123 L210 338 L198 350 L662 350 L662 460 L198 460 L210 473 L210 687 L198 699 L710 699 L710 810 L90 810 L90 0 L710 0 L710 111 Z M341 1130 L263 1053 L471 875 L519 923 L341 1130 Z " />
<glyph glyph-name="Eacute" unicode="&#xc9;" horiz-adv-x="780" d="M710 111 L198 111 L210 123 L210 338 L198 350 L662 350 L662 460 L198 460 L210 473 L210 687 L198 699 L710 699 L710 810 L90 810 L90 0 L710 0 L710 111 Z M485 1129 L307 922 L355 874 L562 1052 L485 1129 Z " />
<glyph glyph-name="Ecircumflex" unicode="&#xca;" horiz-adv-x="780" d="M710 111 L198 111 L210 123 L210 338 L198 350 L662 350 L662 460 L198 460 L210 473 L210 687 L198 699 L710 699 L710 810 L90 810 L90 0 L710 0 L710 111 Z M408 1106 L406 1106 L218 920 L265 873 L405 987 L407 987 L548 873 L595 920 L408 1106 Z " />
<glyph glyph-name="Edieresis" unicode="&#xcb;" horiz-adv-x="780" d="M710 111 L198 111 L210 123 L210 338 L198 350 L662 350 L662 460 L198 460 L210 473 L210 687 L198 699 L710 699 L710 810 L90 810 L90 0 L710 0 L710 111 Z M349 971 C349 1014 327 1042 284 1042 C242 1042 219 1014 219 971 C219 929 241 901 284 901 C326 901 349 929 349 971 L349 971 Z M593 971 C593 1014 571 1042 528 1042 C486 1042 463 1014 463 971 C463 929 485 901 528 901 C570 901 593 929 593 971 L593 971 Z " />
<glyph glyph-name="Igrave" unicode="&#xcc;" horiz-adv-x="310" d="M215 810 L95 810 L95 0 L215 0 L215 810 Z M90 1130 L13 1053 L221 875 L268 923 L90 1130 Z " />
<glyph glyph-name="Iacute" unicode="&#xcd;" horiz-adv-x="310" d="M215 810 L95 810 L95 0 L215 0 L215 810 Z M213 1129 L35 922 L83 874 L290 1052 L213 1129 Z " />
<glyph glyph-name="Icircumflex" unicode="&#xce;" horiz-adv-x="310" d="M215 810 L95 810 L95 0 L215 0 L215 810 Z M159 1106 L157 1106 L-32 920 L15 873 L155 987 L157 987 L299 873 L346 920 L159 1106 Z " />
<glyph glyph-name="Idieresis" unicode="&#xcf;" horiz-adv-x="310" d="M215 810 L95 810 L95 0 L215 0 L215 810 Z M99 970 C99 1013 77 1041 34 1041 C-8 1041 -30 1013 -30 970 C-30 928 -8 900 35 900 C77 900 99 928 99 970 L99 970 Z M343 970 C343 1013 321 1041 278 1041 C236 1041 214 1013 214 970 C214 928 236 900 279 900 C321 900 343 928 343 970 L343 970 Z " />
<glyph glyph-name="Eth" unicode="&#xd0;" horiz-adv-x="848" d="M670 405 C670 245 634 111 403 111 L198 111 L210 123 L210 337 L203 350 L405 350 L405 460 L203 460 L210 472 L210 687 L198 699 L399 699 C632 699 670 564 670 405 L670 405 Z M793 405 C793 595 736 810 409 810 L250 810 L178 810 L90 810 L89 473 L97 460 L25 460 L25 350 L97 350 L90 338 L90 0 L413 0 C737 0 793 215 793 405 L793 405 Z " />
<glyph glyph-name="Ntilde" unicode="&#xd1;" horiz-adv-x="870" d="M780 810 L660 810 L660 194 L658 194 L604 285 L196 810 L90 810 L90 0 L210 0 L210 616 L212 616 L268 524 L674 0 L780 0 L780 810 Z M616 1041 C601 992 570 964 531 964 C519 964 506 968 491 974 C476 981 461 990 445 999 C413 1019 378 1039 342 1039 C272 1039 213 981 197 926 L250 874 C267 925 298 950 333 950 C347 950 361 946 375 939 C390 933 405 924 421 914 C453 895 487 875 523 875 C588 875 649 922 669 988 L616 1041 Z " />
<glyph glyph-name="Ograve" unicode="&#xd2;" horiz-adv-x="894" d="M716 400 C716 231 640 101 447 101 C256 101 178 231 178 400 C178 573 255 709 447 709 C640 709 716 568 716 400 L716 400 Z M839 400 C839 645 705 820 447 820 C190 820 55 644 55 400 C55 156 190 -10 447 -10 C700 -10 839 156 839 400 L839 400 Z M381 1130 L303 1053 L511 875 L559 923 L381 1130 Z " />
<glyph glyph-name="Oacute" unicode="&#xd3;" horiz-adv-x="894" d="M716 400 C716 231 640 101 447 101 C256 101 178 231 178 400 C178 573 255 709 447 709 C640 709 716 568 716 400 L716 400 Z M839 400 C839 645 705 820 447 820 C190 820 55 644 55 400 C55 156 190 -10 447 -10 C700 -10 839 156 839 400 L839 400 Z M512 1129 L334 922 L382 874 L590 1052 L512 1129 Z " />
<glyph glyph-name="Ocircumflex" unicode="&#xd4;" horiz-adv-x="894" d="M716 400 C716 231 640 101 447 101 C256 101 178 231 178 400 C178 573 255 709 447 709 C640 709 716 568 716 400 L716 400 Z M839 400 C839 645 705 820 447 820 C190 820 55 644 55 400 C55 156 190 -10 447 -10 C700 -10 839 156 839 400 L839 400 Z M450 1106 L448 1106 L260 920 L307 873 L447 987 L449 987 L590 873 L637 920 L450 1106 Z " />
<glyph glyph-name="Otilde" unicode="&#xd5;" horiz-adv-x="894" d="M716 400 C716 231 640 101 447 101 C256 101 178 231 178 400 C178 573 255 709 447 709 C640 709 716 568 716 400 L716 400 Z M839 400 C839 645 705 820 447 820 C190 820 55 644 55 400 C55 156 190 -10 447 -10 C700 -10 839 156 839 400 L839 400 Z M624 1041 C609 992 579 964 540 964 C527 964 514 968 500 974 C485 981 470 990 454 999 C421 1019 386 1039 350 1039 C280 1039 221 981 206 926 L258 874 C275 925 306 950 342 950 C355 950 369 946 383 939 C399 933 414 924 429 914 C461 895 495 875 531 875 C597 875 657 922 678 988 L624 1041 Z " />
<glyph glyph-name="Odieresis" unicode="&#xd6;" horiz-adv-x="894" d="M716 400 C716 231 640 101 447 101 C256 101 178 231 178 400 C178 573 255 709 447 709 C640 709 716 568 716 400 L716 400 Z M839 400 C839 645 705 820 447 820 C190 820 55 644 55 400 C55 156 190 -10 447 -10 C701 -10 839 156 839 400 L839 400 Z M389 971 C389 1013 367 1042 324 1042 C282 1042 259 1013 259 971 C259 929 281 900 324 900 C366 900 389 929 389 971 L389 971 Z M633 971 C633 1013 611 1042 568 1042 C526 1042 503 1013 503 971 C503 929 525 900 568 900 C610 900 633 929 633 971 L633 971 Z " />
<glyph glyph-name="multiply" unicode="&#xd7;" horiz-adv-x="626" d="M392 399 L384 403 L551 566 L474 643 L311 476 L305 485 L152 643 L75 566 L233 411 L241 407 L75 244 L152 167 L314 334 L319 326 L474 167 L551 244 L392 399 Z " />
<glyph glyph-name="Oslash" unicode="&#xd8;" horiz-adv-x="894" d="M559 679 L269 173 L269 159 C204 215 178 302 178 400 C178 573 255 709 447 709 C493 709 537 700 569 684 L559 679 Z M716 400 C716 231 640 101 447 101 C399 101 354 110 318 127 L328 134 L620 642 L620 654 C689 596 716 502 716 400 L716 400 Z M839 400 C839 554 787 681 679 755 L687 761 L721 819 L660 855 L626 795 L625 784 C576 806 515 820 448 820 C192 820 55 644 55 400 C55 250 106 128 209 56 L200 51 L150 -36 L210 -72 L261 17 L259 28 C312 3 377 -10 447 -10 C701 -10 839 156 839 400 L839 400 Z " />
<glyph glyph-name="Ugrave" unicode="&#xd9;" horiz-adv-x="882" d="M797 810 L677 810 L677 373 C677 202 613 101 441 101 C267 101 205 202 205 373 L205 810 L85 810 L85 372 C85 124 199 -10 442 -10 C684 -10 797 126 797 372 L797 810 Z M375 1130 L297 1053 L505 875 L553 923 L375 1130 Z " />
<glyph glyph-name="Uacute" unicode="&#xda;" horiz-adv-x="882" d="M797 810 L677 810 L677 373 C677 202 613 101 441 101 C267 101 205 202 205 373 L205 810 L85 810 L85 372 C85 124 199 -10 442 -10 C684 -10 797 126 797 372 L797 810 Z M496 1129 L318 922 L366 874 L573 1052 L496 1129 Z " />
<glyph glyph-name="Ucircumflex" unicode="&#xdb;" horiz-adv-x="882" d="M797 810 L677 810 L677 373 C677 202 613 101 441 101 C267 101 205 202 205 373 L205 810 L85 810 L85 372 C85 124 199 -10 442 -10 C684 -10 797 126 797 372 L797 810 Z M444 1106 L442 1106 L253 920 L300 873 L440 987 L442 987 L584 873 L631 920 L444 1106 Z " />
<glyph glyph-name="Udieresis" unicode="&#xdc;" horiz-adv-x="882" d="M797 810 L677 810 L677 373 C677 202 613 101 441 101 C267 101 205 202 205 373 L205 810 L85 810 L85 372 C85 124 199 -10 442 -10 C684 -10 797 126 797 372 L797 810 Z M384 971 C384 1013 362 1042 319 1042 C277 1042 254 1013 254 971 C254 929 276 900 319 900 C361 900 384 929 384 971 L384 971 Z M628 971 C628 1013 606 1042 563 1042 C521 1042 498 1013 498 971 C498 929 520 900 563 900 C605 900 628 929 628 971 L628 971 Z " />
<glyph glyph-name="Yacute" unicode="&#xdd;" horiz-adv-x="850" d="M685 810 L474 523 L426 438 L424 438 L375 522 L166 810 L15 810 L365 338 L365 0 L486 0 L486 338 L835 810 L685 810 Z M487 1129 L309 922 L357 874 L564 1052 L487 1129 Z " />
<glyph glyph-name="Thorn" unicode="&#xde;" horiz-adv-x="797" d="M629 404 C629 321 580 260 472 260 L198 260 L210 273 L210 536 L198 548 L472 548 C581 548 629 491 629 404 L629 404 Z M752 404 C752 553 651 659 472 659 L197 659 L209 671 L209 810 L90 810 L90 0 L210 0 L210 138 L198 150 L472 150 C651 150 752 262 752 404 L752 404 Z " />
<glyph glyph-name="germandbls" unicode="&#xdf;" horiz-adv-x="707" d="M652 245 C652 352 587 437 504 463 L504 465 C558 496 592 551 592 621 C592 756 479 845 326 845 C192 845 90 794 90 639 L90 0 L207 0 L207 616 C207 700 236 738 325 738 C408 738 474 694 474 616 C474 542 425 500 342 501 L250 502 L250 395 L379 395 C471 395 535 335 535 244 C535 152 473 97 385 97 C329 97 303 102 247 126 L247 12 C294 -5 335 -11 394 -11 C542 -11 652 98 652 245 L652 245 Z " />
<glyph glyph-name="agrave" unicode="&#xe0;" horiz-adv-x="720" d="M518 282 L518 188 C518 107 384 94 325 94 C262 94 171 113 171 188 C171 236 209 264 269 279 C302 287 340 292 376 294 C412 296 447 296 476 296 C491 296 519 294 530 294 L518 282 Z M635 406 C635 586 494 639 357 639 C259 639 174 619 89 553 L166 474 C221 520 293 534 357 534 C444 534 511 503 517 419 C518 418 517 409 518 407 L530 395 C518 396 487 397 471 397 C312 397 55 385 55 188 C55 37 197 -11 325 -11 C393 -11 462 5 516 48 L518 48 L518 0 L635 0 L635 406 L635 406 Z M304 951 L227 873 L435 695 L482 743 L304 951 Z " />
<glyph glyph-name="aacute" unicode="&#xe1;" horiz-adv-x="720" d="M518 282 L518 188 C518 107 384 94 325 94 C262 94 171 113 171 188 C171 236 209 264 269 279 C302 287 340 292 376 294 C412 296 447 296 476 296 C491 296 519 294 530 294 L518 282 Z M635 406 C635 586 494 639 357 639 C259 639 174 619 89 553 L166 474 C221 520 293 534 357 534 C444 534 511 503 517 419 C518 418 517 409 518 407 L530 395 C518 396 487 397 471 397 C312 397 55 385 55 188 C55 37 197 -11 325 -11 C393 -11 462 5 516 48 L518 48 L518 0 L635 0 L635 406 L635 406 Z M426 951 L249 743 L296 695 L504 873 L426 951 Z " />
<glyph glyph-name="acircumflex" unicode="&#xe2;" horiz-adv-x="720" d="M518 282 L518 188 C518 107 384 94 325 94 C262 94 171 113 171 188 C171 236 209 264 269 279 C302 287 340 292 376 294 C412 296 447 296 476 296 C491 296 519 294 530 294 L518 282 Z M635 406 C635 586 494 639 357 639 C259 639 174 619 89 553 L166 474 C221 520 293 534 357 534 C444 534 511 503 517 419 C518 418 517 409 518 407 L530 395 C518 396 487 397 471 397 C312 397 55 385 55 188 C55 37 197 -11 325 -11 C393 -11 462 5 516 48 L518 48 L518 0 L635 0 L635 406 L635 406 Z M347 930 L345 930 L157 743 L204 696 L344 810 L346 811 L487 696 L534 743 L347 930 Z " />
<glyph glyph-name="atilde" unicode="&#xe3;" horiz-adv-x="720" d="M518 282 L518 188 C518 107 384 94 325 94 C262 94 171 113 171 188 C171 236 209 264 269 279 C302 287 340 292 376 294 C412 296 447 296 476 296 C491 296 519 294 530 294 L518 282 Z M635 406 C635 586 494 639 357 639 C259 639 174 619 89 553 L166 474 C221 520 293 534 357 534 C444 534 511 503 517 419 C518 418 517 409 518 407 L530 395 C518 396 487 397 471 397 C312 397 55 385 55 188 C55 37 197 -11 325 -11 C393 -11 462 5 516 48 L518 48 L518 0 L635 0 L635 406 L635 406 Z M530 878 C515 830 484 801 445 801 C433 801 420 805 406 812 C391 818 375 828 360 837 C327 856 292 877 256 877 C186 877 127 819 112 764 L164 711 C181 763 212 787 247 787 C261 787 275 783 289 777 C304 770 320 761 335 752 C367 733 401 712 437 712 C503 712 563 760 583 825 L530 878 Z " />
<glyph glyph-name="adieresis" unicode="&#xe4;" horiz-adv-x="720" d="M518 282 L518 188 C518 107 384 94 325 94 C262 94 171 113 171 188 C171 236 209 264 269 279 C302 287 340 292 376 294 C412 296 447 296 476 296 C491 296 519 294 530 294 L518 282 Z M635 406 C635 586 494 639 357 639 C259 639 174 619 89 553 L166 474 C221 520 293 534 357 534 C444 534 511 503 517 419 C518 418 517 409 518 407 L530 395 C518 396 487 397 471 397 C312 397 55 385 55 188 C55 37 197 -11 325 -11 C393 -11 462 5 516 48 L518 48 L518 0 L635 0 L635 406 L635 406 Z M291 778 C291 821 269 849 226 849 C184 849 162 820 162 778 C162 736 184 707 226 707 C268 707 291 736 291 778 L291 778 Z M535 778 C535 821 513 849 470 849 C428 849 406 820 406 778 C406 736 428 707 470 707 C512 707 535 736 535 778 L535 778 Z " />
<glyph glyph-name="aring" unicode="&#xe5;" horiz-adv-x="720" d="M518 282 L518 188 C518 107 384 94 325 94 C262 94 171 113 171 188 C171 236 209 264 269 279 C302 287 340 292 376 294 C412 296 447 296 476 296 C491 296 519 294 530 294 L518 282 Z M407 812 C407 779 391 756 355 756 C320 756 303 780 303 812 C303 845 319 868 355 868 C391 868 407 845 407 812 L407 812 Z M635 406 C635 586 494 639 357 639 C259 639 174 619 89 553 L166 474 C221 520 293 534 357 534 C444 534 511 503 517 419 C518 418 517 409 518 407 L530 395 C518 396 487 397 471 397 C312 397 55 385 55 188 C55 37 197 -11 325 -11 C393 -11 462 5 516 48 L518 48 L518 0 L635 0 L635 406 L635 406 Z M469 812 C469 879 431 929 355 929 C279 929 242 879 242 812 C242 746 279 695 355 695 C430 695 469 746 469 812 L469 812 Z " />
<glyph glyph-name="ae" unicode="&#xe6;" horiz-adv-x="1163" d="M508 281 L508 188 C508 105 376 94 318 94 C257 94 167 112 167 187 C167 237 206 265 265 280 C297 289 333 293 368 295 C404 297 438 296 466 296 C481 296 506 295 519 295 L508 281 Z M612 366 L623 379 C642 469 700 535 808 535 C914 535 971 472 989 379 L1004 366 L612 366 Z M1108 310 C1108 498 1011 640 808 640 C711 640 629 594 583 533 C583 533 582 533 582 532 C532 607 445 639 350 639 C251 639 165 618 77 545 L156 468 C211 519 284 535 350 535 C434 535 502 505 507 420 C508 419 508 409 508 408 L519 394 C513 395 477 396 461 396 C305 396 55 385 55 187 C55 37 193 -11 318 -11 C423 -11 517 10 576 90 C576 90 577 90 577 90 C641 19 726 -10 812 -10 C908 -10 991 22 1061 90 L982 167 C932 118 878 95 813 95 C701 95 641 154 622 251 L610 264 L1106 264 C1107 287 1108 295 1108 310 L1108 310 Z " />
<glyph glyph-name="ccedilla" unicode="&#xe7;" horiz-adv-x="641" d="M534 162 C486 113 432 95 367 95 C228 95 172 192 172 310 C172 433 237 534 369 535 C434 535 489 515 529 475 L607 552 C548 610 471 640 368 640 C168 640 55 495 55 310 C55 144 139 13 317 -7 L340 -31 C355 -46 356 -61 330 -87 L264 -153 L320 -208 L411 -117 C442 -85 440 -49 411 -22 L399 -11 L398 -9 C480 -4 551 26 611 85 L534 162 Z " />
<glyph glyph-name="egrave" unicode="&#xe8;" horiz-adv-x="730" d="M166 366 L179 378 C199 471 256 536 367 536 C475 536 535 474 553 378 L565 366 L166 366 Z M675 310 C675 498 576 640 367 640 C169 640 55 501 55 310 C55 129 155 -10 372 -10 C468 -10 552 20 623 85 L543 165 C493 118 438 94 372 94 C258 94 195 154 177 252 L165 264 L672 264 C674 280 675 295 675 310 L675 310 Z M300 951 L223 873 L430 695 L478 743 L300 951 Z " />
<glyph glyph-name="eacute" unicode="&#xe9;" horiz-adv-x="730" d="M166 366 L179 378 C199 471 256 536 367 536 C475 536 535 474 553 378 L565 366 L166 366 Z M675 310 C675 498 576 640 367 640 C169 640 55 501 55 310 C55 129 155 -10 372 -10 C468 -10 552 20 623 85 L543 165 C493 118 438 94 372 94 C258 94 195 154 177 252 L165 264 L672 264 C674 280 675 295 675 310 L675 310 Z M430 951 L253 743 L300 695 L508 873 L430 951 Z " />
<glyph glyph-name="ecircumflex" unicode="&#xea;" horiz-adv-x="730" d="M166 366 L179 378 C199 471 256 536 367 536 C475 536 535 474 553 378 L565 366 L166 366 Z M675 310 C675 498 576 640 367 640 C169 640 55 501 55 310 C55 129 155 -10 372 -10 C468 -10 552 20 623 85 L543 165 C493 118 438 94 372 94 C258 94 195 154 177 252 L165 264 L672 264 C674 280 675 295 675 310 L675 310 Z M369 930 L367 930 L179 743 L226 696 L366 810 L367 811 L509 696 L556 743 L369 930 Z " />
<glyph glyph-name="edieresis" unicode="&#xeb;" horiz-adv-x="730" d="M166 366 L179 378 C199 471 256 536 367 536 C475 536 535 474 553 378 L565 366 L166 366 Z M675 310 C675 498 576 640 367 640 C169 640 55 501 55 310 C55 129 155 -10 372 -10 C468 -10 552 20 623 85 L543 165 C493 118 438 94 372 94 C258 94 195 154 177 252 L165 264 L672 264 C674 280 675 295 675 310 L675 310 Z M308 778 C308 821 286 849 243 849 C201 849 179 820 179 778 C179 736 201 707 243 707 C285 707 308 736 308 778 L308 778 Z M552 778 C552 821 530 849 487 849 C445 849 423 820 423 778 C423 736 445 707 487 707 C529 707 552 736 552 778 L552 778 Z " />
<glyph glyph-name="igrave" unicode="&#xec;" horiz-adv-x="297" d="M207 630 L90 630 L90 0 L207 0 L207 630 Z M87 951 L10 873 L217 695 L265 743 L87 951 Z " />
<glyph glyph-name="iacute" unicode="&#xed;" horiz-adv-x="297" d="M207 630 L90 630 L90 0 L207 0 L207 630 Z M204 951 L27 743 L74 695 L282 873 L204 951 Z " />
<glyph glyph-name="icircumflex" unicode="&#xee;" horiz-adv-x="297" d="M207 630 L90 630 L90 0 L207 0 L207 630 Z M151 930 L149 930 L-39 743 L8 696 L148 810 L149 811 L291 696 L338 743 L151 930 Z " />
<glyph glyph-name="idieresis" unicode="&#xef;" horiz-adv-x="297" d="M207 630 L90 630 L90 0 L207 0 L207 630 Z M92 778 C92 821 70 849 27 849 C-16 849 -38 820 -38 778 C-38 736 -16 707 27 707 C69 707 92 736 92 778 L92 778 Z M336 778 C336 821 314 849 271 849 C228 849 206 820 206 778 C206 736 228 707 271 707 C313 707 336 736 336 778 L336 778 Z " />
<glyph glyph-name="eth" unicode="&#xf0;" horiz-adv-x="675" d="M512 293 C512 176 457 94 335 94 C214 94 158 177 158 293 C158 410 212 498 335 498 C457 498 512 409 512 293 L512 293 Z M620 296 C620 380 602 448 566 504 L421 727 L411 732 L485 776 L435 852 L364 808 L362 819 L344 846 L218 846 L271 763 L281 758 L199 708 L246 632 L330 683 L331 671 L379 598 C364 601 349 602 332 602 C313 602 291 600 272 597 C125 571 50 450 50 296 C50 121 146 -10 335 -10 C522 -10 620 122 620 296 L620 296 Z " />
<glyph glyph-name="ntilde" unicode="&#xf1;" horiz-adv-x="753" d="M668 398 C668 553 566 640 402 640 C328 640 252 610 209 562 L207 562 L207 630 L90 630 L90 0 L207 0 L207 372 C207 479 286 535 388 535 C524 535 551 471 551 380 L551 0 L668 0 L668 398 L668 398 Z M566 878 C551 830 520 801 481 801 C469 801 456 805 442 812 C427 818 411 828 396 837 C363 856 328 877 292 877 C222 877 163 819 148 764 L200 711 C217 763 248 787 283 787 C297 787 311 783 325 777 C340 770 356 761 371 752 C403 733 437 712 473 712 C539 712 599 760 619 825 L566 878 Z " />
<glyph glyph-name="ograve" unicode="&#xf2;" horiz-adv-x="730" d="M558 315 C558 190 501 95 365 95 C230 95 172 191 172 315 C172 441 229 535 365 535 C500 535 558 440 558 315 L558 315 Z M675 315 C675 503 572 640 364 640 C158 640 55 501 55 315 C55 129 157 -10 365 -10 C570 -10 675 130 675 315 L675 315 Z M292 951 L215 873 L423 695 L470 743 L292 951 Z " />
<glyph glyph-name="oacute" unicode="&#xf3;" horiz-adv-x="730" d="M558 315 C558 190 501 95 365 95 C230 95 172 191 172 315 C172 441 229 535 365 535 C500 535 558 440 558 315 L558 315 Z M675 315 C675 503 572 640 364 640 C158 640 55 501 55 315 C55 129 157 -10 365 -10 C570 -10 675 130 675 315 L675 315 Z M430 951 L253 743 L300 695 L508 873 L430 951 Z " />
<glyph glyph-name="ocircumflex" unicode="&#xf4;" horiz-adv-x="730" d="M558 315 C558 190 501 95 365 95 C230 95 172 191 172 315 C172 441 229 535 365 535 C500 535 558 440 558 315 L558 315 Z M675 315 C675 503 572 640 364 640 C158 640 55 501 55 315 C55 129 157 -10 365 -10 C570 -10 675 130 675 315 L675 315 Z M367 930 L365 930 L177 743 L224 696 L364 810 L365 811 L507 696 L554 743 L367 930 Z " />
<glyph glyph-name="otilde" unicode="&#xf5;" horiz-adv-x="730" d="M558 315 C558 190 501 95 365 95 C230 95 172 191 172 315 C172 441 229 535 365 535 C500 535 558 440 558 315 L558 315 Z M675 315 C675 503 572 640 364 640 C158 640 55 501 55 315 C55 129 157 -10 365 -10 C570 -10 675 130 675 315 L675 315 Z M542 878 C527 830 496 801 457 801 C445 801 432 805 418 812 C403 818 387 828 372 837 C339 856 304 877 268 877 C198 877 139 819 124 764 L176 711 C193 763 224 787 259 787 C273 787 287 783 301 777 C316 770 332 761 347 752 C379 733 413 712 449 712 C515 712 575 760 595 825 L542 878 Z " />
<glyph glyph-name="odieresis" unicode="&#xf6;" horiz-adv-x="730" d="M558 315 C558 190 501 95 365 95 C230 95 172 191 172 315 C172 441 229 535 365 535 C500 535 558 440 558 315 L558 315 Z M675 315 C675 503 572 640 364 640 C158 640 55 501 55 315 C55 129 157 -10 365 -10 C570 -10 675 130 675 315 L675 315 Z M308 778 C308 821 286 849 243 849 C200 849 178 820 178 778 C178 736 200 707 243 707 C285 707 308 736 308 778 L308 778 Z M552 778 C552 821 530 849 487 849 C444 849 422 820 422 778 C422 736 444 707 487 707 C529 707 552 736 552 778 L552 778 Z " />
<glyph glyph-name="divide" unicode="&#xf7;" horiz-adv-x="675" d="M420 176 C420 229 392 265 338 265 C285 265 257 229 257 176 C257 124 285 88 338 88 C391 88 420 124 420 176 L420 176 Z M590 460 L85 460 L85 350 L590 350 L590 460 Z M420 634 C420 687 392 722 338 722 C285 722 257 686 257 634 C257 581 285 545 338 545 C391 545 420 581 420 634 L420 634 Z " />
<glyph glyph-name="oslash" unicode="&#xf8;" horiz-adv-x="705" d="M426 510 L226 161 L223 146 C183 187 166 248 166 315 C166 441 221 533 352 533 C383 533 414 527 437 517 L426 510 Z M539 315 C539 189 483 97 353 97 C324 97 294 102 273 112 L284 121 L483 469 L485 482 C525 438 539 381 539 315 L539 315 Z M650 315 C650 426 617 519 542 582 L551 586 L591 655 L530 691 L491 622 L490 612 C452 630 404 640 352 640 C154 640 55 502 55 315 C55 203 91 106 167 47 L157 41 L117 -28 L177 -64 L217 5 L217 16 C256 -2 303 -10 353 -10 C551 -10 650 129 650 315 L650 315 Z " />
<glyph glyph-name="ugrave" unicode="&#xf9;" horiz-adv-x="745" d="M655 630 L538 630 L538 258 C538 151 463 95 361 95 C227 95 202 160 202 245 L202 630 L85 630 L85 241 C85 87 163 -10 347 -10 C422 -10 490 18 536 68 L538 68 L538 0 L655 0 L655 630 Z M300 951 L223 873 L430 695 L478 743 L300 951 Z " />
<glyph glyph-name="uacute" unicode="&#xfa;" horiz-adv-x="745" d="M655 630 L538 630 L538 258 C538 151 463 95 361 95 C227 95 202 160 202 245 L202 630 L85 630 L85 241 C85 87 163 -10 347 -10 C422 -10 490 18 536 68 L538 68 L538 0 L655 0 L655 630 Z M438 951 L261 743 L308 695 L516 873 L438 951 Z " />
<glyph glyph-name="ucircumflex" unicode="&#xfb;" horiz-adv-x="745" d="M655 630 L538 630 L538 258 C538 151 463 95 361 95 C227 95 202 160 202 245 L202 630 L85 630 L85 241 C85 87 163 -10 347 -10 C422 -10 490 18 536 68 L538 68 L538 0 L655 0 L655 630 Z M369 930 L367 930 L179 743 L226 696 L366 810 L367 811 L509 696 L556 743 L369 930 Z " />
<glyph glyph-name="udieresis" unicode="&#xfc;" horiz-adv-x="745" d="M655 630 L538 630 L538 258 C538 151 463 95 361 95 C227 95 202 160 202 245 L202 630 L85 630 L85 241 C85 87 163 -10 347 -10 C422 -10 490 18 536 68 L538 68 L538 0 L655 0 L655 630 Z M313 778 C313 821 291 849 248 849 C205 849 183 820 183 778 C183 736 205 707 248 707 C290 707 313 736 313 778 L313 778 Z M557 778 C557 821 535 849 492 849 C449 849 427 820 427 778 C427 736 449 707 492 707 C534 707 557 736 557 778 L557 778 Z " />
<glyph glyph-name="yacute" unicode="&#xfd;" horiz-adv-x="700" d="M555 630 L387 203 L362 126 L360 126 L334 202 L145 630 L15 630 L303 0 C270 -78 233 -107 187 -107 C152 -107 114 -98 69 -74 L69 -186 C110 -207 152 -215 200 -215 C286 -215 356 -156 394 -65 L685 630 L555 630 Z M416 951 L239 743 L286 695 L494 873 L416 951 Z " />
<glyph glyph-name="thorn" unicode="&#xfe;" horiz-adv-x="753" d="M581 314 C581 188 528 94 390 94 C251 94 199 187 199 314 C199 441 253 535 390 535 C528 535 581 441 581 314 L581 314 Z M698 314 C698 502 600 640 394 640 C315 640 253 613 209 565 L207 565 L207 840 L90 840 L90 -210 L207 -210 L207 61 L209 61 C259 10 316 -10 394 -10 C602 -10 698 125 698 314 L698 314 Z " />
<glyph glyph-name="ydieresis" unicode="&#xff;" horiz-adv-x="700" d="M555 630 L388 213 L361 128 L359 128 L331 213 L145 630 L15 630 L302 6 C270 -72 233 -107 187 -107 C152 -107 114 -98 69 -74 L69 -186 C110 -207 151 -215 199 -215 C285 -215 355 -156 393 -65 L685 630 L555 630 Z M285 778 C285 821 263 849 220 849 C177 849 155 820 155 778 C155 736 177 707 220 707 C262 707 285 736 285 778 L285 778 Z M529 778 C529 821 507 849 464 849 C421 849 399 820 399 778 C399 736 421 707 464 707 C506 707 529 736 529 778 L529 778 Z " />
<glyph glyph-name="Amacron" unicode="&#x100;" horiz-adv-x="881" d="M280 310 L292 322 L417 598 L440 671 L442 671 L465 597 L589 322 L601 310 L280 310 Z M499 810 L382 810 L15 0 L146 0 L231 188 L225 199 L656 199 L650 188 L735 0 L866 0 L499 810 Z M636 980 L241 980 L241 900 L636 900 L636 980 Z " />
<glyph glyph-name="amacron" unicode="&#x101;" horiz-adv-x="720" d="M518 282 L518 188 C518 107 384 94 325 94 C262 94 171 113 171 188 C171 236 209 264 269 279 C302 287 340 292 376 294 C412 296 447 296 476 296 C491 296 519 294 530 294 L518 282 Z M635 406 C635 586 494 639 357 639 C259 639 174 619 89 553 L166 474 C221 520 293 534 357 534 C444 534 511 503 517 419 C518 418 517 409 518 407 L530 395 C518 396 487 397 471 397 C312 397 55 385 55 188 C55 37 197 -11 325 -11 C393 -11 462 5 516 48 L518 48 L518 0 L635 0 L635 406 L635 406 Z M559 822 L164 822 L164 742 L559 742 L559 822 Z " />
<glyph glyph-name="Abreve" unicode="&#x102;" horiz-adv-x="881" d="M280 310 L292 322 L417 598 L440 671 L442 671 L465 597 L589 322 L601 310 L280 310 Z M499 810 L382 810 L15 0 L146 0 L231 188 L225 199 L656 199 L650 188 L735 0 L866 0 L499 810 Z M545 1020 C526 977 495 952 439 952 C384 952 354 977 334 1020 L245 1020 C271 930 336 874 439 874 C542 874 607 930 634 1020 L545 1020 Z " />
<glyph glyph-name="abreve" unicode="&#x103;" horiz-adv-x="720" d="M518 282 L518 188 C518 107 384 94 325 94 C262 94 171 113 171 188 C171 236 209 264 269 279 C302 287 340 292 376 294 C412 296 447 296 476 296 C491 296 519 294 530 294 L518 282 Z M635 406 C635 586 494 639 357 639 C259 639 174 619 89 553 L166 474 C221 520 293 534 357 534 C444 534 511 503 517 419 C518 418 517 409 518 407 L530 395 C518 396 487 397 471 397 C312 397 55 385 55 188 C55 37 197 -11 325 -11 C393 -11 462 5 516 48 L518 48 L518 0 L635 0 L635 406 L635 406 Z M465 841 C446 798 415 773 359 773 C304 773 273 798 254 841 L165 841 C191 750 255 695 359 695 C462 695 527 751 554 841 L465 841 Z " />
<glyph glyph-name="Aogonek" unicode="&#x104;" horiz-adv-x="881" d="M280 310 L292 322 L417 598 L440 671 L442 671 L465 597 L589 322 L601 310 L280 310 Z M499 810 L382 810 L15 0 L146 0 L231 188 L225 199 L656 199 L650 188 L735 0 L750 0 L668 -84 C646 -107 632 -139 633 -172 C636 -230 685 -274 741 -272 C777 -270 801 -253 821 -234 C833 -222 835 -219 849 -203 L806 -160 C794 -173 784 -182 784 -182 C776 -189 767 -193 757 -194 C735 -195 714 -175 713 -152 C712 -142 716 -128 725 -119 L836 0 L866 0 L499 810 Z " />
<glyph glyph-name="aogonek" unicode="&#x105;" horiz-adv-x="720" d="M518 282 L518 188 C518 107 384 94 325 94 C262 94 171 113 171 188 C171 236 209 264 269 279 C302 288 340 292 376 294 C412 296 447 296 476 296 C491 296 519 294 530 294 L518 282 Z M325 -11 C386 -11 467 9 517 52 L519 52 L519 0 L437 -84 C415 -107 401 -139 402 -172 C405 -230 454 -274 510 -272 C546 -270 570 -253 590 -234 C602 -222 604 -219 618 -203 L575 -160 C563 -173 553 -182 553 -182 C545 -189 536 -193 526 -194 C504 -195 483 -175 482 -152 C481 -142 485 -128 494 -118 L605 0 L635 0 L635 406 C635 586 494 639 357 639 C259 639 174 619 89 553 L166 474 C221 520 293 534 357 534 C444 534 511 503 517 419 C517 418 517 409 518 407 L530 395 C518 396 487 397 471 397 C312 397 55 385 55 188 C55 37 197 -11 325 -11 L325 -11 Z " />
<glyph glyph-name="Cacute" unicode="&#x106;" horiz-adv-x="810" d="M780 692 C703 776 601 820 465 820 C200 820 55 645 55 400 C55 156 194 -10 464 -10 C599 -10 702 34 779 119 L692 204 C639 137 570 101 464 101 C259 101 178 232 178 400 C178 572 263 709 465 709 C571 709 639 672 691 606 L780 692 L780 692 Z M522 1129 L344 922 L392 874 L600 1052 L522 1129 Z " />
<glyph glyph-name="cacute" unicode="&#x107;" horiz-adv-x="641" d="M534 162 C486 113 432 95 367 95 C228 95 172 192 172 310 C172 433 237 534 369 535 C434 535 489 515 529 475 L607 552 C548 610 471 640 368 640 C168 640 55 495 55 310 C55 129 155 -10 367 -10 C463 -10 543 18 611 85 L534 162 Z M424 951 L246 743 L294 695 L501 873 L424 951 Z " />
<glyph glyph-name="Ccircumflex" unicode="&#x108;" horiz-adv-x="810" d="M780 692 C703 776 601 820 465 820 C200 820 55 645 55 400 C55 156 194 -10 464 -10 C599 -10 702 34 779 119 L692 204 C639 137 570 101 464 101 C259 101 178 232 178 400 C178 572 263 709 465 709 C571 709 639 672 691 606 L780 692 L780 692 Z M461 1107 L459 1107 L271 921 L318 874 L458 987 L460 988 L601 874 L648 921 L461 1107 Z " />
<glyph glyph-name="ccircumflex" unicode="&#x109;" horiz-adv-x="641" d="M534 162 C486 113 432 95 367 95 C228 95 172 192 172 310 C172 433 237 534 369 535 C434 535 489 515 529 475 L607 552 C548 610 471 640 368 640 C168 640 55 495 55 310 C55 129 155 -10 367 -10 C463 -10 543 18 611 85 L534 162 Z M363 930 L361 930 L173 743 L220 696 L360 810 L362 811 L503 696 L550 743 L363 930 Z " />
<glyph glyph-name="Cdotaccent" unicode="&#x10a;" horiz-adv-x="810" d="M780 692 C703 776 601 820 465 820 C200 820 55 645 55 400 C55 156 194 -10 464 -10 C599 -10 702 34 779 119 L692 204 C639 137 570 101 464 101 C259 101 178 232 178 400 C178 572 263 709 465 709 C571 709 639 672 691 606 L780 692 L780 692 Z M531 965 C531 1012 506 1045 458 1045 C410 1045 385 1012 385 965 C385 918 410 885 458 885 C505 885 531 918 531 965 L531 965 Z " />
<glyph glyph-name="cdotaccent" unicode="&#x10b;" horiz-adv-x="641" d="M534 162 C486 113 432 95 367 95 C228 95 172 192 172 310 C172 433 237 534 369 535 C434 535 489 515 529 475 L607 552 C548 610 471 640 368 640 C168 640 55 495 55 310 C55 129 155 -10 367 -10 C463 -10 543 18 611 85 L534 162 Z M434 787 C434 835 409 867 361 867 C314 867 288 834 288 787 C288 740 313 707 361 707 C409 707 434 740 434 787 L434 787 Z " />
<glyph glyph-name="Ccaron" unicode="&#x10c;" horiz-adv-x="810" d="M780 692 C703 776 601 820 465 820 C200 820 55 645 55 400 C55 156 194 -10 464 -10 C599 -10 702 34 779 119 L692 204 C639 137 570 101 464 101 C259 101 178 232 178 400 C178 572 263 709 465 709 C571 709 639 672 691 606 L780 692 L780 692 Z M598 1109 L458 995 L456 994 L314 1108 L267 1061 L454 875 L457 875 L645 1061 L598 1109 Z " />
<glyph glyph-name="ccaron" unicode="&#x10d;" horiz-adv-x="641" d="M534 162 C486 113 432 95 367 95 C228 95 172 192 172 310 C172 433 237 534 369 535 C434 535 489 515 529 475 L607 552 C548 610 471 640 368 640 C168 640 55 495 55 310 C55 129 155 -10 367 -10 C463 -10 543 18 611 85 L534 162 Z M505 930 L365 816 L363 815 L222 930 L175 883 L362 696 L364 696 L552 883 L505 930 Z " />
<glyph glyph-name="Dcaron" unicode="&#x10e;" horiz-adv-x="848" d="M670 405 C670 245 634 111 403 111 L198 111 L210 123 L210 687 L198 699 L399 699 C632 699 670 564 670 405 L670 405 Z M793 405 C793 595 736 810 409 810 L189 810 L90 810 L90 0 L413 0 C737 0 793 215 793 405 L793 405 Z M545 1109 L405 995 L403 994 L261 1108 L214 1061 L401 875 L404 875 L592 1061 L545 1109 Z " />
<glyph glyph-name="dcaron" unicode="&#x10f;" horiz-adv-x="863" d="M554 313 C554 187 501 95 363 95 C225 95 172 187 172 313 C172 439 227 534 363 534 C502 534 554 440 554 313 L554 313 Z M663 840 L546 840 L546 563 L544 563 C502 610 432 640 354 640 C155 640 55 501 55 312 C55 126 155 -10 354 -10 C436 -10 501 15 544 62 L546 62 L546 0 L663 0 L663 840 Z M878 885 C878 931 854 962 807 962 C760 962 735 931 735 885 C735 841 758 813 789 808 L777 799 L735 725 L787 695 L865 836 C873 849 878 865 878 885 L878 885 Z " />
<glyph glyph-name="Dcroat" unicode="&#x110;" horiz-adv-x="848" d="M670 405 C670 245 634 111 403 111 L198 111 L210 123 L210 337 L203 350 L405 350 L405 460 L203 460 L210 472 L210 687 L198 699 L399 699 C632 699 670 564 670 405 L670 405 Z M793 405 C793 595 736 810 409 810 L250 810 L178 810 L90 810 L89 473 L97 460 L25 460 L25 350 L97 350 L90 338 L90 0 L413 0 C737 0 793 215 793 405 L793 405 Z " />
<glyph glyph-name="dcroat" unicode="&#x111;" horiz-adv-x="753" d="M554 313 C554 187 501 95 363 95 C225 95 172 187 172 313 C172 439 227 534 363 534 C502 534 554 440 554 313 L554 313 Z M719 780 L657 780 L663 792 L663 840 L546 840 L546 792 L552 780 L331 780 L331 701 L552 701 L546 689 L546 563 L544 563 C502 610 432 640 354 640 C155 640 55 501 55 312 C55 126 155 -10 354 -10 C436 -10 501 15 544 62 L546 62 L546 0 L663 0 L663 689 L657 701 L719 701 L719 780 Z " />
<glyph glyph-name="Emacron" unicode="&#x112;" horiz-adv-x="780" d="M710 111 L198 111 L210 123 L210 338 L198 350 L662 350 L662 460 L198 460 L210 473 L210 687 L198 699 L710 699 L710 810 L90 810 L90 0 L710 0 L710 111 Z M605 980 L210 980 L210 900 L605 900 L605 980 Z " />
<glyph glyph-name="emacron" unicode="&#x113;" horiz-adv-x="730" d="M166 366 L179 378 C199 471 256 536 367 536 C475 536 535 474 553 378 L565 366 L166 366 Z M675 310 C675 498 576 640 367 640 C169 640 55 501 55 310 C55 129 155 -10 372 -10 C468 -10 552 20 623 85 L543 165 C493 118 438 94 372 94 C258 94 195 154 177 252 L165 264 L672 264 C674 280 675 295 675 310 L675 310 Z M566 822 L171 822 L171 742 L566 742 L566 822 Z " />
<glyph glyph-name="Ebreve" unicode="&#x114;" horiz-adv-x="780" d="M710 111 L198 111 L210 123 L210 338 L198 350 L662 350 L662 460 L198 460 L210 473 L210 687 L198 699 L710 699 L710 810 L90 810 L90 0 L710 0 L710 111 Z M513 1021 C494 978 463 953 407 953 C352 953 322 978 302 1021 L213 1021 C239 930 304 875 407 875 C510 875 575 930 602 1021 L513 1021 Z " />
<glyph glyph-name="ebreve" unicode="&#x115;" horiz-adv-x="730" d="M166 366 L179 378 C199 471 256 536 367 536 C475 536 535 474 553 378 L565 366 L166 366 Z M675 310 C675 498 576 640 367 640 C169 640 55 501 55 310 C55 129 155 -10 372 -10 C468 -10 552 20 623 85 L543 165 C493 118 438 94 372 94 C258 94 195 154 177 252 L165 264 L672 264 C674 280 675 295 675 310 L675 310 Z M473 841 C454 798 423 773 367 773 C312 773 281 798 262 841 L173 841 C199 750 263 695 367 695 C470 695 535 751 562 841 L473 841 Z " />
<glyph glyph-name="Edotaccent" unicode="&#x116;" horiz-adv-x="780" d="M710 111 L198 111 L210 123 L210 338 L198 350 L662 350 L662 460 L198 460 L210 473 L210 687 L198 699 L710 699 L710 810 L90 810 L90 0 L710 0 L710 111 Z M476 965 C476 1012 451 1045 403 1045 C355 1045 330 1012 330 965 C330 918 355 885 403 885 C450 885 476 918 476 965 L476 965 Z " />
<glyph glyph-name="edotaccent" unicode="&#x117;" horiz-adv-x="730" d="M166 366 L179 378 C199 471 256 536 367 536 C475 536 535 474 553 378 L565 366 L166 366 Z M675 310 C675 498 576 640 367 640 C169 640 55 501 55 310 C55 129 155 -10 372 -10 C468 -10 552 20 623 85 L543 165 C493 118 438 94 372 94 C258 94 195 154 177 252 L165 264 L672 264 C674 280 675 295 675 310 L675 310 Z M438 787 C438 835 413 867 365 867 C318 867 292 834 292 787 C292 740 317 707 365 707 C413 707 438 740 438 787 L438 787 Z " />
<glyph glyph-name="Eogonek" unicode="&#x118;" horiz-adv-x="780" d="M710 111 L198 111 L210 123 L210 338 L198 350 L662 350 L662 460 L198 460 L210 473 L210 687 L198 699 L710 699 L710 810 L90 810 L90 0 L598 0 L516 -84 C494 -107 480 -139 481 -172 C484 -230 533 -274 589 -272 C625 -270 649 -253 669 -234 C681 -222 683 -219 697 -203 L654 -160 C642 -173 632 -182 632 -182 C624 -189 615 -193 605 -194 C583 -195 562 -175 561 -152 C560 -142 564 -128 573 -119 L684 0 L710 0 L710 111 Z " />
<glyph glyph-name="eogonek" unicode="&#x119;" horiz-adv-x="730" d="M166 366 L179 378 C198 471 256 535 367 535 C475 535 535 474 553 378 L565 366 L166 366 Z M675 310 C675 498 576 640 367 640 C169 640 55 501 55 310 C55 129 155 -10 372 -10 C392 -10 411 -9 430 -6 L354 -84 C332 -107 317 -139 319 -172 C321 -230 371 -274 426 -272 C462 -270 487 -253 506 -234 C518 -222 520 -219 535 -203 L491 -160 C479 -173 470 -182 469 -182 C462 -189 453 -193 442 -194 C420 -195 399 -175 398 -152 C398 -142 401 -128 411 -118 L541 19 C557 27 607 72 623 85 L543 164 C493 118 438 95 372 95 C258 95 195 154 177 252 L165 264 L672 264 C674 280 675 295 675 310 L675 310 Z " />
<glyph glyph-name="Ecaron" unicode="&#x11a;" horiz-adv-x="780" d="M710 111 L198 111 L210 123 L210 338 L198 350 L662 350 L662 460 L198 460 L210 473 L210 687 L198 699 L710 699 L710 810 L90 810 L90 0 L710 0 L710 111 Z M551 1109 L411 995 L409 994 L267 1108 L220 1061 L407 875 L410 875 L598 1061 L551 1109 Z " />
<glyph glyph-name="ecaron" unicode="&#x11b;" horiz-adv-x="730" d="M166 366 L179 378 C199 471 256 536 367 536 C475 536 535 474 553 378 L565 366 L166 366 Z M675 310 C675 498 576 640 367 640 C169 640 55 501 55 310 C55 129 155 -10 372 -10 C468 -10 552 20 623 85 L543 165 C493 118 438 94 372 94 C258 94 195 154 177 252 L165 264 L672 264 C674 280 675 295 675 310 L675 310 Z M505 930 L365 816 L364 815 L222 930 L175 883 L362 696 L364 696 L552 883 L505 930 Z " />
<glyph glyph-name="Gcircumflex" unicode="&#x11c;" horiz-adv-x="910" d="M820 461 L446 461 L446 350 L722 350 L710 339 C706 203 608 101 462 101 C268 101 178 212 178 397 C178 591 271 709 468 709 C555 709 642 686 702 611 L790 697 C704 789 583 820 468 820 C207 820 55 653 55 397 C55 148 202 -10 462 -10 C568 -10 663 35 715 104 C716 104 717 104 717 104 L717 0 L820 0 L820 461 Z M461 1107 L459 1107 L271 921 L318 874 L458 987 L460 988 L601 874 L648 921 L461 1107 Z " />
<glyph glyph-name="gcircumflex" unicode="&#x11d;" horiz-adv-x="753" d="M554 339 C554 229 498 147 361 147 C236 147 172 224 172 339 C172 450 232 535 361 535 C489 535 554 453 554 339 L554 339 Z M546 630 L546 566 L544 566 C503 612 432 640 354 640 C157 640 55 503 55 339 C55 163 155 42 355 42 C433 42 497 65 544 112 L546 112 L546 60 C546 -47 486 -110 365 -110 C301 -110 227 -86 174 -45 L95 -125 C178 -188 265 -215 365 -215 C565 -215 663 -114 663 60 L663 630 L546 630 Z M374 930 L372 930 L184 743 L231 696 L371 810 L373 811 L514 696 L561 743 L374 930 Z " />
<glyph glyph-name="Gbreve" unicode="&#x11e;" horiz-adv-x="910" d="M820 461 L446 461 L446 350 L722 350 L710 339 C706 203 608 101 462 101 C268 101 178 212 178 397 C178 591 271 709 468 709 C555 709 642 686 702 611 L790 697 C704 789 583 820 468 820 C207 820 55 653 55 397 C55 148 202 -10 462 -10 C568 -10 663 35 715 104 C716 104 717 104 717 104 L717 0 L820 0 L820 461 Z M563 1021 C543 978 513 953 457 953 C402 953 371 978 351 1021 L262 1021 C289 930 353 875 457 875 C559 875 624 930 651 1021 L563 1021 Z " />
<glyph glyph-name="gbreve" unicode="&#x11f;" horiz-adv-x="753" d="M554 339 C554 229 498 147 361 147 C236 147 172 224 172 339 C172 450 232 535 361 535 C489 535 554 453 554 339 L554 339 Z M546 630 L546 566 L544 566 C503 612 432 640 354 640 C157 640 55 503 55 339 C55 163 155 42 355 42 C433 42 497 65 544 112 L546 112 L546 60 C546 -47 486 -110 365 -110 C301 -110 227 -86 174 -45 L95 -125 C178 -188 265 -215 365 -215 C565 -215 663 -114 663 60 L663 630 L546 630 Z M473 841 C453 798 422 773 367 773 C312 773 281 798 261 841 L172 841 C199 750 263 695 367 695 C469 695 534 751 561 841 L473 841 Z " />
<glyph glyph-name="Gdotaccent" unicode="&#x120;" horiz-adv-x="910" d="M820 461 L446 461 L446 350 L722 350 L710 339 C706 203 608 101 462 101 C268 101 178 212 178 397 C178 591 271 709 468 709 C555 709 642 686 702 611 L790 697 C704 789 583 820 468 820 C207 820 55 653 55 397 C55 148 202 -10 462 -10 C568 -10 663 35 715 104 C716 104 717 104 717 104 L717 0 L820 0 L820 461 Z M532 965 C532 1012 507 1045 458 1045 C411 1045 386 1012 386 965 C386 918 411 885 459 885 C506 885 532 918 532 965 L532 965 Z " />
<glyph glyph-name="gdotaccent" unicode="&#x121;" horiz-adv-x="753" d="M554 339 C554 229 498 147 361 147 C236 147 172 224 172 339 C172 450 232 535 361 535 C489 535 554 453 554 339 L554 339 Z M546 630 L546 566 L544 566 C503 612 432 640 354 640 C157 640 55 503 55 339 C55 163 155 42 355 42 C433 42 497 65 544 112 L546 112 L546 60 C546 -47 486 -110 365 -110 C301 -110 227 -86 174 -45 L95 -125 C178 -188 265 -215 365 -215 C565 -215 663 -114 663 60 L663 630 L546 630 Z M437 787 C437 835 412 867 364 867 C316 867 291 834 291 787 C291 740 316 707 364 707 C411 707 437 740 437 787 L437 787 Z " />
<glyph glyph-name="Gcommacedilla" unicode="&#x122;" horiz-adv-x="910" d="M542 -117 C542 -73 518 -45 473 -45 C428 -45 404 -73 404 -117 C404 -159 426 -183 458 -188 L444 -198 L407 -263 L456 -291 L529 -162 C537 -149 542 -135 542 -117 L542 -117 Z M820 461 L446 461 L446 350 L722 350 L710 339 C706 203 608 101 462 101 C268 101 178 212 178 397 C178 591 271 709 468 709 C555 709 642 686 702 611 L790 697 C704 789 583 820 468 820 C207 820 55 653 55 397 C55 148 202 -10 462 -10 C568 -10 663 35 715 104 C716 104 717 104 717 104 L717 0 L820 0 L820 461 Z " />
<glyph glyph-name="gcommacedilla" unicode="&#x123;" horiz-adv-x="753" d="M554 339 C554 229 498 147 361 147 C236 147 172 224 172 339 C172 450 232 535 361 535 C489 535 554 453 554 339 L554 339 Z M546 630 L546 566 L544 566 C503 612 432 640 354 640 C157 640 55 503 55 339 C55 163 155 42 355 42 C433 42 497 65 544 112 L546 112 L546 60 C546 -47 486 -110 365 -110 C301 -110 227 -86 174 -45 L95 -125 C178 -188 265 -215 365 -215 C565 -215 663 -114 663 60 L663 630 L546 630 Z M435 763 C435 805 413 829 381 834 L395 844 L432 909 L383 936 L310 807 C303 794 298 781 298 763 C298 719 321 691 367 691 C411 691 435 719 435 763 L435 763 Z " />
<glyph glyph-name="Hcircumflex" unicode="&#x124;" horiz-adv-x="870" d="M780 810 L660 810 L660 472 L672 460 L198 460 L210 472 L210 810 L90 810 L90 0 L210 0 L210 337 L198 349 L672 349 L660 337 L660 0 L780 0 L780 810 Z M438 1107 L436 1107 L249 921 L296 874 L436 987 L438 988 L579 874 L626 921 L438 1107 Z " />
<glyph glyph-name="hcircumflex" unicode="&#x125;" horiz-adv-x="753" d="M668 397 C668 540 580 640 402 640 C328 640 252 611 209 562 L207 562 L207 840 L90 840 L90 0 L207 0 L207 369 C207 477 286 535 388 535 C524 535 551 467 551 382 L551 0 L668 0 L668 397 L668 397 Z M386 1108 L384 1108 L196 921 L243 874 L383 988 L385 989 L526 874 L573 921 L386 1108 Z " />
<glyph glyph-name="Hbar" unicode="&#x126;" horiz-adv-x="872" d="M199 460 L211 472 L211 545 L204 557 L668 557 L661 545 L661 472 L673 460 L199 460 Z M822 653 L774 653 L781 665 L781 810 L661 810 L661 665 L668 653 L204 653 L211 665 L211 810 L91 810 L91 665 L98 653 L50 653 L50 557 L98 557 L91 545 L91 0 L211 0 L211 337 L199 349 L673 349 L661 337 L661 0 L781 0 L781 545 L774 557 L822 557 L822 653 Z " />
<glyph glyph-name="hbar" unicode="&#x127;" horiz-adv-x="753" d="M668 397 C668 540 580 640 402 640 C327 640 258 612 209 562 L207 562 L207 689 L201 701 L422 701 L422 781 L201 781 L207 792 L207 840 L90 840 L90 792 L96 781 L35 781 L35 701 L96 701 L90 689 L90 0 L207 0 L207 369 C207 477 286 535 388 535 C524 535 551 467 551 382 L551 0 L668 0 L668 397 L668 397 Z " />
<glyph glyph-name="Itilde" unicode="&#x128;" horiz-adv-x="310" d="M215 810 L95 810 L95 0 L215 0 L215 810 Z M325 1041 C311 992 282 964 245 964 C233 964 221 968 207 974 C193 981 179 990 164 999 C133 1019 100 1039 65 1039 C-1 1039 -57 981 -72 926 L-22 874 C-5 925 24 950 57 950 C70 950 83 946 97 939 C111 933 126 924 140 914 C171 895 203 875 237 875 C300 875 357 922 376 988 L325 1041 Z " />
<glyph glyph-name="itilde" unicode="&#x129;" horiz-adv-x="297" d="M207 630 L90 630 L90 0 L207 0 L207 630 Z M316 878 C302 830 273 801 236 801 C224 801 212 805 198 812 C184 818 169 828 155 837 C124 856 90 877 56 877 C-10 877 -66 819 -81 764 L-31 711 C-14 763 15 787 48 787 C61 787 74 783 88 777 C102 770 117 761 131 752 C161 733 194 712 228 712 C290 712 348 760 367 825 L316 878 Z " />
<glyph glyph-name="Imacron" unicode="&#x12a;" horiz-adv-x="310" d="M215 810 L95 810 L95 0 L215 0 L215 810 Z M350 980 L-45 980 L-45 900 L350 900 L350 980 Z " />
<glyph glyph-name="imacron" unicode="&#x12b;" horiz-adv-x="297" d="M207 630 L90 630 L90 0 L207 0 L207 630 Z M346 822 L-49 822 L-49 742 L346 742 L346 822 Z " />
<glyph glyph-name="Ibreve" unicode="&#x12c;" horiz-adv-x="310" d="M215 810 L95 810 L95 0 L215 0 L215 810 Z M261 1021 C242 978 211 953 155 953 C100 953 70 978 50 1021 L-39 1021 C-13 930 52 875 155 875 C258 875 323 930 350 1021 L261 1021 Z " />
<glyph glyph-name="ibreve" unicode="&#x12d;" horiz-adv-x="297" d="M207 630 L90 630 L90 0 L207 0 L207 630 Z M255 841 C236 798 205 773 149 773 C94 773 63 798 44 841 L-45 841 C-19 750 45 695 149 695 C252 695 317 751 344 841 L255 841 Z " />
<glyph glyph-name="Iogonek" unicode="&#x12e;" horiz-adv-x="310" d="M215 810 L95 810 L95 0 L112 0 L30 -84 C8 -107 -6 -139 -5 -172 C-2 -230 47 -274 103 -272 C139 -270 163 -253 183 -234 C195 -222 197 -219 211 -203 L168 -160 C156 -173 146 -182 146 -182 C138 -189 129 -193 119 -194 C97 -195 76 -175 75 -152 C74 -142 78 -128 87 -119 L198 0 L215 0 L215 810 Z " />
<glyph glyph-name="iogonek" unicode="&#x12f;" horiz-adv-x="297" d="M207 630 L90 630 L90 0 L105 0 L23 -84 C1 -107 -13 -139 -12 -172 C-9 -230 40 -274 96 -272 C132 -270 156 -253 176 -234 C188 -222 190 -219 204 -203 L161 -160 C149 -173 139 -182 139 -182 C131 -189 122 -193 112 -194 C90 -195 69 -175 68 -152 C67 -142 71 -128 80 -119 L191 0 L207 0 L207 630 Z M219 772 C219 815 193 846 149 846 C106 846 79 815 79 772 C79 729 105 698 149 698 C192 698 219 729 219 772 L219 772 Z " />
<glyph glyph-name="Idotaccent" unicode="&#x130;" horiz-adv-x="310" d="M215 810 L95 810 L95 0 L215 0 L215 810 Z M228 965 C228 1012 203 1045 154 1045 C107 1045 82 1012 82 965 C82 918 107 885 155 885 C202 885 228 918 228 965 L228 965 Z " />
<glyph glyph-name="dotlessi" unicode="&#x131;" horiz-adv-x="297" d="M207 630 L90 630 L90 0 L207 0 L207 630 Z " />
<glyph glyph-name="IJ" unicode="&#x132;" horiz-adv-x="912" d="M215 810 L95 810 L95 0 L215 0 L215 810 Z M827 810 L707 810 L707 295 C707 146 615 101 526 101 C469 101 405 138 359 200 L275 115 C338 37 427 -10 525 -10 C684 -10 827 69 827 300 L827 810 Z " />
<glyph glyph-name="ij" unicode="&#x133;" horiz-adv-x="550" d="M207 630 L90 630 L90 0 L207 0 L207 630 Z M459 630 L342 630 L342 -31 C342 -81 317 -106 278 -106 C250 -106 220 -100 192 -86 L192 -195 C220 -208 253 -215 284 -215 C394 -215 459 -160 459 -42 L459 630 Z M219 772 C219 815 193 846 149 846 C106 846 79 815 79 772 C79 729 105 698 149 698 C192 698 219 729 219 772 L219 772 Z M470 772 C470 815 444 846 400 846 C357 846 330 815 330 772 C330 729 356 698 400 698 C443 698 470 729 470 772 L470 772 Z " />
<glyph glyph-name="Jcircumflex" unicode="&#x134;" horiz-adv-x="637" d="M552 810 L432 810 L432 295 C432 146 340 101 251 101 C194 101 130 138 84 200 L0 115 C63 37 152 -10 250 -10 C409 -10 552 69 552 300 L552 810 Z M491 1107 L489 1107 L301 921 L348 874 L488 987 L490 988 L632 874 L679 921 L491 1107 Z " />
<glyph glyph-name="jcircumflex" unicode="&#x135;" horiz-adv-x="292" d="M203 630 L86 630 L86 -31 C86 -81 61 -106 22 -106 C-6 -106 -36 -100 -64 -86 L-64 -195 C-36 -208 -3 -215 28 -215 C138 -215 203 -160 203 -42 L203 630 Z M144 930 L142 930 L-46 743 L1 696 L141 810 L143 811 L284 696 L331 743 L144 930 Z " />
<glyph glyph-name="Kcommacedilla" unicode="&#x136;" horiz-adv-x="793" d="M497 -117 C497 -73 473 -45 428 -45 C383 -45 359 -73 359 -117 C359 -159 381 -183 413 -188 L399 -198 L362 -263 L411 -291 L484 -162 C492 -149 497 -135 497 -117 L497 -117 Z M210 810 L90 810 L90 0 L210 0 L210 810 Z M379 408 L379 410 L780 809 L610 809 L220 409 L619 0 L793 0 L379 408 Z " />
<glyph glyph-name="kcommacedilla" unicode="&#x137;" horiz-adv-x="683" d="M454 -117 C454 -73 431 -45 385 -45 C340 -45 317 -73 317 -117 C317 -159 338 -183 371 -188 L357 -198 L320 -263 L369 -291 L442 -162 C449 -149 454 -135 454 -117 L454 -117 Z M207 840 L90 840 L90 0 L207 0 L207 840 Z M360 319 L360 321 L672 630 L519 630 L217 318 L531 0 L683 0 L360 319 Z " />
<glyph glyph-name="kgreenlandic" unicode="&#x138;" horiz-adv-x="683" d="M207 630 L90 630 L90 0 L207 0 L207 630 Z M360 319 L360 321 L672 630 L519 630 L217 318 L531 0 L683 0 L360 319 Z " />
<glyph glyph-name="Lacute" unicode="&#x139;" horiz-adv-x="678" d="M663 111 L198 111 L210 123 L210 810 L90 810 L90 0 L663 0 L663 111 Z M260 1129 L82 922 L130 874 L338 1052 L260 1129 Z " />
<glyph glyph-name="lacute" unicode="&#x13a;" horiz-adv-x="297" d="M207 840 L90 840 L90 0 L207 0 L207 840 Z M212 1129 L34 922 L82 874 L290 1052 L212 1129 Z " />
<glyph glyph-name="Lcommacedilla" unicode="&#x13b;" horiz-adv-x="678" d="M465 -117 C465 -73 442 -45 396 -45 C351 -45 328 -73 328 -117 C328 -159 349 -183 382 -188 L368 -198 L331 -263 L380 -291 L453 -162 C460 -149 465 -135 465 -117 L465 -117 Z M663 111 L198 111 L210 123 L210 810 L90 810 L90 0 L663 0 L663 111 Z " />
<glyph glyph-name="lcommacedilla" unicode="&#x13c;" horiz-adv-x="297" d="M216 -117 C216 -73 193 -45 147 -45 C102 -45 79 -73 79 -117 C79 -159 100 -183 133 -188 L119 -198 L82 -263 L131 -291 L204 -162 C211 -149 216 -135 216 -117 L216 -117 Z M207 840 L90 840 L90 0 L207 0 L207 840 Z " />
<glyph glyph-name="Lcaron" unicode="&#x13d;" horiz-adv-x="678" d="M663 111 L198 111 L210 123 L210 810 L90 810 L90 0 L663 0 L663 111 Z M463 742 C463 788 439 820 392 820 C345 820 320 788 320 742 C320 698 343 670 374 666 L362 656 L320 582 L372 552 L450 693 C458 706 463 722 463 742 L463 742 Z " />
<glyph glyph-name="lcaron" unicode="&#x13e;" horiz-adv-x="395" d="M207 840 L90 840 L90 0 L207 0 L207 840 Z M420 768 C420 814 395 846 348 846 C302 846 277 814 277 768 C277 724 300 696 331 692 L318 682 L277 608 L329 578 L407 719 C414 732 420 748 420 768 L420 768 Z " />
<glyph glyph-name="Ldot" unicode="&#x13f;" horiz-adv-x="678" d="M663 111 L198 111 L210 123 L210 810 L90 810 L90 0 L663 0 L663 111 Z M458 434 C458 482 433 514 385 514 C337 514 312 481 312 434 C312 387 337 354 385 354 C432 354 458 387 458 434 L458 434 Z " />
<glyph glyph-name="ldot" unicode="&#x140;" horiz-adv-x="421" d="M207 840 L90 840 L90 0 L207 0 L207 840 Z M421 434 C421 482 396 514 348 514 C300 514 275 481 275 434 C275 387 300 354 348 354 C395 354 421 387 421 434 L421 434 Z " />
<glyph glyph-name="Lslash" unicode="&#x141;" horiz-adv-x="678" d="M663 111 L198 111 L210 122 L210 325 L205 335 L427 425 L427 537 L204 447 L210 462 L210 810 L90 810 L90 413 L96 404 L15 370 L15 258 L96 292 L90 277 L90 0 L663 0 L663 111 Z " />
<glyph glyph-name="lslash" unicode="&#x142;" horiz-adv-x="297" d="M282 527 L202 493 L207 508 L207 840 L90 840 L90 458 L97 449 L15 415 L15 306 L96 340 L90 326 L90 0 L207 0 L207 375 L200 384 L282 419 L282 527 Z " />
<glyph glyph-name="Nacute" unicode="&#x143;" horiz-adv-x="870" d="M780 810 L660 810 L660 194 L658 194 L604 285 L196 810 L90 810 L90 0 L210 0 L210 616 L212 616 L268 524 L674 0 L780 0 L780 810 Z M500 1129 L322 922 L370 874 L578 1052 L500 1129 Z " />
<glyph glyph-name="nacute" unicode="&#x144;" horiz-adv-x="753" d="M668 398 C668 553 566 640 402 640 C328 640 252 610 209 562 L207 562 L207 630 L90 630 L90 0 L207 0 L207 372 C207 479 286 535 388 535 C524 535 551 471 551 380 L551 0 L668 0 L668 398 L668 398 Z M445 951 L268 743 L315 695 L523 873 L445 951 Z " />
<glyph glyph-name="Ncommacedilla" unicode="&#x145;" horiz-adv-x="870" d="M511 -117 C511 -73 487 -45 442 -45 C397 -45 373 -73 373 -117 C373 -159 395 -183 427 -188 L413 -198 L376 -263 L425 -291 L498 -162 C506 -149 511 -135 511 -117 L511 -117 Z M780 810 L660 810 L660 194 L658 194 L604 285 L196 810 L90 810 L90 0 L210 0 L210 616 L212 616 L268 524 L674 0 L780 0 L780 810 Z " />
<glyph glyph-name="ncommacedilla" unicode="&#x146;" horiz-adv-x="753" d="M458 -117 C458 -73 434 -45 389 -45 C344 -45 320 -73 320 -117 C320 -159 342 -183 374 -188 L360 -198 L323 -263 L372 -291 L445 -162 C453 -149 458 -135 458 -117 L458 -117 Z M668 398 C668 553 566 640 402 640 C328 640 252 610 209 562 L207 562 L207 630 L90 630 L90 0 L207 0 L207 372 C207 479 286 535 388 535 C524 535 551 471 551 380 L551 0 L668 0 L668 398 L668 398 Z " />
<glyph glyph-name="Ncaron" unicode="&#x147;" horiz-adv-x="870" d="M780 810 L660 810 L660 194 L658 194 L604 285 L196 810 L90 810 L90 0 L210 0 L210 616 L212 616 L268 524 L674 0 L780 0 L780 810 Z M575 1109 L435 995 L433 994 L291 1108 L244 1061 L431 875 L434 875 L622 1061 L575 1109 Z " />
<glyph glyph-name="ncaron" unicode="&#x148;" horiz-adv-x="753" d="M668 398 C668 553 566 640 402 640 C328 640 252 610 209 562 L207 562 L207 630 L90 630 L90 0 L207 0 L207 372 C207 479 286 535 388 535 C524 535 551 471 551 380 L551 0 L668 0 L668 398 L668 398 Z M538 930 L398 816 L397 815 L255 930 L208 883 L395 696 L397 696 L585 883 L538 930 Z " />
<glyph glyph-name="napostrophe" unicode="&#x149;" horiz-adv-x="830" d="M143 742 C143 788 118 820 71 820 C25 820 0 788 0 742 C0 698 23 670 54 666 L41 656 L0 582 L52 552 L130 693 C137 706 143 722 143 742 L143 742 Z M744 398 C744 553 642 640 478 640 C404 640 328 610 285 562 L283 562 L283 630 L166 630 L166 0 L283 0 L283 372 C283 479 362 535 464 535 C600 535 627 471 627 380 L627 0 L744 0 L744 398 L744 398 Z " />
<glyph glyph-name="Eng" unicode="&#x14a;" horiz-adv-x="870" d="M780 810 L660 810 L660 193 L658 193 L604 283 L196 810 L90 810 L90 0 L210 0 L210 616 L212 616 L268 524 L654 23 C659 17 673 -5 673 -12 L673 -94 C673 -114 661 -126 644 -126 C627 -126 615 -115 615 -95 L615 -59 L523 -59 L522 -98 C522 -170 575 -224 646 -224 C710 -224 763 -181 773 -125 C778 -116 780 -59 780 -49 L780 810 Z " />
<glyph glyph-name="eng" unicode="&#x14b;" horiz-adv-x="753" d="M668 398 C668 553 566 640 402 640 C328 640 252 610 209 562 L207 562 L207 630 L90 630 L90 0 L207 0 L207 372 C207 479 286 535 388 535 C524 535 551 471 551 380 L551 189 L551 0 L551 -91 C551 -111 539 -123 523 -123 C502 -123 494 -108 494 -86 C494 -83 494 -60 494 -57 L397 -56 L396 -93 C396 -168 453 -224 527 -224 C602 -224 661 -170 667 -94 C667 -92 668 -82 668 -80 L668 382 L668 398 L668 398 Z " />
<glyph glyph-name="Omacron" unicode="&#x14c;" horiz-adv-x="894" d="M716 400 C716 231 640 101 447 101 C256 101 178 231 178 400 C178 573 255 709 447 709 C640 709 716 568 716 400 L716 400 Z M839 400 C839 645 705 820 447 820 C190 820 55 644 55 400 C55 156 190 -10 447 -10 C701 -10 839 156 839 400 L839 400 Z M644 980 L249 980 L249 900 L644 900 L644 980 Z " />
<glyph glyph-name="omacron" unicode="&#x14d;" horiz-adv-x="730" d="M558 315 C558 190 501 95 365 95 C230 95 172 191 172 315 C172 441 229 535 365 535 C500 535 558 440 558 315 L558 315 Z M675 315 C675 503 572 640 364 640 C158 640 55 501 55 315 C55 129 157 -10 365 -10 C570 -10 675 130 675 315 L675 315 Z M562 822 L167 822 L167 742 L562 742 L562 822 Z " />
<glyph glyph-name="Obreve" unicode="&#x14e;" horiz-adv-x="894" d="M716 400 C716 231 640 101 447 101 C256 101 178 231 178 400 C178 573 255 709 447 709 C640 709 716 568 716 400 L716 400 Z M839 400 C839 645 705 820 447 820 C190 820 55 644 55 400 C55 156 190 -10 447 -10 C700 -10 839 156 839 400 L839 400 Z M552 1021 C533 978 502 953 446 953 C391 953 361 978 341 1021 L252 1021 C278 930 343 875 446 875 C549 875 614 930 641 1021 L552 1021 Z " />
<glyph glyph-name="obreve" unicode="&#x14f;" horiz-adv-x="730" d="M558 315 C558 190 501 95 365 95 C230 95 172 191 172 315 C172 441 229 535 365 535 C500 535 558 440 558 315 L558 315 Z M675 315 C675 503 572 640 364 640 C158 640 55 501 55 315 C55 129 157 -10 365 -10 C570 -10 675 130 675 315 L675 315 Z M471 841 C451 798 420 773 365 773 C310 773 279 798 259 841 L170 841 C197 750 261 695 365 695 C467 695 532 751 559 841 L471 841 Z " />
<glyph glyph-name="Ohungarumlaut" unicode="&#x150;" horiz-adv-x="894" d="M716 400 C716 231 640 101 447 101 C256 101 178 231 178 400 C178 573 255 709 447 709 C640 709 716 568 716 400 L716 400 Z M839 400 C839 645 705 820 447 820 C190 820 55 644 55 400 C55 156 190 -10 447 -10 C700 -10 839 156 839 400 L839 400 Z M417 1083 L283 920 L329 874 L492 1008 L417 1083 Z M611 1083 L477 920 L523 874 L686 1008 L611 1083 Z " />
<glyph glyph-name="ohungarumlaut" unicode="&#x151;" horiz-adv-x="730" d="M558 315 C558 190 501 95 365 95 C230 95 172 191 172 315 C172 441 229 535 365 535 C500 535 558 440 558 315 L558 315 Z M675 315 C675 503 572 640 364 640 C158 640 55 501 55 315 C55 129 157 -10 365 -10 C570 -10 675 130 675 315 L675 315 Z M329 898 L195 735 L241 689 L405 823 L329 898 Z M523 898 L389 735 L435 689 L599 823 L523 898 Z " />
<glyph glyph-name="OE" unicode="&#x152;" horiz-adv-x="1117" d="M572 400 C572 227 510 101 375 101 C241 101 178 227 178 400 C178 576 240 709 375 709 C511 709 572 572 572 400 L572 400 Z M1047 111 L675 111 L682 124 L682 336 L675 349 L1009 349 L1009 461 L675 461 L682 472 L682 687 L675 699 L1047 699 L1047 810 L562 810 L562 750 C562 750 561 750 561 750 C514 798 448 820 375 820 C163 820 55 641 55 400 C55 158 163 -10 375 -10 C447 -10 516 13 561 58 C561 58 562 59 562 59 L562 0 L1047 0 L1047 111 Z " />
<glyph glyph-name="oe" unicode="&#x153;" horiz-adv-x="1202" d="M548 315 C548 189 491 95 358 95 C225 95 167 190 167 315 C167 441 223 535 357 535 C491 535 548 441 548 315 L548 315 Z M649 366 L662 379 C681 469 738 535 847 535 C953 535 1010 471 1028 379 L1041 366 L649 366 Z M1147 310 C1147 498 1050 640 847 640 C738 640 654 597 607 520 C607 520 605 519 605 519 C554 597 472 640 357 640 C155 640 55 501 55 315 C55 128 155 -10 357 -10 C472 -10 555 34 597 107 C597 107 598 107 598 108 C649 32 735 -10 851 -10 C947 -10 1029 16 1099 86 L1021 165 C971 116 917 95 851 95 C740 95 680 154 661 252 L648 264 L1145 264 C1146 287 1147 295 1147 310 L1147 310 Z " />
<glyph glyph-name="Racute" unicode="&#x154;" horiz-adv-x="819" d="M619 566 C619 491 559 435 447 435 L198 435 L210 448 L210 687 L198 699 L457 699 C553 699 619 662 619 566 L619 566 Z M685 263 C661 312 623 346 590 360 L590 362 C672 390 742 467 742 566 C742 730 610 810 457 810 L90 810 L90 0 L210 0 L210 313 L198 324 L380 324 C482 324 538 289 575 214 L680 0 L814 0 L685 263 Z M490 1129 L312 922 L360 874 L568 1052 L490 1129 Z " />
<glyph glyph-name="racute" unicode="&#x155;" horiz-adv-x="450" d="M430 637 L403 637 C320 637 245 598 209 529 L207 529 L207 630 L90 630 L90 0 L207 0 L207 311 C207 461 288 519 393 518 L430 518 L430 637 Z M311 950 L134 743 L181 695 L389 873 L311 950 Z " />
<glyph glyph-name="Rcommacedilla" unicode="&#x156;" horiz-adv-x="819" d="M619 566 C619 491 559 435 447 435 L198 435 L210 448 L210 687 L198 699 L457 699 C553 699 619 662 619 566 L619 566 Z M515 -117 C515 -73 492 -45 446 -45 C401 -45 378 -73 378 -117 C378 -159 399 -183 432 -188 L418 -198 L381 -263 L430 -291 L503 -162 C510 -149 515 -135 515 -117 L515 -117 Z M685 263 C661 312 623 346 590 360 L590 362 C672 390 742 467 742 566 C742 730 610 810 457 810 L90 810 L90 0 L210 0 L210 313 L198 324 L380 324 C482 324 538 289 575 214 L680 0 L814 0 L685 263 Z " />
<glyph glyph-name="rcommacedilla" unicode="&#x157;" horiz-adv-x="450" d="M277 -117 C277 -73 253 -45 208 -45 C163 -45 139 -73 139 -117 C139 -159 161 -183 193 -188 L179 -198 L142 -263 L191 -291 L264 -162 C272 -149 277 -135 277 -117 L277 -117 Z M430 637 L403 637 C320 637 245 598 209 529 L207 529 L207 630 L90 630 L90 0 L207 0 L207 311 C207 461 288 519 393 518 L430 518 L430 637 Z " />
<glyph glyph-name="Rcaron" unicode="&#x158;" horiz-adv-x="819" d="M619 566 C619 491 559 435 447 435 L198 435 L210 448 L210 687 L198 699 L457 699 C553 699 619 662 619 566 L619 566 Z M685 263 C661 312 623 346 590 360 L590 362 C672 390 742 467 742 566 C742 730 610 810 457 810 L90 810 L90 0 L210 0 L210 313 L198 324 L380 324 C482 324 538 289 575 214 L680 0 L814 0 L685 263 Z M548 1109 L408 995 L406 994 L264 1108 L217 1061 L404 875 L407 875 L595 1061 L548 1109 Z " />
<glyph glyph-name="rcaron" unicode="&#x159;" horiz-adv-x="450" d="M430 637 L403 637 C320 637 245 598 209 529 L207 529 L207 630 L90 630 L90 0 L207 0 L207 311 C207 461 288 519 393 518 L430 518 L430 637 Z M403 930 L263 816 L262 815 L120 930 L73 883 L260 696 L262 696 L450 883 L403 930 Z " />
<glyph glyph-name="Sacute" unicode="&#x15a;" horiz-adv-x="798" d="M748 225 C748 324 677 407 514 448 C495 453 400 479 383 483 C246 520 196 549 196 599 C196 653 253 709 403 709 C506 709 582 670 639 603 L727 690 C647 774 535 820 403 820 C179 820 73 713 73 595 C73 471 181 418 328 378 C346 373 460 344 477 339 C586 311 625 264 625 219 C625 156 558 101 409 101 C309 101 232 132 139 214 L50 128 C143 31 280 -10 413 -10 C654 -10 748 107 748 225 L748 225 Z M468 1129 L290 922 L338 874 L545 1052 L468 1129 Z " />
<glyph glyph-name="sacute" unicode="&#x15b;" horiz-adv-x="661" d="M606 178 C606 264 550 322 422 356 C408 359 334 381 321 385 C227 410 191 428 191 462 C191 491 226 535 334 535 C406 535 463 508 511 453 L591 533 C521 606 434 640 334 640 C161 640 73 557 73 459 C73 356 164 312 274 282 C288 278 373 254 386 251 C472 229 488 205 488 174 C488 137 449 94 338 94 C268 94 211 115 135 182 L55 101 C136 19 241 -11 341 -11 C528 -11 606 81 606 178 L606 178 Z M403 951 L225 743 L273 695 L480 873 L403 951 Z " />
<glyph glyph-name="Scircumflex" unicode="&#x15c;" horiz-adv-x="798" d="M748 225 C748 324 677 407 514 448 C495 453 400 479 383 483 C246 520 196 549 196 599 C196 653 253 709 403 709 C506 709 582 670 639 603 L727 690 C647 774 535 820 403 820 C179 820 73 713 73 595 C73 471 181 418 328 378 C346 373 460 344 477 339 C586 311 625 264 625 219 C625 156 558 101 409 101 C309 101 232 132 139 214 L50 128 C143 31 280 -10 413 -10 C654 -10 748 107 748 225 L748 225 Z M406 1107 L404 1107 L216 921 L263 874 L403 987 L405 988 L547 874 L594 921 L406 1107 Z " />
<glyph glyph-name="scircumflex" unicode="&#x15d;" horiz-adv-x="662" d="M606 178 C606 264 550 322 422 356 C408 359 334 381 321 385 C227 410 191 428 191 462 C191 491 226 535 334 535 C406 535 463 508 511 453 L591 533 C521 606 434 640 334 640 C161 640 73 557 73 459 C73 356 164 312 274 282 C288 278 373 254 386 251 C472 229 488 205 488 174 C488 137 449 94 338 94 C268 94 211 115 135 182 L55 101 C136 19 241 -11 341 -11 C528 -11 606 81 606 178 L606 178 Z M337 930 L335 930 L147 743 L194 696 L334 810 L336 811 L477 696 L524 743 L337 930 Z " />
<glyph glyph-name="Scedilla" unicode="&#x15e;" horiz-adv-x="798" d="M748 225 C748 324 677 407 514 448 C495 453 400 479 383 483 C246 520 196 549 196 599 C196 653 253 709 403 709 C506 709 582 670 639 603 L727 690 C647 774 535 820 403 820 C179 820 73 713 73 595 C73 471 181 418 328 378 C346 373 460 344 477 339 C586 311 625 264 625 219 C625 156 558 101 409 101 C309 101 232 132 139 214 L50 128 C131 43 247 1 364 -8 L387 -31 C401 -45 404 -59 376 -87 L311 -153 L366 -208 L457 -118 C488 -86 487 -49 457 -22 L443 -9 C662 0 748 112 748 225 L748 225 Z " />
<glyph glyph-name="scedilla" unicode="&#x15f;" horiz-adv-x="661" d="M606 178 C606 264 550 322 422 356 C408 359 334 381 321 385 C227 410 191 428 191 462 C191 491 226 535 334 535 C406 535 463 508 511 453 L591 533 C521 606 434 640 334 640 C161 640 73 557 73 459 C73 356 164 312 274 282 C288 278 373 254 386 251 C472 229 488 205 488 174 C488 137 449 94 338 94 C268 94 211 115 135 182 L55 101 C125 30 213 -2 300 -9 L322 -31 C336 -45 339 -59 311 -87 L246 -153 L301 -208 L392 -118 C423 -86 422 -49 392 -22 L378 -9 L379 -9 C537 15 606 88 606 178 L606 178 Z " />
<glyph glyph-name="Scaron" unicode="&#x160;" horiz-adv-x="798" d="M748 225 C748 324 677 407 514 448 C495 453 400 479 383 483 C246 520 196 549 196 599 C196 653 253 709 403 709 C506 709 582 670 639 603 L727 690 C647 774 535 820 403 820 C179 820 73 713 73 595 C73 471 181 418 328 378 C346 373 460 344 477 339 C586 311 625 264 625 219 C625 156 558 101 409 101 C309 101 232 132 139 214 L50 128 C143 31 280 -10 413 -10 C654 -10 748 107 748 225 L748 225 Z M544 1109 L404 995 L402 994 L261 1108 L214 1061 L401 875 L403 875 L591 1061 L544 1109 Z " />
<glyph glyph-name="scaron" unicode="&#x161;" horiz-adv-x="661" d="M606 178 C606 264 550 322 422 356 C408 359 334 381 321 385 C227 410 191 428 191 462 C191 491 226 535 334 535 C406 535 463 508 511 453 L591 533 C521 606 434 640 334 640 C161 640 73 557 73 459 C73 356 164 312 274 282 C288 278 373 254 386 251 C472 229 488 205 488 174 C488 137 449 94 338 94 C268 94 211 115 135 182 L55 101 C136 19 241 -11 341 -11 C528 -11 606 81 606 178 L606 178 Z M482 928 L342 814 L341 814 L199 928 L152 881 L339 695 L341 695 L529 881 L482 928 Z " />
<glyph glyph-name="Tcedilla" unicode="&#x162;" horiz-adv-x="730" d="M710 810 L20 810 L20 699 L312 699 L305 687 L305 0 L321 0 L352 -31 C366 -45 369 -59 341 -87 L276 -153 L331 -208 L422 -118 C453 -86 452 -49 422 -22 L398 0 L425 0 L425 687 L419 699 L710 699 L710 810 Z " />
<glyph glyph-name="tcedilla" unicode="&#x163;" horiz-adv-x="493" d="M405 143 C365 107 337 95 298 95 C250 95 219 128 219 194 L219 517 L213 529 L411 529 L411 630 L213 630 L219 642 L219 798 L102 735 L102 642 L109 630 L30 630 L30 529 L109 529 L102 517 L102 195 C102 105 137 42 198 12 L241 -31 C255 -45 258 -59 230 -87 L165 -153 L220 -208 L311 -118 C342 -86 341 -49 311 -22 L298 -10 C364 -9 418 14 484 65 L405 143 Z " />
<glyph glyph-name="Tcaron" unicode="&#x164;" horiz-adv-x="730" d="M710 810 L20 810 L20 699 L312 699 L305 687 L305 0 L425 0 L425 687 L419 699 L710 699 L710 810 Z M511 1109 L371 995 L369 994 L227 1108 L180 1061 L367 875 L370 875 L558 1061 L511 1109 Z " />
<glyph glyph-name="tcaron" unicode="&#x165;" horiz-adv-x="493" d="M406 143 C365 107 337 95 298 95 C250 95 219 128 219 194 L219 517 L213 529 L411 529 L411 630 L213 630 L219 642 L219 798 L102 735 L102 642 L109 630 L30 630 L30 529 L109 529 L102 517 L102 195 C102 67 172 -10 293 -10 C360 -10 416 13 484 65 L406 143 Z M413 857 C413 903 389 933 342 933 C295 933 271 903 271 857 C271 813 293 788 327 783 L313 772 L274 704 L325 675 L401 811 C408 824 413 838 413 857 L413 857 Z " />
<glyph glyph-name="Tbar" unicode="&#x166;" horiz-adv-x="730" d="M710 810 L20 810 L20 699 L312 699 L305 687 L305 469 L311 457 L120 457 L120 350 L311 350 L305 339 L305 0 L425 0 L425 339 L419 350 L610 350 L610 457 L419 457 L425 469 L425 687 L419 699 L710 699 L710 810 Z " />
<glyph glyph-name="tbar" unicode="&#x167;" horiz-adv-x="493" d="M406 143 C365 107 337 95 298 95 C250 95 219 128 219 194 L219 330 L213 342 L411 342 L411 443 L213 443 L219 455 L219 517 L213 529 L411 529 L411 630 L213 630 L219 642 L219 798 L102 735 L102 642 L109 630 L30 630 L30 529 L109 529 L102 517 L102 455 L108 443 L30 443 L30 342 L108 342 L102 330 L102 195 C102 67 172 -10 293 -10 C360 -10 416 13 484 65 L406 143 Z " />
<glyph glyph-name="Utilde" unicode="&#x168;" horiz-adv-x="882" d="M797 810 L677 810 L677 373 C677 202 613 101 441 101 C267 101 205 202 205 373 L205 810 L85 810 L85 372 C85 124 199 -10 442 -10 C684 -10 797 126 797 372 L797 810 Z M626 1044 C611 995 581 967 542 967 C529 967 516 971 502 977 C487 984 472 993 456 1002 C423 1022 388 1042 352 1042 C282 1042 223 984 208 929 L260 877 C277 928 308 953 344 953 C357 953 371 949 385 942 C401 936 416 927 431 917 C463 898 497 878 533 878 C599 878 659 925 680 991 L626 1044 Z " />
<glyph glyph-name="utilde" unicode="&#x169;" horiz-adv-x="745" d="M655 630 L538 630 L538 258 C538 151 463 95 361 95 C227 95 202 160 202 245 L202 630 L85 630 L85 241 C85 87 163 -10 347 -10 C422 -10 490 18 536 68 L538 68 L538 0 L655 0 L655 630 Z M550 878 C535 830 505 801 466 801 C454 801 440 805 426 812 C411 818 396 828 380 837 C348 856 313 877 277 877 C207 877 148 819 132 764 L185 711 C202 763 233 787 268 787 C282 787 295 783 310 777 C325 770 340 761 356 752 C387 733 421 712 457 712 C523 712 583 760 604 825 L550 878 Z " />
<glyph glyph-name="Umacron" unicode="&#x16a;" horiz-adv-x="882" d="M797 810 L677 810 L677 373 C677 202 613 101 441 101 C267 101 205 202 205 373 L205 810 L85 810 L85 372 C85 124 199 -10 442 -10 C684 -10 797 126 797 372 L797 810 Z M639 980 L244 980 L244 900 L639 900 L639 980 Z " />
<glyph glyph-name="umacron" unicode="&#x16b;" horiz-adv-x="745" d="M655 630 L538 630 L538 258 C538 151 463 95 361 95 C227 95 202 160 202 245 L202 630 L85 630 L85 241 C85 87 163 -10 347 -10 C422 -10 490 18 536 68 L538 68 L538 0 L655 0 L655 630 Z M569 822 L175 822 L175 742 L569 742 L569 822 Z " />
<glyph glyph-name="Ubreve" unicode="&#x16c;" horiz-adv-x="882" d="M797 810 L677 810 L677 373 C677 202 613 101 441 101 C267 101 205 202 205 373 L205 810 L85 810 L85 372 C85 124 199 -10 442 -10 C684 -10 797 126 797 372 L797 810 Z M548 1021 C529 978 498 953 442 953 C387 953 357 978 337 1021 L248 1021 C274 930 339 875 442 875 C545 875 610 930 637 1021 L548 1021 Z " />
<glyph glyph-name="ubreve" unicode="&#x16d;" horiz-adv-x="745" d="M655 630 L538 630 L538 258 C538 151 463 95 361 95 C227 95 202 160 202 245 L202 630 L85 630 L85 241 C85 87 163 -10 347 -10 C422 -10 490 18 536 68 L538 68 L538 0 L655 0 L655 630 Z M473 841 C453 798 422 773 367 773 C312 773 281 798 261 841 L172 841 C199 750 263 695 367 695 C469 695 534 751 561 841 L473 841 Z " />
<glyph glyph-name="Uring" unicode="&#x16e;" horiz-adv-x="882" d="M493 992 C493 959 477 936 441 936 C406 936 389 959 389 992 C389 1025 405 1048 441 1048 C477 1048 493 1024 493 992 L493 992 Z M797 810 L677 810 L677 373 C677 202 613 101 441 101 C267 101 205 202 205 373 L205 810 L85 810 L85 372 C85 124 199 -10 442 -10 C684 -10 797 126 797 372 L797 810 Z M554 992 C554 1059 517 1108 441 1108 C365 1108 328 1058 328 992 C328 925 365 875 441 875 C516 875 554 926 554 992 L554 992 Z " />
<glyph glyph-name="uring" unicode="&#x16f;" horiz-adv-x="745" d="M423 812 C423 779 407 756 371 756 C336 756 319 780 319 812 C319 845 335 868 371 868 C407 868 423 845 423 812 L423 812 Z M655 630 L538 630 L538 258 C538 151 463 95 361 95 C227 95 202 160 202 245 L202 630 L85 630 L85 241 C85 87 163 -10 347 -10 C422 -10 490 18 536 68 L538 68 L538 0 L655 0 L655 630 Z M485 812 C485 879 447 929 371 929 C295 929 258 879 258 812 C258 746 295 695 371 695 C446 695 485 746 485 812 L485 812 Z " />
<glyph glyph-name="Uhungarumlaut" unicode="&#x170;" horiz-adv-x="882" d="M797 810 L677 810 L677 373 C677 202 613 101 441 101 C267 101 205 202 205 373 L205 810 L85 810 L85 372 C85 124 199 -10 442 -10 C684 -10 797 126 797 372 L797 810 Z M411 1083 L277 920 L323 874 L486 1008 L411 1083 Z M605 1083 L471 920 L517 874 L680 1008 L605 1083 Z " />
<glyph glyph-name="uhungarumlaut" unicode="&#x171;" horiz-adv-x="745" d="M655 630 L538 630 L538 258 C538 151 463 95 361 95 C227 95 202 160 202 245 L202 630 L85 630 L85 241 C85 87 163 -10 347 -10 C422 -10 490 18 536 68 L538 68 L538 0 L655 0 L655 630 Z M324 898 L190 735 L236 689 L399 823 L324 898 Z M518 898 L384 735 L430 689 L593 823 L518 898 Z " />
<glyph glyph-name="Uogonek" unicode="&#x172;" horiz-adv-x="882" d="M797 810 L677 810 L677 373 C677 202 613 101 441 101 C267 101 205 202 205 373 L205 810 L85 810 L85 372 C85 127 196 -6 431 -10 C434 -10 435 -10 437 -10 L365 -84 C343 -107 329 -139 330 -172 C333 -230 382 -274 438 -272 C474 -270 498 -253 518 -234 C530 -222 531 -219 546 -203 L503 -160 C491 -173 481 -182 481 -182 C473 -189 464 -193 454 -194 C432 -195 411 -175 410 -152 C409 -142 413 -128 422 -118 L530 -3 C711 28 797 159 797 372 L797 810 Z " />
<glyph glyph-name="uogonek" unicode="&#x173;" horiz-adv-x="745" d="M655 630 L538 630 L538 258 C538 151 463 95 361 95 C227 95 202 160 202 245 L202 630 L85 630 L85 241 C85 87 163 -10 347 -10 C422 -10 490 18 536 68 L538 68 L538 0 L540 0 L458 -84 C436 -107 422 -139 423 -172 C426 -230 475 -274 531 -272 C567 -270 591 -253 611 -234 C623 -222 625 -219 639 -203 L596 -160 C584 -173 574 -182 574 -182 C566 -189 557 -193 547 -194 C525 -195 504 -175 503 -152 C502 -142 506 -128 515 -119 L626 0 L655 0 L655 630 Z " />
<glyph glyph-name="Wcircumflex" unicode="&#x174;" horiz-adv-x="1077" d="M926 810 L771 233 L757 152 L755 152 L742 233 L585 810 L493 810 L337 233 L322 151 L320 151 L307 233 L153 810 L25 810 L248 0 L389 0 L521 490 L536 582 L538 582 L554 490 L686 0 L829 0 L1052 810 L926 810 Z M540 1107 L538 1107 L350 921 L397 874 L537 987 L539 988 L680 874 L727 921 L540 1107 Z " />
<glyph glyph-name="wcircumflex" unicode="&#x175;" horiz-adv-x="915" d="M778 630 L661 220 L649 141 L647 141 L633 220 L507 630 L409 630 L283 220 L270 141 L268 141 L255 220 L139 630 L15 630 L201 0 L328 0 L442 350 L457 434 L459 434 L474 350 L586 0 L714 0 L900 630 L778 630 Z M459 930 L457 930 L269 743 L316 696 L456 810 L458 811 L599 696 L646 743 L459 930 Z " />
<glyph glyph-name="Ycircumflex" unicode="&#x176;" horiz-adv-x="840" d="M675 810 L472 527 L421 439 L419 439 L367 526 L166 810 L15 810 L360 338 L360 0 L481 0 L481 338 L825 810 L675 810 Z M421 1107 L419 1107 L231 921 L278 874 L418 987 L420 988 L561 874 L608 921 L421 1107 Z " />
<glyph glyph-name="ycircumflex" unicode="&#x177;" horiz-adv-x="700" d="M555 630 L388 213 L361 128 L359 128 L331 213 L145 630 L15 630 L302 6 C270 -72 233 -107 187 -107 C152 -107 114 -98 69 -74 L69 -186 C110 -207 151 -215 199 -215 C285 -215 355 -156 393 -65 L685 630 L555 630 Z M347 930 L345 930 L157 743 L204 696 L344 810 L346 811 L487 696 L534 743 L347 930 Z " />
<glyph glyph-name="Ydieresis" unicode="&#x178;" horiz-adv-x="840" d="M675 810 L472 527 L421 439 L419 439 L367 526 L166 810 L15 810 L360 338 L360 0 L481 0 L481 338 L825 810 L675 810 Z M361 971 C361 1013 339 1042 296 1042 C254 1042 231 1013 231 971 C231 929 253 900 296 900 C338 900 361 929 361 971 L361 971 Z M605 971 C605 1013 583 1042 540 1042 C498 1042 475 1013 475 971 C475 929 497 900 540 900 C582 900 605 929 605 971 L605 971 Z " />
<glyph glyph-name="Zacute" unicode="&#x179;" horiz-adv-x="810" d="M750 111 L222 111 L222 113 L293 183 L745 717 L745 810 L70 810 L70 699 L586 699 L586 697 L515 629 L60 94 L60 0 L750 0 L750 111 Z M484 1129 L306 922 L354 874 L562 1052 L484 1129 Z " />
<glyph glyph-name="zacute" unicode="&#x17a;" horiz-adv-x="677" d="M617 107 L211 107 L210 108 L279 170 L614 547 L614 629 L67 629 L67 522 L457 522 L456 521 L391 463 L60 87 L60 0 L617 0 L617 107 Z M410 951 L233 743 L280 695 L488 873 L410 951 Z " />
<glyph glyph-name="Zdotaccent" unicode="&#x17b;" horiz-adv-x="810" d="M750 111 L222 111 L222 113 L293 183 L745 717 L745 810 L70 810 L70 699 L586 699 L586 697 L515 629 L60 94 L60 0 L750 0 L750 111 Z M477 965 C477 1012 452 1045 403 1045 C356 1045 331 1012 331 965 C331 918 356 885 404 885 C451 885 477 918 477 965 L477 965 Z " />
<glyph glyph-name="zdotaccent" unicode="&#x17c;" horiz-adv-x="677" d="M617 107 L211 107 L210 108 L279 170 L614 547 L614 629 L67 629 L67 522 L457 522 L456 521 L391 463 L60 87 L60 0 L617 0 L617 107 Z M415 787 C415 835 390 867 342 867 C295 867 269 834 269 787 C269 740 294 707 342 707 C390 707 415 740 415 787 L415 787 Z " />
<glyph glyph-name="Zcaron" unicode="&#x17d;" horiz-adv-x="810" d="M750 111 L223 111 L222 112 L293 183 L745 717 L745 810 L70 810 L70 699 L587 699 L586 697 L519 633 L60 94 L60 0 L750 0 L750 111 Z M548 1109 L408 995 L406 994 L265 1108 L218 1061 L405 875 L407 875 L595 1061 L548 1109 Z " />
<glyph glyph-name="zcaron" unicode="&#x17e;" horiz-adv-x="682" d="M622 107 L212 107 L211 108 L273 163 L619 546 L619 629 L67 629 L67 522 L457 522 L457 520 L398 468 L60 87 L60 0 L622 0 L622 107 Z M484 928 L344 814 L343 814 L201 928 L154 881 L341 695 L343 695 L531 881 L484 928 Z " />
<glyph glyph-name="longs" unicode="&#x17f;" horiz-adv-x="412" d="M412 829 C388 839 355 845 319 845 C183 845 106 762 105 650 C104 649 105 643 105 642 L111 630 L30 630 L30 525 L111 525 L105 513 L105 0 L222 0 L222 645 C222 704 257 742 325 742 C352 742 388 735 412 725 L412 829 Z " />
<glyph glyph-name="florin" unicode="&#x192;" horiz-adv-x="432" d="M402 630 L206 630 L212 642 C212 707 249 742 315 742 C342 742 376 735 402 725 L402 829 C373 840 340 845 309 845 C187 845 96 774 95 650 C94 649 95 643 95 642 L101 630 L20 630 L20 526 L101 526 L95 514 L95 95 C95 12 100 -106 -14 -106 C-43 -106 -74 -95 -100 -83 L-100 -195 C-68 -206 -35 -215 -2 -215 C167 -215 212 -80 212 65 L212 514 L206 526 L402 526 L402 630 Z " />
<glyph glyph-name="Aringacute" unicode="&#x1fa;" horiz-adv-x="881" d="M280 310 L292 322 L417 598 L440 671 L442 671 L465 597 L589 322 L601 310 L280 310 Z M493 866 C493 833 476 810 441 810 C406 810 389 834 389 866 C389 899 405 922 441 922 C476 922 493 899 493 866 L493 866 Z M516 774 C541 795 554 828 554 866 C554 933 517 983 441 983 C365 983 328 933 328 866 C328 828 340 795 366 774 L15 0 L146 0 L231 187 L225 199 L656 199 L650 188 L735 0 L866 0 L516 774 Z M504 1264 L326 1057 L374 1009 L582 1187 L504 1264 Z " />
<glyph glyph-name="aringacute" unicode="&#x1fb;" horiz-adv-x="720" d="M518 282 L518 188 C518 107 384 94 325 94 C262 94 171 113 171 188 C171 236 209 264 269 279 C302 287 340 292 376 294 C412 296 447 296 476 296 C491 296 519 294 530 294 L518 282 Z M407 807 C407 774 391 751 355 751 C320 751 303 775 303 807 C303 840 319 863 355 863 C391 863 407 840 407 807 L407 807 Z M635 406 C635 586 494 639 357 639 C259 639 174 619 89 553 L166 474 C221 520 293 534 357 534 C444 534 511 503 517 419 C518 418 517 409 518 407 L530 395 C518 396 487 397 471 397 C312 397 55 385 55 188 C55 37 197 -11 325 -11 C393 -11 462 5 516 48 L518 48 L518 0 L635 0 L635 406 L635 406 Z M469 807 C469 874 431 924 355 924 C279 924 242 874 242 807 C242 741 279 690 355 690 C430 690 469 741 469 807 L469 807 Z M420 1207 L242 999 L290 952 L497 1130 L420 1207 Z " />
<glyph glyph-name="AEacute" unicode="&#x1fc;" horiz-adv-x="1076" d="M280 310 L290 320 L455 687 L452 699 L525 699 L518 687 L518 322 L528 310 L280 310 Z M1006 111 L625 111 L637 123 L637 338 L625 350 L963 350 L963 460 L625 460 L637 473 L637 687 L631 699 L1006 699 L1006 810 L382 810 L15 0 L146 0 L231 187 L225 199 L525 199 L517 187 L517 0 L1006 0 L1006 111 Z M629 1129 L451 922 L499 874 L707 1052 L629 1129 Z " />
<glyph glyph-name="aeacute" unicode="&#x1fd;" horiz-adv-x="1163" d="M508 282 L508 188 C508 107 377 95 319 95 C257 95 169 113 169 188 C169 237 206 264 265 279 C297 288 333 292 368 294 C404 296 438 296 466 296 C481 296 506 294 517 294 L508 282 Z M614 367 L624 379 C643 469 700 533 808 533 C913 533 969 471 988 379 L1002 367 L614 367 Z M1108 310 C1108 498 1011 640 808 640 C710 640 628 594 583 534 C583 534 582 534 582 533 C532 607 446 639 350 639 C251 639 165 618 77 544 L156 467 C211 518 285 533 350 533 C435 533 501 503 506 419 C508 418 507 409 507 407 L517 395 C511 396 477 397 461 397 C306 397 55 385 55 188 C55 37 193 -11 318 -11 C424 -11 518 9 576 89 C576 89 577 89 578 90 C640 19 725 -10 812 -10 C908 -10 992 22 1062 90 L981 168 C932 120 877 97 812 97 C701 97 642 155 623 251 L611 263 L1105 263 C1107 287 1108 295 1108 310 L1108 310 Z M653 951 L475 743 L523 695 L730 873 L653 951 Z " />
<glyph glyph-name="Oslashacute" unicode="&#x1fe;" horiz-adv-x="894" d="M559 679 L269 173 L269 159 C204 215 178 302 178 400 C178 573 255 709 447 709 C493 709 537 700 569 684 L559 679 Z M716 400 C716 231 640 101 447 101 C399 101 354 110 318 127 L328 134 L620 642 L620 654 C689 596 716 502 716 400 L716 400 Z M839 400 C839 554 787 681 679 755 L687 761 L721 819 L660 855 L626 795 L625 784 C576 806 515 820 448 820 C192 820 55 644 55 400 C55 250 106 128 209 56 L200 51 L150 -36 L210 -72 L261 17 L259 28 C312 3 377 -10 447 -10 C701 -10 839 156 839 400 L839 400 Z M507 1129 L329 922 L377 874 L585 1052 L507 1129 Z " />
<glyph glyph-name="oslashacute" unicode="&#x1ff;" horiz-adv-x="705" d="M426 510 L226 161 L223 146 C183 187 166 248 166 315 C166 441 221 533 352 533 C383 533 414 527 437 517 L426 510 Z M539 315 C539 189 483 97 353 97 C324 97 294 102 273 112 L284 121 L483 469 L485 482 C525 438 539 381 539 315 L539 315 Z M650 315 C650 426 617 519 542 582 L551 586 L591 655 L530 691 L491 622 L490 612 C452 630 404 640 352 640 C154 640 55 502 55 315 C55 203 91 106 167 47 L157 41 L117 -28 L177 -64 L217 5 L217 16 C256 -2 303 -10 353 -10 C551 -10 650 129 650 315 L650 315 Z M418 951 L241 743 L288 695 L496 873 L418 951 Z " />
<glyph glyph-name="Scommacedilla" unicode="&#x218;" horiz-adv-x="798" d="M487 -117 C487 -73 463 -45 418 -45 C373 -45 349 -73 349 -117 C349 -159 371 -183 403 -188 L389 -198 L352 -263 L401 -291 L474 -162 C482 -149 487 -135 487 -117 L487 -117 Z M748 225 C748 324 677 407 514 448 C495 453 400 479 383 483 C246 520 196 549 196 599 C196 653 253 709 403 709 C506 709 582 670 639 603 L727 690 C647 774 535 820 403 820 C179 820 73 713 73 595 C73 471 181 418 328 378 C346 373 460 344 477 339 C586 311 625 264 625 219 C625 156 558 101 409 101 C309 101 232 132 139 214 L50 128 C143 31 280 -10 413 -10 C654 -10 748 107 748 225 L748 225 Z " />
<glyph glyph-name="scommacedilla" unicode="&#x219;" horiz-adv-x="661" d="M414 -117 C414 -73 391 -45 345 -45 C300 -45 277 -73 277 -117 C277 -159 298 -183 331 -188 L317 -198 L280 -263 L329 -291 L402 -162 C409 -149 414 -135 414 -117 L414 -117 Z M606 178 C606 264 550 322 422 356 C408 359 334 381 321 385 C227 410 191 428 191 462 C191 491 226 535 334 535 C406 535 463 508 511 453 L591 533 C521 606 434 640 334 640 C161 640 73 557 73 459 C73 356 164 312 274 282 C288 278 373 254 386 251 C472 229 488 205 488 174 C488 137 449 94 338 94 C268 94 211 115 135 182 L55 101 C136 19 241 -11 341 -11 C528 -11 606 81 606 178 L606 178 Z " />
<glyph glyph-name="Tcommacedilla" unicode="&#x21a;" horiz-adv-x="730" d="M438 -117 C438 -73 414 -45 369 -45 C324 -45 300 -73 300 -117 C300 -159 322 -183 354 -188 L340 -198 L303 -263 L352 -291 L425 -162 C433 -149 438 -135 438 -117 L438 -117 Z M710 810 L20 810 L20 699 L312 699 L305 687 L305 0 L425 0 L425 687 L419 699 L710 699 L710 810 Z " />
<glyph glyph-name="tcommacedilla" unicode="&#x21b;" horiz-adv-x="493" d="M332 -117 C332 -73 308 -45 263 -45 C218 -45 194 -73 194 -117 C194 -159 216 -183 248 -188 L234 -198 L197 -263 L246 -291 L319 -162 C327 -149 332 -135 332 -117 L332 -117 Z M406 143 C365 107 337 95 298 95 C250 95 219 128 219 194 L219 517 L213 529 L411 529 L411 630 L213 630 L219 642 L219 798 L102 735 L102 642 L109 630 L30 630 L30 529 L109 529 L102 517 L102 195 C102 67 172 -10 293 -10 C360 -10 416 13 484 65 L406 143 Z " />
<glyph glyph-name="circumflex" unicode="&#x2c6;" horiz-adv-x="725" d="M358 930 L356 930 L168 743 L215 696 L355 810 L356 811 L498 696 L545 743 L358 930 Z " />
<glyph glyph-name="caron" unicode="&#x2c7;" horiz-adv-x="695" d="M478 930 L338 816 L337 815 L195 930 L148 883 L335 696 L337 696 L525 883 L478 930 Z " />
<glyph glyph-name="breve" unicode="&#x2d8;" horiz-adv-x="695" d="M455 841 C436 798 405 773 349 773 C294 773 263 798 244 841 L155 841 C181 750 245 695 349 695 C452 695 517 751 544 841 L455 841 Z " />
<glyph glyph-name="dotaccent" unicode="&#x2d9;" horiz-adv-x="440" d="M295 787 C295 835 270 867 222 867 C174 867 149 835 149 787 C149 740 174 708 222 708 C269 708 295 740 295 787 L295 787 Z " />
<glyph glyph-name="ring" unicode="&#x2da;" horiz-adv-x="720" d="M404 812 C404 779 388 756 353 756 C317 756 301 780 301 812 C301 845 317 868 353 868 C388 868 404 845 404 812 L404 812 Z M466 812 C466 879 428 929 352 929 C277 929 239 879 239 812 C239 746 277 695 353 695 C428 695 466 746 466 812 L466 812 Z " />
<glyph glyph-name="ogonek" unicode="&#x2db;" horiz-adv-x="807" d="M700 -160 C688 -173 678 -182 678 -182 C670 -189 661 -193 651 -194 C629 -195 608 -175 607 -152 C606 -142 610 -128 619 -119 L733 3 L656 12 L562 -84 C540 -107 526 -139 527 -172 C530 -230 579 -274 635 -272 C671 -270 695 -253 715 -234 C727 -222 729 -219 743 -203 L700 -160 Z " />
<glyph glyph-name="tilde" unicode="&#x2dc;" horiz-adv-x="720" d="M530 878 C515 830 484 801 445 801 C433 801 420 805 406 812 C391 818 375 828 360 837 C327 856 292 877 256 877 C186 877 127 819 112 764 L164 711 C181 763 212 787 247 787 C261 787 275 783 289 777 C304 770 320 761 335 752 C367 733 401 712 437 712 C503 712 563 760 583 825 L530 878 Z " />
<glyph glyph-name="hungarumlaut" unicode="&#x2dd;" horiz-adv-x="705" d="M317 898 L183 735 L229 689 L393 823 L317 898 Z M511 898 L377 735 L423 689 L587 823 L511 898 Z " />
<glyph glyph-name="pi" unicode="&#x3c0;" horiz-adv-x="714" d="M694 629 L20 629 L20 521 L113 521 L107 509 L107 0 L218 0 L218 509 L213 521 L502 521 L496 509 L496 0 L608 0 L608 509 L602 521 L694 521 L694 629 Z " />
<glyph glyph-name="Bdotaccent" unicode="&#x1e02;" horiz-adv-x="812" d="M644 235 C644 156 602 111 482 111 L198 111 L210 123 L210 349 L198 361 L482 361 C597 361 644 312 644 235 L644 235 Z M609 587 C609 523 573 472 464 472 L198 472 L210 484 L210 687 L198 699 L464 699 C563 699 609 661 609 587 L609 587 Z M767 235 C767 324 725 392 647 424 L647 426 C705 462 732 518 732 586 C732 705 648 810 474 810 L188 810 L90 810 L90 0 L482 0 C666 0 767 90 767 235 L767 235 Z M458 965 C458 1012 433 1045 385 1045 C337 1045 312 1012 312 965 C312 918 337 885 385 885 C432 885 458 918 458 965 L458 965 Z " />
<glyph glyph-name="bdotaccent" unicode="&#x1e03;" horiz-adv-x="753" d="M581 313 C581 187 529 95 390 95 C253 95 199 187 199 313 C199 440 251 534 390 534 C528 534 581 439 581 313 L581 313 Z M698 313 C698 501 601 640 399 640 C320 640 253 612 209 563 L207 563 L207 840 L90 840 L90 0 L207 0 L207 62 L209 62 C252 15 318 -10 399 -10 C599 -10 698 126 698 313 L698 313 Z M472 787 C472 835 447 867 399 867 C351 867 326 834 326 787 C326 740 351 707 399 707 C446 707 472 740 472 787 L472 787 Z " />
<glyph glyph-name="Ddotaccent" unicode="&#x1e0a;" horiz-adv-x="848" d="M670 405 C670 245 634 111 403 111 L198 111 L210 123 L210 687 L198 699 L399 699 C632 699 670 564 670 405 L670 405 Z M793 405 C793 595 736 810 409 810 L189 810 L90 810 L90 0 L413 0 C737 0 793 215 793 405 L793 405 Z M463 965 C463 1012 438 1045 390 1045 C342 1045 317 1012 317 965 C317 918 342 885 390 885 C437 885 463 918 463 965 L463 965 Z " />
<glyph glyph-name="ddotaccent" unicode="&#x1e0b;" horiz-adv-x="753" d="M554 313 C554 187 501 95 363 95 C225 95 172 187 172 313 C172 439 227 534 363 534 C502 534 554 440 554 313 L554 313 Z M663 840 L546 840 L546 563 L544 563 C502 610 432 640 354 640 C155 640 55 501 55 312 C55 126 155 -10 354 -10 C436 -10 501 15 544 62 L546 62 L546 0 L663 0 L663 840 Z M426 787 C426 835 401 867 353 867 C306 867 280 834 280 787 C280 740 305 707 353 707 C401 707 426 740 426 787 L426 787 Z " />
<glyph glyph-name="Fdotaccent" unicode="&#x1e1e;" horiz-adv-x="720" d="M690 810 L90 810 L90 0 L210 0 L210 318 L198 330 L642 330 L642 441 L198 441 L210 453 L210 687 L198 699 L690 699 L690 810 Z M472 965 C472 1012 447 1045 398 1045 C351 1045 326 1012 326 965 C326 918 351 885 399 885 C446 885 472 918 472 965 L472 965 Z " />
<glyph glyph-name="fdotaccent" unicode="&#x1e1f;" horiz-adv-x="432" d="M412 629 L216 630 L222 642 C222 704 255 742 325 742 C353 742 387 735 412 725 L412 829 C386 839 350 845 315 845 C182 845 106 774 105 650 C104 649 105 643 105 642 L111 630 L30 630 L30 529 L111 529 L105 517 L105 0 L222 0 L222 517 L216 529 L412 529 L412 629 Z M351 976 C351 1023 326 1056 277 1056 C230 1056 205 1023 205 976 C205 929 230 896 278 896 C325 896 351 929 351 976 L351 976 Z " />
<glyph glyph-name="Mdotaccent" unicode="&#x1e40;" horiz-adv-x="1000" d="M910 810 L809 810 L541 306 L502 210 L500 210 L460 306 L193 810 L193 810 L90 810 L90 0 L210 0 L210 547 L212 547 L254 444 L498 -11 L501 -11 L744 441 L788 548 L790 548 L790 0 L910 0 L910 810 Z M573 965 C573 1012 548 1045 499 1045 C452 1045 427 1012 427 965 C427 918 452 885 500 885 C547 885 573 918 573 965 L573 965 Z " />
<glyph glyph-name="mdotaccent" unicode="&#x1e41;" horiz-adv-x="1030" d="M945 372 C945 545 873 640 726 640 C649 640 579 595 541 535 C541 535 540 536 539 535 C509 595 444 640 364 640 C304 640 244 611 209 567 L208 567 L208 630 L90 630 L90 0 L208 0 L208 376 C208 469 265 535 342 535 C438 535 458 471 458 372 L458 0 L576 0 L576 377 C575 461 620 535 710 535 C813 535 827 462 827 349 L827 0 L944 0 L945 372 L945 372 Z M591 787 C591 835 566 867 518 867 C471 867 445 834 445 787 C445 740 470 707 518 707 C566 707 591 740 591 787 L591 787 Z " />
<glyph glyph-name="Pdotaccent" unicode="&#x1e56;" horiz-adv-x="797" d="M629 556 C629 472 580 412 472 412 L198 412 L210 424 L210 687 L198 699 L472 699 C581 699 629 642 629 556 L629 556 Z M752 556 C752 704 651 810 472 810 L90 810 L90 0 L210 0 L210 289 L198 301 L472 301 C651 301 752 413 752 556 L752 556 Z M463 965 C463 1012 438 1045 390 1045 C342 1045 317 1012 317 965 C317 918 342 885 390 885 C437 885 463 918 463 965 L463 965 Z " />
<glyph glyph-name="pdotaccent" unicode="&#x1e57;" horiz-adv-x="753" d="M581 313 C581 187 528 95 390 95 C251 95 199 186 199 313 C199 439 253 535 390 535 C529 535 581 439 581 313 L581 313 Z M698 315 C698 502 599 640 399 640 C318 640 251 612 209 565 L207 565 L207 630 L90 630 L90 -210 L207 -210 L207 65 L209 65 C254 15 320 -10 399 -10 C601 -10 698 127 698 315 L698 315 Z M466 787 C466 835 441 867 393 867 C346 867 320 834 320 787 C320 740 345 707 393 707 C441 707 466 740 466 787 L466 787 Z " />
<glyph glyph-name="Sdotaccent" unicode="&#x1e60;" horiz-adv-x="798" d="M748 225 C748 324 677 407 514 448 C495 453 400 479 383 483 C246 520 196 549 196 599 C196 653 253 709 403 709 C506 709 582 670 639 603 L727 690 C647 774 535 820 403 820 C179 820 73 713 73 595 C73 471 181 418 328 378 C346 373 460 344 477 339 C586 311 625 264 625 219 C625 156 558 101 409 101 C309 101 232 132 139 214 L50 128 C143 31 280 -10 413 -10 C654 -10 748 107 748 225 L748 225 Z M471 965 C471 1012 446 1045 398 1045 C350 1045 325 1012 325 965 C325 918 350 885 398 885 C445 885 471 918 471 965 L471 965 Z " />
<glyph glyph-name="sdotaccent" unicode="&#x1e61;" horiz-adv-x="661" d="M606 178 C606 264 550 322 422 356 C408 359 334 381 321 385 C227 410 191 428 191 462 C191 491 226 535 334 535 C406 535 463 508 511 453 L591 533 C521 606 434 640 334 640 C161 640 73 557 73 459 C73 356 164 312 274 282 C288 278 373 254 386 251 C472 229 488 205 488 174 C488 137 449 94 338 94 C268 94 211 115 135 182 L55 101 C136 19 241 -11 341 -11 C528 -11 606 81 606 178 L606 178 Z M406 787 C406 835 381 867 333 867 C285 867 260 834 260 787 C260 740 285 707 333 707 C380 707 406 740 406 787 L406 787 Z " />
<glyph glyph-name="Tdotaccent" unicode="&#x1e6a;" horiz-adv-x="730" d="M710 810 L20 810 L20 699 L312 699 L305 687 L305 0 L425 0 L425 687 L419 699 L710 699 L710 810 Z M440 965 C440 1012 415 1045 366 1045 C319 1045 294 1012 294 965 C294 918 319 885 367 885 C414 885 440 918 440 965 L440 965 Z " />
<glyph glyph-name="tdotaccent" unicode="&#x1e6b;" horiz-adv-x="493" d="M406 143 C365 107 337 95 298 95 C250 95 219 128 219 194 L219 517 L213 529 L411 529 L411 630 L213 630 L219 642 L219 798 L102 735 L102 642 L109 630 L30 630 L30 529 L109 529 L102 517 L102 195 C102 67 172 -10 293 -10 C360 -10 416 13 484 65 L406 143 Z M236 909 C236 956 211 989 162 989 C115 989 90 956 90 909 C90 862 115 829 163 829 C210 829 236 862 236 909 L236 909 Z " />
<glyph glyph-name="Wgrave" unicode="&#x1e80;" horiz-adv-x="1077" d="M926 810 L771 233 L757 152 L755 152 L742 233 L585 810 L493 810 L337 233 L322 151 L320 151 L307 233 L153 810 L25 810 L248 0 L389 0 L521 490 L536 582 L538 582 L554 490 L686 0 L829 0 L1052 810 L926 810 Z M485 1130 L407 1053 L615 875 L663 923 L485 1130 Z " />
<glyph glyph-name="wgrave" unicode="&#x1e81;" horiz-adv-x="915" d="M778 630 L661 220 L649 141 L647 141 L633 220 L507 630 L409 630 L283 220 L270 141 L268 141 L255 220 L139 630 L15 630 L201 0 L328 0 L442 350 L457 434 L459 434 L474 350 L586 0 L714 0 L900 630 L778 630 Z M401 951 L324 873 L532 695 L579 743 L401 951 Z " />
<glyph glyph-name="Wacute" unicode="&#x1e82;" horiz-adv-x="1077" d="M926 810 L771 233 L757 152 L755 152 L742 233 L585 810 L493 810 L337 233 L322 151 L320 151 L307 233 L153 810 L25 810 L248 0 L389 0 L521 490 L536 582 L538 582 L554 490 L686 0 L829 0 L1052 810 L926 810 Z M600 1129 L422 922 L470 874 L678 1052 L600 1129 Z " />
<glyph glyph-name="wacute" unicode="&#x1e83;" horiz-adv-x="915" d="M778 630 L661 220 L649 141 L647 141 L633 220 L507 630 L409 630 L283 220 L270 141 L268 141 L255 220 L139 630 L15 630 L201 0 L328 0 L442 350 L457 434 L459 434 L474 350 L586 0 L714 0 L900 630 L778 630 Z M510 951 L333 743 L380 695 L588 873 L510 951 Z " />
<glyph glyph-name="Wdieresis" unicode="&#x1e84;" horiz-adv-x="1077" d="M926 810 L771 233 L757 152 L755 152 L742 233 L585 810 L493 810 L337 233 L322 151 L320 151 L307 233 L153 810 L25 810 L248 0 L389 0 L521 490 L536 582 L538 582 L554 490 L686 0 L829 0 L1052 810 L926 810 Z M481 971 C481 1013 459 1042 416 1042 C374 1042 352 1013 352 971 C352 929 374 900 417 900 C459 900 481 929 481 971 L481 971 Z M725 971 C725 1013 703 1042 660 1042 C618 1042 596 1013 596 971 C596 929 618 900 661 900 C703 900 725 929 725 971 L725 971 Z " />
<glyph glyph-name="wdieresis" unicode="&#x1e85;" horiz-adv-x="915" d="M778 630 L661 220 L649 141 L647 141 L633 220 L507 630 L409 630 L283 220 L270 141 L268 141 L255 220 L139 630 L15 630 L201 0 L328 0 L442 350 L457 434 L459 434 L474 350 L586 0 L714 0 L900 630 L778 630 Z M398 778 C398 821 376 849 333 849 C291 849 269 820 269 778 C269 736 291 707 333 707 C375 707 398 736 398 778 L398 778 Z M642 778 C642 821 620 849 577 849 C535 849 513 820 513 778 C513 736 535 707 577 707 C619 707 642 736 642 778 L642 778 Z " />
<glyph glyph-name="Ygrave" unicode="&#x1ef2;" horiz-adv-x="840" d="M675 810 L472 527 L421 439 L419 439 L367 526 L166 810 L15 810 L360 338 L360 0 L481 0 L481 338 L825 810 L675 810 Z M350 1130 L272 1053 L480 875 L528 923 L350 1130 Z " />
<glyph glyph-name="ygrave" unicode="&#x1ef3;" horiz-adv-x="700" d="M555 630 L388 213 L361 128 L359 128 L331 213 L145 630 L15 630 L302 6 C270 -72 233 -107 187 -107 C152 -107 114 -98 69 -74 L69 -186 C110 -207 151 -215 199 -215 C285 -215 355 -156 393 -65 L685 630 L555 630 Z M266 951 L189 873 L397 695 L444 743 L266 951 Z " />
<glyph glyph-name="endash" unicode="&#x2013;" horiz-adv-x="614" d="M584 385 L30 385 L30 275 L584 275 L584 385 Z " />
<glyph glyph-name="emdash" unicode="&#x2014;" horiz-adv-x="889" d="M859 385 L30 385 L30 275 L859 275 L859 385 Z " />
<glyph glyph-name="quoteleft" unicode="&#x2018;" horiz-adv-x="244" d="M45 574 C45 523 71 489 122 489 C172 489 199 524 199 574 C199 621 177 652 130 658 L144 669 L199 801 L142 825 L59 630 C52 614 45 590 45 574 L45 574 Z " />
<glyph glyph-name="quoteright" unicode="&#x2019;" horiz-adv-x="244" d="M199 736 C199 786 173 820 122 820 C72 820 45 786 45 736 C45 688 67 657 114 652 L100 640 L45 508 L102 484 L185 679 C193 696 199 719 199 736 L199 736 Z " />
<glyph glyph-name="quotesinglbase" unicode="&#x201a;" horiz-adv-x="244" d="M199 72 C199 122 173 156 122 156 C72 156 45 122 45 72 C45 24 67 -7 114 -12 L100 -24 L45 -156 L102 -180 L185 15 C193 32 199 55 199 72 L199 72 Z " />
<glyph glyph-name="quotedblleft" unicode="&#x201c;" horiz-adv-x="438" d="M45 574 C45 523 71 489 122 489 C172 489 199 524 199 574 C199 621 177 652 130 658 L144 669 L199 801 L142 825 L59 630 C52 614 45 590 45 574 L45 574 Z M239 574 C239 523 266 489 316 489 C367 489 393 524 393 574 C393 621 372 652 325 658 L338 669 L393 801 L336 825 L253 630 C246 614 239 590 239 574 L239 574 Z " />
<glyph glyph-name="quotedblright" unicode="&#x201d;" horiz-adv-x="438" d="M393 736 C393 786 367 820 316 820 C266 820 239 786 239 736 C239 688 261 657 308 652 L294 640 L239 508 L296 484 L380 679 C387 696 393 719 393 736 L393 736 Z M199 736 C199 786 173 820 122 820 C72 820 45 786 45 736 C45 688 67 657 114 652 L100 640 L45 508 L102 484 L185 679 C193 696 199 719 199 736 L199 736 Z " />
<glyph glyph-name="quotedblbase" unicode="&#x201e;" horiz-adv-x="438" d="M393 73 C393 123 367 157 316 157 C266 157 239 123 239 73 C239 25 261 -6 308 -11 L294 -23 L239 -155 L296 -179 L380 16 C387 33 393 56 393 73 L393 73 Z M199 73 C199 123 173 157 122 157 C72 157 45 123 45 73 C45 25 67 -6 114 -11 L100 -23 L45 -155 L102 -179 L185 16 C193 33 199 56 199 73 L199 73 Z " />
<glyph glyph-name="dagger" unicode="&#x2020;" horiz-adv-x="619" d="M559 593 L354 583 L365 810 L253 810 L264 583 L60 593 L60 481 L265 492 L254 -180 L364 -180 L353 492 L559 481 L559 593 Z " />
<glyph glyph-name="daggerdbl" unicode="&#x2021;" horiz-adv-x="614" d="M559 593 L354 583 L365 809 L253 809 L264 583 L60 593 L60 481 L265 492 L265 137 L59 149 L59 37 L264 47 L253 -179 L365 -179 L354 47 L558 37 L558 149 L353 137 L353 492 L559 481 L559 593 Z " />
<glyph glyph-name="bullet" unicode="&#x2022;" horiz-adv-x="387" d="M297 405 C297 487 231 553 149 553 C67 553 0 487 0 405 C0 322 67 256 149 256 C231 256 297 322 297 405 L297 405 Z " />
<glyph glyph-name="ellipsis" unicode="&#x2026;" horiz-adv-x="854" d="M214 74 C214 125 188 159 137 159 C87 159 60 124 60 74 C60 24 86 -10 137 -10 C187 -10 214 24 214 74 L214 74 Z M499 74 C499 125 473 159 422 159 C372 159 345 124 345 74 C345 24 371 -10 422 -10 C472 -10 499 24 499 74 L499 74 Z M784 74 C784 125 758 159 707 159 C657 159 630 124 630 74 C630 24 656 -10 707 -10 C757 -10 784 24 784 74 L784 74 Z " />
<glyph glyph-name="perthousand" unicode="&#x2030;" horiz-adv-x="1329" d="M282 592 C282 504 255 463 199 463 C143 463 116 507 116 592 C116 679 142 726 199 726 C259 726 282 678 282 592 L282 592 Z M780 214 C780 126 753 84 696 84 C640 84 614 129 614 214 C614 301 639 348 697 348 C756 348 780 299 780 214 L780 214 Z M1195 214 C1195 126 1168 84 1111 84 C1055 84 1029 129 1029 214 C1029 301 1054 348 1112 348 C1171 348 1195 299 1195 214 L1195 214 Z M383 592 C383 717 323 821 199 821 C77 821 15 717 15 592 C15 466 75 368 199 368 C324 368 383 466 383 592 L383 592 Z M544 820 L254 -10 L353 -10 L643 820 L544 820 Z M881 214 C881 339 820 442 697 442 C575 442 513 339 513 214 C513 88 572 -11 697 -11 C822 -11 881 88 881 214 L881 214 Z M1296 214 C1296 339 1235 442 1112 442 C990 442 928 339 928 214 C928 88 987 -11 1112 -11 C1237 -11 1296 88 1296 214 L1296 214 Z " />
<glyph glyph-name="guilsinglleft" unicode="&#x2039;" horiz-adv-x="399" d="M255 212 C255 212 208 249 200 253 C200 254 199 255 199 255 L255 298 L344 387 L267 465 L55 255 L267 45 L344 123 L255 212 Z " />
<glyph glyph-name="guilsinglright" unicode="&#x203a;" horiz-adv-x="399" d="M132 465 L55 387 L128 314 L173 274 L200 254 C192 249 144 212 144 212 L55 123 L132 45 L344 255 L132 465 Z " />
<glyph glyph-name="fraction" unicode="&#x2044;" horiz-adv-x="283" d="M241 820 L-50 -10 L41 -10 L333 820 L241 820 Z " />
<glyph glyph-name="tironianet" unicode="&#x204a;" horiz-adv-x="496" d="M441 630 L35 630 L35 525 L320 525 L290 462 L247 338 C234 301 226 243 226 187 L226 -1 L340 -1 L340 177 C340 226 346 277 357 309 L441 548 L441 630 Z " />
<glyph glyph-name="Euro" unicode="&#x20ac;" horiz-adv-x="745" d="M685 693 C626 780 538 820 430 820 C272 820 163 717 123 556 L128 545 L40 545 L40 446 L113 446 L106 435 C105 424 105 412 105 400 C105 392 105 383 105 375 L112 364 L40 364 L40 265 L125 265 L121 254 C157 93 265 -10 429 -10 C535 -10 624 31 684 118 L604 200 C566 135 509 99 429 99 C331 99 269 162 241 254 L232 265 L516 265 L516 364 L215 364 L221 375 C221 383 221 392 221 400 C221 412 221 424 222 435 L215 446 L516 446 L516 545 L234 545 L244 556 C274 647 337 711 430 711 C510 711 568 674 604 609 L685 693 L685 693 Z " />
<glyph glyph-name="indianrupeesign" unicode="&#x20b9;" horiz-adv-x="766" d="M140 810 L71 717 L266 717 C333 717 382 685 404 637 L140 637 L70 543 L424 543 C412 481 354 430 255 430 L154 430 L154 329 L188 329 C291 329 348 289 385 214 L489 0 L624 0 L494 263 C470 312 430 345 398 360 L398 362 C477 390 537 457 546 543 L628 543 L693 637 L541 637 C535 665 522 694 503 717 L627 717 L696 810 L140 810 Z " />
<glyph glyph-name="careof" unicode="&#x2105;" horiz-adv-x="1076" d="M924 216 C924 135 889 79 807 79 C725 79 689 135 689 216 C689 299 724 354 806 354 C888 354 924 298 924 216 L924 216 Z M379 505 C342 465 311 452 270 452 C186 452 151 510 151 587 C151 667 192 727 271 727 C311 727 343 714 375 681 L442 748 C395 798 341 820 270 820 C132 820 55 716 55 587 C55 460 124 359 269 359 C336 359 393 381 448 438 L379 505 Z M629 820 L339 -10 L436 -10 L726 820 L629 820 Z M1021 217 C1021 348 950 447 806 447 C663 447 592 347 592 217 C592 86 663 -14 806 -14 C949 -14 1021 87 1021 217 L1021 217 Z " />
<glyph glyph-name="numero" unicode="&#x2116;" horiz-adv-x="1443" d="M1243 435 C1243 324 1203 245 1087 245 C971 245 930 324 930 435 C930 547 969 625 1086 625 C1203 625 1243 546 1243 435 L1243 435 Z M740 810 L620 810 L620 196 L618 196 L564 292 L201 810 L90 810 L90 0 L210 0 L210 615 L212 615 L268 517 L629 0 L740 0 L740 810 Z M1310 92 L863 92 L863 0 L1310 0 L1310 92 Z M1353 435 C1353 603 1273 727 1086 727 C900 727 820 601 820 435 C820 268 900 142 1086 142 C1271 142 1353 269 1353 435 L1353 435 Z " />
<glyph glyph-name="trademark" unicode="&#x2122;" horiz-adv-x="855" d="M378 809 L30 809 L30 756 L176 756 L175 751 L175 404 L233 404 L232 756 L378 756 L378 809 Z M825 809 L774 809 L648 562 L627 519 L621 506 L606 543 L470 806 L469 809 L418 809 L418 404 L475 404 L475 676 L476 677 L492 638 L617 399 L625 399 L736 611 L762 667 L767 677 L767 404 L825 404 L825 809 Z " />
<glyph glyph-name="Omega" unicode="&#x2126;" horiz-adv-x="887" d="M824 110 C824 110 715 110 694 107 C693 107 693 108 693 108 C784 189 822 290 822 414 C822 623 663 819 444 819 C224 819 62 624 62 413 C62 292 110 186 195 112 C196 112 196 110 196 110 L63 110 L63 0 L386 0 L386 97 C246 136 174 274 174 410 C174 569 280 703 445 703 C602 703 711 563 711 411 C711 268 645 147 502 98 L502 0 L824 0 L824 110 Z " />
<glyph glyph-name="onethird" unicode="&#x2153;" horiz-adv-x="843" d="M222 810 L148 810 L30 694 L88 636 L110 659 L128 681 L144 702 L137 655 L137 355 L222 355 L222 810 Z M446 820 L154 -10 L246 -10 L537 820 L446 820 Z M788 131 C788 181 760 217 720 234 L720 236 C753 255 780 291 780 328 C780 396 726 454 609 454 C540 454 484 432 433 376 L496 314 C531 356 561 373 608 373 C680 373 693 346 693 329 C693 311 680 280 615 273 C602 272 542 270 542 270 L542 194 C542 194 601 193 618 192 C680 186 702 159 702 129 C702 107 681 71 608 71 C558 71 528 90 492 133 L429 71 C480 15 535 -10 608 -10 C731 -10 788 62 788 131 L788 131 Z " />
<glyph glyph-name="twothirds" unicode="&#x2154;" horiz-adv-x="990" d="M379 685 C379 751 330 815 222 815 C158 815 105 792 55 733 L118 670 C154 718 183 732 221 732 C280 732 292 706 292 685 C292 665 282 647 225 627 L170 608 C90 579 57 511 57 446 L57 361 L379 361 L379 444 L135 444 L142 452 L143 454 C155 484 163 514 199 527 L263 549 C344 578 379 623 379 685 L379 685 Z M593 820 L301 -10 L393 -10 L684 820 L593 820 Z M935 131 C935 181 907 217 867 234 L867 236 C900 255 927 291 927 328 C927 396 873 454 756 454 C687 454 631 432 580 376 L643 314 C678 356 708 373 755 373 C827 373 840 346 840 329 C840 311 827 280 763 273 C749 272 689 270 689 270 L689 194 C689 194 748 193 765 192 C827 186 849 159 849 129 C849 107 828 71 755 71 C705 71 675 90 639 133 L576 71 C627 15 682 -10 755 -10 C878 -10 935 62 935 131 L935 131 Z " />
<glyph glyph-name="partialdiff" unicode="&#x2202;" horiz-adv-x="653" d="M475 288 C475 175 431 92 323 92 C216 92 171 176 171 288 C171 402 214 485 323 485 C431 485 475 402 475 288 L475 288 Z M598 368 C598 585 574 845 323 845 C238 845 170 821 87 749 L169 669 C222 722 276 736 323 736 C401 736 475 680 491 523 C449 561 378 584 323 584 C143 584 55 462 55 292 C55 123 143 -8 323 -8 C524 -8 598 146 598 368 L598 368 Z " />
<glyph glyph-name="Delta" unicode="&#x2206;" horiz-adv-x="913" d="M205 111 L217 122 L418 577 L444 640 L454 667 L477 604 L696 123 L709 111 L205 111 Z M503 810 L401 810 L40 0 L873 0 L503 810 Z " />
<glyph glyph-name="product" unicode="&#x220f;" horiz-adv-x="830" d="M775 809 L55 809 L55 698 L162 698 L156 686 L156 -211 L271 -211 L271 686 L265 698 L565 698 L559 686 L559 -211 L674 -211 L674 686 L668 698 L775 698 L775 809 Z " />
<glyph glyph-name="summation" unicode="&#x2211;" horiz-adv-x="747" d="M691 -99 L209 -98 L272 -33 L564 319 L272 642 L211 700 L679 699 L679 809 L55 809 L55 709 C55 709 388 345 410 323 C410 322 411 321 411 321 L55 -109 L55 -210 L692 -210 L691 -99 Z " />
<glyph glyph-name="minus" unicode="&#x2212;" horiz-adv-x="685" d="M595 460 L90 460 L90 350 L595 350 L595 460 Z " />
<glyph glyph-name="radical" unicode="&#x221a;" horiz-adv-x="655" d="M542 919 C542 919 337 145 318 57 C318 57 317 57 317 56 L211 398 L0 398 L0 291 L129 291 L132 285 L252 -91 L385 -91 L655 919 L542 919 Z " />
<glyph glyph-name="infinity" unicode="&#x221e;" horiz-adv-x="875" d="M386 409 C361 367 309 302 251 302 C194 302 152 353 152 408 C152 464 192 514 250 514 C304 514 354 453 386 409 L386 409 Z M724 408 C724 352 683 302 625 302 C595 302 571 317 549 340 C538 351 528 364 518 378 C511 389 504 401 497 411 C504 421 511 432 519 442 C528 455 538 468 549 479 C570 499 594 514 625 514 C682 514 724 464 724 408 L724 408 Z M815 409 C815 519 746 601 634 601 C548 601 491 550 435 474 C380 545 322 601 241 601 C131 601 60 516 60 409 C60 299 129 215 241 215 C323 215 385 272 442 343 C496 270 554 215 636 215 C746 215 815 301 815 409 L815 409 Z " />
<glyph glyph-name="integral" unicode="&#x222b;" horiz-adv-x="463" d="M447 909 C420 925 392 933 363 933 C245 933 190 862 186 756 C185 728 184 710 184 668 L184 65 C184 15 183 -14 182 -25 C175 -81 145 -111 86 -111 C75 -111 63 -109 37 -102 L15 -180 C50 -188 76 -192 98 -192 C217 -192 261 -129 275 -52 C278 -33 280 14 280 90 L280 627 C280 724 281 759 282 766 C289 822 316 846 373 846 C386 846 400 843 425 831 L447 909 L447 909 Z " />
<glyph glyph-name="approxequal" unicode="&#x2248;" horiz-adv-x="685" d="M545 395 C532 350 503 309 454 309 C393 309 317 392 239 392 C157 392 94 335 76 270 L141 205 C154 251 184 290 230 290 C296 290 367 208 446 208 C524 208 588 257 610 329 L545 395 Z M545 603 C532 558 503 517 454 517 C393 517 317 600 239 600 C157 600 94 543 76 478 L141 413 C154 459 184 498 230 498 C296 498 367 416 446 416 C524 416 588 465 610 537 L545 603 Z " />
<glyph glyph-name="notequal" unicode="&#x2260;" horiz-adv-x="685" d="M595 344 L364 344 L376 357 L425 454 L422 466 L595 466 L595 575 L479 575 L491 586 L543 689 L432 689 L380 587 L382 575 L90 575 L90 466 L326 466 L314 454 L265 358 L269 344 L90 344 L90 235 L209 235 L197 223 L145 120 L256 120 L307 222 L304 235 L595 235 L595 344 Z " />
<glyph glyph-name="lessequal" unicode="&#x2264;" horiz-adv-x="515" d="M418 134 L60 134 L60 25 L418 25 L418 134 Z M243 443 L201 478 L243 513 L425 700 L349 780 L55 468 L349 176 L425 255 L243 443 Z " />
<glyph glyph-name="greaterequal" unicode="&#x2265;" horiz-adv-x="515" d="M456 134 L98 134 L98 25 L456 25 L456 134 Z M167 780 L90 700 L272 513 L314 478 L272 443 L90 255 L166 176 L460 468 L167 780 Z " />
<glyph glyph-name="lozenge" unicode="&#x25ca;" horiz-adv-x="793" d="M397 144 L190 405 L397 667 L603 405 L397 144 Z M397 843 L53 405 L397 -33 L740 405 L397 843 Z " />
<glyph glyph-name="apple" unicode="&#xf8ff;" horiz-adv-x="827" d="M25 407 L306 810 L0 810 L0 0 L308 0 L25 407 Z M827 810 L644 810 L364 407 L646 0 L827 0 L827 810 Z " />
<glyph glyph-name="fi" unicode="&#xfb01;" horiz-adv-x="728" d="M638 506 L638 629 L638 630 L216 630 L222 642 C222 704 255 742 325 742 C353 742 387 735 412 725 L412 829 C386 839 351 845 316 845 C183 845 106 773 105 650 C104 649 105 643 105 642 L111 630 L30 630 L30 529 L111 529 L105 517 L105 0 L222 0 L222 517 L216 529 L521 529 L521 0 L638 0 L638 506 Z M650 772 C650 815 624 846 580 846 C536 846 510 814 510 772 C510 729 536 698 580 698 C623 698 650 730 650 772 L650 772 Z " />
<glyph glyph-name="fl" unicode="&#xfb02;" horiz-adv-x="723" d="M633 840 L319 839 C183 839 106 763 105 650 C104 649 105 643 105 642 L111 630 L30 630 L30 529 L111 529 L105 517 L105 0 L222 0 L222 517 L216 529 L412 529 L412 630 L216 630 L221 641 L221 647 C221 715 280 737 325 737 L516 736 L516 0 L633 0 L633 840 Z " />
</font>
</svg>
